midi.Pattern(format=1, resolution=480, tracks=\
[midi.Track(\
  [midi.ChannelPrefixEvent(tick=0, data=[0]),
   midi.TrackNameEvent(tick=0, text="My Heart Will Go On (Iz Filma 'Titanik') 02 (Karaoke)", data=[77, 121, 32, 72, 101, 97, 114, 116, 32, 87, 105, 108, 108, 32, 71, 111, 32, 79, 110, 32, 40, 73, 122, 32, 70, 105, 108, 109, 97, 32, 39, 84, 105, 116, 97, 110, 105, 107, 39, 41, 32, 48, 50, 32, 40, 75, 97, 114, 97, 111, 107, 101, 41]),
   midi.InstrumentNameEvent(tick=0, text='\xe6\x96\xbd\xe5\x9d\xa6\xe5\xa8\x81\xe5\xa4\xa7\xe9\x92\xa2\xe7\x90\xb4', data=[230, 150, 189, 229, 157, 166, 229, 168, 129, 229, 164, 167, 233, 146, 162, 231, 144, 180]),
   midi.ControlChangeEvent(tick=175, channel=0, data=[121, 0]),
   midi.ProgramChangeEvent(tick=308, channel=0, data=[5]),
   midi.ControlChangeEvent(tick=1, channel=0, data=[7, 100]),
   midi.ControlChangeEvent(tick=0, channel=0, data=[10, 44]),
   midi.ControlChangeEvent(tick=11, channel=0, data=[91, 90]),
   midi.ControlChangeEvent(tick=5, channel=0, data=[93, 70]),
   midi.ControlChangeEvent(tick=11, channel=0, data=[11, 127]),
   midi.ControlChangeEvent(tick=453, channel=0, data=[100, 0]),
   midi.ControlChangeEvent(tick=4, channel=0, data=[101, 0]),
   midi.ControlChangeEvent(tick=3, channel=0, data=[6, 2]),
   midi.NoteOnEvent(tick=2879, channel=0, data=[49, 63]),
   midi.NoteOnEvent(tick=0, channel=0, data=[64, 59]),
   midi.ControlChangeEvent(tick=81, channel=0, data=[64, 127]),
   midi.NoteOnEvent(tick=153, channel=0, data=[71, 70]),
   midi.NoteOnEvent(tick=5, channel=0, data=[56, 63]),
   midi.NoteOnEvent(tick=237, channel=0, data=[76, 55]),
   midi.NoteOnEvent(tick=7, channel=0, data=[61, 61]),
   midi.NoteOnEvent(tick=7, channel=0, data=[56, 0]),
   midi.NoteOnEvent(tick=151, channel=0, data=[76, 0]),
   midi.NoteOnEvent(tick=77, channel=0, data=[56, 55]),
   midi.NoteOnEvent(tick=0, channel=0, data=[76, 64]),
   midi.NoteOnEvent(tick=5, channel=0, data=[61, 0]),
   midi.NoteOnEvent(tick=45, channel=0, data=[71, 0]),
   midi.NoteOnEvent(tick=181, channel=0, data=[56, 0]),
   midi.NoteOnEvent(tick=12, channel=0, data=[61, 57]),
   midi.NoteOnEvent(tick=229, channel=0, data=[71, 77]),
   midi.NoteOnEvent(tick=11, channel=0, data=[56, 55]),
   midi.NoteOnEvent(tick=3, channel=0, data=[61, 0]),
   midi.NoteOnEvent(tick=240, channel=0, data=[56, 0]),
   midi.NoteOnEvent(tick=0, channel=0, data=[61, 59]),
   midi.NoteOnEvent(tick=56, channel=0, data=[49, 0]),
   midi.NoteOnEvent(tick=14, channel=0, data=[61, 0]),
   midi.NoteOnEvent(tick=337, channel=0, data=[64, 0]),
   midi.NoteOnEvent(tick=59, channel=0, data=[64, 57]),
   midi.NoteOnEvent(tick=0, channel=0, data=[71, 0]),
   midi.NoteOnEvent(tick=9, channel=0, data=[47, 68]),
   midi.ControlChangeEvent(tick=54, channel=0, data=[64, 0]),
   midi.NoteOnEvent(tick=20, channel=0, data=[76, 0]),
   midi.NoteOnEvent(tick=165, channel=0, data=[54, 56]),
   midi.NoteOnEvent(tick=5, channel=0, data=[71, 66]),
   midi.ControlChangeEvent(tick=45, channel=0, data=[64, 127]),
   midi.NoteOnEvent(tick=186, channel=0, data=[76, 63]),
   midi.NoteOnEvent(tick=2, channel=0, data=[54, 0]),
   midi.NoteOnEvent(tick=2, channel=0, data=[59, 67]),
   midi.NoteOnEvent(tick=142, channel=0, data=[76, 0]),
   midi.NoteOnEvent(tick=14, channel=0, data=[71, 0]),
   midi.NoteOnEvent(tick=77, channel=0, data=[54, 61]),
   midi.NoteOnEvent(tick=2, channel=0, data=[76, 55]),
   midi.NoteOnEvent(tick=5, channel=0, data=[59, 0]),
   midi.NoteOnEvent(tick=240, channel=0, data=[59, 68]),
   midi.NoteOnEvent(tick=18, channel=0, data=[54, 0]),
   midi.NoteOnEvent(tick=203, channel=0, data=[71, 70]),
   midi.NoteOnEvent(tick=14, channel=0, data=[59, 0]),
   midi.NoteOnEvent(tick=2, channel=0, data=[54, 65]),
   midi.NoteOnEvent(tick=246, channel=0, data=[59, 75]),
   midi.NoteOnEvent(tick=4, channel=0, data=[54, 0]),
   midi.NoteOnEvent(tick=50, channel=0, data=[47, 0]),
   midi.NoteOnEvent(tick=34, channel=0, data=[59, 0]),
   midi.NoteOnEvent(tick=207, channel=0, data=[64, 0]),
   midi.NoteOnEvent(tick=137, channel=0, data=[71, 0]),
   midi.NoteOnEvent(tick=42, channel=0, data=[45, 68]),
   midi.NoteOnEvent(tick=1, channel=0, data=[64, 59]),
   midi.ControlChangeEvent(tick=8, channel=0, data=[64, 0]),
   midi.NoteOnEvent(tick=10, channel=0, data=[76, 0]),
   midi.NoteOnEvent(tick=217, channel=0, data=[52, 73]),
   midi.NoteOnEvent(tick=7, channel=0, data=[71, 64]),
   midi.ControlChangeEvent(tick=13, channel=0, data=[64, 127]),
   midi.NoteOnEvent(tick=220, channel=0, data=[76, 66]),
   midi.NoteOnEvent(tick=5, channel=0, data=[57, 64]),
   midi.NoteOnEvent(tick=39, channel=0, data=[52, 0]),
   midi.NoteOnEvent(tick=15, channel=0, data=[71, 0]),
   midi.NoteOnEvent(tick=124, channel=0, data=[76, 0]),
   midi.NoteOnEvent(tick=60, channel=0, data=[52, 75]),
   midi.NoteOnEvent(tick=0, channel=0, data=[57, 0]),
   midi.NoteOnEvent(tick=0, channel=0, data=[76, 66]),
   midi.NoteOnEvent(tick=242, channel=0, data=[57, 63]),
   midi.NoteOnEvent(tick=30, channel=0, data=[52, 0]),
   midi.NoteOnEvent(tick=194, channel=0, data=[71, 70]),
   midi.NoteOnEvent(tick=18, channel=0, data=[52, 67]),
   midi.NoteOnEvent(tick=10, channel=0, data=[57, 0]),
   midi.NoteOnEvent(tick=235, channel=0, data=[57, 67]),
   midi.NoteOnEvent(tick=30, channel=0, data=[52, 0]),
   midi.NoteOnEvent(tick=18, channel=0, data=[45, 0]),
   midi.NoteOnEvent(tick=30, channel=0, data=[57, 0]),
   midi.NoteOnEvent(tick=349, channel=0, data=[64, 0]),
   midi.NoteOnEvent(tick=39, channel=0, data=[47, 68]),
   midi.NoteOnEvent(tick=9, channel=0, data=[71, 0]),
   midi.NoteOnEvent(tick=1, channel=0, data=[64, 63]),
   midi.ControlChangeEvent(tick=2, channel=0, data=[64, 0]),
   midi.NoteOnEvent(tick=3, channel=0, data=[76, 0]),
   midi.NoteOnEvent(tick=222, channel=0, data=[54, 61]),
   midi.NoteOnEvent(tick=13, channel=0, data=[71, 64]),
   midi.ControlChangeEvent(tick=9, channel=0, data=[64, 127]),
   midi.NoteOnEvent(tick=211, channel=0, data=[54, 0]),
   midi.NoteOnEvent(tick=9, channel=0, data=[59, 71]),
   midi.NoteOnEvent(tick=3, channel=0, data=[76, 62]),
   midi.NoteOnEvent(tick=88, channel=0, data=[71, 0]),
   midi.NoteOnEvent(tick=82, channel=0, data=[76, 0]),
   midi.NoteOnEvent(tick=67, channel=0, data=[54, 57]),
   midi.NoteOnEvent(tick=2, channel=0, data=[76, 68]),
   midi.NoteOnEvent(tick=1, channel=0, data=[59, 0]),
   midi.NoteOnEvent(tick=244, channel=0, data=[59, 71]),
   midi.NoteOnEvent(tick=10, channel=0, data=[54, 0]),
   midi.NoteOnEvent(tick=211, channel=0, data=[71, 51]),
   midi.NoteOnEvent(tick=4, channel=0, data=[59, 0]),
   midi.NoteOnEvent(tick=10, channel=0, data=[54, 71]),
   midi.NoteOnEvent(tick=243, channel=0, data=[59, 71]),
   midi.ControlChangeEvent(tick=38, channel=0, data=[64, 0]),
   midi.NoteOnEvent(tick=392, channel=0, data=[59, 0]),
   midi.NoteOnEvent(tick=1, channel=0, data=[64, 0]),
   midi.NoteOnEvent(tick=21, channel=0, data=[54, 0]),
   midi.NoteOnEvent(tick=1, channel=0, data=[47, 0]),
   midi.NoteOnEvent(tick=5, channel=0, data=[76, 0]),
   midi.NoteOnEvent(tick=29, channel=0, data=[49, 63]),
   midi.NoteOnEvent(tick=0, channel=0, data=[64, 59]),
   midi.NoteOnEvent(tick=8, channel=0, data=[71, 0]),
   midi.ControlChangeEvent(tick=73, channel=0, data=[64, 127]),
   midi.NoteOnEvent(tick=153, channel=0, data=[71, 70]),
   midi.NoteOnEvent(tick=5, channel=0, data=[56, 63]),
   midi.NoteOnEvent(tick=237, channel=0, data=[76, 55]),
   midi.NoteOnEvent(tick=7, channel=0, data=[61, 61]),
   midi.NoteOnEvent(tick=7, channel=0, data=[56, 0]),
   midi.NoteOnEvent(tick=151, channel=0, data=[76, 0]),
   midi.NoteOnEvent(tick=77, channel=0, data=[56, 55]),
   midi.NoteOnEvent(tick=0, channel=0, data=[76, 64]),
   midi.NoteOnEvent(tick=5, channel=0, data=[61, 0]),
   midi.NoteOnEvent(tick=45, channel=0, data=[71, 0]),
   midi.NoteOnEvent(tick=181, channel=0, data=[56, 0]),
   midi.NoteOnEvent(tick=12, channel=0, data=[61, 57]),
   midi.NoteOnEvent(tick=229, channel=0, data=[71, 77]),
   midi.NoteOnEvent(tick=11, channel=0, data=[56, 55]),
   midi.NoteOnEvent(tick=3, channel=0, data=[61, 0]),
   midi.NoteOnEvent(tick=240, channel=0, data=[56, 0]),
   midi.NoteOnEvent(tick=0, channel=0, data=[61, 59]),
   midi.NoteOnEvent(tick=56, channel=0, data=[49, 0]),
   midi.NoteOnEvent(tick=14, channel=0, data=[61, 0]),
   midi.NoteOnEvent(tick=337, channel=0, data=[64, 0]),
   midi.NoteOnEvent(tick=59, channel=0, data=[64, 57]),
   midi.NoteOnEvent(tick=0, channel=0, data=[71, 0]),
   midi.NoteOnEvent(tick=9, channel=0, data=[47, 68]),
   midi.ControlChangeEvent(tick=54, channel=0, data=[64, 0]),
   midi.NoteOnEvent(tick=20, channel=0, data=[76, 0]),
   midi.NoteOnEvent(tick=165, channel=0, data=[54, 56]),
   midi.NoteOnEvent(tick=5, channel=0, data=[71, 66]),
   midi.ControlChangeEvent(tick=45, channel=0, data=[64, 127]),
   midi.NoteOnEvent(tick=186, channel=0, data=[76, 63]),
   midi.NoteOnEvent(tick=2, channel=0, data=[54, 0]),
   midi.NoteOnEvent(tick=2, channel=0, data=[59, 67]),
   midi.NoteOnEvent(tick=142, channel=0, data=[76, 0]),
   midi.NoteOnEvent(tick=14, channel=0, data=[71, 0]),
   midi.NoteOnEvent(tick=77, channel=0, data=[54, 61]),
   midi.NoteOnEvent(tick=2, channel=0, data=[76, 55]),
   midi.NoteOnEvent(tick=5, channel=0, data=[59, 0]),
   midi.NoteOnEvent(tick=240, channel=0, data=[59, 68]),
   midi.NoteOnEvent(tick=18, channel=0, data=[54, 0]),
   midi.NoteOnEvent(tick=203, channel=0, data=[71, 70]),
   midi.NoteOnEvent(tick=14, channel=0, data=[59, 0]),
   midi.NoteOnEvent(tick=2, channel=0, data=[54, 65]),
   midi.NoteOnEvent(tick=246, channel=0, data=[59, 75]),
   midi.NoteOnEvent(tick=4, channel=0, data=[54, 0]),
   midi.NoteOnEvent(tick=50, channel=0, data=[47, 0]),
   midi.NoteOnEvent(tick=34, channel=0, data=[59, 0]),
   midi.NoteOnEvent(tick=207, channel=0, data=[64, 0]),
   midi.NoteOnEvent(tick=137, channel=0, data=[71, 0]),
   midi.NoteOnEvent(tick=42, channel=0, data=[45, 68]),
   midi.NoteOnEvent(tick=1, channel=0, data=[64, 59]),
   midi.ControlChangeEvent(tick=8, channel=0, data=[64, 0]),
   midi.NoteOnEvent(tick=10, channel=0, data=[76, 0]),
   midi.NoteOnEvent(tick=217, channel=0, data=[52, 73]),
   midi.NoteOnEvent(tick=7, channel=0, data=[71, 64]),
   midi.ControlChangeEvent(tick=13, channel=0, data=[64, 127]),
   midi.NoteOnEvent(tick=220, channel=0, data=[76, 66]),
   midi.NoteOnEvent(tick=5, channel=0, data=[57, 64]),
   midi.NoteOnEvent(tick=39, channel=0, data=[52, 0]),
   midi.NoteOnEvent(tick=15, channel=0, data=[71, 0]),
   midi.NoteOnEvent(tick=124, channel=0, data=[76, 0]),
   midi.NoteOnEvent(tick=60, channel=0, data=[52, 75]),
   midi.NoteOnEvent(tick=0, channel=0, data=[57, 0]),
   midi.NoteOnEvent(tick=0, channel=0, data=[76, 66]),
   midi.NoteOnEvent(tick=242, channel=0, data=[57, 63]),
   midi.NoteOnEvent(tick=30, channel=0, data=[52, 0]),
   midi.NoteOnEvent(tick=194, channel=0, data=[71, 70]),
   midi.NoteOnEvent(tick=18, channel=0, data=[52, 67]),
   midi.NoteOnEvent(tick=10, channel=0, data=[57, 0]),
   midi.NoteOnEvent(tick=235, channel=0, data=[57, 67]),
   midi.NoteOnEvent(tick=30, channel=0, data=[52, 0]),
   midi.NoteOnEvent(tick=18, channel=0, data=[45, 0]),
   midi.NoteOnEvent(tick=30, channel=0, data=[57, 0]),
   midi.NoteOnEvent(tick=349, channel=0, data=[64, 0]),
   midi.NoteOnEvent(tick=39, channel=0, data=[47, 68]),
   midi.NoteOnEvent(tick=9, channel=0, data=[71, 0]),
   midi.NoteOnEvent(tick=1, channel=0, data=[64, 63]),
   midi.ControlChangeEvent(tick=2, channel=0, data=[64, 0]),
   midi.NoteOnEvent(tick=3, channel=0, data=[76, 0]),
   midi.NoteOnEvent(tick=222, channel=0, data=[54, 61]),
   midi.NoteOnEvent(tick=13, channel=0, data=[71, 64]),
   midi.ControlChangeEvent(tick=9, channel=0, data=[64, 127]),
   midi.NoteOnEvent(tick=211, channel=0, data=[54, 0]),
   midi.NoteOnEvent(tick=9, channel=0, data=[59, 71]),
   midi.NoteOnEvent(tick=3, channel=0, data=[76, 62]),
   midi.NoteOnEvent(tick=88, channel=0, data=[71, 0]),
   midi.NoteOnEvent(tick=82, channel=0, data=[76, 0]),
   midi.NoteOnEvent(tick=67, channel=0, data=[54, 57]),
   midi.NoteOnEvent(tick=2, channel=0, data=[76, 68]),
   midi.NoteOnEvent(tick=1, channel=0, data=[59, 0]),
   midi.NoteOnEvent(tick=244, channel=0, data=[59, 71]),
   midi.NoteOnEvent(tick=10, channel=0, data=[54, 0]),
   midi.NoteOnEvent(tick=211, channel=0, data=[71, 51]),
   midi.NoteOnEvent(tick=4, channel=0, data=[59, 0]),
   midi.NoteOnEvent(tick=10, channel=0, data=[54, 71]),
   midi.NoteOnEvent(tick=243, channel=0, data=[59, 71]),
   midi.ControlChangeEvent(tick=38, channel=0, data=[64, 0]),
   midi.NoteOnEvent(tick=392, channel=0, data=[59, 0]),
   midi.NoteOnEvent(tick=1, channel=0, data=[64, 0]),
   midi.NoteOnEvent(tick=21, channel=0, data=[54, 0]),
   midi.NoteOnEvent(tick=1, channel=0, data=[47, 0]),
   midi.NoteOnEvent(tick=5, channel=0, data=[76, 0]),
   midi.NoteOnEvent(tick=19, channel=0, data=[40, 61]),
   midi.NoteOnEvent(tick=0, channel=0, data=[54, 55]),
   midi.NoteOnEvent(tick=18, channel=0, data=[71, 0]),
   midi.ControlChangeEvent(tick=10, channel=0, data=[64, 127]),
   midi.NoteOnEvent(tick=212, channel=0, data=[56, 55]),
   midi.NoteOnEvent(tick=240, channel=0, data=[52, 58]),
   midi.NoteOnEvent(tick=0, channel=0, data=[59, 75]),
   midi.NoteOnEvent(tick=240, channel=0, data=[64, 58]),
   midi.NoteOnEvent(tick=126, channel=0, data=[52, 0]),
   midi.NoteOnEvent(tick=139, channel=0, data=[54, 0]),
   midi.NoteOnEvent(tick=196, channel=0, data=[56, 0]),
   midi.NoteOnEvent(tick=19, channel=0, data=[52, 52]),
   midi.NoteOnEvent(tick=0, channel=0, data=[54, 44]),
   midi.ControlChangeEvent(tick=11, channel=0, data=[64, 0]),
   midi.NoteOnEvent(tick=84, channel=0, data=[59, 0]),
   midi.NoteOnEvent(tick=145, channel=0, data=[59, 71]),
   midi.NoteOnEvent(tick=446, channel=0, data=[40, 0]),
   midi.NoteOnEvent(tick=22, channel=0, data=[52, 0]),
   midi.NoteOnEvent(tick=3, channel=0, data=[54, 0]),
   midi.NoteOnEvent(tick=0, channel=0, data=[59, 0]),
   midi.ControlChangeEvent(tick=9, channel=0, data=[64, 127]),
   midi.NoteOnEvent(tick=0, channel=0, data=[52, 51]),
   midi.NoteOnEvent(tick=0, channel=0, data=[54, 30]),
   midi.NoteOnEvent(tick=0, channel=0, data=[59, 73]),
   midi.NoteOnEvent(tick=0, channel=0, data=[63, 67]),
   midi.NoteOnEvent(tick=8, channel=0, data=[64, 0]),
   midi.NoteOnEvent(tick=380, channel=0, data=[63, 0]),
   midi.NoteOnEvent(tick=7, channel=0, data=[59, 0]),
   midi.NoteOnEvent(tick=83, channel=0, data=[54, 0]),
   midi.NoteOnEvent(tick=2, channel=0, data=[59, 67]),
   midi.NoteOnEvent(tick=0, channel=0, data=[64, 61]),
   midi.NoteOnEvent(tick=109, channel=0, data=[59, 0]),
   midi.NoteOnEvent(tick=131, channel=0, data=[59, 71]),
   midi.NoteOnEvent(tick=105, channel=0, data=[59, 0]),
   midi.NoteOnEvent(tick=375, channel=0, data=[59, 68]),
   midi.NoteOnEvent(tick=240, channel=0, data=[54, 38]),
   midi.ControlChangeEvent(tick=21, channel=0, data=[64, 0]),
   midi.NoteOnEvent(tick=48, channel=0, data=[59, 0]),
   midi.NoteOnEvent(tick=171, channel=0, data=[59, 63]),
   midi.NoteOnEvent(tick=180, channel=0, data=[52, 0]),
   midi.NoteOnEvent(tick=30, channel=0, data=[54, 0]),
   midi.NoteOnEvent(tick=0, channel=0, data=[59, 0]),
   midi.NoteOnEvent(tick=0, channel=0, data=[64, 0]),
   midi.NoteOnEvent(tick=30, channel=0, data=[52, 57]),
   midi.NoteOnEvent(tick=0, channel=0, data=[63, 63]),
   midi.ControlChangeEvent(tick=226, channel=0, data=[64, 127]),
   midi.NoteOnEvent(tick=14, channel=0, data=[57, 59]),
   midi.NoteOnEvent(tick=175, channel=0, data=[63, 0]),
   midi.NoteOnEvent(tick=65, channel=0, data=[59, 50]),
   midi.NoteOnEvent(tick=0, channel=0, data=[64, 58]),
   midi.NoteOnEvent(tick=204, channel=0, data=[64, 0]),
   midi.NoteOnEvent(tick=36, channel=0, data=[64, 67]),
   midi.NoteOnEvent(tick=16, channel=0, data=[57, 0]),
   midi.NoteOnEvent(tick=23, channel=0, data=[59, 0]),
   midi.NoteOnEvent(tick=201, channel=0, data=[57, 63]),
   midi.NoteOnEvent(tick=224, channel=0, data=[57, 0]),
   midi.NoteOnEvent(tick=16, channel=0, data=[59, 49]),
   midi.NoteOnEvent(tick=240, channel=0, data=[57, 54]),
   midi.NoteOnEvent(tick=145, channel=0, data=[52, 0]),
   midi.NoteOnEvent(tick=95, channel=0, data=[52, 60]),
   midi.ControlChangeEvent(tick=54, channel=0, data=[64, 0]),
   midi.NoteOnEvent(tick=126, channel=0, data=[64, 0]),
   midi.NoteOnEvent(tick=30, channel=0, data=[52, 0]),
   midi.NoteOnEvent(tick=0, channel=0, data=[59, 0]),
   midi.NoteOnEvent(tick=30, channel=0, data=[52, 66]),
   midi.NoteOnEvent(tick=0, channel=0, data=[57, 0]),
   midi.NoteOnEvent(tick=0, channel=0, data=[64, 71]),
   midi.ControlChangeEvent(tick=136, channel=0, data=[64, 127]),
   midi.NoteOnEvent(tick=104, channel=0, data=[56, 36]),
   midi.NoteOnEvent(tick=240, channel=0, data=[59, 66]),
   midi.NoteOnEvent(tick=28, channel=0, data=[64, 0]),
   midi.NoteOnEvent(tick=128, channel=0, data=[56, 0]),
   midi.NoteOnEvent(tick=33, channel=0, data=[52, 0]),
   midi.NoteOnEvent(tick=51, channel=0, data=[64, 53]),
   midi.NoteOnEvent(tick=4, channel=0, data=[59, 0]),
   midi.NoteOnEvent(tick=174, channel=0, data=[64, 0]),
   midi.NoteOnEvent(tick=62, channel=0, data=[47, 50]),
   midi.NoteOnEvent(tick=0, channel=0, data=[63, 50]),
   midi.ControlChangeEvent(tick=4, channel=0, data=[64, 0]),
   midi.NoteOnEvent(tick=236, channel=0, data=[51, 35]),
   midi.ControlChangeEvent(tick=188, channel=0, data=[64, 127]),
   midi.NoteOnEvent(tick=52, channel=0, data=[54, 45]),
   midi.ControlChangeEvent(tick=199, channel=0, data=[64, 0]),
   midi.NoteOnEvent(tick=41, channel=0, data=[59, 52]),
   midi.NoteOnEvent(tick=219, channel=0, data=[47, 0]),
   midi.NoteOnEvent(tick=12, channel=0, data=[63, 0]),
   midi.NoteOnEvent(tick=9, channel=0, data=[52, 67]),
   midi.NoteOnEvent(tick=0, channel=0, data=[64, 50]),
   midi.NoteOnEvent(tick=9, channel=0, data=[59, 0]),
   midi.NoteOnEvent(tick=6, channel=0, data=[51, 0]),
   midi.NoteOnEvent(tick=15, channel=0, data=[54, 0]),
   midi.NoteOnEvent(tick=210, channel=0, data=[56, 57]),
   midi.ControlChangeEvent(tick=75, channel=0, data=[64, 127]),
   midi.NoteOnEvent(tick=165, channel=0, data=[59, 62]),
   midi.NoteOnEvent(tick=114, channel=0, data=[64, 0]),
   midi.NoteOnEvent(tick=121, channel=0, data=[59, 0]),
   midi.NoteOnEvent(tick=5, channel=0, data=[64, 53]),
   midi.NoteOnEvent(tick=51, channel=0, data=[56, 0]),
   midi.NoteOnEvent(tick=124, channel=0, data=[64, 0]),
   midi.NoteOnEvent(tick=65, channel=0, data=[59, 71]),
   midi.NoteOnEvent(tick=0, channel=0, data=[64, 68]),
   midi.NoteOnEvent(tick=70, channel=0, data=[52, 0]),
   midi.NoteOnEvent(tick=34, channel=0, data=[59, 0]),
   midi.NoteOnEvent(tick=136, channel=0, data=[56, 62]),
   midi.NoteOnEvent(tick=235, channel=0, data=[56, 0]),
   midi.NoteOnEvent(tick=5, channel=0, data=[59, 62]),
   midi.NoteOnEvent(tick=235, channel=0, data=[59, 0]),
   midi.NoteOnEvent(tick=5, channel=0, data=[52, 64]),
   midi.ControlChangeEvent(tick=24, channel=0, data=[64, 0]),
   midi.NoteOnEvent(tick=164, channel=0, data=[64, 0]),
   midi.NoteOnEvent(tick=52, channel=0, data=[54, 55]),
   midi.NoteOnEvent(tick=0, channel=0, data=[63, 59]),
   midi.NoteOnEvent(tick=16, channel=0, data=[52, 0]),
   midi.NoteOnEvent(tick=224, channel=0, data=[59, 75]),
   midi.ControlChangeEvent(tick=50, channel=0, data=[64, 127]),
   midi.NoteOnEvent(tick=146, channel=0, data=[63, 0]),
   midi.NoteOnEvent(tick=44, channel=0, data=[64, 55]),
   midi.NoteOnEvent(tick=184, channel=0, data=[64, 0]),
   midi.NoteOnEvent(tick=56, channel=0, data=[64, 67]),
   midi.NoteOnEvent(tick=190, channel=0, data=[59, 0]),
   midi.NoteOnEvent(tick=13, channel=0, data=[54, 0]),
   midi.NoteOnEvent(tick=277, channel=0, data=[59, 73]),
   midi.NoteOnEvent(tick=61, channel=0, data=[64, 0]),
   midi.NoteOnEvent(tick=179, channel=0, data=[54, 59]),
   midi.NoteOnEvent(tick=14, channel=0, data=[59, 0]),
   midi.NoteOnEvent(tick=226, channel=0, data=[59, 64]),
   midi.ControlChangeEvent(tick=116, channel=0, data=[64, 0]),
   midi.NoteOnEvent(tick=94, channel=0, data=[59, 0]),
   midi.NoteOnEvent(tick=30, channel=0, data=[45, 69]),
   midi.NoteOnEvent(tick=0, channel=0, data=[54, 0]),
   midi.NoteOnEvent(tick=0, channel=0, data=[64, 73]),
   midi.ControlChangeEvent(tick=109, channel=0, data=[64, 127]),
   midi.NoteOnEvent(tick=131, channel=0, data=[57, 57]),
   midi.NoteOnEvent(tick=334, channel=0, data=[64, 0]),
   midi.NoteOnEvent(tick=66, channel=0, data=[57, 0]),
   midi.NoteOnEvent(tick=80, channel=0, data=[57, 55]),
   midi.NoteOnEvent(tick=0, channel=0, data=[64, 67]),
   midi.ControlChangeEvent(tick=29, channel=0, data=[64, 0]),
   midi.ControlChangeEvent(tick=227, channel=0, data=[64, 127]),
   midi.NoteOnEvent(tick=108, channel=0, data=[57, 0]),
   midi.NoteOnEvent(tick=116, channel=0, data=[57, 55]),
   midi.NoteOnEvent(tick=199, channel=0, data=[64, 0]),
   midi.NoteOnEvent(tick=155, channel=0, data=[57, 0]),
   midi.NoteOnEvent(tick=126, channel=0, data=[57, 59]),
   midi.NoteOnEvent(tick=0, channel=0, data=[64, 63]),
   midi.ControlChangeEvent(tick=43, channel=0, data=[64, 0]),
   midi.NoteOnEvent(tick=20, channel=0, data=[45, 0]),
   midi.NoteOnEvent(tick=177, channel=0, data=[45, 51]),
   midi.ControlChangeEvent(tick=9, channel=0, data=[64, 127]),
   midi.NoteOnEvent(tick=231, channel=0, data=[59, 57]),
   midi.NoteOnEvent(tick=98, channel=0, data=[64, 0]),
   midi.NoteOnEvent(tick=55, channel=0, data=[59, 0]),
   midi.NoteOnEvent(tick=87, channel=0, data=[61, 46]),
   midi.NoteOnEvent(tick=145, channel=0, data=[61, 0]),
   midi.NoteOnEvent(tick=95, channel=0, data=[64, 71]),
   midi.NoteOnEvent(tick=171, channel=0, data=[64, 0]),
   midi.NoteOnEvent(tick=69, channel=0, data=[69, 86]),
   midi.NoteOnEvent(tick=220, channel=0, data=[69, 0]),
   midi.NoteOnEvent(tick=20, channel=0, data=[71, 94]),
   midi.ControlChangeEvent(tick=230, channel=0, data=[64, 0]),
   midi.NoteOnEvent(tick=10, channel=0, data=[73, 68]),
   midi.NoteOnEvent(tick=8, channel=0, data=[71, 0]),
   midi.NoteOnEvent(tick=403, channel=0, data=[45, 0]),
   midi.NoteOnEvent(tick=5, channel=0, data=[57, 0]),
   midi.NoteOnEvent(tick=64, channel=0, data=[40, 61]),
   midi.NoteOnEvent(tick=0, channel=0, data=[54, 55]),
   midi.ControlChangeEvent(tick=28, channel=0, data=[64, 127]),
   midi.NoteOnEvent(tick=3, channel=0, data=[73, 0]),
   midi.NoteOnEvent(tick=209, channel=0, data=[56, 55]),
   midi.NoteOnEvent(tick=240, channel=0, data=[52, 58]),
   midi.NoteOnEvent(tick=0, channel=0, data=[59, 75]),
   midi.NoteOnEvent(tick=240, channel=0, data=[64, 58]),
   midi.NoteOnEvent(tick=126, channel=0, data=[52, 0]),
   midi.NoteOnEvent(tick=139, channel=0, data=[54, 0]),
   midi.NoteOnEvent(tick=196, channel=0, data=[56, 0]),
   midi.NoteOnEvent(tick=19, channel=0, data=[52, 52]),
   midi.NoteOnEvent(tick=0, channel=0, data=[54, 44]),
   midi.ControlChangeEvent(tick=11, channel=0, data=[64, 0]),
   midi.NoteOnEvent(tick=84, channel=0, data=[59, 0]),
   midi.NoteOnEvent(tick=145, channel=0, data=[59, 71]),
   midi.NoteOnEvent(tick=446, channel=0, data=[40, 0]),
   midi.NoteOnEvent(tick=22, channel=0, data=[52, 0]),
   midi.NoteOnEvent(tick=3, channel=0, data=[54, 0]),
   midi.NoteOnEvent(tick=0, channel=0, data=[59, 0]),
   midi.ControlChangeEvent(tick=9, channel=0, data=[64, 127]),
   midi.NoteOnEvent(tick=0, channel=0, data=[52, 51]),
   midi.NoteOnEvent(tick=0, channel=0, data=[54, 30]),
   midi.NoteOnEvent(tick=0, channel=0, data=[59, 73]),
   midi.NoteOnEvent(tick=0, channel=0, data=[63, 67]),
   midi.NoteOnEvent(tick=8, channel=0, data=[64, 0]),
   midi.NoteOnEvent(tick=380, channel=0, data=[63, 0]),
   midi.NoteOnEvent(tick=7, channel=0, data=[59, 0]),
   midi.NoteOnEvent(tick=83, channel=0, data=[54, 0]),
   midi.NoteOnEvent(tick=2, channel=0, data=[59, 67]),
   midi.NoteOnEvent(tick=0, channel=0, data=[64, 61]),
   midi.NoteOnEvent(tick=109, channel=0, data=[59, 0]),
   midi.NoteOnEvent(tick=131, channel=0, data=[59, 71]),
   midi.NoteOnEvent(tick=105, channel=0, data=[59, 0]),
   midi.NoteOnEvent(tick=375, channel=0, data=[59, 68]),
   midi.NoteOnEvent(tick=240, channel=0, data=[54, 38]),
   midi.ControlChangeEvent(tick=21, channel=0, data=[64, 0]),
   midi.NoteOnEvent(tick=48, channel=0, data=[59, 0]),
   midi.NoteOnEvent(tick=171, channel=0, data=[59, 63]),
   midi.NoteOnEvent(tick=180, channel=0, data=[52, 0]),
   midi.NoteOnEvent(tick=30, channel=0, data=[54, 0]),
   midi.NoteOnEvent(tick=0, channel=0, data=[59, 0]),
   midi.NoteOnEvent(tick=0, channel=0, data=[64, 0]),
   midi.NoteOnEvent(tick=30, channel=0, data=[52, 57]),
   midi.NoteOnEvent(tick=0, channel=0, data=[63, 63]),
   midi.ControlChangeEvent(tick=226, channel=0, data=[64, 127]),
   midi.NoteOnEvent(tick=14, channel=0, data=[57, 59]),
   midi.NoteOnEvent(tick=175, channel=0, data=[63, 0]),
   midi.NoteOnEvent(tick=65, channel=0, data=[59, 50]),
   midi.NoteOnEvent(tick=0, channel=0, data=[64, 58]),
   midi.NoteOnEvent(tick=204, channel=0, data=[64, 0]),
   midi.NoteOnEvent(tick=36, channel=0, data=[64, 67]),
   midi.NoteOnEvent(tick=16, channel=0, data=[57, 0]),
   midi.NoteOnEvent(tick=23, channel=0, data=[59, 0]),
   midi.NoteOnEvent(tick=201, channel=0, data=[57, 63]),
   midi.NoteOnEvent(tick=224, channel=0, data=[57, 0]),
   midi.NoteOnEvent(tick=16, channel=0, data=[59, 49]),
   midi.NoteOnEvent(tick=240, channel=0, data=[57, 54]),
   midi.NoteOnEvent(tick=145, channel=0, data=[52, 0]),
   midi.NoteOnEvent(tick=95, channel=0, data=[52, 60]),
   midi.ControlChangeEvent(tick=54, channel=0, data=[64, 0]),
   midi.NoteOnEvent(tick=126, channel=0, data=[64, 0]),
   midi.NoteOnEvent(tick=30, channel=0, data=[52, 0]),
   midi.NoteOnEvent(tick=0, channel=0, data=[59, 0]),
   midi.NoteOnEvent(tick=30, channel=0, data=[52, 66]),
   midi.NoteOnEvent(tick=0, channel=0, data=[57, 0]),
   midi.NoteOnEvent(tick=0, channel=0, data=[64, 71]),
   midi.ControlChangeEvent(tick=136, channel=0, data=[64, 127]),
   midi.NoteOnEvent(tick=104, channel=0, data=[56, 36]),
   midi.NoteOnEvent(tick=240, channel=0, data=[59, 66]),
   midi.NoteOnEvent(tick=28, channel=0, data=[64, 0]),
   midi.NoteOnEvent(tick=128, channel=0, data=[56, 0]),
   midi.NoteOnEvent(tick=33, channel=0, data=[52, 0]),
   midi.NoteOnEvent(tick=51, channel=0, data=[64, 53]),
   midi.NoteOnEvent(tick=4, channel=0, data=[59, 0]),
   midi.NoteOnEvent(tick=174, channel=0, data=[64, 0]),
   midi.NoteOnEvent(tick=62, channel=0, data=[47, 50]),
   midi.NoteOnEvent(tick=0, channel=0, data=[63, 50]),
   midi.ControlChangeEvent(tick=4, channel=0, data=[64, 0]),
   midi.NoteOnEvent(tick=236, channel=0, data=[51, 35]),
   midi.ControlChangeEvent(tick=188, channel=0, data=[64, 127]),
   midi.NoteOnEvent(tick=52, channel=0, data=[54, 45]),
   midi.ControlChangeEvent(tick=199, channel=0, data=[64, 0]),
   midi.NoteOnEvent(tick=41, channel=0, data=[59, 52]),
   midi.NoteOnEvent(tick=219, channel=0, data=[47, 0]),
   midi.NoteOnEvent(tick=12, channel=0, data=[63, 0]),
   midi.NoteOnEvent(tick=9, channel=0, data=[52, 67]),
   midi.NoteOnEvent(tick=0, channel=0, data=[64, 50]),
   midi.NoteOnEvent(tick=9, channel=0, data=[59, 0]),
   midi.NoteOnEvent(tick=6, channel=0, data=[51, 0]),
   midi.NoteOnEvent(tick=15, channel=0, data=[54, 0]),
   midi.NoteOnEvent(tick=210, channel=0, data=[56, 57]),
   midi.ControlChangeEvent(tick=75, channel=0, data=[64, 127]),
   midi.NoteOnEvent(tick=165, channel=0, data=[59, 62]),
   midi.NoteOnEvent(tick=114, channel=0, data=[64, 0]),
   midi.NoteOnEvent(tick=121, channel=0, data=[59, 0]),
   midi.NoteOnEvent(tick=5, channel=0, data=[64, 53]),
   midi.NoteOnEvent(tick=51, channel=0, data=[56, 0]),
   midi.NoteOnEvent(tick=124, channel=0, data=[64, 0]),
   midi.NoteOnEvent(tick=65, channel=0, data=[59, 71]),
   midi.NoteOnEvent(tick=0, channel=0, data=[64, 68]),
   midi.NoteOnEvent(tick=70, channel=0, data=[52, 0]),
   midi.NoteOnEvent(tick=34, channel=0, data=[59, 0]),
   midi.NoteOnEvent(tick=136, channel=0, data=[56, 62]),
   midi.NoteOnEvent(tick=235, channel=0, data=[56, 0]),
   midi.NoteOnEvent(tick=5, channel=0, data=[59, 62]),
   midi.NoteOnEvent(tick=235, channel=0, data=[59, 0]),
   midi.NoteOnEvent(tick=5, channel=0, data=[52, 64]),
   midi.ControlChangeEvent(tick=24, channel=0, data=[64, 0]),
   midi.NoteOnEvent(tick=164, channel=0, data=[64, 0]),
   midi.NoteOnEvent(tick=52, channel=0, data=[54, 55]),
   midi.NoteOnEvent(tick=0, channel=0, data=[63, 59]),
   midi.NoteOnEvent(tick=16, channel=0, data=[52, 0]),
   midi.NoteOnEvent(tick=224, channel=0, data=[59, 75]),
   midi.ControlChangeEvent(tick=50, channel=0, data=[64, 127]),
   midi.NoteOnEvent(tick=146, channel=0, data=[63, 0]),
   midi.NoteOnEvent(tick=44, channel=0, data=[64, 55]),
   midi.NoteOnEvent(tick=184, channel=0, data=[64, 0]),
   midi.NoteOnEvent(tick=56, channel=0, data=[64, 67]),
   midi.NoteOnEvent(tick=190, channel=0, data=[59, 0]),
   midi.NoteOnEvent(tick=13, channel=0, data=[54, 0]),
   midi.NoteOnEvent(tick=277, channel=0, data=[59, 73]),
   midi.NoteOnEvent(tick=61, channel=0, data=[64, 0]),
   midi.NoteOnEvent(tick=179, channel=0, data=[54, 59]),
   midi.NoteOnEvent(tick=14, channel=0, data=[59, 0]),
   midi.NoteOnEvent(tick=226, channel=0, data=[59, 64]),
   midi.ControlChangeEvent(tick=116, channel=0, data=[64, 0]),
   midi.NoteOnEvent(tick=94, channel=0, data=[59, 0]),
   midi.NoteOnEvent(tick=30, channel=0, data=[45, 69]),
   midi.NoteOnEvent(tick=0, channel=0, data=[54, 0]),
   midi.NoteOnEvent(tick=0, channel=0, data=[64, 73]),
   midi.ControlChangeEvent(tick=109, channel=0, data=[64, 127]),
   midi.NoteOnEvent(tick=131, channel=0, data=[57, 57]),
   midi.NoteOnEvent(tick=334, channel=0, data=[64, 0]),
   midi.NoteOnEvent(tick=66, channel=0, data=[57, 0]),
   midi.NoteOnEvent(tick=80, channel=0, data=[57, 55]),
   midi.NoteOnEvent(tick=0, channel=0, data=[64, 67]),
   midi.ControlChangeEvent(tick=29, channel=0, data=[64, 0]),
   midi.ControlChangeEvent(tick=227, channel=0, data=[64, 127]),
   midi.NoteOnEvent(tick=108, channel=0, data=[57, 0]),
   midi.NoteOnEvent(tick=116, channel=0, data=[57, 55]),
   midi.NoteOnEvent(tick=199, channel=0, data=[64, 0]),
   midi.NoteOnEvent(tick=155, channel=0, data=[57, 0]),
   midi.NoteOnEvent(tick=126, channel=0, data=[57, 59]),
   midi.NoteOnEvent(tick=0, channel=0, data=[64, 63]),
   midi.ControlChangeEvent(tick=43, channel=0, data=[64, 0]),
   midi.NoteOnEvent(tick=20, channel=0, data=[45, 0]),
   midi.NoteOnEvent(tick=177, channel=0, data=[45, 51]),
   midi.ControlChangeEvent(tick=9, channel=0, data=[64, 127]),
   midi.NoteOnEvent(tick=329, channel=0, data=[64, 0]),
   midi.ControlChangeEvent(tick=1092, channel=0, data=[64, 0]),
   midi.NoteOnEvent(tick=421, channel=0, data=[45, 0]),
   midi.NoteOnEvent(tick=5, channel=0, data=[57, 0]),
   midi.NoteOnEvent(tick=64, channel=0, data=[61, 66]),
   midi.NoteOnEvent(tick=0, channel=0, data=[64, 66]),
   midi.NoteOnEvent(tick=0, channel=0, data=[68, 66]),
   midi.NoteOnEvent(tick=1816, channel=0, data=[61, 0]),
   midi.NoteOnEvent(tick=48, channel=0, data=[64, 0]),
   midi.NoteOnEvent(tick=19, channel=0, data=[68, 0]),
   midi.NoteOnEvent(tick=36, channel=0, data=[59, 71]),
   midi.NoteOnEvent(tick=5, channel=0, data=[63, 71]),
   midi.NoteOnEvent(tick=0, channel=0, data=[66, 71]),
   midi.NoteOnEvent(tick=1737, channel=0, data=[63, 0]),
   midi.NoteOnEvent(tick=29, channel=0, data=[59, 0]),
   midi.NoteOnEvent(tick=168, channel=0, data=[61, 71]),
   midi.NoteOnEvent(tick=1, channel=0, data=[64, 68]),
   midi.NoteOnEvent(tick=1, channel=0, data=[57, 68]),
   midi.NoteOnEvent(tick=5, channel=0, data=[66, 0]),
   midi.NoteOnEvent(tick=1724, channel=0, data=[61, 0]),
   midi.NoteOnEvent(tick=29, channel=0, data=[57, 0]),
   midi.NoteOnEvent(tick=96, channel=0, data=[64, 0]),
   midi.NoteOnEvent(tick=55, channel=0, data=[66, 73]),
   midi.NoteOnEvent(tick=4, channel=0, data=[63, 61]),
   midi.NoteOnEvent(tick=1, channel=0, data=[59, 64]),
   midi.NoteOnEvent(tick=1851, channel=0, data=[59, 0]),
   midi.NoteOnEvent(tick=5, channel=0, data=[63, 0]),
   midi.NoteOnEvent(tick=1, channel=0, data=[66, 0]),
   midi.NoteOnEvent(tick=87, channel=0, data=[80, 73]),
   midi.NoteOnEvent(tick=5, channel=0, data=[76, 81]),
   midi.NoteOnEvent(tick=1, channel=0, data=[73, 59]),
   midi.NoteOnEvent(tick=4, channel=0, data=[61, 55]),
   midi.NoteOnEvent(tick=887, channel=0, data=[80, 0]),
   midi.NoteOnEvent(tick=14, channel=0, data=[73, 0]),
   midi.NoteOnEvent(tick=9, channel=0, data=[76, 0]),
   midi.NoteOnEvent(tick=31, channel=0, data=[78, 71]),
   midi.NoteOnEvent(tick=6, channel=0, data=[75, 73]),
   midi.NoteOnEvent(tick=470, channel=0, data=[78, 0]),
   midi.NoteOnEvent(tick=1, channel=0, data=[75, 0]),
   midi.NoteOnEvent(tick=7, channel=0, data=[76, 75]),
   midi.NoteOnEvent(tick=15, channel=0, data=[73, 65]),
   midi.NoteOnEvent(tick=410, channel=0, data=[73, 0]),
   midi.NoteOnEvent(tick=7, channel=0, data=[76, 0]),
   midi.NoteOnEvent(tick=6, channel=0, data=[61, 0]),
   midi.NoteOnEvent(tick=18, channel=0, data=[78, 57]),
   midi.NoteOnEvent(tick=1, channel=0, data=[71, 63]),
   midi.NoteOnEvent(tick=8, channel=0, data=[75, 64]),
   midi.NoteOnEvent(tick=1687, channel=0, data=[71, 0]),
   midi.NoteOnEvent(tick=68, channel=0, data=[75, 0]),
   midi.NoteOnEvent(tick=106, channel=0, data=[78, 0]),
   midi.NoteOnEvent(tick=56, channel=0, data=[76, 70]),
   midi.NoteOnEvent(tick=5, channel=0, data=[71, 67]),
   midi.NoteOnEvent(tick=1, channel=0, data=[73, 51]),
   midi.NoteOnEvent(tick=2739, channel=0, data=[71, 0]),
   midi.NoteOnEvent(tick=0, channel=0, data=[73, 0]),
   midi.NoteOnEvent(tick=0, channel=0, data=[76, 0]),
   midi.NoteOnEvent(tick=126, channel=0, data=[75, 63]),
   midi.NoteOnEvent(tick=3, channel=0, data=[71, 77]),
   midi.NoteOnEvent(tick=2, channel=0, data=[78, 76]),
   midi.NoteOnEvent(tick=942, channel=0, data=[78, 0]),
   midi.NoteOnEvent(tick=2, channel=0, data=[71, 0]),
   midi.NoteOnEvent(tick=0, channel=0, data=[75, 0]),
   midi.NoteOnEvent(tick=5, channel=0, data=[61, 66]),
   midi.NoteOnEvent(tick=0, channel=0, data=[64, 66]),
   midi.NoteOnEvent(tick=0, channel=0, data=[68, 66]),
   midi.NoteOnEvent(tick=1816, channel=0, data=[61, 0]),
   midi.NoteOnEvent(tick=48, channel=0, data=[64, 0]),
   midi.NoteOnEvent(tick=19, channel=0, data=[68, 0]),
   midi.NoteOnEvent(tick=36, channel=0, data=[59, 71]),
   midi.NoteOnEvent(tick=5, channel=0, data=[63, 71]),
   midi.NoteOnEvent(tick=0, channel=0, data=[66, 71]),
   midi.NoteOnEvent(tick=1737, channel=0, data=[63, 0]),
   midi.NoteOnEvent(tick=29, channel=0, data=[59, 0]),
   midi.NoteOnEvent(tick=168, channel=0, data=[61, 71]),
   midi.NoteOnEvent(tick=1, channel=0, data=[64, 68]),
   midi.NoteOnEvent(tick=1, channel=0, data=[57, 68]),
   midi.NoteOnEvent(tick=5, channel=0, data=[66, 0]),
   midi.NoteOnEvent(tick=1724, channel=0, data=[61, 0]),
   midi.NoteOnEvent(tick=29, channel=0, data=[57, 0]),
   midi.NoteOnEvent(tick=96, channel=0, data=[64, 0]),
   midi.NoteOnEvent(tick=55, channel=0, data=[66, 73]),
   midi.NoteOnEvent(tick=4, channel=0, data=[63, 61]),
   midi.NoteOnEvent(tick=1, channel=0, data=[59, 64]),
   midi.NoteOnEvent(tick=1851, channel=0, data=[59, 0]),
   midi.NoteOnEvent(tick=5, channel=0, data=[63, 0]),
   midi.NoteOnEvent(tick=1, channel=0, data=[66, 0]),
   midi.NoteOnEvent(tick=87, channel=0, data=[80, 73]),
   midi.NoteOnEvent(tick=5, channel=0, data=[76, 81]),
   midi.NoteOnEvent(tick=1, channel=0, data=[73, 59]),
   midi.NoteOnEvent(tick=4, channel=0, data=[61, 55]),
   midi.NoteOnEvent(tick=887, channel=0, data=[80, 0]),
   midi.NoteOnEvent(tick=14, channel=0, data=[73, 0]),
   midi.NoteOnEvent(tick=9, channel=0, data=[76, 0]),
   midi.NoteOnEvent(tick=31, channel=0, data=[78, 71]),
   midi.NoteOnEvent(tick=6, channel=0, data=[75, 73]),
   midi.NoteOnEvent(tick=470, channel=0, data=[78, 0]),
   midi.NoteOnEvent(tick=1, channel=0, data=[75, 0]),
   midi.NoteOnEvent(tick=7, channel=0, data=[76, 75]),
   midi.NoteOnEvent(tick=15, channel=0, data=[73, 65]),
   midi.NoteOnEvent(tick=410, channel=0, data=[73, 0]),
   midi.NoteOnEvent(tick=7, channel=0, data=[76, 0]),
   midi.NoteOnEvent(tick=6, channel=0, data=[61, 0]),
   midi.NoteOnEvent(tick=18, channel=0, data=[78, 57]),
   midi.NoteOnEvent(tick=1, channel=0, data=[71, 63]),
   midi.NoteOnEvent(tick=8, channel=0, data=[75, 64]),
   midi.NoteOnEvent(tick=1687, channel=0, data=[71, 0]),
   midi.NoteOnEvent(tick=68, channel=0, data=[75, 0]),
   midi.NoteOnEvent(tick=106, channel=0, data=[78, 0]),
   midi.NoteOnEvent(tick=56, channel=0, data=[76, 70]),
   midi.NoteOnEvent(tick=5, channel=0, data=[71, 67]),
   midi.NoteOnEvent(tick=1, channel=0, data=[73, 51]),
   midi.NoteOnEvent(tick=1899, channel=0, data=[71, 0]),
   midi.NoteOnEvent(tick=0, channel=0, data=[73, 0]),
   midi.NoteOnEvent(tick=0, channel=0, data=[76, 0]),
   midi.NoteOnEvent(tick=33, channel=0, data=[64, 66]),
   midi.NoteOnEvent(tick=3, channel=0, data=[59, 71]),
   midi.NoteOnEvent(tick=2, channel=0, data=[54, 80]),
   midi.NoteOnEvent(tick=937, channel=0, data=[64, 0]),
   midi.NoteOnEvent(tick=15, channel=0, data=[63, 53]),
   midi.NoteOnEvent(tick=869, channel=0, data=[54, 0]),
   midi.NoteOnEvent(tick=9, channel=0, data=[63, 0]),
   midi.NoteOnEvent(tick=2, channel=0, data=[59, 0]),
   midi.NoteOnEvent(tick=60, channel=0, data=[49, 63]),
   midi.NoteOnEvent(tick=0, channel=0, data=[64, 59]),
   midi.ControlChangeEvent(tick=81, channel=0, data=[64, 127]),
   midi.NoteOnEvent(tick=153, channel=0, data=[71, 70]),
   midi.NoteOnEvent(tick=5, channel=0, data=[56, 63]),
   midi.NoteOnEvent(tick=237, channel=0, data=[76, 55]),
   midi.NoteOnEvent(tick=7, channel=0, data=[61, 61]),
   midi.NoteOnEvent(tick=7, channel=0, data=[56, 0]),
   midi.NoteOnEvent(tick=151, channel=0, data=[76, 0]),
   midi.NoteOnEvent(tick=77, channel=0, data=[56, 55]),
   midi.NoteOnEvent(tick=0, channel=0, data=[76, 64]),
   midi.NoteOnEvent(tick=5, channel=0, data=[61, 0]),
   midi.NoteOnEvent(tick=45, channel=0, data=[71, 0]),
   midi.NoteOnEvent(tick=181, channel=0, data=[56, 0]),
   midi.NoteOnEvent(tick=12, channel=0, data=[61, 57]),
   midi.NoteOnEvent(tick=229, channel=0, data=[71, 77]),
   midi.NoteOnEvent(tick=11, channel=0, data=[56, 55]),
   midi.NoteOnEvent(tick=3, channel=0, data=[61, 0]),
   midi.NoteOnEvent(tick=240, channel=0, data=[56, 0]),
   midi.NoteOnEvent(tick=0, channel=0, data=[61, 59]),
   midi.NoteOnEvent(tick=56, channel=0, data=[49, 0]),
   midi.NoteOnEvent(tick=14, channel=0, data=[61, 0]),
   midi.NoteOnEvent(tick=337, channel=0, data=[64, 0]),
   midi.NoteOnEvent(tick=59, channel=0, data=[64, 57]),
   midi.NoteOnEvent(tick=0, channel=0, data=[71, 0]),
   midi.NoteOnEvent(tick=9, channel=0, data=[47, 68]),
   midi.ControlChangeEvent(tick=54, channel=0, data=[64, 0]),
   midi.NoteOnEvent(tick=20, channel=0, data=[76, 0]),
   midi.NoteOnEvent(tick=165, channel=0, data=[54, 56]),
   midi.NoteOnEvent(tick=5, channel=0, data=[71, 66]),
   midi.ControlChangeEvent(tick=45, channel=0, data=[64, 127]),
   midi.NoteOnEvent(tick=186, channel=0, data=[76, 63]),
   midi.NoteOnEvent(tick=2, channel=0, data=[54, 0]),
   midi.NoteOnEvent(tick=2, channel=0, data=[59, 67]),
   midi.NoteOnEvent(tick=142, channel=0, data=[76, 0]),
   midi.NoteOnEvent(tick=14, channel=0, data=[71, 0]),
   midi.NoteOnEvent(tick=77, channel=0, data=[54, 61]),
   midi.NoteOnEvent(tick=2, channel=0, data=[76, 55]),
   midi.NoteOnEvent(tick=5, channel=0, data=[59, 0]),
   midi.NoteOnEvent(tick=240, channel=0, data=[59, 68]),
   midi.NoteOnEvent(tick=18, channel=0, data=[54, 0]),
   midi.NoteOnEvent(tick=203, channel=0, data=[71, 70]),
   midi.NoteOnEvent(tick=14, channel=0, data=[59, 0]),
   midi.NoteOnEvent(tick=2, channel=0, data=[54, 65]),
   midi.NoteOnEvent(tick=246, channel=0, data=[59, 75]),
   midi.NoteOnEvent(tick=4, channel=0, data=[54, 0]),
   midi.NoteOnEvent(tick=50, channel=0, data=[47, 0]),
   midi.NoteOnEvent(tick=34, channel=0, data=[59, 0]),
   midi.NoteOnEvent(tick=207, channel=0, data=[64, 0]),
   midi.NoteOnEvent(tick=137, channel=0, data=[71, 0]),
   midi.NoteOnEvent(tick=42, channel=0, data=[45, 68]),
   midi.NoteOnEvent(tick=1, channel=0, data=[64, 59]),
   midi.ControlChangeEvent(tick=8, channel=0, data=[64, 0]),
   midi.NoteOnEvent(tick=10, channel=0, data=[76, 0]),
   midi.NoteOnEvent(tick=217, channel=0, data=[52, 73]),
   midi.NoteOnEvent(tick=7, channel=0, data=[71, 64]),
   midi.ControlChangeEvent(tick=13, channel=0, data=[64, 127]),
   midi.NoteOnEvent(tick=220, channel=0, data=[76, 66]),
   midi.NoteOnEvent(tick=5, channel=0, data=[57, 64]),
   midi.NoteOnEvent(tick=39, channel=0, data=[52, 0]),
   midi.NoteOnEvent(tick=15, channel=0, data=[71, 0]),
   midi.NoteOnEvent(tick=124, channel=0, data=[76, 0]),
   midi.NoteOnEvent(tick=60, channel=0, data=[52, 75]),
   midi.NoteOnEvent(tick=0, channel=0, data=[57, 0]),
   midi.NoteOnEvent(tick=0, channel=0, data=[76, 66]),
   midi.NoteOnEvent(tick=242, channel=0, data=[57, 63]),
   midi.NoteOnEvent(tick=30, channel=0, data=[52, 0]),
   midi.NoteOnEvent(tick=194, channel=0, data=[71, 70]),
   midi.NoteOnEvent(tick=18, channel=0, data=[52, 67]),
   midi.NoteOnEvent(tick=10, channel=0, data=[57, 0]),
   midi.NoteOnEvent(tick=235, channel=0, data=[57, 67]),
   midi.NoteOnEvent(tick=30, channel=0, data=[52, 0]),
   midi.NoteOnEvent(tick=18, channel=0, data=[45, 0]),
   midi.NoteOnEvent(tick=30, channel=0, data=[57, 0]),
   midi.NoteOnEvent(tick=349, channel=0, data=[64, 0]),
   midi.NoteOnEvent(tick=39, channel=0, data=[47, 68]),
   midi.NoteOnEvent(tick=9, channel=0, data=[71, 0]),
   midi.NoteOnEvent(tick=1, channel=0, data=[64, 63]),
   midi.ControlChangeEvent(tick=2, channel=0, data=[64, 0]),
   midi.NoteOnEvent(tick=3, channel=0, data=[76, 0]),
   midi.NoteOnEvent(tick=222, channel=0, data=[54, 61]),
   midi.NoteOnEvent(tick=13, channel=0, data=[71, 64]),
   midi.ControlChangeEvent(tick=9, channel=0, data=[64, 127]),
   midi.NoteOnEvent(tick=211, channel=0, data=[54, 0]),
   midi.NoteOnEvent(tick=9, channel=0, data=[59, 71]),
   midi.NoteOnEvent(tick=3, channel=0, data=[76, 62]),
   midi.NoteOnEvent(tick=88, channel=0, data=[71, 0]),
   midi.NoteOnEvent(tick=82, channel=0, data=[76, 0]),
   midi.NoteOnEvent(tick=67, channel=0, data=[54, 57]),
   midi.NoteOnEvent(tick=2, channel=0, data=[76, 68]),
   midi.NoteOnEvent(tick=1, channel=0, data=[59, 0]),
   midi.NoteOnEvent(tick=244, channel=0, data=[59, 71]),
   midi.NoteOnEvent(tick=10, channel=0, data=[54, 0]),
   midi.NoteOnEvent(tick=211, channel=0, data=[71, 51]),
   midi.NoteOnEvent(tick=4, channel=0, data=[59, 0]),
   midi.NoteOnEvent(tick=10, channel=0, data=[54, 71]),
   midi.NoteOnEvent(tick=243, channel=0, data=[59, 71]),
   midi.ControlChangeEvent(tick=38, channel=0, data=[64, 0]),
   midi.NoteOnEvent(tick=392, channel=0, data=[59, 0]),
   midi.NoteOnEvent(tick=1, channel=0, data=[64, 0]),
   midi.NoteOnEvent(tick=21, channel=0, data=[54, 0]),
   midi.NoteOnEvent(tick=1, channel=0, data=[47, 0]),
   midi.NoteOnEvent(tick=5, channel=0, data=[76, 0]),
   midi.NoteOnEvent(tick=19, channel=0, data=[40, 71]),
   midi.NoteOnEvent(tick=0, channel=0, data=[54, 65]),
   midi.NoteOnEvent(tick=18, channel=0, data=[71, 0]),
   midi.ControlChangeEvent(tick=10, channel=0, data=[64, 127]),
   midi.NoteOnEvent(tick=212, channel=0, data=[56, 65]),
   midi.NoteOnEvent(tick=240, channel=0, data=[52, 68]),
   midi.NoteOnEvent(tick=0, channel=0, data=[59, 85]),
   midi.NoteOnEvent(tick=240, channel=0, data=[64, 68]),
   midi.NoteOnEvent(tick=126, channel=0, data=[52, 0]),
   midi.NoteOnEvent(tick=139, channel=0, data=[54, 0]),
   midi.NoteOnEvent(tick=196, channel=0, data=[56, 0]),
   midi.NoteOnEvent(tick=19, channel=0, data=[52, 62]),
   midi.NoteOnEvent(tick=0, channel=0, data=[54, 54]),
   midi.ControlChangeEvent(tick=11, channel=0, data=[64, 0]),
   midi.NoteOnEvent(tick=84, channel=0, data=[59, 0]),
   midi.NoteOnEvent(tick=145, channel=0, data=[59, 81]),
   midi.NoteOnEvent(tick=446, channel=0, data=[40, 0]),
   midi.NoteOnEvent(tick=22, channel=0, data=[52, 0]),
   midi.NoteOnEvent(tick=3, channel=0, data=[54, 0]),
   midi.NoteOnEvent(tick=0, channel=0, data=[59, 0]),
   midi.ControlChangeEvent(tick=9, channel=0, data=[64, 127]),
   midi.NoteOnEvent(tick=0, channel=0, data=[52, 61]),
   midi.NoteOnEvent(tick=0, channel=0, data=[54, 40]),
   midi.NoteOnEvent(tick=0, channel=0, data=[59, 83]),
   midi.NoteOnEvent(tick=0, channel=0, data=[63, 77]),
   midi.NoteOnEvent(tick=8, channel=0, data=[64, 0]),
   midi.NoteOnEvent(tick=380, channel=0, data=[63, 0]),
   midi.NoteOnEvent(tick=7, channel=0, data=[59, 0]),
   midi.NoteOnEvent(tick=83, channel=0, data=[54, 0]),
   midi.NoteOnEvent(tick=2, channel=0, data=[59, 77]),
   midi.NoteOnEvent(tick=0, channel=0, data=[64, 71]),
   midi.NoteOnEvent(tick=109, channel=0, data=[59, 0]),
   midi.NoteOnEvent(tick=131, channel=0, data=[59, 81]),
   midi.NoteOnEvent(tick=105, channel=0, data=[59, 0]),
   midi.NoteOnEvent(tick=375, channel=0, data=[59, 78]),
   midi.NoteOnEvent(tick=240, channel=0, data=[54, 48]),
   midi.ControlChangeEvent(tick=21, channel=0, data=[64, 0]),
   midi.NoteOnEvent(tick=48, channel=0, data=[59, 0]),
   midi.NoteOnEvent(tick=171, channel=0, data=[59, 73]),
   midi.NoteOnEvent(tick=180, channel=0, data=[52, 0]),
   midi.NoteOnEvent(tick=30, channel=0, data=[54, 0]),
   midi.NoteOnEvent(tick=0, channel=0, data=[59, 0]),
   midi.NoteOnEvent(tick=0, channel=0, data=[64, 0]),
   midi.NoteOnEvent(tick=30, channel=0, data=[52, 67]),
   midi.NoteOnEvent(tick=0, channel=0, data=[63, 73]),
   midi.ControlChangeEvent(tick=226, channel=0, data=[64, 127]),
   midi.NoteOnEvent(tick=14, channel=0, data=[57, 69]),
   midi.NoteOnEvent(tick=175, channel=0, data=[63, 0]),
   midi.NoteOnEvent(tick=65, channel=0, data=[59, 60]),
   midi.NoteOnEvent(tick=0, channel=0, data=[64, 68]),
   midi.NoteOnEvent(tick=204, channel=0, data=[64, 0]),
   midi.NoteOnEvent(tick=36, channel=0, data=[64, 77]),
   midi.NoteOnEvent(tick=16, channel=0, data=[57, 0]),
   midi.NoteOnEvent(tick=23, channel=0, data=[59, 0]),
   midi.NoteOnEvent(tick=201, channel=0, data=[57, 73]),
   midi.NoteOnEvent(tick=224, channel=0, data=[57, 0]),
   midi.NoteOnEvent(tick=16, channel=0, data=[59, 59]),
   midi.NoteOnEvent(tick=240, channel=0, data=[57, 64]),
   midi.NoteOnEvent(tick=145, channel=0, data=[52, 0]),
   midi.NoteOnEvent(tick=95, channel=0, data=[52, 70]),
   midi.ControlChangeEvent(tick=54, channel=0, data=[64, 0]),
   midi.NoteOnEvent(tick=126, channel=0, data=[64, 0]),
   midi.NoteOnEvent(tick=30, channel=0, data=[52, 0]),
   midi.NoteOnEvent(tick=0, channel=0, data=[59, 0]),
   midi.NoteOnEvent(tick=30, channel=0, data=[52, 76]),
   midi.NoteOnEvent(tick=0, channel=0, data=[57, 0]),
   midi.NoteOnEvent(tick=0, channel=0, data=[64, 81]),
   midi.ControlChangeEvent(tick=136, channel=0, data=[64, 127]),
   midi.NoteOnEvent(tick=104, channel=0, data=[56, 46]),
   midi.NoteOnEvent(tick=240, channel=0, data=[59, 76]),
   midi.NoteOnEvent(tick=28, channel=0, data=[64, 0]),
   midi.NoteOnEvent(tick=128, channel=0, data=[56, 0]),
   midi.NoteOnEvent(tick=33, channel=0, data=[52, 0]),
   midi.NoteOnEvent(tick=51, channel=0, data=[64, 63]),
   midi.NoteOnEvent(tick=4, channel=0, data=[59, 0]),
   midi.NoteOnEvent(tick=174, channel=0, data=[64, 0]),
   midi.NoteOnEvent(tick=62, channel=0, data=[47, 60]),
   midi.NoteOnEvent(tick=0, channel=0, data=[63, 60]),
   midi.ControlChangeEvent(tick=4, channel=0, data=[64, 0]),
   midi.NoteOnEvent(tick=236, channel=0, data=[51, 45]),
   midi.ControlChangeEvent(tick=188, channel=0, data=[64, 127]),
   midi.NoteOnEvent(tick=52, channel=0, data=[54, 55]),
   midi.ControlChangeEvent(tick=199, channel=0, data=[64, 0]),
   midi.NoteOnEvent(tick=41, channel=0, data=[59, 62]),
   midi.NoteOnEvent(tick=219, channel=0, data=[47, 0]),
   midi.NoteOnEvent(tick=12, channel=0, data=[63, 0]),
   midi.NoteOnEvent(tick=9, channel=0, data=[52, 77]),
   midi.NoteOnEvent(tick=0, channel=0, data=[64, 60]),
   midi.NoteOnEvent(tick=9, channel=0, data=[59, 0]),
   midi.NoteOnEvent(tick=6, channel=0, data=[51, 0]),
   midi.NoteOnEvent(tick=15, channel=0, data=[54, 0]),
   midi.NoteOnEvent(tick=210, channel=0, data=[56, 67]),
   midi.ControlChangeEvent(tick=75, channel=0, data=[64, 127]),
   midi.NoteOnEvent(tick=165, channel=0, data=[59, 72]),
   midi.NoteOnEvent(tick=114, channel=0, data=[64, 0]),
   midi.NoteOnEvent(tick=121, channel=0, data=[59, 0]),
   midi.NoteOnEvent(tick=5, channel=0, data=[64, 63]),
   midi.NoteOnEvent(tick=51, channel=0, data=[56, 0]),
   midi.NoteOnEvent(tick=124, channel=0, data=[64, 0]),
   midi.NoteOnEvent(tick=65, channel=0, data=[59, 81]),
   midi.NoteOnEvent(tick=0, channel=0, data=[64, 78]),
   midi.NoteOnEvent(tick=70, channel=0, data=[52, 0]),
   midi.NoteOnEvent(tick=34, channel=0, data=[59, 0]),
   midi.NoteOnEvent(tick=136, channel=0, data=[56, 72]),
   midi.NoteOnEvent(tick=235, channel=0, data=[56, 0]),
   midi.NoteOnEvent(tick=5, channel=0, data=[59, 72]),
   midi.NoteOnEvent(tick=235, channel=0, data=[59, 0]),
   midi.NoteOnEvent(tick=5, channel=0, data=[52, 74]),
   midi.ControlChangeEvent(tick=24, channel=0, data=[64, 0]),
   midi.NoteOnEvent(tick=164, channel=0, data=[64, 0]),
   midi.NoteOnEvent(tick=52, channel=0, data=[54, 65]),
   midi.NoteOnEvent(tick=0, channel=0, data=[63, 69]),
   midi.NoteOnEvent(tick=16, channel=0, data=[52, 0]),
   midi.NoteOnEvent(tick=224, channel=0, data=[59, 85]),
   midi.ControlChangeEvent(tick=50, channel=0, data=[64, 127]),
   midi.NoteOnEvent(tick=146, channel=0, data=[63, 0]),
   midi.NoteOnEvent(tick=44, channel=0, data=[64, 65]),
   midi.NoteOnEvent(tick=184, channel=0, data=[64, 0]),
   midi.NoteOnEvent(tick=56, channel=0, data=[64, 77]),
   midi.NoteOnEvent(tick=190, channel=0, data=[59, 0]),
   midi.NoteOnEvent(tick=13, channel=0, data=[54, 0]),
   midi.NoteOnEvent(tick=277, channel=0, data=[59, 83]),
   midi.NoteOnEvent(tick=61, channel=0, data=[64, 0]),
   midi.NoteOnEvent(tick=179, channel=0, data=[54, 69]),
   midi.NoteOnEvent(tick=14, channel=0, data=[59, 0]),
   midi.NoteOnEvent(tick=226, channel=0, data=[59, 74]),
   midi.ControlChangeEvent(tick=116, channel=0, data=[64, 0]),
   midi.NoteOnEvent(tick=94, channel=0, data=[59, 0]),
   midi.NoteOnEvent(tick=30, channel=0, data=[45, 79]),
   midi.NoteOnEvent(tick=0, channel=0, data=[54, 0]),
   midi.NoteOnEvent(tick=0, channel=0, data=[64, 83]),
   midi.ControlChangeEvent(tick=109, channel=0, data=[64, 127]),
   midi.NoteOnEvent(tick=131, channel=0, data=[57, 67]),
   midi.NoteOnEvent(tick=334, channel=0, data=[64, 0]),
   midi.NoteOnEvent(tick=66, channel=0, data=[57, 0]),
   midi.NoteOnEvent(tick=80, channel=0, data=[57, 65]),
   midi.NoteOnEvent(tick=0, channel=0, data=[64, 77]),
   midi.ControlChangeEvent(tick=29, channel=0, data=[64, 0]),
   midi.ControlChangeEvent(tick=227, channel=0, data=[64, 127]),
   midi.NoteOnEvent(tick=108, channel=0, data=[57, 0]),
   midi.NoteOnEvent(tick=116, channel=0, data=[57, 65]),
   midi.NoteOnEvent(tick=199, channel=0, data=[64, 0]),
   midi.NoteOnEvent(tick=155, channel=0, data=[57, 0]),
   midi.NoteOnEvent(tick=126, channel=0, data=[57, 69]),
   midi.NoteOnEvent(tick=0, channel=0, data=[64, 73]),
   midi.ControlChangeEvent(tick=43, channel=0, data=[64, 0]),
   midi.NoteOnEvent(tick=20, channel=0, data=[45, 0]),
   midi.NoteOnEvent(tick=177, channel=0, data=[45, 61]),
   midi.ControlChangeEvent(tick=9, channel=0, data=[64, 127]),
   midi.NoteOnEvent(tick=329, channel=0, data=[64, 0]),
   midi.ControlChangeEvent(tick=1092, channel=0, data=[64, 0]),
   midi.NoteOnEvent(tick=421, channel=0, data=[45, 0]),
   midi.NoteOnEvent(tick=5, channel=0, data=[57, 0]),
   midi.NoteOnEvent(tick=64, channel=0, data=[40, 71]),
   midi.NoteOnEvent(tick=0, channel=0, data=[54, 65]),
   midi.ControlChangeEvent(tick=28, channel=0, data=[64, 127]),
   midi.NoteOnEvent(tick=212, channel=0, data=[56, 65]),
   midi.NoteOnEvent(tick=240, channel=0, data=[52, 68]),
   midi.NoteOnEvent(tick=0, channel=0, data=[59, 85]),
   midi.NoteOnEvent(tick=240, channel=0, data=[64, 68]),
   midi.NoteOnEvent(tick=126, channel=0, data=[52, 0]),
   midi.NoteOnEvent(tick=139, channel=0, data=[54, 0]),
   midi.NoteOnEvent(tick=196, channel=0, data=[56, 0]),
   midi.NoteOnEvent(tick=19, channel=0, data=[52, 62]),
   midi.NoteOnEvent(tick=0, channel=0, data=[54, 54]),
   midi.ControlChangeEvent(tick=11, channel=0, data=[64, 0]),
   midi.NoteOnEvent(tick=84, channel=0, data=[59, 0]),
   midi.NoteOnEvent(tick=145, channel=0, data=[59, 81]),
   midi.NoteOnEvent(tick=446, channel=0, data=[40, 0]),
   midi.NoteOnEvent(tick=22, channel=0, data=[52, 0]),
   midi.NoteOnEvent(tick=3, channel=0, data=[54, 0]),
   midi.NoteOnEvent(tick=0, channel=0, data=[59, 0]),
   midi.ControlChangeEvent(tick=9, channel=0, data=[64, 127]),
   midi.NoteOnEvent(tick=0, channel=0, data=[52, 61]),
   midi.NoteOnEvent(tick=0, channel=0, data=[54, 40]),
   midi.NoteOnEvent(tick=0, channel=0, data=[59, 83]),
   midi.NoteOnEvent(tick=0, channel=0, data=[63, 77]),
   midi.NoteOnEvent(tick=8, channel=0, data=[64, 0]),
   midi.NoteOnEvent(tick=380, channel=0, data=[63, 0]),
   midi.NoteOnEvent(tick=7, channel=0, data=[59, 0]),
   midi.NoteOnEvent(tick=83, channel=0, data=[54, 0]),
   midi.NoteOnEvent(tick=2, channel=0, data=[59, 77]),
   midi.NoteOnEvent(tick=0, channel=0, data=[64, 71]),
   midi.NoteOnEvent(tick=109, channel=0, data=[59, 0]),
   midi.NoteOnEvent(tick=131, channel=0, data=[59, 81]),
   midi.NoteOnEvent(tick=105, channel=0, data=[59, 0]),
   midi.NoteOnEvent(tick=375, channel=0, data=[59, 78]),
   midi.NoteOnEvent(tick=240, channel=0, data=[54, 48]),
   midi.ControlChangeEvent(tick=21, channel=0, data=[64, 0]),
   midi.NoteOnEvent(tick=48, channel=0, data=[59, 0]),
   midi.NoteOnEvent(tick=171, channel=0, data=[59, 73]),
   midi.NoteOnEvent(tick=180, channel=0, data=[52, 0]),
   midi.NoteOnEvent(tick=30, channel=0, data=[54, 0]),
   midi.NoteOnEvent(tick=0, channel=0, data=[59, 0]),
   midi.NoteOnEvent(tick=0, channel=0, data=[64, 0]),
   midi.NoteOnEvent(tick=30, channel=0, data=[52, 67]),
   midi.NoteOnEvent(tick=0, channel=0, data=[63, 73]),
   midi.ControlChangeEvent(tick=226, channel=0, data=[64, 127]),
   midi.NoteOnEvent(tick=14, channel=0, data=[57, 69]),
   midi.NoteOnEvent(tick=175, channel=0, data=[63, 0]),
   midi.NoteOnEvent(tick=65, channel=0, data=[59, 60]),
   midi.NoteOnEvent(tick=0, channel=0, data=[64, 68]),
   midi.NoteOnEvent(tick=204, channel=0, data=[64, 0]),
   midi.NoteOnEvent(tick=36, channel=0, data=[64, 77]),
   midi.NoteOnEvent(tick=16, channel=0, data=[57, 0]),
   midi.NoteOnEvent(tick=23, channel=0, data=[59, 0]),
   midi.NoteOnEvent(tick=201, channel=0, data=[57, 73]),
   midi.NoteOnEvent(tick=224, channel=0, data=[57, 0]),
   midi.NoteOnEvent(tick=16, channel=0, data=[59, 59]),
   midi.NoteOnEvent(tick=240, channel=0, data=[57, 64]),
   midi.NoteOnEvent(tick=145, channel=0, data=[52, 0]),
   midi.NoteOnEvent(tick=95, channel=0, data=[52, 70]),
   midi.ControlChangeEvent(tick=54, channel=0, data=[64, 0]),
   midi.NoteOnEvent(tick=126, channel=0, data=[64, 0]),
   midi.NoteOnEvent(tick=30, channel=0, data=[52, 0]),
   midi.NoteOnEvent(tick=0, channel=0, data=[59, 0]),
   midi.NoteOnEvent(tick=30, channel=0, data=[52, 76]),
   midi.NoteOnEvent(tick=0, channel=0, data=[57, 0]),
   midi.NoteOnEvent(tick=0, channel=0, data=[64, 81]),
   midi.ControlChangeEvent(tick=136, channel=0, data=[64, 127]),
   midi.NoteOnEvent(tick=104, channel=0, data=[56, 46]),
   midi.NoteOnEvent(tick=240, channel=0, data=[59, 76]),
   midi.NoteOnEvent(tick=28, channel=0, data=[64, 0]),
   midi.NoteOnEvent(tick=128, channel=0, data=[56, 0]),
   midi.NoteOnEvent(tick=33, channel=0, data=[52, 0]),
   midi.NoteOnEvent(tick=51, channel=0, data=[64, 63]),
   midi.NoteOnEvent(tick=4, channel=0, data=[59, 0]),
   midi.NoteOnEvent(tick=174, channel=0, data=[64, 0]),
   midi.NoteOnEvent(tick=62, channel=0, data=[48, 60]),
   midi.NoteOnEvent(tick=0, channel=0, data=[63, 60]),
   midi.ControlChangeEvent(tick=4, channel=0, data=[64, 0]),
   midi.NoteOnEvent(tick=236, channel=0, data=[51, 45]),
   midi.ControlChangeEvent(tick=188, channel=0, data=[64, 127]),
   midi.NoteOnEvent(tick=52, channel=0, data=[56, 55]),
   midi.ControlChangeEvent(tick=199, channel=0, data=[64, 0]),
   midi.NoteOnEvent(tick=41, channel=0, data=[60, 62]),
   midi.NoteOnEvent(tick=219, channel=0, data=[48, 0]),
   midi.NoteOnEvent(tick=12, channel=0, data=[63, 0]),
   midi.NoteOnEvent(tick=18, channel=0, data=[60, 0]),
   midi.NoteOnEvent(tick=6, channel=0, data=[51, 0]),
   midi.NoteOnEvent(tick=15, channel=0, data=[56, 0]),
   midi.NoteOnEvent(tick=8, channel=0, data=[80, 83]),
   midi.NoteOnEvent(tick=5, channel=0, data=[76, 91]),
   midi.NoteOnEvent(tick=1, channel=0, data=[73, 69]),
   midi.NoteOnEvent(tick=4, channel=0, data=[61, 65]),
   midi.NoteOnEvent(tick=887, channel=0, data=[80, 0]),
   midi.NoteOnEvent(tick=14, channel=0, data=[73, 0]),
   midi.NoteOnEvent(tick=9, channel=0, data=[76, 0]),
   midi.NoteOnEvent(tick=31, channel=0, data=[78, 81]),
   midi.NoteOnEvent(tick=6, channel=0, data=[75, 83]),
   midi.NoteOnEvent(tick=470, channel=0, data=[78, 0]),
   midi.NoteOnEvent(tick=1, channel=0, data=[75, 0]),
   midi.NoteOnEvent(tick=7, channel=0, data=[76, 85]),
   midi.NoteOnEvent(tick=15, channel=0, data=[73, 75]),
   midi.NoteOnEvent(tick=410, channel=0, data=[73, 0]),
   midi.NoteOnEvent(tick=7, channel=0, data=[76, 0]),
   midi.NoteOnEvent(tick=6, channel=0, data=[61, 0]),
   midi.NoteOnEvent(tick=18, channel=0, data=[78, 67]),
   midi.NoteOnEvent(tick=1, channel=0, data=[71, 73]),
   midi.NoteOnEvent(tick=8, channel=0, data=[75, 74]),
   midi.NoteOnEvent(tick=1687, channel=0, data=[71, 0]),
   midi.NoteOnEvent(tick=68, channel=0, data=[75, 0]),
   midi.NoteOnEvent(tick=106, channel=0, data=[78, 0]),
   midi.NoteOnEvent(tick=56, channel=0, data=[76, 80]),
   midi.NoteOnEvent(tick=5, channel=0, data=[71, 77]),
   midi.NoteOnEvent(tick=1, channel=0, data=[73, 61]),
   midi.NoteOnEvent(tick=2739, channel=0, data=[71, 0]),
   midi.NoteOnEvent(tick=0, channel=0, data=[73, 0]),
   midi.NoteOnEvent(tick=0, channel=0, data=[76, 0]),
   midi.NoteOnEvent(tick=126, channel=0, data=[75, 73]),
   midi.NoteOnEvent(tick=3, channel=0, data=[71, 87]),
   midi.NoteOnEvent(tick=2, channel=0, data=[78, 86]),
   midi.NoteOnEvent(tick=942, channel=0, data=[78, 0]),
   midi.NoteOnEvent(tick=2, channel=0, data=[71, 0]),
   midi.NoteOnEvent(tick=0, channel=0, data=[75, 0]),
   midi.NoteOnEvent(tick=5, channel=0, data=[61, 76]),
   midi.NoteOnEvent(tick=0, channel=0, data=[64, 76]),
   midi.NoteOnEvent(tick=0, channel=0, data=[68, 76]),
   midi.NoteOnEvent(tick=1816, channel=0, data=[61, 0]),
   midi.NoteOnEvent(tick=48, channel=0, data=[64, 0]),
   midi.NoteOnEvent(tick=19, channel=0, data=[68, 0]),
   midi.NoteOnEvent(tick=36, channel=0, data=[59, 81]),
   midi.NoteOnEvent(tick=5, channel=0, data=[63, 81]),
   midi.NoteOnEvent(tick=0, channel=0, data=[66, 81]),
   midi.NoteOnEvent(tick=1737, channel=0, data=[63, 0]),
   midi.NoteOnEvent(tick=29, channel=0, data=[59, 0]),
   midi.NoteOnEvent(tick=168, channel=0, data=[61, 81]),
   midi.NoteOnEvent(tick=1, channel=0, data=[64, 78]),
   midi.NoteOnEvent(tick=1, channel=0, data=[57, 78]),
   midi.NoteOnEvent(tick=5, channel=0, data=[66, 0]),
   midi.NoteOnEvent(tick=1724, channel=0, data=[61, 0]),
   midi.NoteOnEvent(tick=29, channel=0, data=[57, 0]),
   midi.NoteOnEvent(tick=96, channel=0, data=[64, 0]),
   midi.NoteOnEvent(tick=55, channel=0, data=[66, 83]),
   midi.NoteOnEvent(tick=4, channel=0, data=[63, 71]),
   midi.NoteOnEvent(tick=1, channel=0, data=[59, 74]),
   midi.NoteOnEvent(tick=1851, channel=0, data=[59, 0]),
   midi.NoteOnEvent(tick=5, channel=0, data=[63, 0]),
   midi.NoteOnEvent(tick=1, channel=0, data=[66, 0]),
   midi.NoteOnEvent(tick=87, channel=0, data=[80, 83]),
   midi.NoteOnEvent(tick=5, channel=0, data=[76, 91]),
   midi.NoteOnEvent(tick=1, channel=0, data=[73, 69]),
   midi.NoteOnEvent(tick=4, channel=0, data=[61, 65]),
   midi.NoteOnEvent(tick=887, channel=0, data=[80, 0]),
   midi.NoteOnEvent(tick=14, channel=0, data=[73, 0]),
   midi.NoteOnEvent(tick=9, channel=0, data=[76, 0]),
   midi.NoteOnEvent(tick=31, channel=0, data=[78, 81]),
   midi.NoteOnEvent(tick=6, channel=0, data=[75, 83]),
   midi.NoteOnEvent(tick=470, channel=0, data=[78, 0]),
   midi.NoteOnEvent(tick=1, channel=0, data=[75, 0]),
   midi.NoteOnEvent(tick=7, channel=0, data=[76, 85]),
   midi.NoteOnEvent(tick=15, channel=0, data=[73, 75]),
   midi.NoteOnEvent(tick=410, channel=0, data=[73, 0]),
   midi.NoteOnEvent(tick=7, channel=0, data=[76, 0]),
   midi.NoteOnEvent(tick=6, channel=0, data=[61, 0]),
   midi.NoteOnEvent(tick=18, channel=0, data=[78, 67]),
   midi.NoteOnEvent(tick=1, channel=0, data=[71, 73]),
   midi.NoteOnEvent(tick=8, channel=0, data=[75, 74]),
   midi.NoteOnEvent(tick=1687, channel=0, data=[71, 0]),
   midi.NoteOnEvent(tick=68, channel=0, data=[75, 0]),
   midi.NoteOnEvent(tick=106, channel=0, data=[78, 0]),
   midi.NoteOnEvent(tick=56, channel=0, data=[76, 80]),
   midi.NoteOnEvent(tick=5, channel=0, data=[71, 77]),
   midi.NoteOnEvent(tick=1, channel=0, data=[73, 61]),
   midi.NoteOnEvent(tick=1899, channel=0, data=[71, 0]),
   midi.NoteOnEvent(tick=0, channel=0, data=[73, 0]),
   midi.NoteOnEvent(tick=0, channel=0, data=[76, 0]),
   midi.NoteOnEvent(tick=33, channel=0, data=[64, 76]),
   midi.NoteOnEvent(tick=3, channel=0, data=[59, 81]),
   midi.NoteOnEvent(tick=2, channel=0, data=[54, 90]),
   midi.NoteOnEvent(tick=937, channel=0, data=[64, 0]),
   midi.NoteOnEvent(tick=15, channel=0, data=[63, 63]),
   midi.NoteOnEvent(tick=869, channel=0, data=[54, 0]),
   midi.NoteOnEvent(tick=9, channel=0, data=[63, 0]),
   midi.NoteOnEvent(tick=2, channel=0, data=[59, 0]),
   midi.NoteOnEvent(tick=50, channel=0, data=[61, 76]),
   midi.NoteOnEvent(tick=0, channel=0, data=[64, 76]),
   midi.NoteOnEvent(tick=0, channel=0, data=[68, 76]),
   midi.NoteOnEvent(tick=1816, channel=0, data=[61, 0]),
   midi.NoteOnEvent(tick=48, channel=0, data=[64, 0]),
   midi.NoteOnEvent(tick=19, channel=0, data=[68, 0]),
   midi.NoteOnEvent(tick=36, channel=0, data=[59, 81]),
   midi.NoteOnEvent(tick=5, channel=0, data=[63, 81]),
   midi.NoteOnEvent(tick=0, channel=0, data=[66, 81]),
   midi.NoteOnEvent(tick=1737, channel=0, data=[63, 0]),
   midi.NoteOnEvent(tick=29, channel=0, data=[59, 0]),
   midi.NoteOnEvent(tick=168, channel=0, data=[61, 81]),
   midi.NoteOnEvent(tick=1, channel=0, data=[64, 78]),
   midi.NoteOnEvent(tick=1, channel=0, data=[57, 78]),
   midi.NoteOnEvent(tick=5, channel=0, data=[66, 0]),
   midi.NoteOnEvent(tick=1724, channel=0, data=[61, 0]),
   midi.NoteOnEvent(tick=29, channel=0, data=[57, 0]),
   midi.NoteOnEvent(tick=96, channel=0, data=[64, 0]),
   midi.NoteOnEvent(tick=55, channel=0, data=[66, 83]),
   midi.NoteOnEvent(tick=4, channel=0, data=[63, 71]),
   midi.NoteOnEvent(tick=1, channel=0, data=[59, 74]),
   midi.NoteOnEvent(tick=1851, channel=0, data=[59, 0]),
   midi.NoteOnEvent(tick=5, channel=0, data=[63, 0]),
   midi.NoteOnEvent(tick=1, channel=0, data=[66, 0]),
   midi.NoteOnEvent(tick=87, channel=0, data=[80, 83]),
   midi.NoteOnEvent(tick=5, channel=0, data=[76, 91]),
   midi.NoteOnEvent(tick=1, channel=0, data=[73, 69]),
   midi.NoteOnEvent(tick=4, channel=0, data=[61, 65]),
   midi.NoteOnEvent(tick=887, channel=0, data=[80, 0]),
   midi.NoteOnEvent(tick=14, channel=0, data=[73, 0]),
   midi.NoteOnEvent(tick=9, channel=0, data=[76, 0]),
   midi.NoteOnEvent(tick=31, channel=0, data=[78, 81]),
   midi.NoteOnEvent(tick=6, channel=0, data=[75, 83]),
   midi.NoteOnEvent(tick=470, channel=0, data=[78, 0]),
   midi.NoteOnEvent(tick=1, channel=0, data=[75, 0]),
   midi.NoteOnEvent(tick=7, channel=0, data=[76, 85]),
   midi.NoteOnEvent(tick=15, channel=0, data=[73, 75]),
   midi.NoteOnEvent(tick=410, channel=0, data=[73, 0]),
   midi.NoteOnEvent(tick=7, channel=0, data=[76, 0]),
   midi.NoteOnEvent(tick=6, channel=0, data=[61, 0]),
   midi.NoteOnEvent(tick=18, channel=0, data=[78, 67]),
   midi.NoteOnEvent(tick=1, channel=0, data=[71, 73]),
   midi.NoteOnEvent(tick=8, channel=0, data=[75, 74]),
   midi.NoteOnEvent(tick=1687, channel=0, data=[71, 0]),
   midi.NoteOnEvent(tick=68, channel=0, data=[75, 0]),
   midi.NoteOnEvent(tick=106, channel=0, data=[78, 0]),
   midi.NoteOnEvent(tick=56, channel=0, data=[76, 80]),
   midi.NoteOnEvent(tick=5, channel=0, data=[71, 77]),
   midi.NoteOnEvent(tick=1, channel=0, data=[73, 61]),
   midi.NoteOnEvent(tick=1899, channel=0, data=[71, 0]),
   midi.NoteOnEvent(tick=0, channel=0, data=[73, 0]),
   midi.NoteOnEvent(tick=0, channel=0, data=[76, 0]),
   midi.NoteOnEvent(tick=33, channel=0, data=[64, 76]),
   midi.NoteOnEvent(tick=3, channel=0, data=[59, 81]),
   midi.NoteOnEvent(tick=2, channel=0, data=[54, 90]),
   midi.NoteOnEvent(tick=937, channel=0, data=[64, 0]),
   midi.NoteOnEvent(tick=15, channel=0, data=[63, 63]),
   midi.NoteOnEvent(tick=869, channel=0, data=[54, 0]),
   midi.NoteOnEvent(tick=9, channel=0, data=[63, 0]),
   midi.NoteOnEvent(tick=2, channel=0, data=[59, 0]),
   midi.NoteOnEvent(tick=60, channel=0, data=[49, 63]),
   midi.NoteOnEvent(tick=0, channel=0, data=[64, 59]),
   midi.ControlChangeEvent(tick=81, channel=0, data=[64, 127]),
   midi.NoteOnEvent(tick=153, channel=0, data=[71, 70]),
   midi.NoteOnEvent(tick=5, channel=0, data=[56, 63]),
   midi.NoteOnEvent(tick=237, channel=0, data=[76, 55]),
   midi.NoteOnEvent(tick=7, channel=0, data=[61, 61]),
   midi.NoteOnEvent(tick=7, channel=0, data=[56, 0]),
   midi.NoteOnEvent(tick=151, channel=0, data=[76, 0]),
   midi.NoteOnEvent(tick=77, channel=0, data=[56, 55]),
   midi.NoteOnEvent(tick=0, channel=0, data=[76, 64]),
   midi.NoteOnEvent(tick=5, channel=0, data=[61, 0]),
   midi.NoteOnEvent(tick=45, channel=0, data=[71, 0]),
   midi.NoteOnEvent(tick=181, channel=0, data=[56, 0]),
   midi.NoteOnEvent(tick=12, channel=0, data=[61, 57]),
   midi.NoteOnEvent(tick=229, channel=0, data=[71, 77]),
   midi.NoteOnEvent(tick=11, channel=0, data=[56, 55]),
   midi.NoteOnEvent(tick=3, channel=0, data=[61, 0]),
   midi.NoteOnEvent(tick=240, channel=0, data=[56, 0]),
   midi.NoteOnEvent(tick=0, channel=0, data=[61, 59]),
   midi.NoteOnEvent(tick=56, channel=0, data=[49, 0]),
   midi.NoteOnEvent(tick=14, channel=0, data=[61, 0]),
   midi.NoteOnEvent(tick=337, channel=0, data=[64, 0]),
   midi.NoteOnEvent(tick=59, channel=0, data=[64, 57]),
   midi.NoteOnEvent(tick=0, channel=0, data=[71, 0]),
   midi.NoteOnEvent(tick=9, channel=0, data=[47, 68]),
   midi.ControlChangeEvent(tick=54, channel=0, data=[64, 0]),
   midi.NoteOnEvent(tick=20, channel=0, data=[76, 0]),
   midi.NoteOnEvent(tick=165, channel=0, data=[54, 56]),
   midi.NoteOnEvent(tick=5, channel=0, data=[71, 66]),
   midi.ControlChangeEvent(tick=45, channel=0, data=[64, 127]),
   midi.NoteOnEvent(tick=186, channel=0, data=[76, 63]),
   midi.NoteOnEvent(tick=2, channel=0, data=[54, 0]),
   midi.NoteOnEvent(tick=2, channel=0, data=[59, 67]),
   midi.NoteOnEvent(tick=142, channel=0, data=[76, 0]),
   midi.NoteOnEvent(tick=14, channel=0, data=[71, 0]),
   midi.NoteOnEvent(tick=77, channel=0, data=[54, 61]),
   midi.NoteOnEvent(tick=2, channel=0, data=[76, 55]),
   midi.NoteOnEvent(tick=5, channel=0, data=[59, 0]),
   midi.NoteOnEvent(tick=240, channel=0, data=[59, 68]),
   midi.NoteOnEvent(tick=18, channel=0, data=[54, 0]),
   midi.NoteOnEvent(tick=203, channel=0, data=[71, 70]),
   midi.NoteOnEvent(tick=14, channel=0, data=[59, 0]),
   midi.NoteOnEvent(tick=2, channel=0, data=[54, 65]),
   midi.NoteOnEvent(tick=246, channel=0, data=[59, 75]),
   midi.NoteOnEvent(tick=4, channel=0, data=[54, 0]),
   midi.NoteOnEvent(tick=50, channel=0, data=[47, 0]),
   midi.NoteOnEvent(tick=34, channel=0, data=[59, 0]),
   midi.NoteOnEvent(tick=207, channel=0, data=[64, 0]),
   midi.NoteOnEvent(tick=137, channel=0, data=[71, 0]),
   midi.NoteOnEvent(tick=42, channel=0, data=[45, 68]),
   midi.NoteOnEvent(tick=1, channel=0, data=[64, 59]),
   midi.ControlChangeEvent(tick=8, channel=0, data=[64, 0]),
   midi.NoteOnEvent(tick=10, channel=0, data=[76, 0]),
   midi.NoteOnEvent(tick=217, channel=0, data=[52, 73]),
   midi.NoteOnEvent(tick=7, channel=0, data=[71, 64]),
   midi.ControlChangeEvent(tick=13, channel=0, data=[64, 127]),
   midi.NoteOnEvent(tick=220, channel=0, data=[76, 66]),
   midi.NoteOnEvent(tick=5, channel=0, data=[57, 64]),
   midi.NoteOnEvent(tick=39, channel=0, data=[52, 0]),
   midi.NoteOnEvent(tick=15, channel=0, data=[71, 0]),
   midi.NoteOnEvent(tick=124, channel=0, data=[76, 0]),
   midi.NoteOnEvent(tick=60, channel=0, data=[52, 75]),
   midi.NoteOnEvent(tick=0, channel=0, data=[57, 0]),
   midi.NoteOnEvent(tick=0, channel=0, data=[76, 66]),
   midi.NoteOnEvent(tick=242, channel=0, data=[57, 63]),
   midi.NoteOnEvent(tick=30, channel=0, data=[52, 0]),
   midi.NoteOnEvent(tick=194, channel=0, data=[71, 70]),
   midi.NoteOnEvent(tick=18, channel=0, data=[52, 67]),
   midi.NoteOnEvent(tick=10, channel=0, data=[57, 0]),
   midi.NoteOnEvent(tick=235, channel=0, data=[57, 67]),
   midi.NoteOnEvent(tick=30, channel=0, data=[52, 0]),
   midi.NoteOnEvent(tick=18, channel=0, data=[45, 0]),
   midi.NoteOnEvent(tick=30, channel=0, data=[57, 0]),
   midi.NoteOnEvent(tick=349, channel=0, data=[64, 0]),
   midi.NoteOnEvent(tick=39, channel=0, data=[47, 68]),
   midi.NoteOnEvent(tick=9, channel=0, data=[71, 0]),
   midi.NoteOnEvent(tick=1, channel=0, data=[64, 63]),
   midi.ControlChangeEvent(tick=2, channel=0, data=[64, 0]),
   midi.NoteOnEvent(tick=3, channel=0, data=[76, 0]),
   midi.NoteOnEvent(tick=222, channel=0, data=[54, 61]),
   midi.NoteOnEvent(tick=13, channel=0, data=[71, 64]),
   midi.ControlChangeEvent(tick=9, channel=0, data=[64, 127]),
   midi.NoteOnEvent(tick=211, channel=0, data=[54, 0]),
   midi.NoteOnEvent(tick=9, channel=0, data=[59, 71]),
   midi.NoteOnEvent(tick=3, channel=0, data=[76, 62]),
   midi.NoteOnEvent(tick=88, channel=0, data=[71, 0]),
   midi.NoteOnEvent(tick=82, channel=0, data=[76, 0]),
   midi.NoteOnEvent(tick=67, channel=0, data=[54, 57]),
   midi.NoteOnEvent(tick=2, channel=0, data=[76, 68]),
   midi.NoteOnEvent(tick=1, channel=0, data=[59, 0]),
   midi.NoteOnEvent(tick=244, channel=0, data=[59, 71]),
   midi.NoteOnEvent(tick=10, channel=0, data=[54, 0]),
   midi.NoteOnEvent(tick=211, channel=0, data=[71, 51]),
   midi.NoteOnEvent(tick=4, channel=0, data=[59, 0]),
   midi.NoteOnEvent(tick=10, channel=0, data=[54, 71]),
   midi.NoteOnEvent(tick=243, channel=0, data=[59, 71]),
   midi.ControlChangeEvent(tick=38, channel=0, data=[64, 0]),
   midi.NoteOnEvent(tick=392, channel=0, data=[59, 0]),
   midi.NoteOnEvent(tick=1, channel=0, data=[64, 0]),
   midi.NoteOnEvent(tick=21, channel=0, data=[54, 0]),
   midi.NoteOnEvent(tick=1, channel=0, data=[47, 0]),
   midi.NoteOnEvent(tick=5, channel=0, data=[76, 0]),
   midi.NoteOnEvent(tick=29, channel=0, data=[49, 63]),
   midi.NoteOnEvent(tick=0, channel=0, data=[64, 59]),
   midi.NoteOnEvent(tick=8, channel=0, data=[71, 0]),
   midi.ControlChangeEvent(tick=73, channel=0, data=[64, 127]),
   midi.NoteOnEvent(tick=153, channel=0, data=[71, 70]),
   midi.NoteOnEvent(tick=5, channel=0, data=[56, 63]),
   midi.NoteOnEvent(tick=237, channel=0, data=[76, 55]),
   midi.NoteOnEvent(tick=7, channel=0, data=[61, 61]),
   midi.NoteOnEvent(tick=7, channel=0, data=[56, 0]),
   midi.NoteOnEvent(tick=151, channel=0, data=[76, 0]),
   midi.NoteOnEvent(tick=77, channel=0, data=[56, 55]),
   midi.NoteOnEvent(tick=0, channel=0, data=[76, 64]),
   midi.NoteOnEvent(tick=5, channel=0, data=[61, 0]),
   midi.NoteOnEvent(tick=45, channel=0, data=[71, 0]),
   midi.NoteOnEvent(tick=181, channel=0, data=[56, 0]),
   midi.NoteOnEvent(tick=12, channel=0, data=[61, 57]),
   midi.NoteOnEvent(tick=229, channel=0, data=[71, 77]),
   midi.NoteOnEvent(tick=11, channel=0, data=[56, 55]),
   midi.NoteOnEvent(tick=3, channel=0, data=[61, 0]),
   midi.NoteOnEvent(tick=240, channel=0, data=[56, 0]),
   midi.NoteOnEvent(tick=0, channel=0, data=[61, 59]),
   midi.NoteOnEvent(tick=56, channel=0, data=[49, 0]),
   midi.NoteOnEvent(tick=14, channel=0, data=[61, 0]),
   midi.NoteOnEvent(tick=337, channel=0, data=[64, 0]),
   midi.NoteOnEvent(tick=59, channel=0, data=[64, 57]),
   midi.NoteOnEvent(tick=0, channel=0, data=[71, 0]),
   midi.NoteOnEvent(tick=9, channel=0, data=[47, 68]),
   midi.ControlChangeEvent(tick=54, channel=0, data=[64, 0]),
   midi.NoteOnEvent(tick=20, channel=0, data=[76, 0]),
   midi.NoteOnEvent(tick=165, channel=0, data=[54, 56]),
   midi.NoteOnEvent(tick=5, channel=0, data=[71, 66]),
   midi.ControlChangeEvent(tick=45, channel=0, data=[64, 127]),
   midi.NoteOnEvent(tick=186, channel=0, data=[76, 63]),
   midi.NoteOnEvent(tick=2, channel=0, data=[54, 0]),
   midi.NoteOnEvent(tick=2, channel=0, data=[59, 67]),
   midi.NoteOnEvent(tick=142, channel=0, data=[76, 0]),
   midi.NoteOnEvent(tick=14, channel=0, data=[71, 0]),
   midi.NoteOnEvent(tick=77, channel=0, data=[54, 61]),
   midi.NoteOnEvent(tick=2, channel=0, data=[76, 55]),
   midi.NoteOnEvent(tick=5, channel=0, data=[59, 0]),
   midi.NoteOnEvent(tick=240, channel=0, data=[59, 68]),
   midi.NoteOnEvent(tick=18, channel=0, data=[54, 0]),
   midi.NoteOnEvent(tick=203, channel=0, data=[71, 70]),
   midi.NoteOnEvent(tick=14, channel=0, data=[59, 0]),
   midi.NoteOnEvent(tick=2, channel=0, data=[54, 65]),
   midi.NoteOnEvent(tick=246, channel=0, data=[59, 75]),
   midi.NoteOnEvent(tick=4, channel=0, data=[54, 0]),
   midi.NoteOnEvent(tick=50, channel=0, data=[47, 0]),
   midi.NoteOnEvent(tick=34, channel=0, data=[59, 0]),
   midi.NoteOnEvent(tick=207, channel=0, data=[64, 0]),
   midi.NoteOnEvent(tick=137, channel=0, data=[71, 0]),
   midi.NoteOnEvent(tick=42, channel=0, data=[45, 68]),
   midi.NoteOnEvent(tick=1, channel=0, data=[64, 59]),
   midi.ControlChangeEvent(tick=8, channel=0, data=[64, 0]),
   midi.NoteOnEvent(tick=10, channel=0, data=[76, 0]),
   midi.NoteOnEvent(tick=217, channel=0, data=[52, 73]),
   midi.NoteOnEvent(tick=7, channel=0, data=[71, 64]),
   midi.ControlChangeEvent(tick=13, channel=0, data=[64, 127]),
   midi.NoteOnEvent(tick=220, channel=0, data=[76, 66]),
   midi.NoteOnEvent(tick=5, channel=0, data=[57, 64]),
   midi.NoteOnEvent(tick=39, channel=0, data=[52, 0]),
   midi.NoteOnEvent(tick=15, channel=0, data=[71, 0]),
   midi.NoteOnEvent(tick=124, channel=0, data=[76, 0]),
   midi.NoteOnEvent(tick=60, channel=0, data=[52, 75]),
   midi.NoteOnEvent(tick=0, channel=0, data=[57, 0]),
   midi.NoteOnEvent(tick=0, channel=0, data=[76, 66]),
   midi.NoteOnEvent(tick=242, channel=0, data=[57, 63]),
   midi.NoteOnEvent(tick=30, channel=0, data=[52, 0]),
   midi.NoteOnEvent(tick=194, channel=0, data=[71, 70]),
   midi.NoteOnEvent(tick=18, channel=0, data=[52, 67]),
   midi.NoteOnEvent(tick=10, channel=0, data=[57, 0]),
   midi.NoteOnEvent(tick=210, channel=0, data=[64, 0]),
   midi.NoteOnEvent(tick=0, channel=0, data=[71, 0]),
   midi.NoteOnEvent(tick=0, channel=0, data=[76, 0]),
   midi.NoteOnEvent(tick=12, channel=0, data=[66, 75]),
   midi.NoteOnEvent(tick=0, channel=0, data=[71, 75]),
   midi.NoteOnEvent(tick=13, channel=0, data=[57, 67]),
   midi.NoteOnEvent(tick=30, channel=0, data=[52, 0]),
   midi.NoteOnEvent(tick=18, channel=0, data=[45, 0]),
   midi.NoteOnEvent(tick=30, channel=0, data=[57, 0]),
   midi.NoteOnEvent(tick=382, channel=0, data=[71, 0]),
   midi.NoteOnEvent(tick=6, channel=0, data=[47, 68]),
   midi.NoteOnEvent(tick=1, channel=0, data=[68, 63]),
   midi.NoteOnEvent(tick=0, channel=0, data=[71, 51]),
   midi.NoteOnEvent(tick=5, channel=0, data=[66, 0]),
   midi.NoteOnEvent(tick=4, channel=0, data=[64, 63]),
   midi.ControlChangeEvent(tick=2, channel=0, data=[64, 0]),
   midi.NoteOnEvent(tick=225, channel=0, data=[54, 61]),
   midi.ControlChangeEvent(tick=22, channel=0, data=[64, 127]),
   midi.NoteOnEvent(tick=211, channel=0, data=[54, 0]),
   midi.NoteOnEvent(tick=9, channel=0, data=[59, 71]),
   midi.NoteOnEvent(tick=3, channel=0, data=[76, 62]),
   midi.NoteOnEvent(tick=170, channel=0, data=[76, 0]),
   midi.NoteOnEvent(tick=67, channel=0, data=[54, 57]),
   midi.NoteOnEvent(tick=2, channel=0, data=[76, 68]),
   midi.NoteOnEvent(tick=1, channel=0, data=[59, 0]),
   midi.NoteOnEvent(tick=244, channel=0, data=[59, 71]),
   midi.NoteOnEvent(tick=10, channel=0, data=[54, 0]),
   midi.NoteOnEvent(tick=215, channel=0, data=[59, 0]),
   midi.NoteOnEvent(tick=10, channel=0, data=[54, 71]),
   midi.NoteOnEvent(tick=243, channel=0, data=[59, 71]),
   midi.ControlChangeEvent(tick=38, channel=0, data=[64, 0]),
   midi.NoteOnEvent(tick=319, channel=0, data=[71, 0]),
   midi.NoteOnEvent(tick=65, channel=0, data=[68, 0]),
   midi.NoteOnEvent(tick=8, channel=0, data=[59, 0]),
   midi.NoteOnEvent(tick=1, channel=0, data=[64, 0]),
   midi.NoteOnEvent(tick=21, channel=0, data=[54, 0]),
   midi.NoteOnEvent(tick=1, channel=0, data=[47, 0]),
   midi.NoteOnEvent(tick=5, channel=0, data=[76, 0]),
   midi.NoteOnEvent(tick=19, channel=0, data=[65, 86]),
   midi.NoteOnEvent(tick=0, channel=0, data=[68, 86]),
   midi.NoteOnEvent(tick=0, channel=0, data=[72, 86]),
   midi.NoteOnEvent(tick=1816, channel=0, data=[65, 0]),
   midi.NoteOnEvent(tick=48, channel=0, data=[68, 0]),
   midi.NoteOnEvent(tick=19, channel=0, data=[72, 0]),
   midi.NoteOnEvent(tick=36, channel=0, data=[63, 91]),
   midi.NoteOnEvent(tick=5, channel=0, data=[67, 91]),
   midi.NoteOnEvent(tick=0, channel=0, data=[70, 91]),
   midi.NoteOnEvent(tick=1737, channel=0, data=[67, 0]),
   midi.NoteOnEvent(tick=29, channel=0, data=[63, 0]),
   midi.NoteOnEvent(tick=168, channel=0, data=[65, 91]),
   midi.NoteOnEvent(tick=1, channel=0, data=[68, 88]),
   midi.NoteOnEvent(tick=1, channel=0, data=[61, 88]),
   midi.NoteOnEvent(tick=5, channel=0, data=[70, 0]),
   midi.NoteOnEvent(tick=1724, channel=0, data=[65, 0]),
   midi.NoteOnEvent(tick=29, channel=0, data=[61, 0]),
   midi.NoteOnEvent(tick=96, channel=0, data=[68, 0]),
   midi.NoteOnEvent(tick=55, channel=0, data=[70, 93]),
   midi.NoteOnEvent(tick=4, channel=0, data=[67, 81]),
   midi.NoteOnEvent(tick=1, channel=0, data=[63, 84]),
   midi.NoteOnEvent(tick=1851, channel=0, data=[63, 0]),
   midi.NoteOnEvent(tick=5, channel=0, data=[67, 0]),
   midi.NoteOnEvent(tick=1, channel=0, data=[70, 0]),
   midi.NoteOnEvent(tick=87, channel=0, data=[72, 93]),
   midi.NoteOnEvent(tick=5, channel=0, data=[68, 101]),
   midi.NoteOnEvent(tick=1, channel=0, data=[65, 79]),
   midi.NoteOnEvent(tick=4, channel=0, data=[53, 75]),
   midi.NoteOnEvent(tick=887, channel=0, data=[72, 0]),
   midi.NoteOnEvent(tick=14, channel=0, data=[65, 0]),
   midi.NoteOnEvent(tick=9, channel=0, data=[68, 0]),
   midi.NoteOnEvent(tick=31, channel=0, data=[70, 91]),
   midi.NoteOnEvent(tick=6, channel=0, data=[67, 93]),
   midi.NoteOnEvent(tick=470, channel=0, data=[70, 0]),
   midi.NoteOnEvent(tick=1, channel=0, data=[67, 0]),
   midi.NoteOnEvent(tick=7, channel=0, data=[68, 95]),
   midi.NoteOnEvent(tick=15, channel=0, data=[65, 85]),
   midi.NoteOnEvent(tick=410, channel=0, data=[65, 0]),
   midi.NoteOnEvent(tick=7, channel=0, data=[68, 0]),
   midi.NoteOnEvent(tick=6, channel=0, data=[53, 0]),
   midi.NoteOnEvent(tick=18, channel=0, data=[70, 77]),
   midi.NoteOnEvent(tick=1, channel=0, data=[63, 83]),
   midi.NoteOnEvent(tick=8, channel=0, data=[67, 84]),
   midi.NoteOnEvent(tick=1687, channel=0, data=[63, 0]),
   midi.NoteOnEvent(tick=68, channel=0, data=[67, 0]),
   midi.NoteOnEvent(tick=106, channel=0, data=[70, 0]),
   midi.NoteOnEvent(tick=30, channel=0, data=[63, 71]),
   midi.NoteOnEvent(tick=0, channel=0, data=[65, 97]),
   midi.NoteOnEvent(tick=4, channel=0, data=[56, 68]),
   midi.NoteOnEvent(tick=976, channel=0, data=[61, 68]),
   midi.NoteOnEvent(tick=12, channel=0, data=[63, 0]),
   midi.NoteOnEvent(tick=862, channel=0, data=[56, 0]),
   midi.NoteOnEvent(tick=11, channel=0, data=[61, 0]),
   midi.NoteOnEvent(tick=4, channel=0, data=[65, 0]),
   midi.NoteOnEvent(tick=95, channel=0, data=[68, 86]),
   midi.NoteOnEvent(tick=3, channel=0, data=[63, 91]),
   midi.NoteOnEvent(tick=2, channel=0, data=[58, 100]),
   midi.NoteOnEvent(tick=922, channel=0, data=[70, 73]),
   midi.NoteOnEvent(tick=15, channel=0, data=[68, 0]),
   midi.NoteOnEvent(tick=863, channel=0, data=[70, 0]),
   midi.NoteOnEvent(tick=21, channel=0, data=[58, 0]),
   midi.NoteOnEvent(tick=11, channel=0, data=[63, 0]),
   midi.NoteOnEvent(tick=50, channel=0, data=[65, 86]),
   midi.NoteOnEvent(tick=0, channel=0, data=[68, 86]),
   midi.NoteOnEvent(tick=0, channel=0, data=[72, 86]),
   midi.NoteOnEvent(tick=1816, channel=0, data=[65, 0]),
   midi.NoteOnEvent(tick=48, channel=0, data=[68, 0]),
   midi.NoteOnEvent(tick=19, channel=0, data=[72, 0]),
   midi.NoteOnEvent(tick=36, channel=0, data=[63, 91]),
   midi.NoteOnEvent(tick=5, channel=0, data=[67, 91]),
   midi.NoteOnEvent(tick=0, channel=0, data=[70, 91]),
   midi.NoteOnEvent(tick=1737, channel=0, data=[67, 0]),
   midi.NoteOnEvent(tick=29, channel=0, data=[63, 0]),
   midi.NoteOnEvent(tick=168, channel=0, data=[65, 91]),
   midi.NoteOnEvent(tick=1, channel=0, data=[68, 88]),
   midi.NoteOnEvent(tick=1, channel=0, data=[61, 88]),
   midi.NoteOnEvent(tick=5, channel=0, data=[70, 0]),
   midi.NoteOnEvent(tick=1724, channel=0, data=[65, 0]),
   midi.NoteOnEvent(tick=29, channel=0, data=[61, 0]),
   midi.NoteOnEvent(tick=96, channel=0, data=[68, 0]),
   midi.NoteOnEvent(tick=55, channel=0, data=[70, 93]),
   midi.NoteOnEvent(tick=4, channel=0, data=[67, 81]),
   midi.NoteOnEvent(tick=1, channel=0, data=[63, 84]),
   midi.NoteOnEvent(tick=1851, channel=0, data=[63, 0]),
   midi.NoteOnEvent(tick=5, channel=0, data=[67, 0]),
   midi.NoteOnEvent(tick=1, channel=0, data=[70, 0]),
   midi.NoteOnEvent(tick=87, channel=0, data=[72, 93]),
   midi.NoteOnEvent(tick=5, channel=0, data=[68, 101]),
   midi.NoteOnEvent(tick=1, channel=0, data=[65, 79]),
   midi.NoteOnEvent(tick=4, channel=0, data=[53, 75]),
   midi.NoteOnEvent(tick=887, channel=0, data=[72, 0]),
   midi.NoteOnEvent(tick=14, channel=0, data=[65, 0]),
   midi.NoteOnEvent(tick=9, channel=0, data=[68, 0]),
   midi.NoteOnEvent(tick=31, channel=0, data=[70, 91]),
   midi.NoteOnEvent(tick=6, channel=0, data=[67, 93]),
   midi.NoteOnEvent(tick=470, channel=0, data=[70, 0]),
   midi.NoteOnEvent(tick=1, channel=0, data=[67, 0]),
   midi.NoteOnEvent(tick=7, channel=0, data=[68, 95]),
   midi.NoteOnEvent(tick=15, channel=0, data=[65, 85]),
   midi.NoteOnEvent(tick=410, channel=0, data=[65, 0]),
   midi.NoteOnEvent(tick=7, channel=0, data=[68, 0]),
   midi.NoteOnEvent(tick=6, channel=0, data=[53, 0]),
   midi.NoteOnEvent(tick=18, channel=0, data=[70, 77]),
   midi.NoteOnEvent(tick=1, channel=0, data=[63, 83]),
   midi.NoteOnEvent(tick=8, channel=0, data=[67, 84]),
   midi.NoteOnEvent(tick=1687, channel=0, data=[63, 0]),
   midi.NoteOnEvent(tick=68, channel=0, data=[67, 0]),
   midi.NoteOnEvent(tick=106, channel=0, data=[70, 0]),
   midi.NoteOnEvent(tick=30, channel=0, data=[63, 71]),
   midi.NoteOnEvent(tick=0, channel=0, data=[65, 97]),
   midi.NoteOnEvent(tick=4, channel=0, data=[56, 68]),
   midi.NoteOnEvent(tick=976, channel=0, data=[61, 68]),
   midi.NoteOnEvent(tick=12, channel=0, data=[63, 0]),
   midi.NoteOnEvent(tick=862, channel=0, data=[56, 0]),
   midi.NoteOnEvent(tick=11, channel=0, data=[61, 0]),
   midi.NoteOnEvent(tick=4, channel=0, data=[65, 0]),
   midi.NoteOnEvent(tick=95, channel=0, data=[68, 86]),
   midi.NoteOnEvent(tick=3, channel=0, data=[63, 91]),
   midi.NoteOnEvent(tick=2, channel=0, data=[58, 100]),
   midi.NoteOnEvent(tick=922, channel=0, data=[70, 73]),
   midi.NoteOnEvent(tick=15, channel=0, data=[68, 0]),
   midi.NoteOnEvent(tick=863, channel=0, data=[70, 0]),
   midi.NoteOnEvent(tick=21, channel=0, data=[58, 0]),
   midi.NoteOnEvent(tick=11, channel=0, data=[63, 0]),
   midi.NoteOnEvent(tick=50, channel=0, data=[56, 59]),
   midi.NoteOnEvent(tick=0, channel=0, data=[68, 80]),
   midi.ControlChangeEvent(tick=79, channel=0, data=[64, 127]),
   midi.NoteOnEvent(tick=290, channel=0, data=[56, 0]),
   midi.NoteOnEvent(tick=111, channel=0, data=[60, 81]),
   midi.NoteOnEvent(tick=0, channel=0, data=[68, 0]),
   midi.NoteOnEvent(tick=0, channel=0, data=[75, 73]),
   midi.NoteOnEvent(tick=166, channel=0, data=[60, 0]),
   midi.NoteOnEvent(tick=74, channel=0, data=[63, 65]),
   midi.NoteOnEvent(tick=0, channel=0, data=[68, 71]),
   midi.NoteOnEvent(tick=175, channel=0, data=[75, 0]),
   midi.NoteOnEvent(tick=145, channel=0, data=[63, 0]),
   midi.NoteOnEvent(tick=160, channel=0, data=[60, 83]),
   midi.NoteOnEvent(tick=0, channel=0, data=[75, 68]),
   midi.NoteOnEvent(tick=155, channel=0, data=[60, 0]),
   midi.NoteOnEvent(tick=389, channel=0, data=[68, 0]),
   midi.NoteOnEvent(tick=39, channel=0, data=[75, 0]),
   midi.ControlChangeEvent(tick=127, channel=0, data=[64, 0]),
   midi.NoteOnEvent(tick=10, channel=0, data=[58, 68]),
   midi.NoteOnEvent(tick=0, channel=0, data=[70, 76]),
   midi.ControlChangeEvent(tick=154, channel=0, data=[64, 127]),
   midi.NoteOnEvent(tick=156, channel=0, data=[58, 0]),
   midi.NoteOnEvent(tick=170, channel=0, data=[63, 63]),
   midi.NoteOnEvent(tick=0, channel=0, data=[75, 73]),
   midi.NoteOnEvent(tick=11, channel=0, data=[70, 0]),
   midi.NoteOnEvent(tick=133, channel=0, data=[63, 0]),
   midi.NoteOnEvent(tick=96, channel=0, data=[58, 63]),
   midi.NoteOnEvent(tick=0, channel=0, data=[70, 68]),
   midi.NoteOnEvent(tick=11, channel=0, data=[75, 0]),
   midi.NoteOnEvent(tick=168, channel=0, data=[58, 0]),
   midi.NoteOnEvent(tick=61, channel=0, data=[75, 71]),
   midi.NoteOnEvent(tick=240, channel=0, data=[63, 63]),
   midi.NoteOnEvent(tick=80, channel=0, data=[70, 0]),
   midi.NoteOnEvent(tick=80, channel=0, data=[63, 0]),
   midi.NoteOnEvent(tick=80, channel=0, data=[70, 71]),
   midi.NoteOnEvent(tick=240, channel=0, data=[58, 83]),
   midi.NoteOnEvent(tick=151, channel=0, data=[70, 0]),
   midi.NoteOnEvent(tick=4, channel=0, data=[75, 0]),
   midi.NoteOnEvent(tick=50, channel=0, data=[58, 0]),
   midi.ControlChangeEvent(tick=8, channel=0, data=[64, 0]),
   midi.NoteOnEvent(tick=27, channel=0, data=[56, 47]),
   midi.NoteOnEvent(tick=0, channel=0, data=[68, 65]),
   midi.ControlChangeEvent(tick=104, channel=0, data=[64, 127]),
   midi.NoteOnEvent(tick=136, channel=0, data=[61, 65]),
   midi.NoteOnEvent(tick=21, channel=0, data=[56, 0]),
   midi.NoteOnEvent(tick=217, channel=0, data=[61, 0]),
   midi.NoteOnEvent(tick=2, channel=0, data=[65, 81]),
   midi.NoteOnEvent(tick=0, channel=0, data=[68, 0]),
   midi.NoteOnEvent(tick=0, channel=0, data=[75, 71]),
   midi.NoteOnEvent(tick=216, channel=0, data=[65, 0]),
   midi.NoteOnEvent(tick=24, channel=0, data=[61, 65]),
   midi.NoteOnEvent(tick=0, channel=0, data=[68, 68]),
   midi.NoteOnEvent(tick=193, channel=0, data=[61, 0]),
   midi.NoteOnEvent(tick=220, channel=0, data=[68, 0]),
   midi.NoteOnEvent(tick=67, channel=0, data=[65, 88]),
   midi.NoteOnEvent(tick=0, channel=0, data=[68, 71]),
   midi.NoteOnEvent(tick=118, channel=0, data=[65, 0]),
   midi.NoteOnEvent(tick=362, channel=0, data=[61, 61]),
   midi.ControlChangeEvent(tick=108, channel=0, data=[64, 0]),
   midi.NoteOnEvent(tick=42, channel=0, data=[68, 0]),
   midi.NoteOnEvent(tick=53, channel=0, data=[75, 0]),
   midi.NoteOnEvent(tick=36, channel=0, data=[61, 0]),
   midi.NoteOnEvent(tick=11, channel=0, data=[58, 53]),
   midi.NoteOnEvent(tick=220, channel=0, data=[63, 43]),
   midi.NoteOnEvent(tick=244, channel=0, data=[67, 88]),
   midi.NoteOnEvent(tick=19, channel=0, data=[63, 0]),
   midi.ControlChangeEvent(tick=76, channel=0, data=[64, 127]),
   midi.NoteOnEvent(tick=146, channel=0, data=[63, 51]),
   midi.NoteOnEvent(tick=6, channel=0, data=[67, 0]),
   midi.NoteOnEvent(tick=205, channel=0, data=[63, 0]),
   midi.NoteOnEvent(tick=34, channel=0, data=[68, 76]),
   midi.NoteOnEvent(tick=228, channel=0, data=[63, 55]),
   midi.NoteOnEvent(tick=232, channel=0, data=[68, 0]),
   midi.NoteOnEvent(tick=20, channel=0, data=[70, 73]),
   midi.ControlChangeEvent(tick=173, channel=0, data=[64, 0]),
   midi.NoteOnEvent(tick=228, channel=0, data=[70, 0]),
   midi.NoteOnEvent(tick=79, channel=0, data=[56, 59]),
   midi.NoteOnEvent(tick=0, channel=0, data=[68, 80]),
   midi.NoteOnEvent(tick=1, channel=0, data=[58, 0]),
   midi.NoteOnEvent(tick=0, channel=0, data=[63, 0]),
   midi.ControlChangeEvent(tick=78, channel=0, data=[64, 127]),
   midi.NoteOnEvent(tick=290, channel=0, data=[56, 0]),
   midi.NoteOnEvent(tick=111, channel=0, data=[60, 81]),
   midi.NoteOnEvent(tick=0, channel=0, data=[68, 0]),
   midi.NoteOnEvent(tick=0, channel=0, data=[75, 73]),
   midi.NoteOnEvent(tick=166, channel=0, data=[60, 0]),
   midi.NoteOnEvent(tick=74, channel=0, data=[63, 65]),
   midi.NoteOnEvent(tick=0, channel=0, data=[68, 71]),
   midi.NoteOnEvent(tick=175, channel=0, data=[75, 0]),
   midi.NoteOnEvent(tick=145, channel=0, data=[63, 0]),
   midi.NoteOnEvent(tick=160, channel=0, data=[60, 83]),
   midi.NoteOnEvent(tick=0, channel=0, data=[75, 68]),
   midi.NoteOnEvent(tick=155, channel=0, data=[60, 0]),
   midi.NoteOnEvent(tick=389, channel=0, data=[68, 0]),
   midi.NoteOnEvent(tick=39, channel=0, data=[75, 0]),
   midi.ControlChangeEvent(tick=127, channel=0, data=[64, 0]),
   midi.NoteOnEvent(tick=10, channel=0, data=[58, 68]),
   midi.NoteOnEvent(tick=0, channel=0, data=[70, 76]),
   midi.ControlChangeEvent(tick=154, channel=0, data=[64, 127]),
   midi.NoteOnEvent(tick=156, channel=0, data=[58, 0]),
   midi.NoteOnEvent(tick=170, channel=0, data=[63, 63]),
   midi.NoteOnEvent(tick=0, channel=0, data=[75, 73]),
   midi.NoteOnEvent(tick=11, channel=0, data=[70, 0]),
   midi.NoteOnEvent(tick=133, channel=0, data=[63, 0]),
   midi.NoteOnEvent(tick=96, channel=0, data=[58, 63]),
   midi.NoteOnEvent(tick=0, channel=0, data=[70, 68]),
   midi.NoteOnEvent(tick=11, channel=0, data=[75, 0]),
   midi.NoteOnEvent(tick=168, channel=0, data=[58, 0]),
   midi.NoteOnEvent(tick=61, channel=0, data=[75, 71]),
   midi.NoteOnEvent(tick=240, channel=0, data=[63, 63]),
   midi.NoteOnEvent(tick=80, channel=0, data=[70, 0]),
   midi.NoteOnEvent(tick=80, channel=0, data=[63, 0]),
   midi.NoteOnEvent(tick=80, channel=0, data=[70, 71]),
   midi.NoteOnEvent(tick=240, channel=0, data=[58, 83]),
   midi.NoteOnEvent(tick=151, channel=0, data=[70, 0]),
   midi.NoteOnEvent(tick=4, channel=0, data=[75, 0]),
   midi.NoteOnEvent(tick=50, channel=0, data=[58, 0]),
   midi.ControlChangeEvent(tick=8, channel=0, data=[64, 0]),
   midi.NoteOnEvent(tick=27, channel=0, data=[56, 47]),
   midi.NoteOnEvent(tick=0, channel=0, data=[68, 65]),
   midi.ControlChangeEvent(tick=104, channel=0, data=[64, 127]),
   midi.NoteOnEvent(tick=136, channel=0, data=[61, 65]),
   midi.NoteOnEvent(tick=21, channel=0, data=[56, 0]),
   midi.NoteOnEvent(tick=217, channel=0, data=[61, 0]),
   midi.NoteOnEvent(tick=2, channel=0, data=[68, 0]),
   midi.NoteOnEvent(tick=0, channel=0, data=[75, 71]),
   midi.NoteOnEvent(tick=240, channel=0, data=[63, 81]),
   midi.NoteOnEvent(tick=0, channel=0, data=[68, 68]),
   midi.NoteOnEvent(tick=216, channel=0, data=[63, 0]),
   midi.NoteOnEvent(tick=24, channel=0, data=[61, 65]),
   midi.NoteOnEvent(tick=173, channel=0, data=[68, 0]),
   midi.NoteOnEvent(tick=20, channel=0, data=[61, 0]),
   midi.NoteOnEvent(tick=47, channel=0, data=[68, 71]),
   midi.NoteOnEvent(tick=240, channel=0, data=[63, 73]),
   midi.ControlChangeEvent(tick=348, channel=0, data=[64, 0]),
   midi.NoteOnEvent(tick=42, channel=0, data=[68, 0]),
   midi.NoteOnEvent(tick=53, channel=0, data=[75, 0]),
   midi.NoteOnEvent(tick=25, channel=0, data=[63, 0]),
   midi.NoteOnEvent(tick=12, channel=0, data=[53, 53]),
   midi.NoteOnEvent(tick=0, channel=0, data=[56, 53]),
   midi.NoteOnEvent(tick=0, channel=0, data=[61, 43]),
   midi.NoteOnEvent(tick=0, channel=0, data=[63, 55]),
   midi.NoteOnEvent(tick=0, channel=0, data=[68, 55]),
   midi.ControlChangeEvent(tick=569, channel=0, data=[64, 127]),
   midi.ControlChangeEvent(tick=1044, channel=0, data=[64, 0]),
   midi.NoteOnEvent(tick=307, channel=0, data=[53, 0]),
   midi.NoteOnEvent(tick=0, channel=0, data=[56, 0]),
   midi.NoteOnEvent(tick=0, channel=0, data=[61, 0]),
   midi.NoteOnEvent(tick=0, channel=0, data=[63, 0]),
   midi.NoteOnEvent(tick=0, channel=0, data=[68, 0]),
   midi.NoteOnEvent(tick=3840, channel=0, data=[58, 59]),
   midi.NoteOnEvent(tick=30, channel=0, data=[44, 59]),
   midi.NoteOnEvent(tick=10, channel=0, data=[60, 59]),
   midi.NoteOnEvent(tick=9, channel=0, data=[56, 59]),
   midi.NoteOnEvent(tick=32, channel=0, data=[63, 57]),
   midi.NoteOnEvent(tick=14, channel=0, data=[51, 57]),
   midi.NoteOnEvent(tick=2323, channel=0, data=[56, 0]),
   midi.NoteOnEvent(tick=232, channel=0, data=[56, 49]),
   midi.NoteOnEvent(tick=268, channel=0, data=[68, 50]),
   midi.NoteOnEvent(tick=1401, channel=0, data=[44, 0]),
   midi.NoteOnEvent(tick=5, channel=0, data=[51, 0]),
   midi.NoteOnEvent(tick=9, channel=0, data=[63, 0]),
   midi.NoteOnEvent(tick=3, channel=0, data=[56, 0]),
   midi.NoteOnEvent(tick=0, channel=0, data=[58, 0]),
   midi.NoteOnEvent(tick=17, channel=0, data=[60, 0]),
   midi.NoteOnEvent(tick=0, channel=0, data=[68, 0]),
   midi.EndOfTrackEvent(tick=1407, data=[])]),
 midi.Track(\
  [midi.ChannelPrefixEvent(tick=0, data=[1]),
   midi.TrackNameEvent(tick=0, text="My Heart Will Go On (Iz Filma 'Titanik') 02 (Karaoke)", data=[77, 121, 32, 72, 101, 97, 114, 116, 32, 87, 105, 108, 108, 32, 71, 111, 32, 79, 110, 32, 40, 73, 122, 32, 70, 105, 108, 109, 97, 32, 39, 84, 105, 116, 97, 110, 105, 107, 39, 41, 32, 48, 50, 32, 40, 75, 97, 114, 97, 111, 107, 101, 41]),
   midi.InstrumentNameEvent(tick=0, text='\xe6\x97\xa0\xe5\x93\x81\xe8\xb4\x9d\xe5\x8f\xb8', data=[230, 151, 160, 229, 147, 129, 232, 180, 157, 229, 143, 184]),
   midi.ControlChangeEvent(tick=178, channel=1, data=[121, 0]),
   midi.ProgramChangeEvent(tick=311, channel=1, data=[35]),
   midi.ControlChangeEvent(tick=1, channel=1, data=[7, 100]),
   midi.ControlChangeEvent(tick=0, channel=1, data=[10, 64]),
   midi.ControlChangeEvent(tick=25, channel=1, data=[91, 0]),
   midi.ControlChangeEvent(tick=5, channel=1, data=[93, 50]),
   midi.ControlChangeEvent(tick=15, channel=1, data=[11, 127]),
   midi.ControlChangeEvent(tick=449, channel=1, data=[100, 0]),
   midi.ControlChangeEvent(tick=7, channel=1, data=[101, 0]),
   midi.ControlChangeEvent(tick=4, channel=1, data=[6, 2]),
   midi.ControlChangeEvent(tick=445, channel=1, data=[98, 32]),
   midi.ControlChangeEvent(tick=4, channel=1, data=[99, 1]),
   midi.ControlChangeEvent(tick=7, channel=1, data=[6, 40]),
   midi.ControlChangeEvent(tick=9, channel=1, data=[74, 64]),
   midi.NoteOnEvent(tick=32620, channel=1, data=[47, 62]),
   midi.NoteOnEvent(tick=480, channel=1, data=[40, 59]),
   midi.NoteOnEvent(tick=3, channel=1, data=[47, 0]),
   midi.NoteOnEvent(tick=1641, channel=1, data=[40, 0]),
   midi.NoteOnEvent(tick=36, channel=1, data=[40, 62]),
   midi.NoteOnEvent(tick=238, channel=1, data=[47, 61]),
   midi.NoteOnEvent(tick=7, channel=1, data=[40, 0]),
   midi.NoteOnEvent(tick=1913, channel=1, data=[47, 0]),
   midi.NoteOnEvent(tick=2, channel=1, data=[45, 59]),
   midi.NoteOnEvent(tick=1644, channel=1, data=[45, 0]),
   midi.NoteOnEvent(tick=36, channel=1, data=[45, 62]),
   midi.NoteOnEvent(tick=238, channel=1, data=[47, 61]),
   midi.NoteOnEvent(tick=7, channel=1, data=[45, 0]),
   midi.NoteOnEvent(tick=1913, channel=1, data=[47, 0]),
   midi.NoteOnEvent(tick=2, channel=1, data=[52, 61]),
   midi.NoteOnEvent(tick=1918, channel=1, data=[47, 61]),
   midi.NoteOnEvent(tick=2, channel=1, data=[52, 0]),
   midi.NoteOnEvent(tick=1918, channel=1, data=[47, 0]),
   midi.NoteOnEvent(tick=2, channel=1, data=[45, 59]),
   midi.NoteOnEvent(tick=1644, channel=1, data=[45, 0]),
   midi.NoteOnEvent(tick=36, channel=1, data=[45, 62]),
   midi.NoteOnEvent(tick=238, channel=1, data=[45, 0]),
   midi.NoteOnEvent(tick=0, channel=1, data=[45, 61]),
   midi.NoteOnEvent(tick=1920, channel=1, data=[45, 0]),
   midi.NoteOnEvent(tick=2, channel=1, data=[49, 59]),
   midi.NoteOnEvent(tick=1644, channel=1, data=[49, 0]),
   midi.NoteOnEvent(tick=36, channel=1, data=[49, 46]),
   midi.NoteOnEvent(tick=120, channel=1, data=[49, 0]),
   midi.NoteOnEvent(tick=118, channel=1, data=[47, 61]),
   midi.NoteOnEvent(tick=1657, channel=1, data=[47, 0]),
   midi.NoteOnEvent(tick=24, channel=1, data=[47, 46]),
   midi.NoteOnEvent(tick=207, channel=1, data=[47, 0]),
   midi.NoteOnEvent(tick=34, channel=1, data=[45, 59]),
   midi.NoteOnEvent(tick=1644, channel=1, data=[45, 0]),
   midi.NoteOnEvent(tick=36, channel=1, data=[45, 51]),
   midi.NoteOnEvent(tick=195, channel=1, data=[45, 0]),
   midi.NoteOnEvent(tick=43, channel=1, data=[47, 59]),
   midi.NoteOnEvent(tick=1643, channel=1, data=[47, 0]),
   midi.NoteOnEvent(tick=38, channel=1, data=[47, 51]),
   midi.NoteOnEvent(tick=195, channel=1, data=[47, 0]),
   midi.NoteOnEvent(tick=46, channel=1, data=[49, 59]),
   midi.NoteOnEvent(tick=1644, channel=1, data=[49, 0]),
   midi.NoteOnEvent(tick=36, channel=1, data=[49, 46]),
   midi.NoteOnEvent(tick=238, channel=1, data=[47, 61]),
   midi.NoteOnEvent(tick=7, channel=1, data=[49, 0]),
   midi.NoteOnEvent(tick=1913, channel=1, data=[47, 0]),
   midi.NoteOnEvent(tick=2, channel=1, data=[45, 59]),
   midi.NoteOnEvent(tick=1644, channel=1, data=[45, 0]),
   midi.NoteOnEvent(tick=36, channel=1, data=[45, 51]),
   midi.NoteOnEvent(tick=238, channel=1, data=[45, 0]),
   midi.NoteOnEvent(tick=0, channel=1, data=[45, 61]),
   midi.NoteOnEvent(tick=1187, channel=1, data=[45, 0]),
   midi.NoteOnEvent(tick=14, channel=1, data=[47, 44]),
   midi.NoteOnEvent(tick=237, channel=1, data=[47, 0]),
   midi.NoteOnEvent(tick=4, channel=1, data=[47, 56]),
   midi.NoteOnEvent(tick=238, channel=1, data=[47, 0]),
   midi.NoteOnEvent(tick=1, channel=1, data=[47, 44]),
   midi.NoteOnEvent(tick=237, channel=1, data=[47, 0]),
   midi.NoteOnEvent(tick=4, channel=1, data=[49, 59]),
   midi.NoteOnEvent(tick=1644, channel=1, data=[49, 0]),
   midi.NoteOnEvent(tick=36, channel=1, data=[49, 46]),
   midi.NoteOnEvent(tick=120, channel=1, data=[49, 0]),
   midi.NoteOnEvent(tick=118, channel=1, data=[47, 61]),
   midi.NoteOnEvent(tick=1657, channel=1, data=[47, 0]),
   midi.NoteOnEvent(tick=24, channel=1, data=[47, 46]),
   midi.NoteOnEvent(tick=207, channel=1, data=[47, 0]),
   midi.NoteOnEvent(tick=34, channel=1, data=[45, 59]),
   midi.NoteOnEvent(tick=1644, channel=1, data=[45, 0]),
   midi.NoteOnEvent(tick=36, channel=1, data=[45, 51]),
   midi.NoteOnEvent(tick=195, channel=1, data=[45, 0]),
   midi.NoteOnEvent(tick=43, channel=1, data=[47, 59]),
   midi.NoteOnEvent(tick=1643, channel=1, data=[47, 0]),
   midi.NoteOnEvent(tick=38, channel=1, data=[47, 51]),
   midi.NoteOnEvent(tick=195, channel=1, data=[47, 0]),
   midi.NoteOnEvent(tick=46, channel=1, data=[49, 59]),
   midi.NoteOnEvent(tick=1644, channel=1, data=[49, 0]),
   midi.NoteOnEvent(tick=36, channel=1, data=[49, 46]),
   midi.NoteOnEvent(tick=238, channel=1, data=[44, 61]),
   midi.NoteOnEvent(tick=7, channel=1, data=[49, 0]),
   midi.NoteOnEvent(tick=1913, channel=1, data=[44, 0]),
   midi.NoteOnEvent(tick=2, channel=1, data=[45, 59]),
   midi.NoteOnEvent(tick=1644, channel=1, data=[45, 0]),
   midi.NoteOnEvent(tick=36, channel=1, data=[45, 51]),
   midi.NoteOnEvent(tick=238, channel=1, data=[45, 0]),
   midi.NoteOnEvent(tick=0, channel=1, data=[47, 61]),
   midi.NoteOnEvent(tick=1912, channel=1, data=[47, 0]),
   midi.NoteOnEvent(tick=7690, channel=1, data=[40, 89]),
   midi.NoteOnEvent(tick=1644, channel=1, data=[40, 0]),
   midi.NoteOnEvent(tick=36, channel=1, data=[40, 92]),
   midi.NoteOnEvent(tick=238, channel=1, data=[47, 91]),
   midi.NoteOnEvent(tick=7, channel=1, data=[40, 0]),
   midi.NoteOnEvent(tick=1913, channel=1, data=[47, 0]),
   midi.NoteOnEvent(tick=2, channel=1, data=[45, 89]),
   midi.NoteOnEvent(tick=1644, channel=1, data=[45, 0]),
   midi.NoteOnEvent(tick=36, channel=1, data=[45, 92]),
   midi.NoteOnEvent(tick=238, channel=1, data=[47, 91]),
   midi.NoteOnEvent(tick=7, channel=1, data=[45, 0]),
   midi.NoteOnEvent(tick=953, channel=1, data=[47, 0]),
   midi.NoteOnEvent(tick=2, channel=1, data=[35, 91]),
   midi.NoteOnEvent(tick=480, channel=1, data=[35, 0]),
   midi.NoteOnEvent(tick=0, channel=1, data=[47, 91]),
   midi.NoteOnEvent(tick=480, channel=1, data=[40, 91]),
   midi.NoteOnEvent(tick=0, channel=1, data=[47, 0]),
   midi.NoteOnEvent(tick=1560, channel=1, data=[40, 0]),
   midi.NoteOnEvent(tick=120, channel=1, data=[40, 92]),
   midi.NoteOnEvent(tick=238, channel=1, data=[35, 91]),
   midi.NoteOnEvent(tick=7, channel=1, data=[40, 0]),
   midi.NoteOnEvent(tick=1913, channel=1, data=[35, 0]),
   midi.NoteOnEvent(tick=2, channel=1, data=[45, 89]),
   midi.NoteOnEvent(tick=708, channel=1, data=[45, 0]),
   midi.NoteOnEvent(tick=10, channel=1, data=[45, 86]),
   midi.NoteOnEvent(tick=237, channel=1, data=[45, 0]),
   midi.NoteOnEvent(tick=4, channel=1, data=[45, 89]),
   midi.NoteOnEvent(tick=707, channel=1, data=[45, 0]),
   midi.NoteOnEvent(tick=14, channel=1, data=[52, 86]),
   midi.NoteOnEvent(tick=238, channel=1, data=[45, 91]),
   midi.NoteOnEvent(tick=0, channel=1, data=[52, 0]),
   midi.NoteOnEvent(tick=1920, channel=1, data=[45, 0]),
   midi.NoteOnEvent(tick=2, channel=1, data=[52, 89]),
   midi.NoteOnEvent(tick=1644, channel=1, data=[52, 0]),
   midi.NoteOnEvent(tick=36, channel=1, data=[52, 92]),
   midi.NoteOnEvent(tick=238, channel=1, data=[47, 91]),
   midi.NoteOnEvent(tick=7, channel=1, data=[52, 0]),
   midi.NoteOnEvent(tick=1663, channel=1, data=[47, 0]),
   midi.NoteOnEvent(tick=11, channel=1, data=[47, 92]),
   midi.NoteOnEvent(tick=241, channel=1, data=[45, 89]),
   midi.NoteOnEvent(tick=4, channel=1, data=[47, 0]),
   midi.NoteOnEvent(tick=714, channel=1, data=[45, 0]),
   midi.NoteOnEvent(tick=0, channel=1, data=[45, 89]),
   midi.NoteOnEvent(tick=932, channel=1, data=[45, 0]),
   midi.NoteOnEvent(tick=30, channel=1, data=[45, 92]),
   midi.NoteOnEvent(tick=238, channel=1, data=[47, 91]),
   midi.NoteOnEvent(tick=7, channel=1, data=[45, 0]),
   midi.NoteOnEvent(tick=953, channel=1, data=[47, 0]),
   midi.NoteOnEvent(tick=2, channel=1, data=[48, 91]),
   midi.NoteOnEvent(tick=668, channel=1, data=[48, 0]),
   midi.NoteOnEvent(tick=51, channel=1, data=[48, 91]),
   midi.NoteOnEvent(tick=240, channel=1, data=[48, 0]),
   midi.NoteOnEvent(tick=1, channel=1, data=[49, 89]),
   midi.NoteOnEvent(tick=715, channel=1, data=[49, 0]),
   midi.NoteOnEvent(tick=3, channel=1, data=[49, 86]),
   midi.NoteOnEvent(tick=228, channel=1, data=[49, 0]),
   midi.NoteOnEvent(tick=13, channel=1, data=[49, 89]),
   midi.NoteOnEvent(tick=677, channel=1, data=[49, 0]),
   midi.NoteOnEvent(tick=44, channel=1, data=[49, 76]),
   midi.NoteOnEvent(tick=216, channel=1, data=[49, 0]),
   midi.NoteOnEvent(tick=22, channel=1, data=[44, 89]),
   midi.NoteOnEvent(tick=1643, channel=1, data=[44, 0]),
   midi.NoteOnEvent(tick=38, channel=1, data=[44, 81]),
   midi.NoteOnEvent(tick=237, channel=1, data=[44, 0]),
   midi.NoteOnEvent(tick=4, channel=1, data=[45, 89]),
   midi.NoteOnEvent(tick=715, channel=1, data=[45, 0]),
   midi.NoteOnEvent(tick=3, channel=1, data=[45, 86]),
   midi.NoteOnEvent(tick=916, channel=1, data=[45, 0]),
   midi.NoteOnEvent(tick=46, channel=1, data=[45, 81]),
   midi.NoteOnEvent(tick=238, channel=1, data=[45, 0]),
   midi.NoteOnEvent(tick=0, channel=1, data=[45, 91]),
   midi.NoteOnEvent(tick=1915, channel=1, data=[45, 0]),
   midi.NoteOnEvent(tick=7, channel=1, data=[37, 76]),
   midi.NoteOnEvent(tick=1644, channel=1, data=[37, 0]),
   midi.NoteOnEvent(tick=36, channel=1, data=[37, 71]),
   midi.NoteOnEvent(tick=120, channel=1, data=[37, 0]),
   midi.NoteOnEvent(tick=118, channel=1, data=[35, 78]),
   midi.NoteOnEvent(tick=1657, channel=1, data=[35, 0]),
   midi.NoteOnEvent(tick=24, channel=1, data=[47, 76]),
   midi.NoteOnEvent(tick=207, channel=1, data=[47, 0]),
   midi.NoteOnEvent(tick=34, channel=1, data=[45, 89]),
   midi.NoteOnEvent(tick=1644, channel=1, data=[45, 0]),
   midi.NoteOnEvent(tick=36, channel=1, data=[45, 81]),
   midi.NoteOnEvent(tick=195, channel=1, data=[45, 0]),
   midi.NoteOnEvent(tick=43, channel=1, data=[47, 89]),
   midi.NoteOnEvent(tick=1431, channel=1, data=[47, 0]),
   midi.NoteOnEvent(tick=11, channel=1, data=[47, 81]),
   midi.NoteOnEvent(tick=433, channel=1, data=[47, 0]),
   midi.NoteOnEvent(tick=47, channel=1, data=[49, 89]),
   midi.NoteOnEvent(tick=1644, channel=1, data=[49, 0]),
   midi.NoteOnEvent(tick=36, channel=1, data=[49, 76]),
   midi.NoteOnEvent(tick=238, channel=1, data=[47, 91]),
   midi.NoteOnEvent(tick=7, channel=1, data=[49, 0]),
   midi.NoteOnEvent(tick=1420, channel=1, data=[47, 0]),
   midi.NoteOnEvent(tick=15, channel=1, data=[47, 81]),
   midi.NoteOnEvent(tick=433, channel=1, data=[47, 0]),
   midi.NoteOnEvent(tick=47, channel=1, data=[45, 89]),
   midi.NoteOnEvent(tick=1644, channel=1, data=[45, 0]),
   midi.NoteOnEvent(tick=36, channel=1, data=[45, 81]),
   midi.NoteOnEvent(tick=238, channel=1, data=[45, 0]),
   midi.NoteOnEvent(tick=0, channel=1, data=[45, 91]),
   midi.NoteOnEvent(tick=682, channel=1, data=[45, 0]),
   midi.NoteOnEvent(tick=40, channel=1, data=[45, 81]),
   midi.NoteOnEvent(tick=188, channel=1, data=[45, 0]),
   midi.NoteOnEvent(tick=52, channel=1, data=[47, 91]),
   midi.NoteOnEvent(tick=480, channel=1, data=[35, 91]),
   midi.NoteOnEvent(tick=0, channel=1, data=[47, 0]),
   midi.NoteOnEvent(tick=480, channel=1, data=[35, 0]),
   midi.NoteOnEvent(tick=0, channel=1, data=[49, 86]),
   midi.NoteOnEvent(tick=1644, channel=1, data=[49, 0]),
   midi.NoteOnEvent(tick=36, channel=1, data=[49, 76]),
   midi.NoteOnEvent(tick=120, channel=1, data=[49, 0]),
   midi.NoteOnEvent(tick=118, channel=1, data=[47, 86]),
   midi.NoteOnEvent(tick=1657, channel=1, data=[47, 0]),
   midi.NoteOnEvent(tick=24, channel=1, data=[47, 76]),
   midi.NoteOnEvent(tick=207, channel=1, data=[47, 0]),
   midi.NoteOnEvent(tick=34, channel=1, data=[45, 89]),
   midi.NoteOnEvent(tick=1644, channel=1, data=[45, 0]),
   midi.NoteOnEvent(tick=36, channel=1, data=[45, 81]),
   midi.NoteOnEvent(tick=195, channel=1, data=[45, 0]),
   midi.NoteOnEvent(tick=43, channel=1, data=[47, 89]),
   midi.NoteOnEvent(tick=1631, channel=1, data=[47, 0]),
   midi.NoteOnEvent(tick=50, channel=1, data=[47, 81]),
   midi.NoteOnEvent(tick=145, channel=1, data=[47, 0]),
   midi.NoteOnEvent(tick=96, channel=1, data=[49, 89]),
   midi.NoteOnEvent(tick=1644, channel=1, data=[49, 0]),
   midi.NoteOnEvent(tick=36, channel=1, data=[49, 76]),
   midi.NoteOnEvent(tick=238, channel=1, data=[44, 89]),
   midi.NoteOnEvent(tick=7, channel=1, data=[49, 0]),
   midi.NoteOnEvent(tick=1636, channel=1, data=[44, 0]),
   midi.NoteOnEvent(tick=38, channel=1, data=[44, 76]),
   midi.NoteOnEvent(tick=241, channel=1, data=[45, 89]),
   midi.NoteOnEvent(tick=4, channel=1, data=[44, 0]),
   midi.NoteOnEvent(tick=1640, channel=1, data=[45, 0]),
   midi.NoteOnEvent(tick=36, channel=1, data=[45, 81]),
   midi.NoteOnEvent(tick=238, channel=1, data=[45, 0]),
   midi.NoteOnEvent(tick=0, channel=1, data=[47, 91]),
   midi.NoteOnEvent(tick=682, channel=1, data=[47, 0]),
   midi.NoteOnEvent(tick=40, channel=1, data=[47, 81]),
   midi.NoteOnEvent(tick=188, channel=1, data=[47, 0]),
   midi.NoteOnEvent(tick=52, channel=1, data=[35, 91]),
   midi.NoteOnEvent(tick=480, channel=1, data=[35, 0]),
   midi.NoteOnEvent(tick=0, channel=1, data=[47, 91]),
   midi.NoteOnEvent(tick=480, channel=1, data=[47, 0]),
   midi.NoteOnEvent(tick=15360, channel=1, data=[41, 101]),
   midi.NoteOnEvent(tick=708, channel=1, data=[41, 0]),
   midi.NoteOnEvent(tick=10, channel=1, data=[41, 101]),
   midi.NoteOnEvent(tick=882, channel=1, data=[41, 0]),
   midi.NoteOnEvent(tick=80, channel=1, data=[41, 81]),
   midi.NoteOnEvent(tick=208, channel=1, data=[41, 0]),
   midi.NoteOnEvent(tick=30, channel=1, data=[39, 93]),
   midi.NoteOnEvent(tick=1657, channel=1, data=[39, 0]),
   midi.NoteOnEvent(tick=24, channel=1, data=[39, 86]),
   midi.NoteOnEvent(tick=207, channel=1, data=[39, 0]),
   midi.NoteOnEvent(tick=34, channel=1, data=[37, 99]),
   midi.NoteOnEvent(tick=1644, channel=1, data=[37, 0]),
   midi.NoteOnEvent(tick=36, channel=1, data=[37, 91]),
   midi.NoteOnEvent(tick=195, channel=1, data=[37, 0]),
   midi.NoteOnEvent(tick=43, channel=1, data=[39, 99]),
   midi.NoteOnEvent(tick=1431, channel=1, data=[39, 0]),
   midi.NoteOnEvent(tick=11, channel=1, data=[39, 91]),
   midi.NoteOnEvent(tick=433, channel=1, data=[39, 0]),
   midi.NoteOnEvent(tick=47, channel=1, data=[41, 101]),
   midi.NoteOnEvent(tick=708, channel=1, data=[41, 0]),
   midi.NoteOnEvent(tick=10, channel=1, data=[41, 101]),
   midi.NoteOnEvent(tick=882, channel=1, data=[41, 0]),
   midi.NoteOnEvent(tick=80, channel=1, data=[41, 81]),
   midi.NoteOnEvent(tick=208, channel=1, data=[41, 0]),
   midi.NoteOnEvent(tick=30, channel=1, data=[39, 99]),
   midi.NoteOnEvent(tick=1643, channel=1, data=[39, 0]),
   midi.NoteOnEvent(tick=38, channel=1, data=[39, 91]),
   midi.NoteOnEvent(tick=237, channel=1, data=[39, 0]),
   midi.NoteOnEvent(tick=4, channel=1, data=[37, 99]),
   midi.NoteOnEvent(tick=1644, channel=1, data=[37, 0]),
   midi.NoteOnEvent(tick=36, channel=1, data=[37, 91]),
   midi.NoteOnEvent(tick=238, channel=1, data=[37, 0]),
   midi.NoteOnEvent(tick=0, channel=1, data=[39, 101]),
   midi.NoteOnEvent(tick=682, channel=1, data=[39, 0]),
   midi.NoteOnEvent(tick=40, channel=1, data=[39, 91]),
   midi.NoteOnEvent(tick=188, channel=1, data=[39, 0]),
   midi.NoteOnEvent(tick=52, channel=1, data=[39, 101]),
   midi.NoteOnEvent(tick=468, channel=1, data=[39, 0]),
   midi.NoteOnEvent(tick=12, channel=1, data=[39, 101]),
   midi.NoteOnEvent(tick=480, channel=1, data=[39, 0]),
   midi.NoteOnEvent(tick=0, channel=1, data=[41, 101]),
   midi.NoteOnEvent(tick=708, channel=1, data=[41, 0]),
   midi.NoteOnEvent(tick=10, channel=1, data=[41, 101]),
   midi.NoteOnEvent(tick=882, channel=1, data=[41, 0]),
   midi.NoteOnEvent(tick=80, channel=1, data=[41, 81]),
   midi.NoteOnEvent(tick=208, channel=1, data=[41, 0]),
   midi.NoteOnEvent(tick=30, channel=1, data=[39, 93]),
   midi.NoteOnEvent(tick=1657, channel=1, data=[39, 0]),
   midi.NoteOnEvent(tick=24, channel=1, data=[39, 86]),
   midi.NoteOnEvent(tick=207, channel=1, data=[39, 0]),
   midi.NoteOnEvent(tick=34, channel=1, data=[37, 99]),
   midi.NoteOnEvent(tick=1644, channel=1, data=[37, 0]),
   midi.NoteOnEvent(tick=36, channel=1, data=[37, 91]),
   midi.NoteOnEvent(tick=195, channel=1, data=[37, 0]),
   midi.NoteOnEvent(tick=43, channel=1, data=[39, 99]),
   midi.NoteOnEvent(tick=1431, channel=1, data=[39, 0]),
   midi.NoteOnEvent(tick=11, channel=1, data=[39, 91]),
   midi.NoteOnEvent(tick=433, channel=1, data=[39, 0]),
   midi.NoteOnEvent(tick=47, channel=1, data=[41, 101]),
   midi.NoteOnEvent(tick=708, channel=1, data=[41, 0]),
   midi.NoteOnEvent(tick=10, channel=1, data=[41, 101]),
   midi.NoteOnEvent(tick=882, channel=1, data=[41, 0]),
   midi.NoteOnEvent(tick=80, channel=1, data=[41, 81]),
   midi.NoteOnEvent(tick=208, channel=1, data=[41, 0]),
   midi.NoteOnEvent(tick=30, channel=1, data=[39, 99]),
   midi.NoteOnEvent(tick=1643, channel=1, data=[39, 0]),
   midi.NoteOnEvent(tick=38, channel=1, data=[39, 91]),
   midi.NoteOnEvent(tick=237, channel=1, data=[39, 0]),
   midi.NoteOnEvent(tick=4, channel=1, data=[37, 99]),
   midi.NoteOnEvent(tick=1644, channel=1, data=[37, 0]),
   midi.NoteOnEvent(tick=36, channel=1, data=[37, 91]),
   midi.NoteOnEvent(tick=238, channel=1, data=[37, 0]),
   midi.NoteOnEvent(tick=0, channel=1, data=[39, 101]),
   midi.NoteOnEvent(tick=682, channel=1, data=[39, 0]),
   midi.NoteOnEvent(tick=40, channel=1, data=[39, 91]),
   midi.NoteOnEvent(tick=188, channel=1, data=[39, 0]),
   midi.NoteOnEvent(tick=52, channel=1, data=[39, 101]),
   midi.NoteOnEvent(tick=468, channel=1, data=[39, 0]),
   midi.NoteOnEvent(tick=12, channel=1, data=[39, 101]),
   midi.NoteOnEvent(tick=480, channel=1, data=[39, 0]),
   midi.NoteOnEvent(tick=0, channel=1, data=[44, 101]),
   midi.NoteOnEvent(tick=7680, channel=1, data=[44, 0]),
   midi.EndOfTrackEvent(tick=0, data=[])]),
 midi.Track(\
  [midi.ChannelPrefixEvent(tick=0, data=[2]),
   midi.TrackNameEvent(tick=0, text="My Heart Will Go On (Iz Filma 'Titanik') 02 (Karaoke)", data=[77, 121, 32, 72, 101, 97, 114, 116, 32, 87, 105, 108, 108, 32, 71, 111, 32, 79, 110, 32, 40, 73, 122, 32, 70, 105, 108, 109, 97, 32, 39, 84, 105, 116, 97, 110, 105, 107, 39, 41, 32, 48, 50, 32, 40, 75, 97, 114, 97, 111, 107, 101, 41]),
   midi.InstrumentNameEvent(tick=0, text='\xe6\x96\xbd\xe5\x9d\xa6\xe5\xa8\x81\xe5\xa4\xa7\xe9\x92\xa2\xe7\x90\xb4', data=[230, 150, 189, 229, 157, 166, 229, 168, 129, 229, 164, 167, 233, 146, 162, 231, 144, 180]),
   midi.ControlChangeEvent(tick=179, channel=2, data=[121, 0]),
   midi.ProgramChangeEvent(tick=316, channel=2, data=[25]),
   midi.ControlChangeEvent(tick=1, channel=2, data=[7, 100]),
   midi.ControlChangeEvent(tick=0, channel=2, data=[10, 64]),
   midi.ControlChangeEvent(tick=44, channel=2, data=[91, 80]),
   midi.ControlChangeEvent(tick=4, channel=2, data=[93, 75]),
   midi.ControlChangeEvent(tick=0, channel=2, data=[11, 127]),
   midi.ControlChangeEvent(tick=464, channel=2, data=[100, 0]),
   midi.ControlChangeEvent(tick=3, channel=2, data=[101, 0]),
   midi.ControlChangeEvent(tick=4, channel=2, data=[6, 2]),
   midi.ControlChangeEvent(tick=9065, channel=2, data=[72, 84]),
   midi.ControlChangeEvent(tick=8, channel=2, data=[98, 102]),
   midi.ControlChangeEvent(tick=3, channel=2, data=[99, 1]),
   midi.ControlChangeEvent(tick=4, channel=2, data=[6, 84]),
   midi.NoteOnEvent(tick=465, channel=2, data=[64, 79]),
   midi.NoteOnEvent(tick=436, channel=2, data=[64, 0]),
   midi.NoteOnEvent(tick=44, channel=2, data=[63, 76]),
   midi.NoteOnEvent(tick=238, channel=2, data=[63, 0]),
   midi.NoteOnEvent(tick=2, channel=2, data=[66, 71]),
   midi.NoteOnEvent(tick=240, channel=2, data=[64, 69]),
   midi.NoteOnEvent(tick=25, channel=2, data=[66, 0]),
   midi.ControlChangeEvent(tick=74, channel=2, data=[64, 127]),
   midi.NoteOnEvent(tick=106, channel=2, data=[64, 0]),
   midi.NoteOnEvent(tick=35, channel=2, data=[64, 59]),
   midi.NoteOnEvent(tick=1136, channel=2, data=[64, 0]),
   midi.NoteOnEvent(tick=304, channel=2, data=[64, 57]),
   midi.ControlChangeEvent(tick=23, channel=2, data=[64, 0]),
   midi.NoteOnEvent(tick=163, channel=2, data=[64, 0]),
   midi.ControlChangeEvent(tick=25, channel=2, data=[64, 127]),
   midi.NoteOnEvent(tick=29, channel=2, data=[64, 61]),
   midi.NoteOnEvent(tick=186, channel=2, data=[64, 0]),
   midi.NoteOnEvent(tick=54, channel=2, data=[64, 76]),
   midi.NoteOnEvent(tick=116, channel=2, data=[64, 0]),
   midi.NoteOnEvent(tick=364, channel=2, data=[64, 68]),
   midi.ControlChangeEvent(tick=35, channel=2, data=[64, 0]),
   midi.ControlChangeEvent(tick=155, channel=2, data=[64, 127]),
   midi.NoteOnEvent(tick=284, channel=2, data=[64, 0]),
   midi.NoteOnEvent(tick=6, channel=2, data=[59, 68]),
   midi.NoteOnEvent(tick=240, channel=2, data=[64, 64]),
   midi.ControlChangeEvent(tick=18, channel=2, data=[64, 0]),
   midi.NoteOnEvent(tick=422, channel=2, data=[59, 0]),
   midi.NoteOnEvent(tick=40, channel=2, data=[59, 68]),
   midi.NoteOnEvent(tick=81, channel=2, data=[64, 0]),
   midi.ControlChangeEvent(tick=94, channel=2, data=[64, 127]),
   midi.NoteOnEvent(tick=36, channel=2, data=[59, 0]),
   midi.NoteOnEvent(tick=29, channel=2, data=[57, 58]),
   midi.NoteOnEvent(tick=171, channel=2, data=[57, 0]),
   midi.NoteOnEvent(tick=69, channel=2, data=[59, 58]),
   midi.NoteOnEvent(tick=0, channel=2, data=[64, 64]),
   midi.NoteOnEvent(tick=114, channel=2, data=[64, 0]),
   midi.NoteOnEvent(tick=7, channel=2, data=[59, 0]),
   midi.NoteOnEvent(tick=119, channel=2, data=[59, 63]),
   midi.NoteOnEvent(tick=0, channel=2, data=[64, 58]),
   midi.ControlChangeEvent(tick=63, channel=2, data=[64, 0]),
   midi.NoteOnEvent(tick=1110, channel=2, data=[59, 0]),
   midi.NoteOnEvent(tick=3, channel=2, data=[64, 0]),
   midi.NoteOnEvent(tick=24, channel=2, data=[47, 66]),
   midi.ControlChangeEvent(tick=63, channel=2, data=[64, 127]),
   midi.NoteOnEvent(tick=177, channel=2, data=[54, 53]),
   midi.NoteOnEvent(tick=240, channel=2, data=[59, 70]),
   midi.NoteOnEvent(tick=240, channel=2, data=[64, 70]),
   midi.ControlChangeEvent(tick=19, channel=2, data=[64, 0]),
   midi.ControlChangeEvent(tick=165, channel=2, data=[64, 127]),
   midi.ControlChangeEvent(tick=476, channel=2, data=[64, 0]),
   midi.NoteOnEvent(tick=56, channel=2, data=[64, 0]),
   midi.NoteOnEvent(tick=4, channel=2, data=[63, 61]),
   midi.NoteOnEvent(tick=475, channel=2, data=[63, 0]),
   midi.NoteOnEvent(tick=5, channel=2, data=[40, 60]),
   midi.NoteOnEvent(tick=3, channel=2, data=[59, 0]),
   midi.NoteOnEvent(tick=13, channel=2, data=[47, 0]),
   midi.NoteOnEvent(tick=5, channel=2, data=[54, 0]),
   midi.NoteOnEvent(tick=50, channel=2, data=[47, 57]),
   midi.NoteOnEvent(tick=58, channel=2, data=[52, 56]),
   midi.NoteOnEvent(tick=104, channel=2, data=[56, 66]),
   midi.NoteOnEvent(tick=1681, channel=2, data=[47, 0]),
   midi.NoteOnEvent(tick=7, channel=2, data=[40, 0]),
   midi.NoteOnEvent(tick=0, channel=2, data=[52, 0]),
   midi.NoteOnEvent(tick=0, channel=2, data=[56, 0]),
   midi.ControlChangeEvent(tick=11517, channel=2, data=[64, 127]),
   midi.NoteOnEvent(tick=2, channel=2, data=[57, 54]),
   midi.NoteOnEvent(tick=186, channel=2, data=[57, 0]),
   midi.NoteOnEvent(tick=54, channel=2, data=[59, 71]),
   midi.NoteOnEvent(tick=159, channel=2, data=[59, 0]),
   midi.NoteOnEvent(tick=81, channel=2, data=[61, 50]),
   midi.NoteOnEvent(tick=120, channel=2, data=[61, 0]),
   midi.NoteOnEvent(tick=120, channel=2, data=[64, 66]),
   midi.NoteOnEvent(tick=144, channel=2, data=[64, 0]),
   midi.NoteOnEvent(tick=96, channel=2, data=[69, 81]),
   midi.NoteOnEvent(tick=183, channel=2, data=[69, 0]),
   midi.NoteOnEvent(tick=57, channel=2, data=[71, 86]),
   midi.NoteOnEvent(tick=201, channel=2, data=[71, 0]),
   midi.NoteOnEvent(tick=39, channel=2, data=[73, 78]),
   midi.NoteOnEvent(tick=240, channel=2, data=[75, 83]),
   midi.NoteOnEvent(tick=106, channel=2, data=[73, 0]),
   midi.NoteOnEvent(tick=134, channel=2, data=[76, 83]),
   midi.NoteOnEvent(tick=6, channel=2, data=[75, 0]),
   midi.NoteOnEvent(tick=1518, channel=2, data=[76, 0]),
   midi.NoteOnEvent(tick=156, channel=2, data=[68, 83]),
   midi.NoteOnEvent(tick=224, channel=2, data=[68, 0]),
   midi.NoteOnEvent(tick=16, channel=2, data=[52, 53]),
   midi.NoteOnEvent(tick=0, channel=2, data=[54, 41]),
   midi.NoteOnEvent(tick=0, channel=2, data=[59, 68]),
   midi.NoteOnEvent(tick=0, channel=2, data=[66, 71]),
   midi.NoteOnEvent(tick=203, channel=2, data=[59, 0]),
   midi.NoteOnEvent(tick=37, channel=2, data=[59, 66]),
   midi.NoteOnEvent(tick=664, channel=2, data=[59, 0]),
   midi.NoteOnEvent(tick=56, channel=2, data=[59, 64]),
   midi.ControlChangeEvent(tick=60, channel=2, data=[64, 127]),
   midi.NoteOnEvent(tick=200, channel=2, data=[59, 0]),
   midi.NoteOnEvent(tick=220, channel=2, data=[59, 59]),
   midi.NoteOnEvent(tick=166, channel=2, data=[59, 0]),
   midi.ControlChangeEvent(tick=53, channel=2, data=[64, 0]),
   midi.NoteOnEvent(tick=21, channel=2, data=[59, 59]),
   midi.NoteOnEvent(tick=189, channel=2, data=[66, 0]),
   midi.NoteOnEvent(tick=9, channel=2, data=[54, 0]),
   midi.NoteOnEvent(tick=5, channel=2, data=[59, 0]),
   midi.NoteOnEvent(tick=33, channel=2, data=[52, 0]),
   midi.NoteOnEvent(tick=4, channel=2, data=[52, 50]),
   midi.NoteOnEvent(tick=0, channel=2, data=[54, 33]),
   midi.NoteOnEvent(tick=0, channel=2, data=[59, 62]),
   midi.ControlChangeEvent(tick=236, channel=2, data=[64, 127]),
   midi.NoteOnEvent(tick=82, channel=2, data=[59, 0]),
   midi.NoteOnEvent(tick=162, channel=2, data=[59, 61]),
   midi.NoteOnEvent(tick=161, channel=2, data=[59, 0]),
   midi.NoteOnEvent(tick=79, channel=2, data=[59, 68]),
   midi.NoteOnEvent(tick=114, channel=2, data=[59, 0]),
   midi.NoteOnEvent(tick=366, channel=2, data=[59, 60]),
   midi.NoteOnEvent(tick=78, channel=2, data=[59, 0]),
   midi.ControlChangeEvent(tick=381, channel=2, data=[64, 0]),
   midi.NoteOnEvent(tick=21, channel=2, data=[59, 52]),
   midi.NoteOnEvent(tick=219, channel=2, data=[52, 0]),
   midi.NoteOnEvent(tick=4, channel=2, data=[59, 0]),
   midi.NoteOnEvent(tick=17, channel=2, data=[52, 57]),
   midi.NoteOnEvent(tick=14, channel=2, data=[54, 0]),
   midi.NoteOnEvent(tick=226, channel=2, data=[56, 49]),
   midi.NoteOnEvent(tick=78, channel=2, data=[52, 0]),
   midi.ControlChangeEvent(tick=106, channel=2, data=[64, 127]),
   midi.NoteOnEvent(tick=56, channel=2, data=[59, 67]),
   midi.NoteOnEvent(tick=21, channel=2, data=[56, 0]),
   midi.NoteOnEvent(tick=188, channel=2, data=[59, 0]),
   midi.NoteOnEvent(tick=31, channel=2, data=[56, 57]),
   midi.ControlChangeEvent(tick=216, channel=2, data=[64, 0]),
   midi.NoteOnEvent(tick=24, channel=2, data=[54, 59]),
   midi.NoteOnEvent(tick=9, channel=2, data=[56, 0]),
   midi.NoteOnEvent(tick=231, channel=2, data=[47, 67]),
   midi.NoteOnEvent(tick=60, channel=2, data=[54, 0]),
   midi.NoteOnEvent(tick=180, channel=2, data=[52, 61]),
   midi.NoteOnEvent(tick=240, channel=2, data=[54, 59]),
   midi.NoteOnEvent(tick=240, channel=2, data=[59, 66]),
   midi.NoteOnEvent(tick=3, channel=2, data=[54, 0]),
   midi.NoteOnEvent(tick=11, channel=2, data=[52, 0]),
   midi.NoteOnEvent(tick=7, channel=2, data=[47, 0]),
   midi.ControlChangeEvent(tick=120, channel=2, data=[64, 127]),
   midi.NoteOnEvent(tick=49, channel=2, data=[59, 0]),
   midi.NoteOnEvent(tick=50, channel=2, data=[56, 46]),
   midi.NoteOnEvent(tick=225, channel=2, data=[56, 0]),
   midi.NoteOnEvent(tick=15, channel=2, data=[59, 60]),
   midi.NoteOnEvent(tick=206, channel=2, data=[59, 0]),
   midi.NoteOnEvent(tick=34, channel=2, data=[64, 53]),
   midi.NoteOnEvent(tick=226, channel=2, data=[64, 0]),
   midi.NoteOnEvent(tick=14, channel=2, data=[59, 60]),
   midi.NoteOnEvent(tick=480, channel=2, data=[52, 64]),
   midi.NoteOnEvent(tick=51, channel=2, data=[59, 0]),
   midi.NoteOnEvent(tick=189, channel=2, data=[56, 42]),
   midi.ControlChangeEvent(tick=4, channel=2, data=[64, 0]),
   midi.NoteOnEvent(tick=236, channel=2, data=[54, 50]),
   midi.NoteOnEvent(tick=16, channel=2, data=[52, 0]),
   midi.NoteOnEvent(tick=9, channel=2, data=[56, 0]),
   midi.NoteOnEvent(tick=215, channel=2, data=[59, 51]),
   midi.NoteOnEvent(tick=171, channel=2, data=[59, 0]),
   midi.ControlChangeEvent(tick=94, channel=2, data=[64, 127]),
   midi.NoteOnEvent(tick=215, channel=2, data=[59, 54]),
   midi.NoteOnEvent(tick=128, channel=2, data=[59, 0]),
   midi.ControlChangeEvent(tick=312, channel=2, data=[64, 0]),
   midi.NoteOnEvent(tick=40, channel=2, data=[59, 53]),
   midi.NoteOnEvent(tick=275, channel=2, data=[54, 0]),
   midi.NoteOnEvent(tick=205, channel=2, data=[54, 43]),
   midi.NoteOnEvent(tick=223, channel=2, data=[59, 0]),
   midi.NoteOnEvent(tick=12, channel=2, data=[54, 0]),
   midi.NoteOnEvent(tick=5, channel=2, data=[52, 55]),
   midi.NoteOnEvent(tick=240, channel=2, data=[57, 73]),
   midi.NoteOnEvent(tick=240, channel=2, data=[59, 57]),
   midi.ControlChangeEvent(tick=163, channel=2, data=[64, 127]),
   midi.NoteOnEvent(tick=77, channel=2, data=[64, 60]),
   midi.NoteOnEvent(tick=63, channel=2, data=[52, 0]),
   midi.NoteOnEvent(tick=177, channel=2, data=[52, 63]),
   midi.NoteOnEvent(tick=253, channel=2, data=[52, 0]),
   midi.ControlChangeEvent(tick=191, channel=2, data=[64, 0]),
   midi.NoteOnEvent(tick=36, channel=2, data=[52, 67]),
   midi.NoteOnEvent(tick=185, channel=2, data=[52, 0]),
   midi.NoteOnEvent(tick=55, channel=2, data=[52, 53]),
   midi.NoteOnEvent(tick=204, channel=2, data=[52, 0]),
   midi.NoteOnEvent(tick=12, channel=2, data=[57, 0]),
   midi.NoteOnEvent(tick=0, channel=2, data=[59, 0]),
   midi.NoteOnEvent(tick=19, channel=2, data=[64, 0]),
   midi.NoteOnEvent(tick=5, channel=2, data=[52, 52]),
   midi.NoteOnEvent(tick=0, channel=2, data=[59, 57]),
   midi.NoteOnEvent(tick=1893, channel=2, data=[52, 0]),
   midi.NoteOnEvent(tick=7, channel=2, data=[59, 0]),
   midi.NoteOnEvent(tick=46, channel=2, data=[52, 66]),
   midi.NoteOnEvent(tick=4, channel=2, data=[64, 57]),
   midi.NoteOnEvent(tick=4, channel=2, data=[56, 49]),
   midi.NoteOnEvent(tick=6, channel=2, data=[61, 47]),
   midi.NoteOnEvent(tick=1689, channel=2, data=[56, 0]),
   midi.NoteOnEvent(tick=52, channel=2, data=[64, 0]),
   midi.NoteOnEvent(tick=29, channel=2, data=[61, 0]),
   midi.NoteOnEvent(tick=11, channel=2, data=[52, 0]),
   midi.NoteOnEvent(tick=99, channel=2, data=[52, 57]),
   midi.NoteOnEvent(tick=33, channel=2, data=[54, 38]),
   midi.NoteOnEvent(tick=2, channel=2, data=[59, 70]),
   midi.NoteOnEvent(tick=4, channel=2, data=[63, 35]),
   midi.NoteOnEvent(tick=395, channel=2, data=[52, 0]),
   midi.NoteOnEvent(tick=46, channel=2, data=[52, 54]),
   midi.NoteOnEvent(tick=180, channel=2, data=[52, 0]),
   midi.NoteOnEvent(tick=78, channel=2, data=[52, 56]),
   midi.NoteOnEvent(tick=922, channel=2, data=[52, 0]),
   midi.NoteOnEvent(tick=244, channel=2, data=[54, 0]),
   midi.NoteOnEvent(tick=0, channel=2, data=[59, 0]),
   midi.NoteOnEvent(tick=5, channel=2, data=[63, 0]),
   midi.NoteOnEvent(tick=20, channel=2, data=[59, 66]),
   midi.NoteOnEvent(tick=1, channel=2, data=[49, 47]),
   midi.NoteOnEvent(tick=8, channel=2, data=[52, 62]),
   midi.NoteOnEvent(tick=1721, channel=2, data=[49, 0]),
   midi.NoteOnEvent(tick=40, channel=2, data=[52, 0]),
   midi.NoteOnEvent(tick=95, channel=2, data=[59, 0]),
   midi.NoteOnEvent(tick=12, channel=2, data=[47, 49]),
   midi.NoteOnEvent(tick=29, channel=2, data=[63, 66]),
   midi.NoteOnEvent(tick=246, channel=2, data=[54, 37]),
   midi.NoteOnEvent(tick=157, channel=2, data=[63, 0]),
   midi.NoteOnEvent(tick=101, channel=2, data=[59, 62]),
   midi.NoteOnEvent(tick=464, channel=2, data=[64, 64]),
   midi.NoteOnEvent(tick=473, channel=2, data=[63, 57]),
   midi.NoteOnEvent(tick=5, channel=2, data=[64, 0]),
   midi.NoteOnEvent(tick=453, channel=2, data=[54, 0]),
   midi.NoteOnEvent(tick=10, channel=2, data=[63, 0]),
   midi.NoteOnEvent(tick=2, channel=2, data=[47, 0]),
   midi.NoteOnEvent(tick=5, channel=2, data=[59, 0]),
   midi.NoteOnEvent(tick=17, channel=2, data=[64, 63]),
   midi.NoteOnEvent(tick=3, channel=2, data=[52, 59]),
   midi.NoteOnEvent(tick=245, channel=2, data=[56, 44]),
   midi.NoteOnEvent(tick=7, channel=2, data=[64, 0]),
   midi.NoteOnEvent(tick=240, channel=2, data=[61, 49]),
   midi.NoteOnEvent(tick=222, channel=2, data=[64, 70]),
   midi.NoteOnEvent(tick=244, channel=2, data=[66, 63]),
   midi.NoteOnEvent(tick=49, channel=2, data=[64, 0]),
   midi.NoteOnEvent(tick=437, channel=2, data=[64, 63]),
   midi.NoteOnEvent(tick=405, channel=2, data=[61, 0]),
   midi.NoteOnEvent(tick=5, channel=2, data=[64, 0]),
   midi.NoteOnEvent(tick=6, channel=2, data=[56, 0]),
   midi.NoteOnEvent(tick=4, channel=2, data=[66, 0]),
   midi.NoteOnEvent(tick=3, channel=2, data=[52, 0]),
   midi.NoteOnEvent(tick=51, channel=2, data=[59, 57]),
   midi.NoteOnEvent(tick=7, channel=2, data=[54, 43]),
   midi.NoteOnEvent(tick=3, channel=2, data=[63, 38]),
   midi.NoteOnEvent(tick=156, channel=2, data=[54, 0]),
   midi.NoteOnEvent(tick=75, channel=2, data=[54, 39]),
   midi.NoteOnEvent(tick=144, channel=2, data=[54, 0]),
   midi.NoteOnEvent(tick=102, channel=2, data=[54, 51]),
   midi.NoteOnEvent(tick=234, channel=2, data=[52, 59]),
   midi.NoteOnEvent(tick=1156, channel=2, data=[54, 0]),
   midi.NoteOnEvent(tick=10, channel=2, data=[59, 0]),
   midi.NoteOnEvent(tick=0, channel=2, data=[63, 0]),
   midi.NoteOnEvent(tick=5, channel=2, data=[52, 0]),
   midi.NoteOnEvent(tick=19, channel=2, data=[52, 48]),
   midi.NoteOnEvent(tick=6, channel=2, data=[59, 64]),
   midi.NoteOnEvent(tick=13, channel=2, data=[61, 34]),
   midi.NoteOnEvent(tick=99, channel=2, data=[64, 53]),
   midi.NoteOnEvent(tick=3637, channel=2, data=[61, 0]),
   midi.NoteOnEvent(tick=43, channel=2, data=[59, 0]),
   midi.NoteOnEvent(tick=10, channel=2, data=[52, 0]),
   midi.NoteOnEvent(tick=2, channel=2, data=[64, 0]),
   midi.NoteOnEvent(tick=56, channel=2, data=[52, 66]),
   midi.NoteOnEvent(tick=4, channel=2, data=[64, 57]),
   midi.NoteOnEvent(tick=4, channel=2, data=[56, 49]),
   midi.NoteOnEvent(tick=6, channel=2, data=[61, 47]),
   midi.NoteOnEvent(tick=1689, channel=2, data=[56, 0]),
   midi.NoteOnEvent(tick=52, channel=2, data=[64, 0]),
   midi.NoteOnEvent(tick=29, channel=2, data=[61, 0]),
   midi.NoteOnEvent(tick=11, channel=2, data=[52, 0]),
   midi.NoteOnEvent(tick=99, channel=2, data=[52, 57]),
   midi.NoteOnEvent(tick=33, channel=2, data=[54, 38]),
   midi.NoteOnEvent(tick=2, channel=2, data=[59, 70]),
   midi.NoteOnEvent(tick=4, channel=2, data=[63, 35]),
   midi.NoteOnEvent(tick=395, channel=2, data=[52, 0]),
   midi.NoteOnEvent(tick=46, channel=2, data=[52, 54]),
   midi.NoteOnEvent(tick=180, channel=2, data=[52, 0]),
   midi.NoteOnEvent(tick=78, channel=2, data=[52, 56]),
   midi.NoteOnEvent(tick=922, channel=2, data=[52, 0]),
   midi.NoteOnEvent(tick=244, channel=2, data=[54, 0]),
   midi.NoteOnEvent(tick=0, channel=2, data=[59, 0]),
   midi.NoteOnEvent(tick=5, channel=2, data=[63, 0]),
   midi.NoteOnEvent(tick=20, channel=2, data=[59, 66]),
   midi.NoteOnEvent(tick=1, channel=2, data=[49, 47]),
   midi.NoteOnEvent(tick=8, channel=2, data=[52, 62]),
   midi.NoteOnEvent(tick=222, channel=2, data=[57, 66]),
   midi.NoteOnEvent(tick=0, channel=2, data=[59, 0]),
   midi.NoteOnEvent(tick=231, channel=2, data=[57, 0]),
   midi.NoteOnEvent(tick=9, channel=2, data=[59, 66]),
   midi.NoteOnEvent(tick=231, channel=2, data=[59, 0]),
   midi.NoteOnEvent(tick=9, channel=2, data=[64, 70]),
   midi.NoteOnEvent(tick=1019, channel=2, data=[49, 0]),
   midi.NoteOnEvent(tick=40, channel=2, data=[52, 0]),
   midi.NoteOnEvent(tick=107, channel=2, data=[47, 49]),
   midi.NoteOnEvent(tick=29, channel=2, data=[63, 66]),
   midi.NoteOnEvent(tick=5, channel=2, data=[54, 66]),
   midi.NoteOnEvent(tick=0, channel=2, data=[64, 0]),
   midi.NoteOnEvent(tick=231, channel=2, data=[54, 0]),
   midi.NoteOnEvent(tick=10, channel=2, data=[54, 46]),
   midi.NoteOnEvent(tick=157, channel=2, data=[63, 0]),
   midi.NoteOnEvent(tick=101, channel=2, data=[59, 62]),
   midi.NoteOnEvent(tick=209, channel=2, data=[54, 0]),
   midi.NoteOnEvent(tick=12, channel=2, data=[54, 66]),
   midi.NoteOnEvent(tick=231, channel=2, data=[54, 0]),
   midi.NoteOnEvent(tick=9, channel=2, data=[56, 64]),
   midi.NoteOnEvent(tick=3, channel=2, data=[64, 64]),
   midi.NoteOnEvent(tick=473, channel=2, data=[63, 57]),
   midi.NoteOnEvent(tick=3, channel=2, data=[56, 0]),
   midi.NoteOnEvent(tick=1, channel=2, data=[57, 64]),
   midi.NoteOnEvent(tick=1, channel=2, data=[64, 0]),
   midi.NoteOnEvent(tick=463, channel=2, data=[63, 0]),
   midi.NoteOnEvent(tick=2, channel=2, data=[47, 0]),
   midi.NoteOnEvent(tick=5, channel=2, data=[59, 0]),
   midi.NoteOnEvent(tick=8, channel=2, data=[57, 0]),
   midi.NoteOnEvent(tick=9, channel=2, data=[64, 63]),
   midi.NoteOnEvent(tick=3, channel=2, data=[52, 59]),
   midi.NoteOnEvent(tick=245, channel=2, data=[56, 44]),
   midi.NoteOnEvent(tick=7, channel=2, data=[64, 0]),
   midi.NoteOnEvent(tick=240, channel=2, data=[61, 49]),
   midi.NoteOnEvent(tick=222, channel=2, data=[64, 70]),
   midi.NoteOnEvent(tick=244, channel=2, data=[66, 63]),
   midi.NoteOnEvent(tick=49, channel=2, data=[64, 0]),
   midi.NoteOnEvent(tick=437, channel=2, data=[64, 63]),
   midi.NoteOnEvent(tick=405, channel=2, data=[61, 0]),
   midi.NoteOnEvent(tick=5, channel=2, data=[64, 0]),
   midi.NoteOnEvent(tick=6, channel=2, data=[56, 0]),
   midi.NoteOnEvent(tick=4, channel=2, data=[66, 0]),
   midi.NoteOnEvent(tick=3, channel=2, data=[52, 0]),
   midi.NoteOnEvent(tick=51, channel=2, data=[59, 57]),
   midi.NoteOnEvent(tick=7, channel=2, data=[54, 43]),
   midi.NoteOnEvent(tick=3, channel=2, data=[63, 38]),
   midi.NoteOnEvent(tick=156, channel=2, data=[54, 0]),
   midi.NoteOnEvent(tick=75, channel=2, data=[54, 39]),
   midi.NoteOnEvent(tick=144, channel=2, data=[54, 0]),
   midi.NoteOnEvent(tick=102, channel=2, data=[54, 51]),
   midi.NoteOnEvent(tick=234, channel=2, data=[52, 59]),
   midi.NoteOnEvent(tick=1156, channel=2, data=[54, 0]),
   midi.NoteOnEvent(tick=10, channel=2, data=[59, 0]),
   midi.NoteOnEvent(tick=0, channel=2, data=[63, 0]),
   midi.NoteOnEvent(tick=5, channel=2, data=[52, 0]),
   midi.NoteOnEvent(tick=19, channel=2, data=[52, 48]),
   midi.NoteOnEvent(tick=6, channel=2, data=[59, 64]),
   midi.NoteOnEvent(tick=13, channel=2, data=[61, 34]),
   midi.NoteOnEvent(tick=99, channel=2, data=[64, 53]),
   midi.NoteOnEvent(tick=1802, channel=2, data=[47, 58]),
   midi.NoteOnEvent(tick=0, channel=2, data=[52, 0]),
   midi.NoteOnEvent(tick=0, channel=2, data=[59, 0]),
   midi.NoteOnEvent(tick=0, channel=2, data=[61, 0]),
   midi.NoteOnEvent(tick=0, channel=2, data=[64, 0]),
   midi.NoteOnEvent(tick=38, channel=2, data=[52, 63]),
   midi.NoteOnEvent(tick=75, channel=2, data=[56, 73]),
   midi.NoteOnEvent(tick=837, channel=2, data=[54, 73]),
   midi.NoteOnEvent(tick=41, channel=2, data=[56, 0]),
   midi.NoteOnEvent(tick=55, channel=2, data=[52, 0]),
   midi.NoteOnEvent(tick=818, channel=2, data=[54, 0]),
   midi.NoteOnEvent(tick=62, channel=2, data=[47, 0]),
   midi.NoteOnEvent(tick=5514, channel=2, data=[64, 53]),
   midi.NoteOnEvent(tick=216, channel=2, data=[64, 0]),
   midi.ControlChangeEvent(tick=24, channel=2, data=[64, 127]),
   midi.NoteOnEvent(tick=0, channel=2, data=[64, 81]),
   midi.NoteOnEvent(tick=166, channel=2, data=[64, 0]),
   midi.NoteOnEvent(tick=74, channel=2, data=[63, 69]),
   midi.NoteOnEvent(tick=203, channel=2, data=[63, 0]),
   midi.NoteOnEvent(tick=37, channel=2, data=[59, 79]),
   midi.NoteOnEvent(tick=198, channel=2, data=[59, 0]),
   midi.NoteOnEvent(tick=42, channel=2, data=[64, 81]),
   midi.NoteOnEvent(tick=228, channel=2, data=[64, 0]),
   midi.NoteOnEvent(tick=252, channel=2, data=[63, 84]),
   midi.NoteOnEvent(tick=210, channel=2, data=[63, 0]),
   midi.NoteOnEvent(tick=30, channel=2, data=[59, 87]),
   midi.NoteOnEvent(tick=109, channel=2, data=[59, 0]),
   midi.NoteOnEvent(tick=371, channel=2, data=[76, 93]),
   midi.NoteOnEvent(tick=1524, channel=2, data=[76, 0]),
   midi.NoteOnEvent(tick=156, channel=2, data=[68, 93]),
   midi.NoteOnEvent(tick=224, channel=2, data=[68, 0]),
   midi.NoteOnEvent(tick=16, channel=2, data=[52, 63]),
   midi.NoteOnEvent(tick=0, channel=2, data=[54, 51]),
   midi.NoteOnEvent(tick=0, channel=2, data=[59, 78]),
   midi.NoteOnEvent(tick=0, channel=2, data=[66, 81]),
   midi.NoteOnEvent(tick=203, channel=2, data=[59, 0]),
   midi.NoteOnEvent(tick=37, channel=2, data=[59, 76]),
   midi.NoteOnEvent(tick=664, channel=2, data=[59, 0]),
   midi.NoteOnEvent(tick=56, channel=2, data=[59, 74]),
   midi.ControlChangeEvent(tick=60, channel=2, data=[64, 127]),
   midi.NoteOnEvent(tick=200, channel=2, data=[59, 0]),
   midi.NoteOnEvent(tick=220, channel=2, data=[59, 69]),
   midi.NoteOnEvent(tick=166, channel=2, data=[59, 0]),
   midi.ControlChangeEvent(tick=53, channel=2, data=[64, 0]),
   midi.NoteOnEvent(tick=21, channel=2, data=[59, 69]),
   midi.NoteOnEvent(tick=189, channel=2, data=[66, 0]),
   midi.NoteOnEvent(tick=9, channel=2, data=[54, 0]),
   midi.NoteOnEvent(tick=5, channel=2, data=[59, 0]),
   midi.NoteOnEvent(tick=33, channel=2, data=[52, 0]),
   midi.NoteOnEvent(tick=4, channel=2, data=[52, 60]),
   midi.NoteOnEvent(tick=0, channel=2, data=[54, 43]),
   midi.NoteOnEvent(tick=0, channel=2, data=[59, 72]),
   midi.ControlChangeEvent(tick=236, channel=2, data=[64, 127]),
   midi.NoteOnEvent(tick=82, channel=2, data=[59, 0]),
   midi.NoteOnEvent(tick=162, channel=2, data=[59, 71]),
   midi.NoteOnEvent(tick=161, channel=2, data=[59, 0]),
   midi.NoteOnEvent(tick=79, channel=2, data=[59, 78]),
   midi.NoteOnEvent(tick=114, channel=2, data=[59, 0]),
   midi.NoteOnEvent(tick=366, channel=2, data=[59, 70]),
   midi.NoteOnEvent(tick=78, channel=2, data=[59, 0]),
   midi.ControlChangeEvent(tick=381, channel=2, data=[64, 0]),
   midi.NoteOnEvent(tick=21, channel=2, data=[59, 62]),
   midi.NoteOnEvent(tick=219, channel=2, data=[52, 0]),
   midi.NoteOnEvent(tick=4, channel=2, data=[59, 0]),
   midi.NoteOnEvent(tick=17, channel=2, data=[52, 67]),
   midi.NoteOnEvent(tick=14, channel=2, data=[54, 0]),
   midi.NoteOnEvent(tick=226, channel=2, data=[56, 59]),
   midi.NoteOnEvent(tick=78, channel=2, data=[52, 0]),
   midi.ControlChangeEvent(tick=106, channel=2, data=[64, 127]),
   midi.NoteOnEvent(tick=56, channel=2, data=[59, 77]),
   midi.NoteOnEvent(tick=21, channel=2, data=[56, 0]),
   midi.NoteOnEvent(tick=188, channel=2, data=[59, 0]),
   midi.NoteOnEvent(tick=31, channel=2, data=[56, 67]),
   midi.ControlChangeEvent(tick=216, channel=2, data=[64, 0]),
   midi.NoteOnEvent(tick=24, channel=2, data=[54, 69]),
   midi.NoteOnEvent(tick=9, channel=2, data=[56, 0]),
   midi.NoteOnEvent(tick=231, channel=2, data=[47, 77]),
   midi.NoteOnEvent(tick=60, channel=2, data=[54, 0]),
   midi.NoteOnEvent(tick=180, channel=2, data=[52, 71]),
   midi.NoteOnEvent(tick=240, channel=2, data=[54, 69]),
   midi.NoteOnEvent(tick=240, channel=2, data=[59, 76]),
   midi.NoteOnEvent(tick=3, channel=2, data=[54, 0]),
   midi.NoteOnEvent(tick=11, channel=2, data=[52, 0]),
   midi.NoteOnEvent(tick=7, channel=2, data=[47, 0]),
   midi.ControlChangeEvent(tick=120, channel=2, data=[64, 127]),
   midi.NoteOnEvent(tick=49, channel=2, data=[59, 0]),
   midi.NoteOnEvent(tick=50, channel=2, data=[56, 56]),
   midi.NoteOnEvent(tick=225, channel=2, data=[56, 0]),
   midi.NoteOnEvent(tick=15, channel=2, data=[59, 70]),
   midi.NoteOnEvent(tick=206, channel=2, data=[59, 0]),
   midi.NoteOnEvent(tick=34, channel=2, data=[64, 63]),
   midi.NoteOnEvent(tick=226, channel=2, data=[64, 0]),
   midi.NoteOnEvent(tick=14, channel=2, data=[59, 70]),
   midi.NoteOnEvent(tick=480, channel=2, data=[52, 74]),
   midi.NoteOnEvent(tick=51, channel=2, data=[59, 0]),
   midi.NoteOnEvent(tick=189, channel=2, data=[56, 52]),
   midi.ControlChangeEvent(tick=4, channel=2, data=[64, 0]),
   midi.NoteOnEvent(tick=236, channel=2, data=[54, 60]),
   midi.NoteOnEvent(tick=16, channel=2, data=[52, 0]),
   midi.NoteOnEvent(tick=9, channel=2, data=[56, 0]),
   midi.NoteOnEvent(tick=215, channel=2, data=[59, 61]),
   midi.NoteOnEvent(tick=171, channel=2, data=[59, 0]),
   midi.ControlChangeEvent(tick=94, channel=2, data=[64, 127]),
   midi.NoteOnEvent(tick=215, channel=2, data=[59, 64]),
   midi.NoteOnEvent(tick=128, channel=2, data=[59, 0]),
   midi.ControlChangeEvent(tick=312, channel=2, data=[64, 0]),
   midi.NoteOnEvent(tick=40, channel=2, data=[59, 63]),
   midi.NoteOnEvent(tick=275, channel=2, data=[54, 0]),
   midi.NoteOnEvent(tick=205, channel=2, data=[54, 53]),
   midi.NoteOnEvent(tick=223, channel=2, data=[59, 0]),
   midi.NoteOnEvent(tick=12, channel=2, data=[54, 0]),
   midi.NoteOnEvent(tick=5, channel=2, data=[52, 65]),
   midi.NoteOnEvent(tick=240, channel=2, data=[57, 83]),
   midi.NoteOnEvent(tick=240, channel=2, data=[59, 67]),
   midi.ControlChangeEvent(tick=163, channel=2, data=[64, 127]),
   midi.NoteOnEvent(tick=77, channel=2, data=[64, 70]),
   midi.NoteOnEvent(tick=63, channel=2, data=[52, 0]),
   midi.NoteOnEvent(tick=177, channel=2, data=[52, 73]),
   midi.NoteOnEvent(tick=253, channel=2, data=[52, 0]),
   midi.ControlChangeEvent(tick=191, channel=2, data=[64, 0]),
   midi.NoteOnEvent(tick=36, channel=2, data=[52, 77]),
   midi.NoteOnEvent(tick=185, channel=2, data=[52, 0]),
   midi.NoteOnEvent(tick=55, channel=2, data=[52, 63]),
   midi.NoteOnEvent(tick=204, channel=2, data=[52, 0]),
   midi.NoteOnEvent(tick=12, channel=2, data=[57, 0]),
   midi.NoteOnEvent(tick=0, channel=2, data=[59, 0]),
   midi.NoteOnEvent(tick=19, channel=2, data=[64, 0]),
   midi.NoteOnEvent(tick=5, channel=2, data=[52, 62]),
   midi.NoteOnEvent(tick=0, channel=2, data=[59, 67]),
   midi.NoteOnEvent(tick=1893, channel=2, data=[52, 0]),
   midi.NoteOnEvent(tick=7, channel=2, data=[59, 0]),
   midi.NoteOnEvent(tick=20, channel=2, data=[76, 93]),
   midi.NoteOnEvent(tick=1524, channel=2, data=[76, 0]),
   midi.NoteOnEvent(tick=156, channel=2, data=[68, 93]),
   midi.NoteOnEvent(tick=224, channel=2, data=[68, 0]),
   midi.NoteOnEvent(tick=16, channel=2, data=[52, 63]),
   midi.NoteOnEvent(tick=0, channel=2, data=[54, 51]),
   midi.NoteOnEvent(tick=0, channel=2, data=[59, 78]),
   midi.NoteOnEvent(tick=0, channel=2, data=[66, 81]),
   midi.NoteOnEvent(tick=203, channel=2, data=[59, 0]),
   midi.NoteOnEvent(tick=37, channel=2, data=[59, 76]),
   midi.NoteOnEvent(tick=664, channel=2, data=[59, 0]),
   midi.NoteOnEvent(tick=56, channel=2, data=[59, 74]),
   midi.ControlChangeEvent(tick=60, channel=2, data=[64, 127]),
   midi.NoteOnEvent(tick=200, channel=2, data=[59, 0]),
   midi.NoteOnEvent(tick=220, channel=2, data=[59, 69]),
   midi.NoteOnEvent(tick=166, channel=2, data=[59, 0]),
   midi.ControlChangeEvent(tick=53, channel=2, data=[64, 0]),
   midi.NoteOnEvent(tick=21, channel=2, data=[59, 69]),
   midi.NoteOnEvent(tick=189, channel=2, data=[66, 0]),
   midi.NoteOnEvent(tick=9, channel=2, data=[54, 0]),
   midi.NoteOnEvent(tick=5, channel=2, data=[59, 0]),
   midi.NoteOnEvent(tick=33, channel=2, data=[52, 0]),
   midi.NoteOnEvent(tick=4, channel=2, data=[52, 60]),
   midi.NoteOnEvent(tick=0, channel=2, data=[54, 43]),
   midi.NoteOnEvent(tick=0, channel=2, data=[59, 72]),
   midi.ControlChangeEvent(tick=236, channel=2, data=[64, 127]),
   midi.NoteOnEvent(tick=82, channel=2, data=[59, 0]),
   midi.NoteOnEvent(tick=162, channel=2, data=[59, 71]),
   midi.NoteOnEvent(tick=161, channel=2, data=[59, 0]),
   midi.NoteOnEvent(tick=79, channel=2, data=[59, 78]),
   midi.NoteOnEvent(tick=114, channel=2, data=[59, 0]),
   midi.NoteOnEvent(tick=366, channel=2, data=[59, 70]),
   midi.NoteOnEvent(tick=78, channel=2, data=[59, 0]),
   midi.ControlChangeEvent(tick=381, channel=2, data=[64, 0]),
   midi.NoteOnEvent(tick=21, channel=2, data=[59, 62]),
   midi.NoteOnEvent(tick=219, channel=2, data=[52, 0]),
   midi.NoteOnEvent(tick=4, channel=2, data=[59, 0]),
   midi.NoteOnEvent(tick=31, channel=2, data=[54, 0]),
   midi.NoteOnEvent(tick=10, channel=2, data=[64, 71]),
   midi.NoteOnEvent(tick=234, channel=2, data=[64, 0]),
   midi.NoteOnEvent(tick=1, channel=2, data=[56, 59]),
   midi.ControlChangeEvent(tick=165, channel=2, data=[64, 127]),
   midi.NoteOnEvent(tick=62, channel=2, data=[59, 81]),
   midi.NoteOnEvent(tick=213, channel=2, data=[56, 0]),
   midi.NoteOnEvent(tick=14, channel=2, data=[64, 81]),
   midi.NoteOnEvent(tick=3, channel=2, data=[59, 0]),
   midi.ControlChangeEvent(tick=220, channel=2, data=[64, 0]),
   midi.NoteOnEvent(tick=19, channel=2, data=[63, 81]),
   midi.NoteOnEvent(tick=3, channel=2, data=[64, 0]),
   midi.NoteOnEvent(tick=253, channel=2, data=[56, 84]),
   midi.NoteOnEvent(tick=3, channel=2, data=[63, 0]),
   midi.NoteOnEvent(tick=226, channel=2, data=[63, 88]),
   midi.NoteOnEvent(tick=34, channel=2, data=[56, 0]),
   midi.NoteOnEvent(tick=206, channel=2, data=[56, 71]),
   midi.NoteOnEvent(tick=3, channel=2, data=[63, 0]),
   midi.NoteOnEvent(tick=237, channel=2, data=[56, 0]),
   midi.NoteOnEvent(tick=8, channel=2, data=[64, 73]),
   midi.NoteOnEvent(tick=3, channel=2, data=[52, 69]),
   midi.NoteOnEvent(tick=245, channel=2, data=[56, 54]),
   midi.NoteOnEvent(tick=7, channel=2, data=[64, 0]),
   midi.NoteOnEvent(tick=240, channel=2, data=[61, 59]),
   midi.NoteOnEvent(tick=222, channel=2, data=[64, 80]),
   midi.NoteOnEvent(tick=244, channel=2, data=[66, 73]),
   midi.NoteOnEvent(tick=49, channel=2, data=[64, 0]),
   midi.NoteOnEvent(tick=437, channel=2, data=[64, 73]),
   midi.NoteOnEvent(tick=405, channel=2, data=[61, 0]),
   midi.NoteOnEvent(tick=5, channel=2, data=[64, 0]),
   midi.NoteOnEvent(tick=6, channel=2, data=[56, 0]),
   midi.NoteOnEvent(tick=4, channel=2, data=[66, 0]),
   midi.NoteOnEvent(tick=3, channel=2, data=[52, 0]),
   midi.NoteOnEvent(tick=42, channel=2, data=[44, 65]),
   midi.NoteOnEvent(tick=271, channel=2, data=[56, 73]),
   midi.NoteOnEvent(tick=208, channel=2, data=[59, 77]),
   midi.NoteOnEvent(tick=230, channel=2, data=[64, 83]),
   midi.NoteOnEvent(tick=261, channel=2, data=[66, 59]),
   midi.NoteOnEvent(tick=370, channel=2, data=[64, 0]),
   midi.NoteOnEvent(tick=118, channel=2, data=[64, 81]),
   midi.NoteOnEvent(tick=202, channel=2, data=[44, 0]),
   midi.NoteOnEvent(tick=228, channel=2, data=[56, 0]),
   midi.NoteOnEvent(tick=22, channel=2, data=[66, 0]),
   midi.NoteOnEvent(tick=4, channel=2, data=[59, 0]),
   midi.NoteOnEvent(tick=0, channel=2, data=[64, 0]),
   midi.NoteOnEvent(tick=6, channel=2, data=[59, 79]),
   midi.NoteOnEvent(tick=240, channel=2, data=[64, 80]),
   midi.NoteOnEvent(tick=218, channel=2, data=[64, 0]),
   midi.NoteOnEvent(tick=22, channel=2, data=[63, 81]),
   midi.NoteOnEvent(tick=214, channel=2, data=[63, 0]),
   midi.NoteOnEvent(tick=26, channel=2, data=[64, 82]),
   midi.NoteOnEvent(tick=411, channel=2, data=[64, 0]),
   midi.NoteOnEvent(tick=69, channel=2, data=[64, 84]),
   midi.NoteOnEvent(tick=240, channel=2, data=[63, 85]),
   midi.NoteOnEvent(tick=1, channel=2, data=[64, 0]),
   midi.NoteOnEvent(tick=207, channel=2, data=[63, 0]),
   midi.NoteOnEvent(tick=32, channel=2, data=[64, 86]),
   midi.NoteOnEvent(tick=170, channel=2, data=[59, 0]),
   midi.NoteOnEvent(tick=70, channel=2, data=[59, 87]),
   midi.NoteOnEvent(tick=38, channel=2, data=[64, 0]),
   midi.NoteOnEvent(tick=202, channel=2, data=[64, 88]),
   midi.NoteOnEvent(tick=234, channel=2, data=[64, 0]),
   midi.NoteOnEvent(tick=6, channel=2, data=[63, 89]),
   midi.NoteOnEvent(tick=219, channel=2, data=[63, 0]),
   midi.NoteOnEvent(tick=21, channel=2, data=[64, 90]),
   midi.NoteOnEvent(tick=116, channel=2, data=[59, 0]),
   midi.NoteOnEvent(tick=124, channel=2, data=[59, 91]),
   midi.NoteOnEvent(tick=178, channel=2, data=[64, 0]),
   midi.NoteOnEvent(tick=62, channel=2, data=[64, 92]),
   midi.NoteOnEvent(tick=240, channel=2, data=[63, 93]),
   midi.NoteOnEvent(tick=0, channel=2, data=[64, 0]),
   midi.NoteOnEvent(tick=240, channel=2, data=[64, 94]),
   midi.NoteOnEvent(tick=14, channel=2, data=[63, 0]),
   midi.NoteOnEvent(tick=194, channel=2, data=[64, 0]),
   midi.NoteOnEvent(tick=15, channel=2, data=[59, 0]),
   midi.NoteOnEvent(tick=43, channel=2, data=[52, 76]),
   midi.NoteOnEvent(tick=4, channel=2, data=[64, 67]),
   midi.NoteOnEvent(tick=4, channel=2, data=[56, 59]),
   midi.NoteOnEvent(tick=6, channel=2, data=[61, 57]),
   midi.NoteOnEvent(tick=1689, channel=2, data=[56, 0]),
   midi.NoteOnEvent(tick=52, channel=2, data=[64, 0]),
   midi.NoteOnEvent(tick=29, channel=2, data=[61, 0]),
   midi.NoteOnEvent(tick=11, channel=2, data=[52, 0]),
   midi.NoteOnEvent(tick=99, channel=2, data=[52, 67]),
   midi.NoteOnEvent(tick=33, channel=2, data=[54, 48]),
   midi.NoteOnEvent(tick=2, channel=2, data=[59, 80]),
   midi.NoteOnEvent(tick=4, channel=2, data=[63, 45]),
   midi.NoteOnEvent(tick=395, channel=2, data=[52, 0]),
   midi.NoteOnEvent(tick=46, channel=2, data=[52, 64]),
   midi.NoteOnEvent(tick=180, channel=2, data=[52, 0]),
   midi.NoteOnEvent(tick=78, channel=2, data=[52, 66]),
   midi.NoteOnEvent(tick=922, channel=2, data=[52, 0]),
   midi.NoteOnEvent(tick=244, channel=2, data=[54, 0]),
   midi.NoteOnEvent(tick=0, channel=2, data=[59, 0]),
   midi.NoteOnEvent(tick=5, channel=2, data=[63, 0]),
   midi.NoteOnEvent(tick=20, channel=2, data=[59, 76]),
   midi.NoteOnEvent(tick=1, channel=2, data=[49, 57]),
   midi.NoteOnEvent(tick=8, channel=2, data=[52, 72]),
   midi.NoteOnEvent(tick=222, channel=2, data=[57, 76]),
   midi.NoteOnEvent(tick=0, channel=2, data=[59, 0]),
   midi.NoteOnEvent(tick=231, channel=2, data=[57, 0]),
   midi.NoteOnEvent(tick=9, channel=2, data=[59, 76]),
   midi.NoteOnEvent(tick=231, channel=2, data=[59, 0]),
   midi.NoteOnEvent(tick=9, channel=2, data=[64, 80]),
   midi.NoteOnEvent(tick=1019, channel=2, data=[49, 0]),
   midi.NoteOnEvent(tick=40, channel=2, data=[52, 0]),
   midi.NoteOnEvent(tick=107, channel=2, data=[47, 59]),
   midi.NoteOnEvent(tick=29, channel=2, data=[63, 76]),
   midi.NoteOnEvent(tick=5, channel=2, data=[54, 76]),
   midi.NoteOnEvent(tick=0, channel=2, data=[64, 0]),
   midi.NoteOnEvent(tick=231, channel=2, data=[54, 0]),
   midi.NoteOnEvent(tick=10, channel=2, data=[54, 56]),
   midi.NoteOnEvent(tick=157, channel=2, data=[63, 0]),
   midi.NoteOnEvent(tick=101, channel=2, data=[59, 72]),
   midi.NoteOnEvent(tick=209, channel=2, data=[54, 0]),
   midi.NoteOnEvent(tick=12, channel=2, data=[54, 76]),
   midi.NoteOnEvent(tick=231, channel=2, data=[54, 0]),
   midi.NoteOnEvent(tick=9, channel=2, data=[56, 74]),
   midi.NoteOnEvent(tick=3, channel=2, data=[64, 74]),
   midi.NoteOnEvent(tick=473, channel=2, data=[63, 67]),
   midi.NoteOnEvent(tick=3, channel=2, data=[56, 0]),
   midi.NoteOnEvent(tick=1, channel=2, data=[57, 74]),
   midi.NoteOnEvent(tick=1, channel=2, data=[64, 0]),
   midi.NoteOnEvent(tick=463, channel=2, data=[63, 0]),
   midi.NoteOnEvent(tick=2, channel=2, data=[47, 0]),
   midi.NoteOnEvent(tick=5, channel=2, data=[59, 0]),
   midi.NoteOnEvent(tick=8, channel=2, data=[57, 0]),
   midi.NoteOnEvent(tick=9, channel=2, data=[64, 73]),
   midi.NoteOnEvent(tick=3, channel=2, data=[52, 69]),
   midi.NoteOnEvent(tick=245, channel=2, data=[56, 54]),
   midi.NoteOnEvent(tick=7, channel=2, data=[64, 0]),
   midi.NoteOnEvent(tick=240, channel=2, data=[61, 59]),
   midi.NoteOnEvent(tick=222, channel=2, data=[64, 80]),
   midi.NoteOnEvent(tick=244, channel=2, data=[66, 73]),
   midi.NoteOnEvent(tick=49, channel=2, data=[64, 0]),
   midi.NoteOnEvent(tick=437, channel=2, data=[64, 73]),
   midi.NoteOnEvent(tick=405, channel=2, data=[61, 0]),
   midi.NoteOnEvent(tick=5, channel=2, data=[64, 0]),
   midi.NoteOnEvent(tick=6, channel=2, data=[56, 0]),
   midi.NoteOnEvent(tick=4, channel=2, data=[66, 0]),
   midi.NoteOnEvent(tick=3, channel=2, data=[52, 0]),
   midi.NoteOnEvent(tick=51, channel=2, data=[59, 67]),
   midi.NoteOnEvent(tick=7, channel=2, data=[54, 53]),
   midi.NoteOnEvent(tick=3, channel=2, data=[63, 48]),
   midi.NoteOnEvent(tick=156, channel=2, data=[54, 0]),
   midi.NoteOnEvent(tick=75, channel=2, data=[54, 49]),
   midi.NoteOnEvent(tick=144, channel=2, data=[54, 0]),
   midi.NoteOnEvent(tick=102, channel=2, data=[54, 61]),
   midi.NoteOnEvent(tick=234, channel=2, data=[52, 69]),
   midi.NoteOnEvent(tick=1156, channel=2, data=[54, 0]),
   midi.NoteOnEvent(tick=10, channel=2, data=[59, 0]),
   midi.NoteOnEvent(tick=0, channel=2, data=[63, 0]),
   midi.NoteOnEvent(tick=5, channel=2, data=[52, 0]),
   midi.NoteOnEvent(tick=19, channel=2, data=[52, 58]),
   midi.NoteOnEvent(tick=6, channel=2, data=[59, 74]),
   midi.NoteOnEvent(tick=13, channel=2, data=[61, 44]),
   midi.NoteOnEvent(tick=99, channel=2, data=[64, 63]),
   midi.NoteOnEvent(tick=1802, channel=2, data=[47, 68]),
   midi.NoteOnEvent(tick=0, channel=2, data=[52, 0]),
   midi.NoteOnEvent(tick=0, channel=2, data=[59, 0]),
   midi.NoteOnEvent(tick=0, channel=2, data=[61, 0]),
   midi.NoteOnEvent(tick=0, channel=2, data=[64, 0]),
   midi.NoteOnEvent(tick=38, channel=2, data=[52, 73]),
   midi.NoteOnEvent(tick=75, channel=2, data=[56, 83]),
   midi.NoteOnEvent(tick=837, channel=2, data=[54, 83]),
   midi.NoteOnEvent(tick=41, channel=2, data=[56, 0]),
   midi.NoteOnEvent(tick=55, channel=2, data=[52, 0]),
   midi.NoteOnEvent(tick=818, channel=2, data=[54, 0]),
   midi.NoteOnEvent(tick=62, channel=2, data=[47, 0]),
   midi.NoteOnEvent(tick=20, channel=2, data=[52, 76]),
   midi.NoteOnEvent(tick=4, channel=2, data=[64, 67]),
   midi.NoteOnEvent(tick=4, channel=2, data=[56, 59]),
   midi.NoteOnEvent(tick=6, channel=2, data=[61, 57]),
   midi.NoteOnEvent(tick=1689, channel=2, data=[56, 0]),
   midi.NoteOnEvent(tick=52, channel=2, data=[64, 0]),
   midi.NoteOnEvent(tick=29, channel=2, data=[61, 0]),
   midi.NoteOnEvent(tick=11, channel=2, data=[52, 0]),
   midi.NoteOnEvent(tick=99, channel=2, data=[52, 67]),
   midi.NoteOnEvent(tick=33, channel=2, data=[54, 48]),
   midi.NoteOnEvent(tick=2, channel=2, data=[59, 80]),
   midi.NoteOnEvent(tick=4, channel=2, data=[63, 45]),
   midi.NoteOnEvent(tick=395, channel=2, data=[52, 0]),
   midi.NoteOnEvent(tick=46, channel=2, data=[52, 64]),
   midi.NoteOnEvent(tick=180, channel=2, data=[52, 0]),
   midi.NoteOnEvent(tick=78, channel=2, data=[52, 66]),
   midi.NoteOnEvent(tick=922, channel=2, data=[52, 0]),
   midi.NoteOnEvent(tick=244, channel=2, data=[54, 0]),
   midi.NoteOnEvent(tick=0, channel=2, data=[59, 0]),
   midi.NoteOnEvent(tick=5, channel=2, data=[63, 0]),
   midi.NoteOnEvent(tick=20, channel=2, data=[59, 76]),
   midi.NoteOnEvent(tick=1, channel=2, data=[49, 57]),
   midi.NoteOnEvent(tick=8, channel=2, data=[52, 72]),
   midi.NoteOnEvent(tick=222, channel=2, data=[57, 76]),
   midi.NoteOnEvent(tick=0, channel=2, data=[59, 0]),
   midi.NoteOnEvent(tick=231, channel=2, data=[57, 0]),
   midi.NoteOnEvent(tick=9, channel=2, data=[59, 76]),
   midi.NoteOnEvent(tick=231, channel=2, data=[59, 0]),
   midi.NoteOnEvent(tick=9, channel=2, data=[64, 80]),
   midi.NoteOnEvent(tick=1019, channel=2, data=[49, 0]),
   midi.NoteOnEvent(tick=40, channel=2, data=[52, 0]),
   midi.NoteOnEvent(tick=107, channel=2, data=[47, 59]),
   midi.NoteOnEvent(tick=29, channel=2, data=[63, 76]),
   midi.NoteOnEvent(tick=5, channel=2, data=[54, 76]),
   midi.NoteOnEvent(tick=0, channel=2, data=[64, 0]),
   midi.NoteOnEvent(tick=231, channel=2, data=[54, 0]),
   midi.NoteOnEvent(tick=10, channel=2, data=[54, 56]),
   midi.NoteOnEvent(tick=157, channel=2, data=[63, 0]),
   midi.NoteOnEvent(tick=101, channel=2, data=[59, 72]),
   midi.NoteOnEvent(tick=209, channel=2, data=[54, 0]),
   midi.NoteOnEvent(tick=12, channel=2, data=[54, 76]),
   midi.NoteOnEvent(tick=231, channel=2, data=[54, 0]),
   midi.NoteOnEvent(tick=9, channel=2, data=[56, 74]),
   midi.NoteOnEvent(tick=3, channel=2, data=[64, 74]),
   midi.NoteOnEvent(tick=473, channel=2, data=[63, 67]),
   midi.NoteOnEvent(tick=3, channel=2, data=[56, 0]),
   midi.NoteOnEvent(tick=1, channel=2, data=[57, 74]),
   midi.NoteOnEvent(tick=1, channel=2, data=[64, 0]),
   midi.NoteOnEvent(tick=463, channel=2, data=[63, 0]),
   midi.NoteOnEvent(tick=2, channel=2, data=[47, 0]),
   midi.NoteOnEvent(tick=5, channel=2, data=[59, 0]),
   midi.NoteOnEvent(tick=8, channel=2, data=[57, 0]),
   midi.NoteOnEvent(tick=9, channel=2, data=[64, 73]),
   midi.NoteOnEvent(tick=3, channel=2, data=[52, 69]),
   midi.NoteOnEvent(tick=245, channel=2, data=[56, 54]),
   midi.NoteOnEvent(tick=7, channel=2, data=[64, 0]),
   midi.NoteOnEvent(tick=240, channel=2, data=[61, 59]),
   midi.NoteOnEvent(tick=222, channel=2, data=[64, 80]),
   midi.NoteOnEvent(tick=244, channel=2, data=[66, 73]),
   midi.NoteOnEvent(tick=49, channel=2, data=[64, 0]),
   midi.NoteOnEvent(tick=437, channel=2, data=[64, 73]),
   midi.NoteOnEvent(tick=405, channel=2, data=[61, 0]),
   midi.NoteOnEvent(tick=5, channel=2, data=[64, 0]),
   midi.NoteOnEvent(tick=6, channel=2, data=[56, 0]),
   midi.NoteOnEvent(tick=4, channel=2, data=[66, 0]),
   midi.NoteOnEvent(tick=3, channel=2, data=[52, 0]),
   midi.NoteOnEvent(tick=51, channel=2, data=[59, 67]),
   midi.NoteOnEvent(tick=7, channel=2, data=[54, 53]),
   midi.NoteOnEvent(tick=3, channel=2, data=[63, 48]),
   midi.NoteOnEvent(tick=156, channel=2, data=[54, 0]),
   midi.NoteOnEvent(tick=75, channel=2, data=[54, 49]),
   midi.NoteOnEvent(tick=144, channel=2, data=[54, 0]),
   midi.NoteOnEvent(tick=102, channel=2, data=[54, 61]),
   midi.NoteOnEvent(tick=234, channel=2, data=[52, 69]),
   midi.NoteOnEvent(tick=1156, channel=2, data=[54, 0]),
   midi.NoteOnEvent(tick=10, channel=2, data=[59, 0]),
   midi.NoteOnEvent(tick=0, channel=2, data=[63, 0]),
   midi.NoteOnEvent(tick=5, channel=2, data=[52, 0]),
   midi.NoteOnEvent(tick=19, channel=2, data=[52, 58]),
   midi.NoteOnEvent(tick=6, channel=2, data=[59, 74]),
   midi.NoteOnEvent(tick=13, channel=2, data=[61, 44]),
   midi.NoteOnEvent(tick=99, channel=2, data=[64, 63]),
   midi.NoteOnEvent(tick=1802, channel=2, data=[47, 68]),
   midi.NoteOnEvent(tick=0, channel=2, data=[52, 0]),
   midi.NoteOnEvent(tick=0, channel=2, data=[59, 0]),
   midi.NoteOnEvent(tick=0, channel=2, data=[61, 0]),
   midi.NoteOnEvent(tick=0, channel=2, data=[64, 0]),
   midi.NoteOnEvent(tick=38, channel=2, data=[52, 73]),
   midi.NoteOnEvent(tick=75, channel=2, data=[56, 83]),
   midi.NoteOnEvent(tick=837, channel=2, data=[54, 83]),
   midi.NoteOnEvent(tick=41, channel=2, data=[56, 0]),
   midi.NoteOnEvent(tick=55, channel=2, data=[52, 0]),
   midi.NoteOnEvent(tick=818, channel=2, data=[54, 0]),
   midi.NoteOnEvent(tick=62, channel=2, data=[47, 0]),
   midi.NoteOnEvent(tick=6714, channel=2, data=[64, 79]),
   midi.NoteOnEvent(tick=436, channel=2, data=[64, 0]),
   midi.NoteOnEvent(tick=44, channel=2, data=[64, 76]),
   midi.NoteOnEvent(tick=238, channel=2, data=[64, 0]),
   midi.NoteOnEvent(tick=2, channel=2, data=[66, 71]),
   midi.NoteOnEvent(tick=203, channel=2, data=[66, 0]),
   midi.NoteOnEvent(tick=37, channel=2, data=[66, 69]),
   midi.ControlChangeEvent(tick=99, channel=2, data=[64, 127]),
   midi.NoteOnEvent(tick=106, channel=2, data=[66, 0]),
   midi.NoteOnEvent(tick=74, channel=2, data=[59, 66]),
   midi.NoteOnEvent(tick=210, channel=2, data=[63, 68]),
   midi.NoteOnEvent(tick=236, channel=2, data=[63, 0]),
   midi.NoteOnEvent(tick=8, channel=2, data=[64, 73]),
   midi.NoteOnEvent(tick=402, channel=2, data=[59, 0]),
   midi.NoteOnEvent(tick=99, channel=2, data=[59, 75]),
   midi.NoteOnEvent(tick=46, channel=2, data=[64, 0]),
   midi.NoteOnEvent(tick=181, channel=2, data=[63, 63]),
   midi.NoteOnEvent(tick=238, channel=2, data=[64, 59]),
   midi.ControlChangeEvent(tick=4, channel=2, data=[64, 0]),
   midi.ControlChangeEvent(tick=188, channel=2, data=[64, 127]),
   midi.NoteOnEvent(tick=213, channel=2, data=[59, 0]),
   midi.NoteOnEvent(tick=69, channel=2, data=[63, 0]),
   midi.NoteOnEvent(tick=13, channel=2, data=[59, 75]),
   midi.NoteOnEvent(tick=18, channel=2, data=[64, 0]),
   midi.NoteOnEvent(tick=212, channel=2, data=[63, 63]),
   midi.NoteOnEvent(tick=234, channel=2, data=[64, 68]),
   midi.ControlChangeEvent(tick=25, channel=2, data=[64, 0]),
   midi.ControlChangeEvent(tick=155, channel=2, data=[64, 127]),
   midi.NoteOnEvent(tick=185, channel=2, data=[59, 0]),
   midi.NoteOnEvent(tick=94, channel=2, data=[59, 68]),
   midi.NoteOnEvent(tick=5, channel=2, data=[63, 0]),
   midi.NoteOnEvent(tick=6, channel=2, data=[64, 0]),
   midi.NoteOnEvent(tick=244, channel=2, data=[63, 68]),
   midi.ControlChangeEvent(tick=14, channel=2, data=[64, 0]),
   midi.NoteOnEvent(tick=228, channel=2, data=[64, 71]),
   midi.NoteOnEvent(tick=232, channel=2, data=[63, 0]),
   midi.NoteOnEvent(tick=15, channel=2, data=[59, 0]),
   midi.ControlChangeEvent(tick=162, channel=2, data=[64, 127]),
   midi.NoteOnEvent(tick=130, channel=2, data=[64, 0]),
   midi.NoteOnEvent(tick=149, channel=2, data=[59, 70]),
   midi.NoteOnEvent(tick=21, channel=2, data=[63, 68]),
   midi.NoteOnEvent(tick=240, channel=2, data=[64, 86]),
   midi.ControlChangeEvent(tick=68, channel=2, data=[64, 0]),
   midi.NoteOnEvent(tick=637, channel=2, data=[66, 76]),
   midi.NoteOnEvent(tick=490, channel=2, data=[64, 0]),
   midi.NoteOnEvent(tick=9, channel=2, data=[68, 76]),
   midi.NoteOnEvent(tick=2, channel=2, data=[66, 0]),
   midi.NoteOnEvent(tick=10, channel=2, data=[63, 0]),
   midi.NoteOnEvent(tick=1590, channel=2, data=[59, 0]),
   midi.NoteOnEvent(tick=37, channel=2, data=[68, 0]),
   midi.NoteOnEvent(tick=308, channel=2, data=[56, 86]),
   midi.NoteOnEvent(tick=4, channel=2, data=[68, 77]),
   midi.NoteOnEvent(tick=4, channel=2, data=[60, 69]),
   midi.NoteOnEvent(tick=6, channel=2, data=[65, 67]),
   midi.NoteOnEvent(tick=1689, channel=2, data=[60, 0]),
   midi.NoteOnEvent(tick=52, channel=2, data=[68, 0]),
   midi.NoteOnEvent(tick=29, channel=2, data=[65, 0]),
   midi.NoteOnEvent(tick=11, channel=2, data=[56, 0]),
   midi.NoteOnEvent(tick=99, channel=2, data=[56, 77]),
   midi.NoteOnEvent(tick=33, channel=2, data=[58, 58]),
   midi.NoteOnEvent(tick=2, channel=2, data=[63, 90]),
   midi.NoteOnEvent(tick=4, channel=2, data=[67, 55]),
   midi.NoteOnEvent(tick=395, channel=2, data=[56, 0]),
   midi.NoteOnEvent(tick=46, channel=2, data=[56, 74]),
   midi.NoteOnEvent(tick=180, channel=2, data=[56, 0]),
   midi.NoteOnEvent(tick=78, channel=2, data=[56, 76]),
   midi.NoteOnEvent(tick=922, channel=2, data=[56, 0]),
   midi.NoteOnEvent(tick=244, channel=2, data=[58, 0]),
   midi.NoteOnEvent(tick=0, channel=2, data=[63, 0]),
   midi.NoteOnEvent(tick=5, channel=2, data=[67, 0]),
   midi.NoteOnEvent(tick=20, channel=2, data=[63, 86]),
   midi.NoteOnEvent(tick=1, channel=2, data=[53, 67]),
   midi.NoteOnEvent(tick=8, channel=2, data=[56, 82]),
   midi.NoteOnEvent(tick=222, channel=2, data=[61, 86]),
   midi.NoteOnEvent(tick=0, channel=2, data=[63, 0]),
   midi.NoteOnEvent(tick=231, channel=2, data=[61, 0]),
   midi.NoteOnEvent(tick=9, channel=2, data=[63, 86]),
   midi.NoteOnEvent(tick=231, channel=2, data=[63, 0]),
   midi.NoteOnEvent(tick=9, channel=2, data=[68, 90]),
   midi.NoteOnEvent(tick=1019, channel=2, data=[53, 0]),
   midi.NoteOnEvent(tick=40, channel=2, data=[56, 0]),
   midi.NoteOnEvent(tick=107, channel=2, data=[51, 69]),
   midi.NoteOnEvent(tick=29, channel=2, data=[67, 86]),
   midi.NoteOnEvent(tick=5, channel=2, data=[58, 86]),
   midi.NoteOnEvent(tick=0, channel=2, data=[68, 0]),
   midi.NoteOnEvent(tick=231, channel=2, data=[58, 0]),
   midi.NoteOnEvent(tick=10, channel=2, data=[58, 66]),
   midi.NoteOnEvent(tick=157, channel=2, data=[67, 0]),
   midi.NoteOnEvent(tick=101, channel=2, data=[63, 82]),
   midi.NoteOnEvent(tick=209, channel=2, data=[58, 0]),
   midi.NoteOnEvent(tick=12, channel=2, data=[58, 86]),
   midi.NoteOnEvent(tick=231, channel=2, data=[58, 0]),
   midi.NoteOnEvent(tick=9, channel=2, data=[60, 84]),
   midi.NoteOnEvent(tick=3, channel=2, data=[68, 84]),
   midi.NoteOnEvent(tick=473, channel=2, data=[67, 77]),
   midi.NoteOnEvent(tick=3, channel=2, data=[60, 0]),
   midi.NoteOnEvent(tick=1, channel=2, data=[61, 84]),
   midi.NoteOnEvent(tick=1, channel=2, data=[68, 0]),
   midi.NoteOnEvent(tick=463, channel=2, data=[67, 0]),
   midi.NoteOnEvent(tick=2, channel=2, data=[51, 0]),
   midi.NoteOnEvent(tick=5, channel=2, data=[63, 0]),
   midi.NoteOnEvent(tick=8, channel=2, data=[61, 0]),
   midi.NoteOnEvent(tick=9, channel=2, data=[68, 83]),
   midi.NoteOnEvent(tick=3, channel=2, data=[56, 79]),
   midi.NoteOnEvent(tick=245, channel=2, data=[60, 64]),
   midi.NoteOnEvent(tick=7, channel=2, data=[68, 0]),
   midi.NoteOnEvent(tick=240, channel=2, data=[65, 69]),
   midi.NoteOnEvent(tick=222, channel=2, data=[68, 90]),
   midi.NoteOnEvent(tick=244, channel=2, data=[70, 83]),
   midi.NoteOnEvent(tick=49, channel=2, data=[68, 0]),
   midi.NoteOnEvent(tick=437, channel=2, data=[68, 83]),
   midi.NoteOnEvent(tick=405, channel=2, data=[65, 0]),
   midi.NoteOnEvent(tick=5, channel=2, data=[68, 0]),
   midi.NoteOnEvent(tick=6, channel=2, data=[60, 0]),
   midi.NoteOnEvent(tick=4, channel=2, data=[70, 0]),
   midi.NoteOnEvent(tick=3, channel=2, data=[56, 0]),
   midi.NoteOnEvent(tick=51, channel=2, data=[63, 77]),
   midi.NoteOnEvent(tick=7, channel=2, data=[58, 63]),
   midi.NoteOnEvent(tick=3, channel=2, data=[67, 58]),
   midi.NoteOnEvent(tick=156, channel=2, data=[58, 0]),
   midi.NoteOnEvent(tick=75, channel=2, data=[58, 59]),
   midi.NoteOnEvent(tick=144, channel=2, data=[58, 0]),
   midi.NoteOnEvent(tick=102, channel=2, data=[58, 71]),
   midi.NoteOnEvent(tick=234, channel=2, data=[56, 79]),
   midi.NoteOnEvent(tick=1156, channel=2, data=[58, 0]),
   midi.NoteOnEvent(tick=10, channel=2, data=[63, 0]),
   midi.NoteOnEvent(tick=0, channel=2, data=[67, 0]),
   midi.NoteOnEvent(tick=5, channel=2, data=[56, 0]),
   midi.NoteOnEvent(tick=19, channel=2, data=[56, 68]),
   midi.NoteOnEvent(tick=6, channel=2, data=[63, 84]),
   midi.NoteOnEvent(tick=13, channel=2, data=[65, 54]),
   midi.NoteOnEvent(tick=99, channel=2, data=[68, 73]),
   midi.NoteOnEvent(tick=1802, channel=2, data=[51, 78]),
   midi.NoteOnEvent(tick=0, channel=2, data=[56, 0]),
   midi.NoteOnEvent(tick=0, channel=2, data=[63, 0]),
   midi.NoteOnEvent(tick=0, channel=2, data=[65, 0]),
   midi.NoteOnEvent(tick=0, channel=2, data=[68, 0]),
   midi.NoteOnEvent(tick=38, channel=2, data=[56, 83]),
   midi.NoteOnEvent(tick=75, channel=2, data=[60, 93]),
   midi.NoteOnEvent(tick=837, channel=2, data=[58, 93]),
   midi.NoteOnEvent(tick=41, channel=2, data=[60, 0]),
   midi.NoteOnEvent(tick=55, channel=2, data=[56, 0]),
   midi.NoteOnEvent(tick=818, channel=2, data=[58, 0]),
   midi.NoteOnEvent(tick=62, channel=2, data=[51, 0]),
   midi.NoteOnEvent(tick=20, channel=2, data=[56, 86]),
   midi.NoteOnEvent(tick=4, channel=2, data=[68, 77]),
   midi.NoteOnEvent(tick=4, channel=2, data=[60, 69]),
   midi.NoteOnEvent(tick=6, channel=2, data=[65, 67]),
   midi.NoteOnEvent(tick=1689, channel=2, data=[60, 0]),
   midi.NoteOnEvent(tick=52, channel=2, data=[68, 0]),
   midi.NoteOnEvent(tick=29, channel=2, data=[65, 0]),
   midi.NoteOnEvent(tick=11, channel=2, data=[56, 0]),
   midi.NoteOnEvent(tick=99, channel=2, data=[56, 77]),
   midi.NoteOnEvent(tick=33, channel=2, data=[58, 58]),
   midi.NoteOnEvent(tick=2, channel=2, data=[63, 90]),
   midi.NoteOnEvent(tick=4, channel=2, data=[67, 55]),
   midi.NoteOnEvent(tick=395, channel=2, data=[56, 0]),
   midi.NoteOnEvent(tick=46, channel=2, data=[56, 74]),
   midi.NoteOnEvent(tick=180, channel=2, data=[56, 0]),
   midi.NoteOnEvent(tick=78, channel=2, data=[56, 76]),
   midi.NoteOnEvent(tick=922, channel=2, data=[56, 0]),
   midi.NoteOnEvent(tick=244, channel=2, data=[58, 0]),
   midi.NoteOnEvent(tick=0, channel=2, data=[63, 0]),
   midi.NoteOnEvent(tick=5, channel=2, data=[67, 0]),
   midi.NoteOnEvent(tick=20, channel=2, data=[63, 86]),
   midi.NoteOnEvent(tick=1, channel=2, data=[53, 67]),
   midi.NoteOnEvent(tick=8, channel=2, data=[56, 82]),
   midi.NoteOnEvent(tick=222, channel=2, data=[61, 86]),
   midi.NoteOnEvent(tick=0, channel=2, data=[63, 0]),
   midi.NoteOnEvent(tick=231, channel=2, data=[61, 0]),
   midi.NoteOnEvent(tick=9, channel=2, data=[63, 86]),
   midi.NoteOnEvent(tick=231, channel=2, data=[63, 0]),
   midi.NoteOnEvent(tick=9, channel=2, data=[68, 90]),
   midi.NoteOnEvent(tick=1019, channel=2, data=[53, 0]),
   midi.NoteOnEvent(tick=40, channel=2, data=[56, 0]),
   midi.NoteOnEvent(tick=107, channel=2, data=[51, 69]),
   midi.NoteOnEvent(tick=29, channel=2, data=[67, 86]),
   midi.NoteOnEvent(tick=5, channel=2, data=[58, 86]),
   midi.NoteOnEvent(tick=0, channel=2, data=[68, 0]),
   midi.NoteOnEvent(tick=231, channel=2, data=[58, 0]),
   midi.NoteOnEvent(tick=10, channel=2, data=[58, 66]),
   midi.NoteOnEvent(tick=157, channel=2, data=[67, 0]),
   midi.NoteOnEvent(tick=101, channel=2, data=[63, 82]),
   midi.NoteOnEvent(tick=209, channel=2, data=[58, 0]),
   midi.NoteOnEvent(tick=12, channel=2, data=[58, 86]),
   midi.NoteOnEvent(tick=231, channel=2, data=[58, 0]),
   midi.NoteOnEvent(tick=9, channel=2, data=[60, 84]),
   midi.NoteOnEvent(tick=3, channel=2, data=[68, 84]),
   midi.NoteOnEvent(tick=473, channel=2, data=[67, 77]),
   midi.NoteOnEvent(tick=3, channel=2, data=[60, 0]),
   midi.NoteOnEvent(tick=1, channel=2, data=[61, 84]),
   midi.NoteOnEvent(tick=1, channel=2, data=[68, 0]),
   midi.NoteOnEvent(tick=463, channel=2, data=[67, 0]),
   midi.NoteOnEvent(tick=2, channel=2, data=[51, 0]),
   midi.NoteOnEvent(tick=5, channel=2, data=[63, 0]),
   midi.NoteOnEvent(tick=8, channel=2, data=[61, 0]),
   midi.NoteOnEvent(tick=9, channel=2, data=[68, 83]),
   midi.NoteOnEvent(tick=3, channel=2, data=[56, 79]),
   midi.NoteOnEvent(tick=245, channel=2, data=[60, 64]),
   midi.NoteOnEvent(tick=7, channel=2, data=[68, 0]),
   midi.NoteOnEvent(tick=240, channel=2, data=[65, 69]),
   midi.NoteOnEvent(tick=222, channel=2, data=[68, 90]),
   midi.NoteOnEvent(tick=244, channel=2, data=[70, 83]),
   midi.NoteOnEvent(tick=49, channel=2, data=[68, 0]),
   midi.NoteOnEvent(tick=437, channel=2, data=[68, 83]),
   midi.NoteOnEvent(tick=405, channel=2, data=[65, 0]),
   midi.NoteOnEvent(tick=5, channel=2, data=[68, 0]),
   midi.NoteOnEvent(tick=6, channel=2, data=[60, 0]),
   midi.NoteOnEvent(tick=4, channel=2, data=[70, 0]),
   midi.NoteOnEvent(tick=3, channel=2, data=[56, 0]),
   midi.NoteOnEvent(tick=51, channel=2, data=[63, 77]),
   midi.NoteOnEvent(tick=7, channel=2, data=[58, 63]),
   midi.NoteOnEvent(tick=3, channel=2, data=[67, 58]),
   midi.NoteOnEvent(tick=156, channel=2, data=[58, 0]),
   midi.NoteOnEvent(tick=75, channel=2, data=[58, 59]),
   midi.NoteOnEvent(tick=144, channel=2, data=[58, 0]),
   midi.NoteOnEvent(tick=102, channel=2, data=[58, 71]),
   midi.NoteOnEvent(tick=234, channel=2, data=[56, 79]),
   midi.NoteOnEvent(tick=1156, channel=2, data=[58, 0]),
   midi.NoteOnEvent(tick=10, channel=2, data=[63, 0]),
   midi.NoteOnEvent(tick=0, channel=2, data=[67, 0]),
   midi.NoteOnEvent(tick=5, channel=2, data=[56, 0]),
   midi.NoteOnEvent(tick=19, channel=2, data=[56, 68]),
   midi.NoteOnEvent(tick=6, channel=2, data=[63, 84]),
   midi.NoteOnEvent(tick=13, channel=2, data=[65, 54]),
   midi.NoteOnEvent(tick=99, channel=2, data=[68, 73]),
   midi.NoteOnEvent(tick=1802, channel=2, data=[51, 78]),
   midi.NoteOnEvent(tick=0, channel=2, data=[56, 0]),
   midi.NoteOnEvent(tick=0, channel=2, data=[63, 0]),
   midi.NoteOnEvent(tick=0, channel=2, data=[65, 0]),
   midi.NoteOnEvent(tick=0, channel=2, data=[68, 0]),
   midi.NoteOnEvent(tick=38, channel=2, data=[56, 83]),
   midi.NoteOnEvent(tick=75, channel=2, data=[60, 93]),
   midi.NoteOnEvent(tick=837, channel=2, data=[58, 93]),
   midi.NoteOnEvent(tick=41, channel=2, data=[60, 0]),
   midi.NoteOnEvent(tick=55, channel=2, data=[56, 0]),
   midi.NoteOnEvent(tick=818, channel=2, data=[58, 0]),
   midi.NoteOnEvent(tick=56, channel=2, data=[63, 73]),
   midi.NoteOnEvent(tick=6, channel=2, data=[51, 0]),
   midi.ControlChangeEvent(tick=234, channel=2, data=[64, 127]),
   midi.NoteOnEvent(tick=0, channel=2, data=[68, 68]),
   midi.NoteOnEvent(tick=18, channel=2, data=[63, 0]),
   midi.NoteOnEvent(tick=200, channel=2, data=[68, 0]),
   midi.NoteOnEvent(tick=22, channel=2, data=[63, 55]),
   midi.NoteOnEvent(tick=240, channel=2, data=[70, 76]),
   midi.ControlChangeEvent(tick=55, channel=2, data=[64, 0]),
   midi.ControlChangeEvent(tick=663, channel=2, data=[64, 127]),
   midi.NoteOnEvent(tick=103, channel=2, data=[70, 0]),
   midi.NoteOnEvent(tick=8, channel=2, data=[63, 0]),
   midi.ControlChangeEvent(tick=325, channel=2, data=[64, 0]),
   midi.NoteOnEvent(tick=46, channel=2, data=[63, 65]),
   midi.ControlChangeEvent(tick=378, channel=2, data=[64, 127]),
   midi.NoteOnEvent(tick=102, channel=2, data=[68, 80]),
   midi.NoteOnEvent(tick=240, channel=2, data=[70, 65]),
   midi.NoteOnEvent(tick=145, channel=2, data=[63, 0]),
   midi.ControlChangeEvent(tick=309, channel=2, data=[64, 0]),
   midi.NoteOnEvent(tick=26, channel=2, data=[63, 63]),
   midi.NoteOnEvent(tick=689, channel=2, data=[70, 0]),
   midi.NoteOnEvent(tick=6, channel=2, data=[63, 0]),
   midi.NoteOnEvent(tick=1, channel=2, data=[68, 0]),
   midi.NoteOnEvent(tick=24, channel=2, data=[56, 53]),
   midi.NoteOnEvent(tick=240, channel=2, data=[61, 47]),
   midi.NoteOnEvent(tick=240, channel=2, data=[65, 73]),
   midi.NoteOnEvent(tick=240, channel=2, data=[68, 57]),
   midi.ControlChangeEvent(tick=20, channel=2, data=[64, 127]),
   midi.NoteOnEvent(tick=116, channel=2, data=[61, 0]),
   midi.NoteOnEvent(tick=67, channel=2, data=[65, 0]),
   midi.ControlChangeEvent(tick=252, channel=2, data=[64, 0]),
   midi.NoteOnEvent(tick=25, channel=2, data=[61, 44]),
   midi.NoteOnEvent(tick=240, channel=2, data=[65, 67]),
   midi.NoteOnEvent(tick=408, channel=2, data=[56, 0]),
   midi.NoteOnEvent(tick=58, channel=2, data=[65, 0]),
   midi.NoteOnEvent(tick=14, channel=2, data=[58, 61]),
   midi.NoteOnEvent(tick=3, channel=2, data=[61, 0]),
   midi.NoteOnEvent(tick=17, channel=2, data=[68, 0]),
   midi.ControlChangeEvent(tick=218, channel=2, data=[64, 127]),
   midi.NoteOnEvent(tick=2, channel=2, data=[63, 45]),
   midi.NoteOnEvent(tick=228, channel=2, data=[63, 0]),
   midi.NoteOnEvent(tick=12, channel=2, data=[67, 71]),
   midi.NoteOnEvent(tick=240, channel=2, data=[63, 47]),
   midi.NoteOnEvent(tick=185, channel=2, data=[67, 0]),
   midi.NoteOnEvent(tick=39, channel=2, data=[63, 0]),
   midi.NoteOnEvent(tick=16, channel=2, data=[70, 68]),
   midi.NoteOnEvent(tick=240, channel=2, data=[63, 49]),
   midi.NoteOnEvent(tick=25, channel=2, data=[70, 0]),
   midi.NoteOnEvent(tick=215, channel=2, data=[68, 71]),
   midi.ControlChangeEvent(tick=59, channel=2, data=[64, 0]),
   midi.NoteOnEvent(tick=181, channel=2, data=[70, 53]),
   midi.NoteOnEvent(tick=139, channel=2, data=[58, 0]),
   midi.NoteOnEvent(tick=101, channel=2, data=[63, 0]),
   midi.NoteOnEvent(tick=0, channel=2, data=[63, 73]),
   midi.NoteOnEvent(tick=10, channel=2, data=[70, 0]),
   midi.NoteOnEvent(tick=8, channel=2, data=[63, 0]),
   midi.NoteOnEvent(tick=2, channel=2, data=[68, 0]),
   midi.ControlChangeEvent(tick=220, channel=2, data=[64, 127]),
   midi.NoteOnEvent(tick=0, channel=2, data=[68, 68]),
   midi.NoteOnEvent(tick=218, channel=2, data=[68, 0]),
   midi.NoteOnEvent(tick=22, channel=2, data=[63, 55]),
   midi.NoteOnEvent(tick=240, channel=2, data=[70, 76]),
   midi.ControlChangeEvent(tick=55, channel=2, data=[64, 0]),
   midi.ControlChangeEvent(tick=663, channel=2, data=[64, 127]),
   midi.NoteOnEvent(tick=103, channel=2, data=[70, 0]),
   midi.NoteOnEvent(tick=8, channel=2, data=[63, 0]),
   midi.ControlChangeEvent(tick=325, channel=2, data=[64, 0]),
   midi.NoteOnEvent(tick=46, channel=2, data=[63, 65]),
   midi.ControlChangeEvent(tick=378, channel=2, data=[64, 127]),
   midi.NoteOnEvent(tick=102, channel=2, data=[68, 80]),
   midi.NoteOnEvent(tick=240, channel=2, data=[70, 65]),
   midi.NoteOnEvent(tick=145, channel=2, data=[63, 0]),
   midi.ControlChangeEvent(tick=309, channel=2, data=[64, 0]),
   midi.NoteOnEvent(tick=26, channel=2, data=[63, 63]),
   midi.NoteOnEvent(tick=689, channel=2, data=[70, 0]),
   midi.NoteOnEvent(tick=6, channel=2, data=[63, 0]),
   midi.NoteOnEvent(tick=1, channel=2, data=[68, 0]),
   midi.NoteOnEvent(tick=24, channel=2, data=[56, 53]),
   midi.NoteOnEvent(tick=240, channel=2, data=[61, 47]),
   midi.NoteOnEvent(tick=240, channel=2, data=[65, 73]),
   midi.NoteOnEvent(tick=240, channel=2, data=[68, 57]),
   midi.ControlChangeEvent(tick=20, channel=2, data=[64, 127]),
   midi.NoteOnEvent(tick=116, channel=2, data=[61, 0]),
   midi.NoteOnEvent(tick=67, channel=2, data=[65, 0]),
   midi.ControlChangeEvent(tick=252, channel=2, data=[64, 0]),
   midi.NoteOnEvent(tick=25, channel=2, data=[61, 44]),
   midi.NoteOnEvent(tick=240, channel=2, data=[65, 67]),
   midi.NoteOnEvent(tick=408, channel=2, data=[56, 0]),
   midi.NoteOnEvent(tick=75, channel=2, data=[61, 0]),
   midi.ControlChangeEvent(tick=235, channel=2, data=[64, 127]),
   midi.ControlChangeEvent(tick=1261, channel=2, data=[64, 0]),
   midi.NoteOnEvent(tick=421, channel=2, data=[65, 0]),
   midi.NoteOnEvent(tick=0, channel=2, data=[68, 0]),
   midi.EndOfTrackEvent(tick=0, data=[])]),
 midi.Track(\
  [midi.ChannelPrefixEvent(tick=0, data=[3]),
   midi.TrackNameEvent(tick=0, text="My Heart Will Go On (Iz Filma 'Titanik') 02 (Karaoke)", data=[77, 121, 32, 72, 101, 97, 114, 116, 32, 87, 105, 108, 108, 32, 71, 111, 32, 79, 110, 32, 40, 73, 122, 32, 70, 105, 108, 109, 97, 32, 39, 84, 105, 116, 97, 110, 105, 107, 39, 41, 32, 48, 50, 32, 40, 75, 97, 114, 97, 111, 107, 101, 41]),
   midi.InstrumentNameEvent(tick=0, text='\xe9\x95\xbf\xe7\xac\x9b\xe7\x8b\xac\xe5\xa5\x8f', data=[233, 149, 191, 231, 172, 155, 231, 139, 172, 229, 165, 143]),
   midi.ControlChangeEvent(tick=180, channel=3, data=[121, 0]),
   midi.ProgramChangeEvent(tick=321, channel=3, data=[73]),
   midi.ControlChangeEvent(tick=2, channel=3, data=[7, 120]),
   midi.ControlChangeEvent(tick=0, channel=3, data=[10, 64]),
   midi.ControlChangeEvent(tick=68, channel=3, data=[91, 90]),
   midi.ControlChangeEvent(tick=4, channel=3, data=[93, 35]),
   midi.ControlChangeEvent(tick=16, channel=3, data=[11, 127]),
   midi.ControlChangeEvent(tick=444, channel=3, data=[100, 0]),
   midi.ControlChangeEvent(tick=9, channel=3, data=[101, 0]),
   midi.ControlChangeEvent(tick=4, channel=3, data=[6, 2]),
   midi.NoteOnEvent(tick=18177, channel=3, data=[76, 66]),
   midi.NoteOnEvent(tick=636, channel=3, data=[76, 0]),
   midi.NoteOnEvent(tick=53, channel=3, data=[76, 81]),
   midi.NoteOnEvent(tick=230, channel=3, data=[76, 0]),
   midi.NoteOnEvent(tick=24, channel=3, data=[76, 73]),
   midi.NoteOnEvent(tick=402, channel=3, data=[76, 0]),
   midi.NoteOnEvent(tick=55, channel=3, data=[76, 83]),
   midi.NoteOnEvent(tick=291, channel=3, data=[76, 0]),
   midi.NoteOnEvent(tick=178, channel=3, data=[75, 79]),
   midi.NoteOnEvent(tick=506, channel=3, data=[75, 0]),
   midi.NoteOnEvent(tick=1, channel=3, data=[76, 52]),
   midi.ControlChangeEvent(tick=702, channel=3, data=[1, 13]),
   midi.ControlChangeEvent(tick=10, channel=3, data=[1, 34]),
   midi.ControlChangeEvent(tick=12, channel=3, data=[1, 61]),
   midi.ControlChangeEvent(tick=11, channel=3, data=[1, 55]),
   midi.ControlChangeEvent(tick=13, channel=3, data=[1, 44]),
   midi.ControlChangeEvent(tick=11, channel=3, data=[1, 20]),
   midi.ControlChangeEvent(tick=13, channel=3, data=[1, 3]),
   midi.ControlChangeEvent(tick=11, channel=3, data=[1, 0]),
   midi.NoteOnEvent(tick=15, channel=3, data=[76, 0]),
   midi.NoteOnEvent(tick=311, channel=3, data=[76, 68]),
   midi.NoteOnEvent(tick=314, channel=3, data=[76, 0]),
   midi.NoteOnEvent(tick=2, channel=3, data=[75, 61]),
   midi.NoteOnEvent(tick=425, channel=3, data=[75, 0]),
   midi.NoteOnEvent(tick=29, channel=3, data=[76, 58]),
   midi.ControlChangeEvent(tick=898, channel=3, data=[1, 49]),
   midi.ControlChangeEvent(tick=12, channel=3, data=[1, 80]),
   midi.ControlChangeEvent(tick=11, channel=3, data=[1, 87]),
   midi.ControlChangeEvent(tick=12, channel=3, data=[1, 77]),
   midi.NoteOnEvent(tick=5, channel=3, data=[76, 0]),
   midi.ControlChangeEvent(tick=7, channel=3, data=[1, 28]),
   midi.ControlChangeEvent(tick=13, channel=3, data=[1, 4]),
   midi.ControlChangeEvent(tick=12, channel=3, data=[1, 0]),
   midi.NoteOnEvent(tick=220, channel=3, data=[78, 73]),
   midi.NoteOnEvent(tick=128, channel=3, data=[78, 0]),
   midi.NoteOnEvent(tick=190, channel=3, data=[80, 80]),
   midi.ControlChangeEvent(tick=511, channel=3, data=[1, 37]),
   midi.ControlChangeEvent(tick=11, channel=3, data=[1, 61]),
   midi.ControlChangeEvent(tick=11, channel=3, data=[1, 87]),
   midi.ControlChangeEvent(tick=12, channel=3, data=[1, 99]),
   midi.ControlChangeEvent(tick=12, channel=3, data=[1, 102]),
   midi.ControlChangeEvent(tick=11, channel=3, data=[1, 103]),
   midi.ControlChangeEvent(tick=25, channel=3, data=[1, 105]),
   midi.ControlChangeEvent(tick=12, channel=3, data=[1, 94]),
   midi.ControlChangeEvent(tick=12, channel=3, data=[1, 87]),
   midi.ControlChangeEvent(tick=10, channel=3, data=[1, 60]),
   midi.ControlChangeEvent(tick=13, channel=3, data=[1, 20]),
   midi.ControlChangeEvent(tick=11, channel=3, data=[1, 3]),
   midi.ControlChangeEvent(tick=11, channel=3, data=[1, 0]),
   midi.NoteOnEvent(tick=74, channel=3, data=[81, 71]),
   midi.NoteOnEvent(tick=1, channel=3, data=[80, 0]),
   midi.NoteOnEvent(tick=68, channel=3, data=[80, 63]),
   midi.NoteOnEvent(tick=21, channel=3, data=[81, 0]),
   midi.NoteOnEvent(tick=80, channel=3, data=[78, 53]),
   midi.NoteOnEvent(tick=16, channel=3, data=[80, 0]),
   midi.NoteOnEvent(tick=881, channel=3, data=[78, 0]),
   midi.NoteOnEvent(tick=137, channel=3, data=[76, 67]),
   midi.NoteOnEvent(tick=581, channel=3, data=[76, 0]),
   midi.NoteOnEvent(tick=60, channel=3, data=[76, 83]),
   midi.NoteOnEvent(tick=231, channel=3, data=[76, 0]),
   midi.NoteOnEvent(tick=39, channel=3, data=[76, 81]),
   midi.NoteOnEvent(tick=439, channel=3, data=[76, 0]),
   midi.NoteOnEvent(tick=42, channel=3, data=[76, 86]),
   midi.NoteOnEvent(tick=295, channel=3, data=[76, 0]),
   midi.NoteOnEvent(tick=170, channel=3, data=[75, 71]),
   midi.NoteOnEvent(tick=466, channel=3, data=[75, 0]),
   midi.NoteOnEvent(tick=19, channel=3, data=[76, 49]),
   midi.NoteOnEvent(tick=798, channel=3, data=[76, 0]),
   midi.NoteOnEvent(tick=162, channel=3, data=[76, 83]),
   midi.NoteOnEvent(tick=554, channel=3, data=[76, 0]),
   midi.NoteOnEvent(tick=4, channel=3, data=[71, 67]),
   midi.ControlChangeEvent(tick=1625, channel=3, data=[1, 5]),
   midi.ControlChangeEvent(tick=10, channel=3, data=[1, 11]),
   midi.ControlChangeEvent(tick=12, channel=3, data=[1, 1]),
   midi.ControlChangeEvent(tick=11, channel=3, data=[1, 0]),
   midi.NoteOnEvent(tick=123, channel=3, data=[71, 0]),
   midi.NoteOnEvent(tick=2035, channel=3, data=[76, 68]),
   midi.NoteOnEvent(tick=696, channel=3, data=[76, 0]),
   midi.NoteOnEvent(tick=15, channel=3, data=[76, 61]),
   midi.NoteOnEvent(tick=140, channel=3, data=[76, 0]),
   midi.NoteOnEvent(tick=41, channel=3, data=[76, 83]),
   midi.NoteOnEvent(tick=442, channel=3, data=[76, 0]),
   midi.NoteOnEvent(tick=53, channel=3, data=[76, 79]),
   midi.NoteOnEvent(tick=279, channel=3, data=[76, 0]),
   midi.NoteOnEvent(tick=211, channel=3, data=[75, 80]),
   midi.NoteOnEvent(tick=507, channel=3, data=[76, 62]),
   midi.NoteOnEvent(tick=8, channel=3, data=[75, 0]),
   midi.NoteOnEvent(tick=964, channel=3, data=[76, 0]),
   midi.NoteOnEvent(tick=173, channel=3, data=[76, 86]),
   midi.NoteOnEvent(tick=110, channel=3, data=[76, 0]),
   midi.NoteOnEvent(tick=195, channel=3, data=[75, 73]),
   midi.NoteOnEvent(tick=473, channel=3, data=[75, 0]),
   midi.NoteOnEvent(tick=10, channel=3, data=[76, 58]),
   midi.ControlChangeEvent(tick=742, channel=3, data=[1, 1]),
   midi.ControlChangeEvent(tick=11, channel=3, data=[1, 9]),
   midi.ControlChangeEvent(tick=12, channel=3, data=[1, 50]),
   midi.ControlChangeEvent(tick=12, channel=3, data=[1, 75]),
   midi.ControlChangeEvent(tick=11, channel=3, data=[1, 91]),
   midi.ControlChangeEvent(tick=11, channel=3, data=[1, 100]),
   midi.ControlChangeEvent(tick=14, channel=3, data=[1, 109]),
   midi.ControlChangeEvent(tick=12, channel=3, data=[1, 116]),
   midi.ControlChangeEvent(tick=12, channel=3, data=[1, 118]),
   midi.ControlChangeEvent(tick=22, channel=3, data=[1, 116]),
   midi.ControlChangeEvent(tick=13, channel=3, data=[1, 103]),
   midi.ControlChangeEvent(tick=11, channel=3, data=[1, 65]),
   midi.ControlChangeEvent(tick=11, channel=3, data=[1, 12]),
   midi.ControlChangeEvent(tick=13, channel=3, data=[1, 0]),
   midi.NoteOnEvent(tick=20, channel=3, data=[76, 0]),
   midi.NoteOnEvent(tick=40, channel=3, data=[78, 80]),
   midi.NoteOnEvent(tick=446, channel=3, data=[80, 73]),
   midi.NoteOnEvent(tick=4, channel=3, data=[78, 0]),
   midi.NoteOnEvent(tick=460, channel=3, data=[81, 77]),
   midi.NoteOnEvent(tick=2, channel=3, data=[80, 0]),
   midi.NoteOnEvent(tick=46, channel=3, data=[80, 73]),
   midi.NoteOnEvent(tick=34, channel=3, data=[81, 0]),
   midi.NoteOnEvent(tick=60, channel=3, data=[78, 59]),
   midi.NoteOnEvent(tick=25, channel=3, data=[80, 0]),
   midi.NoteOnEvent(tick=309, channel=3, data=[78, 0]),
   midi.NoteOnEvent(tick=45, channel=3, data=[78, 71]),
   midi.ControlChangeEvent(tick=654, channel=3, data=[1, 9]),
   midi.ControlChangeEvent(tick=10, channel=3, data=[1, 41]),
   midi.ControlChangeEvent(tick=12, channel=3, data=[1, 60]),
   midi.ControlChangeEvent(tick=9, channel=3, data=[1, 69]),
   midi.ControlChangeEvent(tick=15, channel=3, data=[1, 86]),
   midi.ControlChangeEvent(tick=11, channel=3, data=[1, 89]),
   midi.ControlChangeEvent(tick=13, channel=3, data=[1, 92]),
   midi.ControlChangeEvent(tick=10, channel=3, data=[1, 91]),
   midi.ControlChangeEvent(tick=13, channel=3, data=[1, 45]),
   midi.ControlChangeEvent(tick=10, channel=3, data=[1, 8]),
   midi.ControlChangeEvent(tick=13, channel=3, data=[1, 0]),
   midi.NoteOnEvent(tick=15, channel=3, data=[78, 0]),
   midi.NoteOnEvent(tick=134, channel=3, data=[76, 83]),
   midi.NoteOnEvent(tick=637, channel=3, data=[76, 0]),
   midi.NoteOnEvent(tick=70, channel=3, data=[76, 94]),
   midi.NoteOnEvent(tick=111, channel=3, data=[76, 0]),
   midi.NoteOnEvent(tick=167, channel=3, data=[76, 94]),
   midi.NoteOnEvent(tick=417, channel=3, data=[76, 0]),
   midi.NoteOnEvent(tick=39, channel=3, data=[76, 101]),
   midi.NoteOnEvent(tick=305, channel=3, data=[76, 0]),
   midi.NoteOnEvent(tick=157, channel=3, data=[75, 87]),
   midi.NoteOnEvent(tick=498, channel=3, data=[75, 0]),
   midi.NoteOnEvent(tick=1, channel=3, data=[76, 63]),
   midi.ControlChangeEvent(tick=825, channel=3, data=[1, 40]),
   midi.ControlChangeEvent(tick=11, channel=3, data=[1, 83]),
   midi.ControlChangeEvent(tick=12, channel=3, data=[1, 98]),
   midi.ControlChangeEvent(tick=12, channel=3, data=[1, 103]),
   midi.ControlChangeEvent(tick=11, channel=3, data=[1, 108]),
   midi.ControlChangeEvent(tick=10, channel=3, data=[1, 110]),
   midi.ControlChangeEvent(tick=15, channel=3, data=[1, 102]),
   midi.ControlChangeEvent(tick=9, channel=3, data=[1, 88]),
   midi.ControlChangeEvent(tick=14, channel=3, data=[1, 42]),
   midi.ControlChangeEvent(tick=12, channel=3, data=[1, 7]),
   midi.NoteOnEvent(tick=10, channel=3, data=[76, 0]),
   midi.ControlChangeEvent(tick=185, channel=3, data=[1, 0]),
   midi.NoteOnEvent(tick=2, channel=3, data=[76, 86]),
   midi.NoteOnEvent(tick=283, channel=3, data=[76, 0]),
   midi.NoteOnEvent(tick=14, channel=3, data=[71, 77]),
   midi.ControlChangeEvent(tick=1769, channel=3, data=[1, 1]),
   midi.ControlChangeEvent(tick=22, channel=3, data=[1, 37]),
   midi.ControlChangeEvent(tick=13, channel=3, data=[1, 45]),
   midi.ControlChangeEvent(tick=24, channel=3, data=[1, 46]),
   midi.ControlChangeEvent(tick=11, channel=3, data=[1, 48]),
   midi.ControlChangeEvent(tick=12, channel=3, data=[1, 51]),
   midi.ControlChangeEvent(tick=12, channel=3, data=[1, 57]),
   midi.ControlChangeEvent(tick=11, channel=3, data=[1, 60]),
   midi.ControlChangeEvent(tick=11, channel=3, data=[1, 69]),
   midi.ControlChangeEvent(tick=14, channel=3, data=[1, 75]),
   midi.ControlChangeEvent(tick=11, channel=3, data=[1, 84]),
   midi.ControlChangeEvent(tick=24, channel=3, data=[1, 89]),
   midi.ControlChangeEvent(tick=5, channel=3, data=[1, 92]),
   midi.ControlChangeEvent(tick=19, channel=3, data=[1, 95]),
   midi.ControlChangeEvent(tick=12, channel=3, data=[1, 99]),
   midi.ControlChangeEvent(tick=13, channel=3, data=[1, 101]),
   midi.ControlChangeEvent(tick=22, channel=3, data=[1, 102]),
   midi.ControlChangeEvent(tick=35, channel=3, data=[1, 104]),
   midi.ControlChangeEvent(tick=24, channel=3, data=[1, 102]),
   midi.ControlChangeEvent(tick=9, channel=3, data=[1, 100]),
   midi.ControlChangeEvent(tick=26, channel=3, data=[1, 101]),
   midi.ControlChangeEvent(tick=25, channel=3, data=[1, 102]),
   midi.ControlChangeEvent(tick=11, channel=3, data=[1, 104]),
   midi.ControlChangeEvent(tick=11, channel=3, data=[1, 107]),
   midi.ControlChangeEvent(tick=13, channel=3, data=[1, 108]),
   midi.ControlChangeEvent(tick=35, channel=3, data=[1, 109]),
   midi.ControlChangeEvent(tick=24, channel=3, data=[1, 110]),
   midi.ControlChangeEvent(tick=11, channel=3, data=[1, 112]),
   midi.ControlChangeEvent(tick=12, channel=3, data=[1, 113]),
   midi.ControlChangeEvent(tick=34, channel=3, data=[1, 115]),
   midi.ControlChangeEvent(tick=61, channel=3, data=[1, 116]),
   midi.ControlChangeEvent(tick=49, channel=3, data=[1, 115]),
   midi.ControlChangeEvent(tick=10, channel=3, data=[1, 114]),
   midi.ControlChangeEvent(tick=13, channel=3, data=[1, 109]),
   midi.ControlChangeEvent(tick=12, channel=3, data=[1, 101]),
   midi.ControlChangeEvent(tick=11, channel=3, data=[1, 94]),
   midi.ControlChangeEvent(tick=12, channel=3, data=[1, 86]),
   midi.ControlChangeEvent(tick=12, channel=3, data=[1, 70]),
   midi.ControlChangeEvent(tick=11, channel=3, data=[1, 23]),
   midi.ControlChangeEvent(tick=12, channel=3, data=[1, 3]),
   midi.ControlChangeEvent(tick=12, channel=3, data=[1, 0]),
   midi.NoteOnEvent(tick=35, channel=3, data=[71, 0]),
   midi.NoteOnEvent(tick=1363, channel=3, data=[76, 79]),
   midi.ControlChangeEvent(tick=675, channel=3, data=[1, 8]),
   midi.ControlChangeEvent(tick=12, channel=3, data=[1, 11]),
   midi.ControlChangeEvent(tick=11, channel=3, data=[1, 7]),
   midi.ControlChangeEvent(tick=13, channel=3, data=[1, 0]),
   midi.ControlChangeEvent(tick=39, channel=3, data=[1, 5]),
   midi.ControlChangeEvent(tick=11, channel=3, data=[1, 11]),
   midi.ControlChangeEvent(tick=12, channel=3, data=[1, 4]),
   midi.ControlChangeEvent(tick=12, channel=3, data=[1, 1]),
   midi.ControlChangeEvent(tick=12, channel=3, data=[1, 0]),
   midi.NoteOnEvent(tick=123, channel=3, data=[76, 0]),
   midi.NoteOnEvent(tick=972, channel=3, data=[78, 87]),
   midi.NoteOnEvent(tick=981, channel=3, data=[78, 0]),
   midi.NoteOnEvent(tick=465, channel=3, data=[71, 97]),
   midi.NoteOnEvent(tick=462, channel=3, data=[71, 0]),
   midi.NoteOnEvent(tick=60, channel=3, data=[83, 83]),
   midi.NoteOnEvent(tick=856, channel=3, data=[83, 0]),
   midi.NoteOnEvent(tick=51, channel=3, data=[81, 86]),
   midi.NoteOnEvent(tick=446, channel=3, data=[81, 0]),
   midi.NoteOnEvent(tick=45, channel=3, data=[80, 83]),
   midi.NoteOnEvent(tick=263, channel=3, data=[78, 65]),
   midi.NoteOnEvent(tick=4, channel=3, data=[80, 0]),
   midi.NoteOnEvent(tick=682, channel=3, data=[78, 0]),
   midi.NoteOnEvent(tick=515, channel=3, data=[80, 83]),
   midi.NoteOnEvent(tick=616, channel=3, data=[80, 0]),
   midi.NoteOnEvent(tick=69, channel=3, data=[81, 97]),
   midi.NoteOnEvent(tick=235, channel=3, data=[81, 0]),
   midi.NoteOnEvent(tick=5, channel=3, data=[80, 76]),
   midi.NoteOnEvent(tick=863, channel=3, data=[80, 0]),
   midi.NoteOnEvent(tick=108, channel=3, data=[78, 71]),
   midi.NoteOnEvent(tick=335, channel=3, data=[78, 0]),
   midi.NoteOnEvent(tick=374, channel=3, data=[76, 83]),
   midi.NoteOnEvent(tick=266, channel=3, data=[76, 0]),
   midi.NoteOnEvent(tick=17, channel=3, data=[75, 53]),
   midi.NoteOnEvent(tick=437, channel=3, data=[75, 0]),
   midi.NoteOnEvent(tick=45, channel=3, data=[76, 71]),
   midi.NoteOnEvent(tick=400, channel=3, data=[76, 0]),
   midi.NoteOnEvent(tick=726, channel=3, data=[75, 73]),
   midi.NoteOnEvent(tick=293, channel=3, data=[75, 0]),
   midi.NoteOnEvent(tick=6, channel=3, data=[73, 64]),
   midi.PitchWheelEvent(tick=1615, channel=3, data=[41, 74]),
   midi.PitchWheelEvent(tick=13, channel=3, data=[90, 86]),
   midi.PitchWheelEvent(tick=11, channel=3, data=[20, 101]),
   midi.PitchWheelEvent(tick=17, channel=3, data=[77, 115]),
   midi.PitchWheelEvent(tick=9, channel=3, data=[127, 127]),
   midi.PitchWheelEvent(tick=60, channel=3, data=[118, 125]),
   midi.PitchWheelEvent(tick=14, channel=3, data=[69, 113]),
   midi.PitchWheelEvent(tick=10, channel=3, data=[3, 97]),
   midi.PitchWheelEvent(tick=14, channel=3, data=[57, 78]),
   midi.PitchWheelEvent(tick=11, channel=3, data=[16, 68]),
   midi.PitchWheelEvent(tick=12, channel=3, data=[0, 64]),
   midi.NoteOnEvent(tick=104, channel=3, data=[73, 0]),
   midi.NoteOnEvent(tick=20, channel=3, data=[71, 66]),
   midi.NoteOnEvent(tick=1409, channel=3, data=[71, 0]),
   midi.NoteOnEvent(tick=524, channel=3, data=[76, 79]),
   midi.ControlChangeEvent(tick=675, channel=3, data=[1, 8]),
   midi.ControlChangeEvent(tick=12, channel=3, data=[1, 11]),
   midi.ControlChangeEvent(tick=11, channel=3, data=[1, 7]),
   midi.ControlChangeEvent(tick=13, channel=3, data=[1, 0]),
   midi.ControlChangeEvent(tick=39, channel=3, data=[1, 5]),
   midi.ControlChangeEvent(tick=11, channel=3, data=[1, 11]),
   midi.ControlChangeEvent(tick=12, channel=3, data=[1, 4]),
   midi.ControlChangeEvent(tick=12, channel=3, data=[1, 1]),
   midi.ControlChangeEvent(tick=12, channel=3, data=[1, 0]),
   midi.NoteOnEvent(tick=123, channel=3, data=[76, 0]),
   midi.NoteOnEvent(tick=972, channel=3, data=[78, 87]),
   midi.NoteOnEvent(tick=981, channel=3, data=[78, 0]),
   midi.NoteOnEvent(tick=465, channel=3, data=[71, 97]),
   midi.NoteOnEvent(tick=462, channel=3, data=[71, 0]),
   midi.NoteOnEvent(tick=60, channel=3, data=[83, 83]),
   midi.NoteOnEvent(tick=856, channel=3, data=[83, 0]),
   midi.NoteOnEvent(tick=51, channel=3, data=[81, 86]),
   midi.NoteOnEvent(tick=446, channel=3, data=[81, 0]),
   midi.NoteOnEvent(tick=45, channel=3, data=[80, 83]),
   midi.NoteOnEvent(tick=263, channel=3, data=[78, 65]),
   midi.NoteOnEvent(tick=4, channel=3, data=[80, 0]),
   midi.NoteOnEvent(tick=682, channel=3, data=[78, 0]),
   midi.NoteOnEvent(tick=515, channel=3, data=[80, 83]),
   midi.NoteOnEvent(tick=445, channel=3, data=[80, 0]),
   midi.NoteOnEvent(tick=0, channel=3, data=[81, 97]),
   midi.NoteOnEvent(tick=460, channel=3, data=[81, 0]),
   midi.NoteOnEvent(tick=20, channel=3, data=[80, 76]),
   midi.NoteOnEvent(tick=863, channel=3, data=[80, 0]),
   midi.NoteOnEvent(tick=108, channel=3, data=[78, 71]),
   midi.NoteOnEvent(tick=335, channel=3, data=[78, 0]),
   midi.NoteOnEvent(tick=134, channel=3, data=[76, 83]),
   midi.NoteOnEvent(tick=429, channel=3, data=[76, 0]),
   midi.NoteOnEvent(tick=94, channel=3, data=[75, 53]),
   midi.NoteOnEvent(tick=437, channel=3, data=[75, 0]),
   midi.NoteOnEvent(tick=45, channel=3, data=[76, 71]),
   midi.NoteOnEvent(tick=400, channel=3, data=[76, 0]),
   midi.NoteOnEvent(tick=515, channel=3, data=[75, 73]),
   midi.NoteOnEvent(tick=430, channel=3, data=[75, 0]),
   midi.NoteOnEvent(tick=85, channel=3, data=[75, 80]),
   midi.NoteOnEvent(tick=278, channel=3, data=[75, 0]),
   midi.NoteOnEvent(tick=202, channel=3, data=[76, 81]),
   midi.ControlChangeEvent(tick=643, channel=3, data=[1, 9]),
   midi.ControlChangeEvent(tick=12, channel=3, data=[1, 4]),
   midi.ControlChangeEvent(tick=13, channel=3, data=[1, 16]),
   midi.ControlChangeEvent(tick=11, channel=3, data=[1, 26]),
   midi.ControlChangeEvent(tick=12, channel=3, data=[1, 33]),
   midi.ControlChangeEvent(tick=13, channel=3, data=[1, 55]),
   midi.ControlChangeEvent(tick=11, channel=3, data=[1, 75]),
   midi.ControlChangeEvent(tick=14, channel=3, data=[1, 92]),
   midi.ControlChangeEvent(tick=11, channel=3, data=[1, 105]),
   midi.ControlChangeEvent(tick=14, channel=3, data=[1, 114]),
   midi.ControlChangeEvent(tick=11, channel=3, data=[1, 115]),
   midi.ControlChangeEvent(tick=26, channel=3, data=[1, 105]),
   midi.ControlChangeEvent(tick=12, channel=3, data=[1, 96]),
   midi.ControlChangeEvent(tick=12, channel=3, data=[1, 74]),
   midi.ControlChangeEvent(tick=11, channel=3, data=[1, 28]),
   midi.ControlChangeEvent(tick=13, channel=3, data=[1, 4]),
   midi.ControlChangeEvent(tick=12, channel=3, data=[1, 0]),
   midi.NoteOnEvent(tick=87, channel=3, data=[76, 0]),
   midi.NoteOnEvent(tick=1, channel=3, data=[78, 87]),
   midi.NoteOnEvent(tick=492, channel=3, data=[80, 95]),
   midi.NoteOnEvent(tick=2, channel=3, data=[78, 0]),
   midi.NoteOnEvent(tick=452, channel=3, data=[81, 79]),
   midi.NoteOnEvent(tick=46, channel=3, data=[80, 0]),
   midi.NoteOnEvent(tick=80, channel=3, data=[80, 68]),
   midi.NoteOnEvent(tick=5, channel=3, data=[81, 0]),
   midi.NoteOnEvent(tick=105, channel=3, data=[78, 71]),
   midi.NoteOnEvent(tick=22, channel=3, data=[80, 0]),
   midi.NoteOnEvent(tick=93, channel=3, data=[78, 0]),
   midi.NoteOnEvent(tick=194, channel=3, data=[78, 76]),
   midi.NoteOnEvent(tick=415, channel=3, data=[76, 75]),
   midi.NoteOnEvent(tick=39, channel=3, data=[78, 0]),
   midi.NoteOnEvent(tick=421, channel=3, data=[76, 0]),
   midi.NoteOnEvent(tick=20, channel=3, data=[76, 47]),
   midi.NoteOnEvent(tick=1920, channel=3, data=[76, 0]),
   midi.NoteOnEvent(tick=5804, channel=3, data=[76, 68]),
   midi.NoteOnEvent(tick=677, channel=3, data=[76, 0]),
   midi.NoteOnEvent(tick=60, channel=3, data=[76, 79]),
   midi.NoteOnEvent(tick=100, channel=3, data=[76, 0]),
   midi.NoteOnEvent(tick=55, channel=3, data=[76, 83]),
   midi.NoteOnEvent(tick=442, channel=3, data=[76, 0]),
   midi.NoteOnEvent(tick=53, channel=3, data=[76, 79]),
   midi.NoteOnEvent(tick=279, channel=3, data=[76, 0]),
   midi.NoteOnEvent(tick=211, channel=3, data=[75, 80]),
   midi.NoteOnEvent(tick=507, channel=3, data=[76, 62]),
   midi.NoteOnEvent(tick=8, channel=3, data=[75, 0]),
   midi.NoteOnEvent(tick=964, channel=3, data=[76, 0]),
   midi.NoteOnEvent(tick=173, channel=3, data=[76, 86]),
   midi.NoteOnEvent(tick=110, channel=3, data=[76, 0]),
   midi.NoteOnEvent(tick=195, channel=3, data=[75, 73]),
   midi.NoteOnEvent(tick=473, channel=3, data=[75, 0]),
   midi.NoteOnEvent(tick=10, channel=3, data=[76, 58]),
   midi.ControlChangeEvent(tick=742, channel=3, data=[1, 1]),
   midi.ControlChangeEvent(tick=11, channel=3, data=[1, 9]),
   midi.ControlChangeEvent(tick=12, channel=3, data=[1, 50]),
   midi.ControlChangeEvent(tick=12, channel=3, data=[1, 75]),
   midi.ControlChangeEvent(tick=11, channel=3, data=[1, 91]),
   midi.ControlChangeEvent(tick=11, channel=3, data=[1, 100]),
   midi.ControlChangeEvent(tick=14, channel=3, data=[1, 109]),
   midi.ControlChangeEvent(tick=12, channel=3, data=[1, 116]),
   midi.ControlChangeEvent(tick=12, channel=3, data=[1, 118]),
   midi.ControlChangeEvent(tick=22, channel=3, data=[1, 116]),
   midi.ControlChangeEvent(tick=13, channel=3, data=[1, 103]),
   midi.ControlChangeEvent(tick=11, channel=3, data=[1, 65]),
   midi.ControlChangeEvent(tick=11, channel=3, data=[1, 12]),
   midi.ControlChangeEvent(tick=13, channel=3, data=[1, 0]),
   midi.NoteOnEvent(tick=20, channel=3, data=[76, 0]),
   midi.NoteOnEvent(tick=40, channel=3, data=[78, 80]),
   midi.NoteOnEvent(tick=446, channel=3, data=[80, 73]),
   midi.NoteOnEvent(tick=4, channel=3, data=[78, 0]),
   midi.NoteOnEvent(tick=460, channel=3, data=[81, 77]),
   midi.NoteOnEvent(tick=2, channel=3, data=[80, 0]),
   midi.NoteOnEvent(tick=46, channel=3, data=[80, 73]),
   midi.NoteOnEvent(tick=34, channel=3, data=[81, 0]),
   midi.NoteOnEvent(tick=60, channel=3, data=[78, 59]),
   midi.NoteOnEvent(tick=25, channel=3, data=[80, 0]),
   midi.NoteOnEvent(tick=309, channel=3, data=[78, 0]),
   midi.NoteOnEvent(tick=45, channel=3, data=[78, 71]),
   midi.ControlChangeEvent(tick=654, channel=3, data=[1, 9]),
   midi.ControlChangeEvent(tick=10, channel=3, data=[1, 41]),
   midi.ControlChangeEvent(tick=12, channel=3, data=[1, 60]),
   midi.ControlChangeEvent(tick=9, channel=3, data=[1, 69]),
   midi.ControlChangeEvent(tick=15, channel=3, data=[1, 86]),
   midi.ControlChangeEvent(tick=11, channel=3, data=[1, 89]),
   midi.ControlChangeEvent(tick=13, channel=3, data=[1, 92]),
   midi.ControlChangeEvent(tick=10, channel=3, data=[1, 91]),
   midi.ControlChangeEvent(tick=13, channel=3, data=[1, 45]),
   midi.ControlChangeEvent(tick=10, channel=3, data=[1, 8]),
   midi.ControlChangeEvent(tick=13, channel=3, data=[1, 0]),
   midi.NoteOnEvent(tick=15, channel=3, data=[78, 0]),
   midi.NoteOnEvent(tick=134, channel=3, data=[76, 83]),
   midi.NoteOnEvent(tick=637, channel=3, data=[76, 0]),
   midi.NoteOnEvent(tick=70, channel=3, data=[76, 94]),
   midi.NoteOnEvent(tick=111, channel=3, data=[76, 0]),
   midi.NoteOnEvent(tick=167, channel=3, data=[76, 94]),
   midi.NoteOnEvent(tick=417, channel=3, data=[76, 0]),
   midi.NoteOnEvent(tick=39, channel=3, data=[76, 101]),
   midi.NoteOnEvent(tick=305, channel=3, data=[76, 0]),
   midi.NoteOnEvent(tick=157, channel=3, data=[75, 87]),
   midi.NoteOnEvent(tick=498, channel=3, data=[75, 0]),
   midi.NoteOnEvent(tick=1, channel=3, data=[76, 63]),
   midi.ControlChangeEvent(tick=825, channel=3, data=[1, 40]),
   midi.ControlChangeEvent(tick=11, channel=3, data=[1, 83]),
   midi.ControlChangeEvent(tick=12, channel=3, data=[1, 98]),
   midi.ControlChangeEvent(tick=12, channel=3, data=[1, 103]),
   midi.ControlChangeEvent(tick=11, channel=3, data=[1, 108]),
   midi.ControlChangeEvent(tick=10, channel=3, data=[1, 110]),
   midi.ControlChangeEvent(tick=15, channel=3, data=[1, 102]),
   midi.ControlChangeEvent(tick=9, channel=3, data=[1, 88]),
   midi.ControlChangeEvent(tick=14, channel=3, data=[1, 42]),
   midi.ControlChangeEvent(tick=12, channel=3, data=[1, 7]),
   midi.NoteOnEvent(tick=10, channel=3, data=[76, 0]),
   midi.ControlChangeEvent(tick=185, channel=3, data=[1, 0]),
   midi.NoteOnEvent(tick=2, channel=3, data=[76, 86]),
   midi.NoteOnEvent(tick=283, channel=3, data=[76, 0]),
   midi.NoteOnEvent(tick=14, channel=3, data=[71, 77]),
   midi.ControlChangeEvent(tick=1769, channel=3, data=[1, 1]),
   midi.ControlChangeEvent(tick=22, channel=3, data=[1, 37]),
   midi.ControlChangeEvent(tick=13, channel=3, data=[1, 45]),
   midi.ControlChangeEvent(tick=24, channel=3, data=[1, 46]),
   midi.ControlChangeEvent(tick=11, channel=3, data=[1, 48]),
   midi.ControlChangeEvent(tick=12, channel=3, data=[1, 51]),
   midi.ControlChangeEvent(tick=12, channel=3, data=[1, 57]),
   midi.ControlChangeEvent(tick=11, channel=3, data=[1, 60]),
   midi.ControlChangeEvent(tick=11, channel=3, data=[1, 69]),
   midi.ControlChangeEvent(tick=14, channel=3, data=[1, 75]),
   midi.ControlChangeEvent(tick=11, channel=3, data=[1, 84]),
   midi.ControlChangeEvent(tick=24, channel=3, data=[1, 89]),
   midi.ControlChangeEvent(tick=5, channel=3, data=[1, 92]),
   midi.ControlChangeEvent(tick=19, channel=3, data=[1, 95]),
   midi.ControlChangeEvent(tick=12, channel=3, data=[1, 99]),
   midi.ControlChangeEvent(tick=13, channel=3, data=[1, 101]),
   midi.ControlChangeEvent(tick=22, channel=3, data=[1, 102]),
   midi.ControlChangeEvent(tick=35, channel=3, data=[1, 104]),
   midi.ControlChangeEvent(tick=24, channel=3, data=[1, 102]),
   midi.ControlChangeEvent(tick=9, channel=3, data=[1, 100]),
   midi.ControlChangeEvent(tick=26, channel=3, data=[1, 101]),
   midi.ControlChangeEvent(tick=25, channel=3, data=[1, 102]),
   midi.ControlChangeEvent(tick=11, channel=3, data=[1, 104]),
   midi.ControlChangeEvent(tick=11, channel=3, data=[1, 107]),
   midi.ControlChangeEvent(tick=13, channel=3, data=[1, 108]),
   midi.ControlChangeEvent(tick=35, channel=3, data=[1, 109]),
   midi.ControlChangeEvent(tick=24, channel=3, data=[1, 110]),
   midi.ControlChangeEvent(tick=11, channel=3, data=[1, 112]),
   midi.ControlChangeEvent(tick=12, channel=3, data=[1, 113]),
   midi.ControlChangeEvent(tick=34, channel=3, data=[1, 115]),
   midi.ControlChangeEvent(tick=61, channel=3, data=[1, 116]),
   midi.ControlChangeEvent(tick=49, channel=3, data=[1, 115]),
   midi.ControlChangeEvent(tick=10, channel=3, data=[1, 114]),
   midi.ControlChangeEvent(tick=13, channel=3, data=[1, 109]),
   midi.ControlChangeEvent(tick=12, channel=3, data=[1, 101]),
   midi.ControlChangeEvent(tick=11, channel=3, data=[1, 94]),
   midi.ControlChangeEvent(tick=12, channel=3, data=[1, 86]),
   midi.ControlChangeEvent(tick=12, channel=3, data=[1, 70]),
   midi.ControlChangeEvent(tick=11, channel=3, data=[1, 23]),
   midi.ControlChangeEvent(tick=12, channel=3, data=[1, 3]),
   midi.ControlChangeEvent(tick=12, channel=3, data=[1, 0]),
   midi.NoteOnEvent(tick=35, channel=3, data=[71, 0]),
   midi.NoteOnEvent(tick=1330, channel=3, data=[76, 79]),
   midi.NoteOnEvent(tick=0, channel=3, data=[80, 69]),
   midi.NoteOnEvent(tick=568, channel=3, data=[76, 0]),
   midi.NoteOnEvent(tick=0, channel=3, data=[80, 0]),
   midi.NoteOnEvent(tick=152, channel=3, data=[76, 66]),
   midi.NoteOnEvent(tick=0, channel=3, data=[80, 56]),
   midi.NoteOnEvent(tick=98, channel=3, data=[76, 0]),
   midi.NoteOnEvent(tick=0, channel=3, data=[80, 0]),
   midi.NoteOnEvent(tick=118, channel=3, data=[76, 83]),
   midi.NoteOnEvent(tick=0, channel=3, data=[80, 73]),
   midi.NoteOnEvent(tick=442, channel=3, data=[76, 0]),
   midi.NoteOnEvent(tick=0, channel=3, data=[80, 0]),
   midi.NoteOnEvent(tick=53, channel=3, data=[76, 79]),
   midi.NoteOnEvent(tick=0, channel=3, data=[80, 69]),
   midi.NoteOnEvent(tick=279, channel=3, data=[76, 0]),
   midi.NoteOnEvent(tick=0, channel=3, data=[80, 0]),
   midi.NoteOnEvent(tick=210, channel=3, data=[78, 70]),
   midi.NoteOnEvent(tick=1, channel=3, data=[75, 80]),
   midi.NoteOnEvent(tick=507, channel=3, data=[76, 62]),
   midi.NoteOnEvent(tick=0, channel=3, data=[80, 52]),
   midi.NoteOnEvent(tick=7, channel=3, data=[78, 0]),
   midi.NoteOnEvent(tick=1, channel=3, data=[75, 0]),
   midi.NoteOnEvent(tick=964, channel=3, data=[76, 0]),
   midi.NoteOnEvent(tick=0, channel=3, data=[80, 0]),
   midi.NoteOnEvent(tick=173, channel=3, data=[76, 86]),
   midi.NoteOnEvent(tick=0, channel=3, data=[80, 76]),
   midi.NoteOnEvent(tick=110, channel=3, data=[76, 0]),
   midi.NoteOnEvent(tick=0, channel=3, data=[80, 0]),
   midi.NoteOnEvent(tick=193, channel=3, data=[78, 63]),
   midi.NoteOnEvent(tick=2, channel=3, data=[75, 73]),
   midi.NoteOnEvent(tick=472, channel=3, data=[78, 0]),
   midi.NoteOnEvent(tick=1, channel=3, data=[75, 0]),
   midi.NoteOnEvent(tick=10, channel=3, data=[76, 58]),
   midi.NoteOnEvent(tick=0, channel=3, data=[80, 48]),
   midi.ControlChangeEvent(tick=742, channel=3, data=[1, 1]),
   midi.ControlChangeEvent(tick=11, channel=3, data=[1, 9]),
   midi.ControlChangeEvent(tick=12, channel=3, data=[1, 50]),
   midi.ControlChangeEvent(tick=12, channel=3, data=[1, 75]),
   midi.ControlChangeEvent(tick=11, channel=3, data=[1, 91]),
   midi.ControlChangeEvent(tick=11, channel=3, data=[1, 100]),
   midi.ControlChangeEvent(tick=14, channel=3, data=[1, 109]),
   midi.ControlChangeEvent(tick=12, channel=3, data=[1, 116]),
   midi.ControlChangeEvent(tick=12, channel=3, data=[1, 118]),
   midi.ControlChangeEvent(tick=22, channel=3, data=[1, 116]),
   midi.ControlChangeEvent(tick=13, channel=3, data=[1, 103]),
   midi.ControlChangeEvent(tick=11, channel=3, data=[1, 65]),
   midi.ControlChangeEvent(tick=11, channel=3, data=[1, 12]),
   midi.ControlChangeEvent(tick=13, channel=3, data=[1, 0]),
   midi.NoteOnEvent(tick=20, channel=3, data=[76, 0]),
   midi.NoteOnEvent(tick=0, channel=3, data=[80, 0]),
   midi.NoteOnEvent(tick=37, channel=3, data=[81, 70]),
   midi.NoteOnEvent(tick=3, channel=3, data=[78, 80]),
   midi.NoteOnEvent(tick=446, channel=3, data=[80, 73]),
   midi.NoteOnEvent(tick=1, channel=3, data=[81, 0]),
   midi.NoteOnEvent(tick=3, channel=3, data=[78, 0]),
   midi.NoteOnEvent(tick=8, channel=3, data=[83, 63]),
   midi.NoteOnEvent(tick=452, channel=3, data=[81, 77]),
   midi.NoteOnEvent(tick=2, channel=3, data=[80, 0]),
   midi.NoteOnEvent(tick=10, channel=3, data=[85, 67]),
   midi.NoteOnEvent(tick=3, channel=3, data=[83, 0]),
   midi.NoteOnEvent(tick=33, channel=3, data=[80, 73]),
   midi.NoteOnEvent(tick=13, channel=3, data=[83, 63]),
   midi.NoteOnEvent(tick=21, channel=3, data=[81, 0]),
   midi.NoteOnEvent(tick=13, channel=3, data=[85, 0]),
   midi.NoteOnEvent(tick=45, channel=3, data=[81, 49]),
   midi.NoteOnEvent(tick=2, channel=3, data=[78, 59]),
   midi.NoteOnEvent(tick=25, channel=3, data=[80, 0]),
   midi.NoteOnEvent(tick=13, channel=3, data=[83, 0]),
   midi.NoteOnEvent(tick=293, channel=3, data=[81, 0]),
   midi.NoteOnEvent(tick=3, channel=3, data=[78, 0]),
   midi.NoteOnEvent(tick=45, channel=3, data=[78, 71]),
   midi.NoteOnEvent(tick=12, channel=3, data=[81, 61]),
   midi.ControlChangeEvent(tick=642, channel=3, data=[1, 9]),
   midi.ControlChangeEvent(tick=10, channel=3, data=[1, 41]),
   midi.ControlChangeEvent(tick=12, channel=3, data=[1, 60]),
   midi.ControlChangeEvent(tick=9, channel=3, data=[1, 69]),
   midi.ControlChangeEvent(tick=15, channel=3, data=[1, 86]),
   midi.ControlChangeEvent(tick=11, channel=3, data=[1, 89]),
   midi.ControlChangeEvent(tick=13, channel=3, data=[1, 92]),
   midi.ControlChangeEvent(tick=10, channel=3, data=[1, 91]),
   midi.ControlChangeEvent(tick=13, channel=3, data=[1, 45]),
   midi.ControlChangeEvent(tick=10, channel=3, data=[1, 8]),
   midi.ControlChangeEvent(tick=13, channel=3, data=[1, 0]),
   midi.NoteOnEvent(tick=15, channel=3, data=[78, 0]),
   midi.NoteOnEvent(tick=12, channel=3, data=[81, 0]),
   midi.NoteOnEvent(tick=122, channel=3, data=[76, 83]),
   midi.NoteOnEvent(tick=637, channel=3, data=[76, 0]),
   midi.NoteOnEvent(tick=70, channel=3, data=[76, 94]),
   midi.NoteOnEvent(tick=111, channel=3, data=[76, 0]),
   midi.NoteOnEvent(tick=167, channel=3, data=[76, 94]),
   midi.NoteOnEvent(tick=417, channel=3, data=[76, 0]),
   midi.NoteOnEvent(tick=39, channel=3, data=[76, 101]),
   midi.NoteOnEvent(tick=305, channel=3, data=[76, 0]),
   midi.NoteOnEvent(tick=157, channel=3, data=[75, 87]),
   midi.NoteOnEvent(tick=498, channel=3, data=[75, 0]),
   midi.NoteOnEvent(tick=1, channel=3, data=[76, 63]),
   midi.ControlChangeEvent(tick=825, channel=3, data=[1, 40]),
   midi.ControlChangeEvent(tick=11, channel=3, data=[1, 83]),
   midi.ControlChangeEvent(tick=12, channel=3, data=[1, 98]),
   midi.ControlChangeEvent(tick=12, channel=3, data=[1, 103]),
   midi.ControlChangeEvent(tick=11, channel=3, data=[1, 108]),
   midi.ControlChangeEvent(tick=10, channel=3, data=[1, 110]),
   midi.ControlChangeEvent(tick=15, channel=3, data=[1, 102]),
   midi.ControlChangeEvent(tick=9, channel=3, data=[1, 88]),
   midi.ControlChangeEvent(tick=14, channel=3, data=[1, 42]),
   midi.ControlChangeEvent(tick=12, channel=3, data=[1, 7]),
   midi.NoteOnEvent(tick=10, channel=3, data=[76, 0]),
   midi.PitchWheelEvent(tick=148, channel=3, data=[85, 53]),
   midi.PitchWheelEvent(tick=12, channel=3, data=[11, 35]),
   midi.PitchWheelEvent(tick=12, channel=3, data=[57, 14]),
   midi.PitchWheelEvent(tick=11, channel=3, data=[8, 2]),
   midi.ControlChangeEvent(tick=2, channel=3, data=[1, 0]),
   midi.PitchWheelEvent(tick=12, channel=3, data=[0, 0]),
   midi.NoteOnEvent(tick=62, channel=3, data=[78, 86]),
   midi.PitchWheelEvent(tick=49, channel=3, data=[16, 4]),
   midi.PitchWheelEvent(tick=12, channel=3, data=[65, 16]),
   midi.PitchWheelEvent(tick=12, channel=3, data=[123, 30]),
   midi.PitchWheelEvent(tick=12, channel=3, data=[52, 45]),
   midi.PitchWheelEvent(tick=13, channel=3, data=[102, 57]),
   midi.PitchWheelEvent(tick=12, channel=3, data=[127, 63]),
   midi.PitchWheelEvent(tick=13, channel=3, data=[0, 64]),
   midi.NoteOnEvent(tick=102, channel=3, data=[71, 77]),
   midi.NoteOnEvent(tick=46, channel=3, data=[78, 0]),
   midi.ControlChangeEvent(tick=1723, channel=3, data=[1, 1]),
   midi.ControlChangeEvent(tick=22, channel=3, data=[1, 37]),
   midi.ControlChangeEvent(tick=13, channel=3, data=[1, 45]),
   midi.ControlChangeEvent(tick=24, channel=3, data=[1, 46]),
   midi.ControlChangeEvent(tick=11, channel=3, data=[1, 48]),
   midi.ControlChangeEvent(tick=12, channel=3, data=[1, 51]),
   midi.ControlChangeEvent(tick=12, channel=3, data=[1, 57]),
   midi.ControlChangeEvent(tick=11, channel=3, data=[1, 60]),
   midi.ControlChangeEvent(tick=11, channel=3, data=[1, 69]),
   midi.ControlChangeEvent(tick=14, channel=3, data=[1, 75]),
   midi.ControlChangeEvent(tick=11, channel=3, data=[1, 84]),
   midi.ControlChangeEvent(tick=24, channel=3, data=[1, 89]),
   midi.ControlChangeEvent(tick=5, channel=3, data=[1, 92]),
   midi.ControlChangeEvent(tick=19, channel=3, data=[1, 95]),
   midi.ControlChangeEvent(tick=12, channel=3, data=[1, 99]),
   midi.ControlChangeEvent(tick=13, channel=3, data=[1, 101]),
   midi.ControlChangeEvent(tick=22, channel=3, data=[1, 102]),
   midi.ControlChangeEvent(tick=35, channel=3, data=[1, 104]),
   midi.ControlChangeEvent(tick=24, channel=3, data=[1, 102]),
   midi.ControlChangeEvent(tick=9, channel=3, data=[1, 100]),
   midi.ControlChangeEvent(tick=26, channel=3, data=[1, 101]),
   midi.ControlChangeEvent(tick=25, channel=3, data=[1, 102]),
   midi.ControlChangeEvent(tick=11, channel=3, data=[1, 104]),
   midi.ControlChangeEvent(tick=11, channel=3, data=[1, 107]),
   midi.ControlChangeEvent(tick=13, channel=3, data=[1, 108]),
   midi.ControlChangeEvent(tick=35, channel=3, data=[1, 109]),
   midi.ControlChangeEvent(tick=24, channel=3, data=[1, 110]),
   midi.ControlChangeEvent(tick=11, channel=3, data=[1, 112]),
   midi.ControlChangeEvent(tick=12, channel=3, data=[1, 113]),
   midi.ControlChangeEvent(tick=34, channel=3, data=[1, 115]),
   midi.ControlChangeEvent(tick=61, channel=3, data=[1, 116]),
   midi.ControlChangeEvent(tick=49, channel=3, data=[1, 115]),
   midi.ControlChangeEvent(tick=10, channel=3, data=[1, 114]),
   midi.ControlChangeEvent(tick=13, channel=3, data=[1, 109]),
   midi.ControlChangeEvent(tick=12, channel=3, data=[1, 101]),
   midi.ControlChangeEvent(tick=11, channel=3, data=[1, 94]),
   midi.ControlChangeEvent(tick=12, channel=3, data=[1, 86]),
   midi.ControlChangeEvent(tick=12, channel=3, data=[1, 70]),
   midi.ControlChangeEvent(tick=11, channel=3, data=[1, 23]),
   midi.ControlChangeEvent(tick=12, channel=3, data=[1, 3]),
   midi.ControlChangeEvent(tick=12, channel=3, data=[1, 0]),
   midi.NoteOnEvent(tick=35, channel=3, data=[71, 0]),
   midi.NoteOnEvent(tick=1363, channel=3, data=[76, 79]),
   midi.ControlChangeEvent(tick=675, channel=3, data=[1, 8]),
   midi.ControlChangeEvent(tick=12, channel=3, data=[1, 11]),
   midi.ControlChangeEvent(tick=11, channel=3, data=[1, 7]),
   midi.ControlChangeEvent(tick=13, channel=3, data=[1, 0]),
   midi.ControlChangeEvent(tick=39, channel=3, data=[1, 5]),
   midi.ControlChangeEvent(tick=11, channel=3, data=[1, 11]),
   midi.ControlChangeEvent(tick=12, channel=3, data=[1, 4]),
   midi.ControlChangeEvent(tick=12, channel=3, data=[1, 1]),
   midi.ControlChangeEvent(tick=12, channel=3, data=[1, 0]),
   midi.NoteOnEvent(tick=123, channel=3, data=[76, 0]),
   midi.NoteOnEvent(tick=972, channel=3, data=[78, 87]),
   midi.NoteOnEvent(tick=981, channel=3, data=[78, 0]),
   midi.NoteOnEvent(tick=465, channel=3, data=[71, 97]),
   midi.NoteOnEvent(tick=462, channel=3, data=[71, 0]),
   midi.NoteOnEvent(tick=60, channel=3, data=[83, 83]),
   midi.NoteOnEvent(tick=856, channel=3, data=[83, 0]),
   midi.NoteOnEvent(tick=51, channel=3, data=[81, 86]),
   midi.NoteOnEvent(tick=446, channel=3, data=[81, 0]),
   midi.NoteOnEvent(tick=45, channel=3, data=[80, 83]),
   midi.NoteOnEvent(tick=263, channel=3, data=[78, 65]),
   midi.NoteOnEvent(tick=4, channel=3, data=[80, 0]),
   midi.NoteOnEvent(tick=682, channel=3, data=[78, 0]),
   midi.NoteOnEvent(tick=515, channel=3, data=[80, 83]),
   midi.NoteOnEvent(tick=685, channel=3, data=[80, 0]),
   midi.NoteOnEvent(tick=0, channel=3, data=[81, 97]),
   midi.NoteOnEvent(tick=240, channel=3, data=[80, 76]),
   midi.NoteOnEvent(tick=0, channel=3, data=[81, 0]),
   midi.NoteOnEvent(tick=863, channel=3, data=[80, 0]),
   midi.NoteOnEvent(tick=108, channel=3, data=[78, 71]),
   midi.NoteOnEvent(tick=335, channel=3, data=[78, 0]),
   midi.NoteOnEvent(tick=374, channel=3, data=[76, 83]),
   midi.NoteOnEvent(tick=240, channel=3, data=[76, 0]),
   midi.NoteOnEvent(tick=43, channel=3, data=[75, 53]),
   midi.NoteOnEvent(tick=437, channel=3, data=[75, 0]),
   midi.NoteOnEvent(tick=45, channel=3, data=[76, 71]),
   midi.NoteOnEvent(tick=400, channel=3, data=[76, 0]),
   midi.NoteOnEvent(tick=755, channel=3, data=[75, 73]),
   midi.NoteOnEvent(tick=240, channel=3, data=[75, 0]),
   midi.NoteOnEvent(tick=35, channel=3, data=[73, 63]),
   midi.ControlChangeEvent(tick=958, channel=3, data=[1, 8]),
   midi.ControlChangeEvent(tick=12, channel=3, data=[1, 45]),
   midi.ControlChangeEvent(tick=13, channel=3, data=[1, 68]),
   midi.ControlChangeEvent(tick=11, channel=3, data=[1, 71]),
   midi.ControlChangeEvent(tick=12, channel=3, data=[1, 69]),
   midi.ControlChangeEvent(tick=13, channel=3, data=[1, 68]),
   midi.ControlChangeEvent(tick=12, channel=3, data=[1, 72]),
   midi.ControlChangeEvent(tick=24, channel=3, data=[1, 48]),
   midi.ControlChangeEvent(tick=14, channel=3, data=[1, 15]),
   midi.ControlChangeEvent(tick=11, channel=3, data=[1, 1]),
   midi.ControlChangeEvent(tick=13, channel=3, data=[1, 0]),
   midi.ControlChangeEvent(tick=30, channel=3, data=[1, 9]),
   midi.ControlChangeEvent(tick=12, channel=3, data=[1, 4]),
   midi.ControlChangeEvent(tick=13, channel=3, data=[1, 16]),
   midi.ControlChangeEvent(tick=11, channel=3, data=[1, 26]),
   midi.ControlChangeEvent(tick=12, channel=3, data=[1, 33]),
   midi.ControlChangeEvent(tick=13, channel=3, data=[1, 55]),
   midi.ControlChangeEvent(tick=11, channel=3, data=[1, 75]),
   midi.ControlChangeEvent(tick=14, channel=3, data=[1, 92]),
   midi.ControlChangeEvent(tick=11, channel=3, data=[1, 105]),
   midi.ControlChangeEvent(tick=14, channel=3, data=[1, 114]),
   midi.ControlChangeEvent(tick=11, channel=3, data=[1, 115]),
   midi.ControlChangeEvent(tick=26, channel=3, data=[1, 105]),
   midi.ControlChangeEvent(tick=12, channel=3, data=[1, 96]),
   midi.ControlChangeEvent(tick=12, channel=3, data=[1, 74]),
   midi.ControlChangeEvent(tick=11, channel=3, data=[1, 28]),
   midi.ControlChangeEvent(tick=13, channel=3, data=[1, 4]),
   midi.ControlChangeEvent(tick=12, channel=3, data=[1, 0]),
   midi.PitchWheelEvent(tick=294, channel=3, data=[24, 70]),
   midi.PitchWheelEvent(tick=13, channel=3, data=[98, 88]),
   midi.PitchWheelEvent(tick=11, channel=3, data=[61, 111]),
   midi.PitchWheelEvent(tick=14, channel=3, data=[127, 127]),
   midi.PitchWheelEvent(tick=73, channel=3, data=[102, 121]),
   midi.PitchWheelEvent(tick=13, channel=3, data=[61, 111]),
   midi.PitchWheelEvent(tick=10, channel=3, data=[3, 97]),
   midi.PitchWheelEvent(tick=14, channel=3, data=[65, 80]),
   midi.PitchWheelEvent(tick=12, channel=3, data=[24, 70]),
   midi.PitchWheelEvent(tick=11, channel=3, data=[0, 64]),
   midi.NoteOnEvent(tick=75, channel=3, data=[71, 77]),
   midi.NoteOnEvent(tick=15, channel=3, data=[73, 0]),
   midi.NoteOnEvent(tick=1857, channel=3, data=[71, 0]),
   midi.NoteOnEvent(tick=62, channel=3, data=[76, 79]),
   midi.ControlChangeEvent(tick=708, channel=3, data=[1, 8]),
   midi.ControlChangeEvent(tick=12, channel=3, data=[1, 11]),
   midi.ControlChangeEvent(tick=11, channel=3, data=[1, 7]),
   midi.ControlChangeEvent(tick=13, channel=3, data=[1, 0]),
   midi.ControlChangeEvent(tick=39, channel=3, data=[1, 5]),
   midi.ControlChangeEvent(tick=11, channel=3, data=[1, 11]),
   midi.ControlChangeEvent(tick=12, channel=3, data=[1, 4]),
   midi.ControlChangeEvent(tick=12, channel=3, data=[1, 1]),
   midi.ControlChangeEvent(tick=12, channel=3, data=[1, 0]),
   midi.NoteOnEvent(tick=135, channel=3, data=[76, 0]),
   midi.NoteOnEvent(tick=955, channel=3, data=[78, 87]),
   midi.NoteOnEvent(tick=981, channel=3, data=[78, 0]),
   midi.NoteOnEvent(tick=459, channel=3, data=[71, 84]),
   midi.NoteOnEvent(tick=461, channel=3, data=[71, 0]),
   midi.NoteOnEvent(tick=19, channel=3, data=[83, 83]),
   midi.NoteOnEvent(tick=856, channel=3, data=[83, 0]),
   midi.NoteOnEvent(tick=104, channel=3, data=[81, 86]),
   midi.NoteOnEvent(tick=446, channel=3, data=[81, 0]),
   midi.NoteOnEvent(tick=34, channel=3, data=[80, 83]),
   midi.NoteOnEvent(tick=240, channel=3, data=[78, 65]),
   midi.NoteOnEvent(tick=26, channel=3, data=[80, 0]),
   midi.NoteOnEvent(tick=660, channel=3, data=[78, 0]),
   midi.NoteOnEvent(tick=549, channel=3, data=[80, 83]),
   midi.NoteOnEvent(tick=445, channel=3, data=[80, 0]),
   midi.NoteOnEvent(tick=0, channel=3, data=[81, 86]),
   midi.NoteOnEvent(tick=480, channel=3, data=[80, 76]),
   midi.NoteOnEvent(tick=0, channel=3, data=[81, 0]),
   midi.NoteOnEvent(tick=863, channel=3, data=[80, 0]),
   midi.NoteOnEvent(tick=97, channel=3, data=[78, 71]),
   midi.NoteOnEvent(tick=346, channel=3, data=[78, 0]),
   midi.NoteOnEvent(tick=134, channel=3, data=[76, 83]),
   midi.NoteOnEvent(tick=360, channel=3, data=[76, 0]),
   midi.NoteOnEvent(tick=120, channel=3, data=[75, 53]),
   midi.NoteOnEvent(tick=438, channel=3, data=[75, 0]),
   midi.NoteOnEvent(tick=42, channel=3, data=[76, 71]),
   midi.NoteOnEvent(tick=400, channel=3, data=[76, 0]),
   midi.NoteOnEvent(tick=800, channel=3, data=[75, 73]),
   midi.NoteOnEvent(tick=235, channel=3, data=[75, 0]),
   midi.NoteOnEvent(tick=5, channel=3, data=[75, 76]),
   midi.NoteOnEvent(tick=305, channel=3, data=[75, 0]),
   midi.NoteOnEvent(tick=175, channel=3, data=[76, 73]),
   midi.ControlChangeEvent(tick=513, channel=3, data=[1, 8]),
   midi.ControlChangeEvent(tick=12, channel=3, data=[1, 45]),
   midi.ControlChangeEvent(tick=13, channel=3, data=[1, 68]),
   midi.ControlChangeEvent(tick=11, channel=3, data=[1, 71]),
   midi.ControlChangeEvent(tick=12, channel=3, data=[1, 69]),
   midi.ControlChangeEvent(tick=13, channel=3, data=[1, 68]),
   midi.ControlChangeEvent(tick=12, channel=3, data=[1, 72]),
   midi.ControlChangeEvent(tick=24, channel=3, data=[1, 48]),
   midi.ControlChangeEvent(tick=14, channel=3, data=[1, 15]),
   midi.ControlChangeEvent(tick=11, channel=3, data=[1, 1]),
   midi.ControlChangeEvent(tick=13, channel=3, data=[1, 0]),
   midi.ControlChangeEvent(tick=30, channel=3, data=[1, 9]),
   midi.ControlChangeEvent(tick=5, channel=3, data=[1, 15]),
   midi.ControlChangeEvent(tick=7, channel=3, data=[1, 4]),
   midi.ControlChangeEvent(tick=4, channel=3, data=[1, 74]),
   midi.ControlChangeEvent(tick=9, channel=3, data=[1, 16]),
   midi.ControlChangeEvent(tick=3, channel=3, data=[1, 95]),
   midi.ControlChangeEvent(tick=8, channel=3, data=[1, 26]),
   midi.ControlChangeEvent(tick=5, channel=3, data=[1, 105]),
   midi.ControlChangeEvent(tick=7, channel=3, data=[1, 33]),
   midi.ControlChangeEvent(tick=5, channel=3, data=[1, 111]),
   midi.ControlChangeEvent(tick=8, channel=3, data=[1, 55]),
   midi.ControlChangeEvent(tick=5, channel=3, data=[1, 113]),
   midi.ControlChangeEvent(tick=6, channel=3, data=[1, 75]),
   midi.ControlChangeEvent(tick=6, channel=3, data=[1, 116]),
   midi.ControlChangeEvent(tick=8, channel=3, data=[1, 92]),
   midi.ControlChangeEvent(tick=11, channel=3, data=[1, 105]),
   midi.ControlChangeEvent(tick=5, channel=3, data=[1, 117]),
   midi.ControlChangeEvent(tick=9, channel=3, data=[1, 114]),
   midi.ControlChangeEvent(tick=11, channel=3, data=[1, 115]),
   midi.ControlChangeEvent(tick=18, channel=3, data=[1, 113]),
   midi.ControlChangeEvent(tick=8, channel=3, data=[1, 105]),
   midi.ControlChangeEvent(tick=4, channel=3, data=[1, 98]),
   midi.ControlChangeEvent(tick=8, channel=3, data=[1, 96]),
   midi.ControlChangeEvent(tick=5, channel=3, data=[1, 65]),
   midi.ControlChangeEvent(tick=7, channel=3, data=[1, 74]),
   midi.ControlChangeEvent(tick=5, channel=3, data=[1, 16]),
   midi.ControlChangeEvent(tick=6, channel=3, data=[1, 28]),
   midi.ControlChangeEvent(tick=4, channel=3, data=[1, 1]),
   midi.ControlChangeEvent(tick=9, channel=3, data=[1, 4]),
   midi.ControlChangeEvent(tick=4, channel=3, data=[1, 0]),
   midi.ControlChangeEvent(tick=8, channel=3, data=[1, 0]),
   midi.NoteOnEvent(tick=23, channel=3, data=[76, 0]),
   midi.NoteOnEvent(tick=51, channel=3, data=[78, 83]),
   midi.PitchWheelEvent(tick=220, channel=3, data=[24, 70]),
   midi.PitchWheelEvent(tick=13, channel=3, data=[98, 88]),
   midi.PitchWheelEvent(tick=11, channel=3, data=[61, 111]),
   midi.PitchWheelEvent(tick=14, channel=3, data=[127, 127]),
   midi.PitchWheelEvent(tick=73, channel=3, data=[102, 121]),
   midi.PitchWheelEvent(tick=13, channel=3, data=[61, 111]),
   midi.PitchWheelEvent(tick=10, channel=3, data=[3, 97]),
   midi.PitchWheelEvent(tick=14, channel=3, data=[65, 80]),
   midi.PitchWheelEvent(tick=12, channel=3, data=[24, 70]),
   midi.PitchWheelEvent(tick=11, channel=3, data=[0, 64]),
   midi.NoteOnEvent(tick=89, channel=3, data=[80, 73]),
   midi.NoteOnEvent(tick=3, channel=3, data=[78, 0]),
   midi.ControlChangeEvent(tick=747, channel=3, data=[1, 4]),
   midi.ControlChangeEvent(tick=11, channel=3, data=[1, 63]),
   midi.ControlChangeEvent(tick=12, channel=3, data=[1, 74]),
   midi.ControlChangeEvent(tick=13, channel=3, data=[1, 77]),
   midi.ControlChangeEvent(tick=13, channel=3, data=[1, 70]),
   midi.ControlChangeEvent(tick=11, channel=3, data=[1, 47]),
   midi.ControlChangeEvent(tick=11, channel=3, data=[1, 14]),
   midi.ControlChangeEvent(tick=14, channel=3, data=[1, 1]),
   midi.ControlChangeEvent(tick=13, channel=3, data=[1, 0]),
   midi.NoteOnEvent(tick=112, channel=3, data=[78, 59]),
   midi.NoteOnEvent(tick=31, channel=3, data=[80, 0]),
   midi.NoteOnEvent(tick=845, channel=3, data=[78, 0]),
   midi.NoteOnEvent(tick=84, channel=3, data=[76, 59]),
   midi.ControlChangeEvent(tick=1024, channel=3, data=[1, 22]),
   midi.ControlChangeEvent(tick=11, channel=3, data=[1, 44]),
   midi.ControlChangeEvent(tick=13, channel=3, data=[1, 61]),
   midi.ControlChangeEvent(tick=12, channel=3, data=[1, 68]),
   midi.ControlChangeEvent(tick=11, channel=3, data=[1, 69]),
   midi.ControlChangeEvent(tick=27, channel=3, data=[1, 70]),
   midi.ControlChangeEvent(tick=48, channel=3, data=[1, 72]),
   midi.ControlChangeEvent(tick=12, channel=3, data=[1, 74]),
   midi.ControlChangeEvent(tick=26, channel=3, data=[1, 77]),
   midi.ControlChangeEvent(tick=24, channel=3, data=[1, 82]),
   midi.ControlChangeEvent(tick=12, channel=3, data=[1, 84]),
   midi.ControlChangeEvent(tick=13, channel=3, data=[1, 86]),
   midi.ControlChangeEvent(tick=25, channel=3, data=[1, 87]),
   midi.ControlChangeEvent(tick=12, channel=3, data=[1, 86]),
   midi.ControlChangeEvent(tick=11, channel=3, data=[1, 90]),
   midi.ControlChangeEvent(tick=13, channel=3, data=[1, 96]),
   midi.ControlChangeEvent(tick=12, channel=3, data=[1, 100]),
   midi.ControlChangeEvent(tick=10, channel=3, data=[1, 103]),
   midi.ControlChangeEvent(tick=14, channel=3, data=[1, 111]),
   midi.ControlChangeEvent(tick=14, channel=3, data=[1, 115]),
   midi.ControlChangeEvent(tick=25, channel=3, data=[1, 117]),
   midi.ControlChangeEvent(tick=50, channel=3, data=[1, 118]),
   midi.ControlChangeEvent(tick=25, channel=3, data=[1, 119]),
   midi.ControlChangeEvent(tick=72, channel=3, data=[1, 120]),
   midi.ControlChangeEvent(tick=63, channel=3, data=[1, 118]),
   midi.ControlChangeEvent(tick=12, channel=3, data=[1, 117]),
   midi.ControlChangeEvent(tick=12, channel=3, data=[1, 116]),
   midi.ControlChangeEvent(tick=12, channel=3, data=[1, 108]),
   midi.ControlChangeEvent(tick=14, channel=3, data=[1, 95]),
   midi.ControlChangeEvent(tick=11, channel=3, data=[1, 58]),
   midi.ControlChangeEvent(tick=10, channel=3, data=[1, 13]),
   midi.ControlChangeEvent(tick=15, channel=3, data=[1, 1]),
   midi.ControlChangeEvent(tick=10, channel=3, data=[1, 0]),
   midi.NoteOnEvent(tick=125, channel=3, data=[76, 0]),
   midi.NoteOnEvent(tick=13593, channel=3, data=[80, 89]),
   midi.ControlChangeEvent(tick=675, channel=3, data=[1, 8]),
   midi.ControlChangeEvent(tick=12, channel=3, data=[1, 11]),
   midi.ControlChangeEvent(tick=11, channel=3, data=[1, 7]),
   midi.ControlChangeEvent(tick=13, channel=3, data=[1, 0]),
   midi.ControlChangeEvent(tick=39, channel=3, data=[1, 5]),
   midi.ControlChangeEvent(tick=11, channel=3, data=[1, 11]),
   midi.ControlChangeEvent(tick=12, channel=3, data=[1, 4]),
   midi.ControlChangeEvent(tick=12, channel=3, data=[1, 1]),
   midi.ControlChangeEvent(tick=12, channel=3, data=[1, 0]),
   midi.NoteOnEvent(tick=970, channel=3, data=[80, 0]),
   midi.NoteOnEvent(tick=125, channel=3, data=[82, 97]),
   midi.NoteOnEvent(tick=981, channel=3, data=[82, 0]),
   midi.NoteOnEvent(tick=465, channel=3, data=[75, 107]),
   midi.NoteOnEvent(tick=462, channel=3, data=[75, 0]),
   midi.NoteOnEvent(tick=60, channel=3, data=[87, 93]),
   midi.NoteOnEvent(tick=856, channel=3, data=[87, 0]),
   midi.NoteOnEvent(tick=51, channel=3, data=[85, 96]),
   midi.NoteOnEvent(tick=446, channel=3, data=[85, 0]),
   midi.NoteOnEvent(tick=45, channel=3, data=[84, 93]),
   midi.NoteOnEvent(tick=263, channel=3, data=[82, 75]),
   midi.NoteOnEvent(tick=4, channel=3, data=[84, 0]),
   midi.NoteOnEvent(tick=682, channel=3, data=[82, 0]),
   midi.NoteOnEvent(tick=515, channel=3, data=[84, 93]),
   midi.NoteOnEvent(tick=445, channel=3, data=[84, 0]),
   midi.NoteOnEvent(tick=0, channel=3, data=[85, 107]),
   midi.NoteOnEvent(tick=240, channel=3, data=[84, 86]),
   midi.NoteOnEvent(tick=0, channel=3, data=[85, 0]),
   midi.NoteOnEvent(tick=863, channel=3, data=[84, 0]),
   midi.NoteOnEvent(tick=348, channel=3, data=[82, 88]),
   midi.NoteOnEvent(tick=335, channel=3, data=[82, 0]),
   midi.NoteOnEvent(tick=134, channel=3, data=[80, 93]),
   midi.NoteOnEvent(tick=360, channel=3, data=[79, 73]),
   midi.NoteOnEvent(tick=5, channel=3, data=[80, 0]),
   midi.NoteOnEvent(tick=570, channel=3, data=[79, 0]),
   midi.NoteOnEvent(tick=25, channel=3, data=[80, 81]),
   midi.NoteOnEvent(tick=400, channel=3, data=[80, 0]),
   midi.NoteOnEvent(tick=800, channel=3, data=[79, 83]),
   midi.NoteOnEvent(tick=240, channel=3, data=[79, 0]),
   midi.NoteOnEvent(tick=35, channel=3, data=[77, 73]),
   midi.ControlChangeEvent(tick=958, channel=3, data=[1, 8]),
   midi.ControlChangeEvent(tick=12, channel=3, data=[1, 45]),
   midi.ControlChangeEvent(tick=13, channel=3, data=[1, 68]),
   midi.ControlChangeEvent(tick=11, channel=3, data=[1, 71]),
   midi.ControlChangeEvent(tick=12, channel=3, data=[1, 69]),
   midi.ControlChangeEvent(tick=13, channel=3, data=[1, 68]),
   midi.ControlChangeEvent(tick=12, channel=3, data=[1, 72]),
   midi.ControlChangeEvent(tick=24, channel=3, data=[1, 48]),
   midi.ControlChangeEvent(tick=14, channel=3, data=[1, 15]),
   midi.ControlChangeEvent(tick=11, channel=3, data=[1, 1]),
   midi.ControlChangeEvent(tick=13, channel=3, data=[1, 0]),
   midi.ControlChangeEvent(tick=30, channel=3, data=[1, 9]),
   midi.ControlChangeEvent(tick=12, channel=3, data=[1, 4]),
   midi.ControlChangeEvent(tick=13, channel=3, data=[1, 16]),
   midi.ControlChangeEvent(tick=11, channel=3, data=[1, 26]),
   midi.ControlChangeEvent(tick=12, channel=3, data=[1, 33]),
   midi.ControlChangeEvent(tick=13, channel=3, data=[1, 55]),
   midi.ControlChangeEvent(tick=11, channel=3, data=[1, 75]),
   midi.ControlChangeEvent(tick=14, channel=3, data=[1, 92]),
   midi.ControlChangeEvent(tick=11, channel=3, data=[1, 105]),
   midi.ControlChangeEvent(tick=14, channel=3, data=[1, 114]),
   midi.ControlChangeEvent(tick=11, channel=3, data=[1, 115]),
   midi.ControlChangeEvent(tick=26, channel=3, data=[1, 105]),
   midi.ControlChangeEvent(tick=12, channel=3, data=[1, 96]),
   midi.ControlChangeEvent(tick=12, channel=3, data=[1, 74]),
   midi.ControlChangeEvent(tick=11, channel=3, data=[1, 28]),
   midi.ControlChangeEvent(tick=13, channel=3, data=[1, 4]),
   midi.ControlChangeEvent(tick=12, channel=3, data=[1, 0]),
   midi.PitchWheelEvent(tick=294, channel=3, data=[24, 70]),
   midi.PitchWheelEvent(tick=13, channel=3, data=[98, 88]),
   midi.PitchWheelEvent(tick=11, channel=3, data=[61, 111]),
   midi.PitchWheelEvent(tick=14, channel=3, data=[127, 127]),
   midi.PitchWheelEvent(tick=73, channel=3, data=[102, 121]),
   midi.PitchWheelEvent(tick=13, channel=3, data=[61, 111]),
   midi.PitchWheelEvent(tick=10, channel=3, data=[3, 97]),
   midi.PitchWheelEvent(tick=14, channel=3, data=[65, 80]),
   midi.PitchWheelEvent(tick=12, channel=3, data=[24, 70]),
   midi.PitchWheelEvent(tick=11, channel=3, data=[0, 64]),
   midi.NoteOnEvent(tick=75, channel=3, data=[75, 87]),
   midi.NoteOnEvent(tick=15, channel=3, data=[77, 0]),
   midi.NoteOnEvent(tick=1857, channel=3, data=[75, 0]),
   midi.NoteOnEvent(tick=95, channel=3, data=[80, 89]),
   midi.ControlChangeEvent(tick=675, channel=3, data=[1, 8]),
   midi.ControlChangeEvent(tick=12, channel=3, data=[1, 11]),
   midi.ControlChangeEvent(tick=11, channel=3, data=[1, 7]),
   midi.ControlChangeEvent(tick=13, channel=3, data=[1, 0]),
   midi.ControlChangeEvent(tick=39, channel=3, data=[1, 5]),
   midi.ControlChangeEvent(tick=11, channel=3, data=[1, 11]),
   midi.ControlChangeEvent(tick=12, channel=3, data=[1, 4]),
   midi.ControlChangeEvent(tick=12, channel=3, data=[1, 1]),
   midi.ControlChangeEvent(tick=12, channel=3, data=[1, 0]),
   midi.NoteOnEvent(tick=970, channel=3, data=[80, 0]),
   midi.NoteOnEvent(tick=125, channel=3, data=[82, 97]),
   midi.NoteOnEvent(tick=981, channel=3, data=[82, 0]),
   midi.NoteOnEvent(tick=465, channel=3, data=[75, 107]),
   midi.NoteOnEvent(tick=462, channel=3, data=[75, 0]),
   midi.NoteOnEvent(tick=60, channel=3, data=[87, 93]),
   midi.NoteOnEvent(tick=856, channel=3, data=[87, 0]),
   midi.NoteOnEvent(tick=51, channel=3, data=[85, 96]),
   midi.NoteOnEvent(tick=446, channel=3, data=[85, 0]),
   midi.NoteOnEvent(tick=45, channel=3, data=[84, 93]),
   midi.NoteOnEvent(tick=263, channel=3, data=[82, 75]),
   midi.NoteOnEvent(tick=4, channel=3, data=[84, 0]),
   midi.NoteOnEvent(tick=682, channel=3, data=[82, 0]),
   midi.NoteOnEvent(tick=515, channel=3, data=[84, 93]),
   midi.NoteOnEvent(tick=445, channel=3, data=[84, 0]),
   midi.NoteOnEvent(tick=0, channel=3, data=[85, 107]),
   midi.NoteOnEvent(tick=440, channel=3, data=[85, 0]),
   midi.NoteOnEvent(tick=40, channel=3, data=[84, 86]),
   midi.NoteOnEvent(tick=863, channel=3, data=[84, 0]),
   midi.NoteOnEvent(tick=108, channel=3, data=[82, 88]),
   midi.NoteOnEvent(tick=335, channel=3, data=[82, 0]),
   midi.NoteOnEvent(tick=134, channel=3, data=[80, 93]),
   midi.NoteOnEvent(tick=478, channel=3, data=[80, 0]),
   midi.NoteOnEvent(tick=2, channel=3, data=[79, 73]),
   midi.NoteOnEvent(tick=480, channel=3, data=[79, 0]),
   midi.NoteOnEvent(tick=0, channel=3, data=[80, 81]),
   midi.NoteOnEvent(tick=400, channel=3, data=[80, 0]),
   midi.NoteOnEvent(tick=560, channel=3, data=[79, 83]),
   midi.NoteOnEvent(tick=465, channel=3, data=[79, 0]),
   midi.NoteOnEvent(tick=15, channel=3, data=[80, 104]),
   midi.NoteOnEvent(tick=460, channel=3, data=[80, 0]),
   midi.NoteOnEvent(tick=28, channel=3, data=[80, 104]),
   midi.NoteOnEvent(tick=460, channel=3, data=[80, 0]),
   midi.ControlChangeEvent(tick=45, channel=3, data=[1, 8]),
   midi.ControlChangeEvent(tick=12, channel=3, data=[1, 45]),
   midi.ControlChangeEvent(tick=13, channel=3, data=[1, 68]),
   midi.ControlChangeEvent(tick=11, channel=3, data=[1, 71]),
   midi.ControlChangeEvent(tick=12, channel=3, data=[1, 69]),
   midi.ControlChangeEvent(tick=13, channel=3, data=[1, 68]),
   midi.ControlChangeEvent(tick=12, channel=3, data=[1, 72]),
   midi.ControlChangeEvent(tick=24, channel=3, data=[1, 48]),
   midi.ControlChangeEvent(tick=14, channel=3, data=[1, 15]),
   midi.ControlChangeEvent(tick=9, channel=3, data=[1, 2]),
   midi.ControlChangeEvent(tick=2, channel=3, data=[1, 1]),
   midi.ControlChangeEvent(tick=9, channel=3, data=[1, 13]),
   midi.ControlChangeEvent(tick=4, channel=3, data=[1, 0]),
   midi.ControlChangeEvent(tick=8, channel=3, data=[1, 38]),
   midi.ControlChangeEvent(tick=12, channel=3, data=[1, 67]),
   midi.ControlChangeEvent(tick=10, channel=3, data=[1, 9]),
   midi.ControlChangeEvent(tick=2, channel=3, data=[1, 80]),
   midi.ControlChangeEvent(tick=10, channel=3, data=[1, 4]),
   midi.ControlChangeEvent(tick=4, channel=3, data=[1, 89]),
   midi.ControlChangeEvent(tick=9, channel=3, data=[1, 16]),
   midi.ControlChangeEvent(tick=11, channel=3, data=[1, 26]),
   midi.ControlChangeEvent(tick=2, channel=3, data=[1, 105]),
   midi.ControlChangeEvent(tick=0, channel=3, data=[1, 98]),
   midi.ControlChangeEvent(tick=10, channel=3, data=[1, 33]),
   midi.ControlChangeEvent(tick=4, channel=3, data=[1, 113]),
   midi.ControlChangeEvent(tick=9, channel=3, data=[1, 55]),
   midi.ControlChangeEvent(tick=1, channel=3, data=[1, 115]),
   midi.ControlChangeEvent(tick=10, channel=3, data=[1, 75]),
   midi.ControlChangeEvent(tick=14, channel=3, data=[1, 92]),
   midi.ControlChangeEvent(tick=2, channel=3, data=[1, 112]),
   midi.ControlChangeEvent(tick=9, channel=3, data=[1, 105]),
   midi.ControlChangeEvent(tick=4, channel=3, data=[1, 100]),
   midi.ControlChangeEvent(tick=10, channel=3, data=[1, 114]),
   midi.ControlChangeEvent(tick=1, channel=3, data=[1, 74]),
   midi.ControlChangeEvent(tick=10, channel=3, data=[1, 115]),
   midi.ControlChangeEvent(tick=4, channel=3, data=[1, 29]),
   midi.ControlChangeEvent(tick=11, channel=3, data=[1, 4]),
   midi.ControlChangeEvent(tick=11, channel=3, data=[1, 105]),
   midi.ControlChangeEvent(tick=3, channel=3, data=[1, 0]),
   midi.ControlChangeEvent(tick=9, channel=3, data=[1, 96]),
   midi.ControlChangeEvent(tick=12, channel=3, data=[1, 74]),
   midi.ControlChangeEvent(tick=11, channel=3, data=[1, 28]),
   midi.ControlChangeEvent(tick=13, channel=3, data=[1, 4]),
   midi.ControlChangeEvent(tick=12, channel=3, data=[1, 0]),
   midi.NoteOnEvent(tick=53, channel=3, data=[82, 95]),
   midi.PitchWheelEvent(tick=241, channel=3, data=[24, 70]),
   midi.PitchWheelEvent(tick=13, channel=3, data=[98, 88]),
   midi.PitchWheelEvent(tick=11, channel=3, data=[61, 111]),
   midi.PitchWheelEvent(tick=14, channel=3, data=[127, 127]),
   midi.NoteOnEvent(tick=56, channel=3, data=[82, 0]),
   midi.PitchWheelEvent(tick=17, channel=3, data=[102, 121]),
   midi.PitchWheelEvent(tick=13, channel=3, data=[61, 111]),
   midi.PitchWheelEvent(tick=10, channel=3, data=[3, 97]),
   midi.PitchWheelEvent(tick=14, channel=3, data=[65, 80]),
   midi.PitchWheelEvent(tick=12, channel=3, data=[24, 70]),
   midi.PitchWheelEvent(tick=11, channel=3, data=[0, 64]),
   midi.NoteOnEvent(tick=72, channel=3, data=[84, 94]),
   midi.ControlChangeEvent(tick=510, channel=3, data=[1, 13]),
   midi.ControlChangeEvent(tick=13, channel=3, data=[1, 65]),
   midi.ControlChangeEvent(tick=12, channel=3, data=[1, 79]),
   midi.ControlChangeEvent(tick=11, channel=3, data=[1, 95]),
   midi.ControlChangeEvent(tick=14, channel=3, data=[1, 103]),
   midi.ControlChangeEvent(tick=11, channel=3, data=[1, 107]),
   midi.ControlChangeEvent(tick=12, channel=3, data=[1, 112]),
   midi.ControlChangeEvent(tick=13, channel=3, data=[1, 113]),
   midi.ControlChangeEvent(tick=12, channel=3, data=[1, 114]),
   midi.ControlChangeEvent(tick=25, channel=3, data=[1, 111]),
   midi.ControlChangeEvent(tick=12, channel=3, data=[1, 103]),
   midi.ControlChangeEvent(tick=12, channel=3, data=[1, 91]),
   midi.ControlChangeEvent(tick=13, channel=3, data=[1, 70]),
   midi.ControlChangeEvent(tick=11, channel=3, data=[1, 50]),
   midi.ControlChangeEvent(tick=14, channel=3, data=[1, 14]),
   midi.ControlChangeEvent(tick=12, channel=3, data=[1, 1]),
   midi.ControlChangeEvent(tick=10, channel=3, data=[1, 0]),
   midi.NoteOnEvent(tick=104, channel=3, data=[82, 63]),
   midi.NoteOnEvent(tick=6, channel=3, data=[84, 0]),
   midi.NoteOnEvent(tick=46, channel=3, data=[84, 86]),
   midi.NoteOnEvent(tick=3, channel=3, data=[82, 0]),
   midi.NoteOnEvent(tick=79, channel=3, data=[82, 100]),
   midi.NoteOnEvent(tick=23, channel=3, data=[84, 0]),
   midi.ControlChangeEvent(tick=719, channel=3, data=[1, 2]),
   midi.ControlChangeEvent(tick=26, channel=3, data=[1, 14]),
   midi.ControlChangeEvent(tick=12, channel=3, data=[1, 17]),
   midi.ControlChangeEvent(tick=12, channel=3, data=[1, 24]),
   midi.ControlChangeEvent(tick=11, channel=3, data=[1, 61]),
   midi.ControlChangeEvent(tick=13, channel=3, data=[1, 72]),
   midi.ControlChangeEvent(tick=12, channel=3, data=[1, 74]),
   midi.ControlChangeEvent(tick=12, channel=3, data=[1, 78]),
   midi.ControlChangeEvent(tick=12, channel=3, data=[1, 77]),
   midi.ControlChangeEvent(tick=14, channel=3, data=[1, 74]),
   midi.ControlChangeEvent(tick=11, channel=3, data=[1, 40]),
   midi.ControlChangeEvent(tick=13, channel=3, data=[1, 7]),
   midi.ControlChangeEvent(tick=12, channel=3, data=[1, 0]),
   midi.NoteOnEvent(tick=70, channel=3, data=[80, 97]),
   midi.NoteOnEvent(tick=11, channel=3, data=[82, 0]),
   midi.ControlChangeEvent(tick=2767, channel=3, data=[1, 3]),
   midi.ControlChangeEvent(tick=10, channel=3, data=[1, 12]),
   midi.ControlChangeEvent(tick=12, channel=3, data=[1, 14]),
   midi.ControlChangeEvent(tick=14, channel=3, data=[1, 18]),
   midi.ControlChangeEvent(tick=12, channel=3, data=[1, 29]),
   midi.ControlChangeEvent(tick=12, channel=3, data=[1, 40]),
   midi.ControlChangeEvent(tick=11, channel=3, data=[1, 58]),
   midi.ControlChangeEvent(tick=14, channel=3, data=[1, 73]),
   midi.ControlChangeEvent(tick=12, channel=3, data=[1, 80]),
   midi.ControlChangeEvent(tick=25, channel=3, data=[1, 85]),
   midi.ControlChangeEvent(tick=25, channel=3, data=[1, 91]),
   midi.ControlChangeEvent(tick=13, channel=3, data=[1, 94]),
   midi.ControlChangeEvent(tick=12, channel=3, data=[1, 97]),
   midi.ControlChangeEvent(tick=10, channel=3, data=[1, 98]),
   midi.ControlChangeEvent(tick=14, channel=3, data=[1, 99]),
   midi.ControlChangeEvent(tick=50, channel=3, data=[1, 100]),
   midi.ControlChangeEvent(tick=12, channel=3, data=[1, 102]),
   midi.ControlChangeEvent(tick=63, channel=3, data=[1, 103]),
   midi.ControlChangeEvent(tick=24, channel=3, data=[1, 104]),
   midi.ControlChangeEvent(tick=26, channel=3, data=[1, 105]),
   midi.ControlChangeEvent(tick=62, channel=3, data=[1, 107]),
   midi.ControlChangeEvent(tick=47, channel=3, data=[1, 109]),
   midi.ControlChangeEvent(tick=12, channel=3, data=[1, 110]),
   midi.ControlChangeEvent(tick=89, channel=3, data=[1, 111]),
   midi.ControlChangeEvent(tick=87, channel=3, data=[1, 110]),
   midi.ControlChangeEvent(tick=49, channel=3, data=[1, 111]),
   midi.ControlChangeEvent(tick=25, channel=3, data=[1, 110]),
   midi.ControlChangeEvent(tick=25, channel=3, data=[1, 109]),
   midi.ControlChangeEvent(tick=11, channel=3, data=[1, 110]),
   midi.ControlChangeEvent(tick=13, channel=3, data=[1, 111]),
   midi.ControlChangeEvent(tick=26, channel=3, data=[1, 112]),
   midi.ControlChangeEvent(tick=25, channel=3, data=[1, 110]),
   midi.ControlChangeEvent(tick=11, channel=3, data=[1, 103]),
   midi.ControlChangeEvent(tick=14, channel=3, data=[1, 91]),
   midi.ControlChangeEvent(tick=11, channel=3, data=[1, 69]),
   midi.ControlChangeEvent(tick=13, channel=3, data=[1, 25]),
   midi.ControlChangeEvent(tick=11, channel=3, data=[1, 3]),
   midi.ControlChangeEvent(tick=13, channel=3, data=[1, 0]),
   midi.NoteOnEvent(tick=37, channel=3, data=[80, 0]),
   midi.NoteOnEvent(tick=2741, channel=3, data=[82, 87]),
   midi.NoteOnEvent(tick=993, channel=3, data=[84, 71]),
   midi.NoteOnEvent(tick=12, channel=3, data=[82, 0]),
   midi.NoteOnEvent(tick=73, channel=3, data=[82, 82]),
   midi.NoteOnEvent(tick=27, channel=3, data=[84, 0]),
   midi.NoteOnEvent(tick=92, channel=3, data=[80, 73]),
   midi.NoteOnEvent(tick=17, channel=3, data=[82, 0]),
   midi.ControlChangeEvent(tick=1688, channel=3, data=[1, 6]),
   midi.ControlChangeEvent(tick=10, channel=3, data=[1, 13]),
   midi.ControlChangeEvent(tick=12, channel=3, data=[1, 27]),
   midi.ControlChangeEvent(tick=13, channel=3, data=[1, 34]),
   midi.ControlChangeEvent(tick=12, channel=3, data=[1, 40]),
   midi.ControlChangeEvent(tick=11, channel=3, data=[1, 43]),
   midi.ControlChangeEvent(tick=14, channel=3, data=[1, 48]),
   midi.ControlChangeEvent(tick=13, channel=3, data=[1, 47]),
   midi.ControlChangeEvent(tick=11, channel=3, data=[1, 48]),
   midi.ControlChangeEvent(tick=12, channel=3, data=[1, 49]),
   midi.ControlChangeEvent(tick=13, channel=3, data=[1, 54]),
   midi.ControlChangeEvent(tick=12, channel=3, data=[1, 71]),
   midi.ControlChangeEvent(tick=13, channel=3, data=[1, 74]),
   midi.ControlChangeEvent(tick=24, channel=3, data=[1, 76]),
   midi.ControlChangeEvent(tick=25, channel=3, data=[1, 71]),
   midi.ControlChangeEvent(tick=12, channel=3, data=[1, 67]),
   midi.ControlChangeEvent(tick=11, channel=3, data=[1, 69]),
   midi.ControlChangeEvent(tick=10, channel=3, data=[1, 72]),
   midi.ControlChangeEvent(tick=10, channel=3, data=[1, 75]),
   midi.ControlChangeEvent(tick=18, channel=3, data=[1, 77]),
   midi.ControlChangeEvent(tick=12, channel=3, data=[1, 76]),
   midi.ControlChangeEvent(tick=13, channel=3, data=[1, 79]),
   midi.ControlChangeEvent(tick=11, channel=3, data=[1, 80]),
   midi.ControlChangeEvent(tick=26, channel=3, data=[1, 81]),
   midi.ControlChangeEvent(tick=24, channel=3, data=[1, 79]),
   midi.ControlChangeEvent(tick=13, channel=3, data=[1, 81]),
   midi.ControlChangeEvent(tick=12, channel=3, data=[1, 82]),
   midi.ControlChangeEvent(tick=14, channel=3, data=[1, 80]),
   midi.ControlChangeEvent(tick=25, channel=3, data=[1, 81]),
   midi.ControlChangeEvent(tick=11, channel=3, data=[1, 83]),
   midi.ControlChangeEvent(tick=11, channel=3, data=[1, 80]),
   midi.ControlChangeEvent(tick=13, channel=3, data=[1, 78]),
   midi.ControlChangeEvent(tick=26, channel=3, data=[1, 77]),
   midi.ControlChangeEvent(tick=11, channel=3, data=[1, 71]),
   midi.ControlChangeEvent(tick=13, channel=3, data=[1, 42]),
   midi.ControlChangeEvent(tick=12, channel=3, data=[1, 22]),
   midi.ControlChangeEvent(tick=13, channel=3, data=[1, 16]),
   midi.ControlChangeEvent(tick=12, channel=3, data=[1, 13]),
   midi.ControlChangeEvent(tick=13, channel=3, data=[1, 7]),
   midi.ControlChangeEvent(tick=11, channel=3, data=[1, 3]),
   midi.ControlChangeEvent(tick=13, channel=3, data=[1, 1]),
   midi.ControlChangeEvent(tick=12, channel=3, data=[1, 0]),
   midi.NoteOnEvent(tick=4460, channel=3, data=[80, 0]),
   midi.NoteOnEvent(tick=0, channel=3, data=[82, 57]),
   midi.ControlChangeEvent(tick=2215, channel=3, data=[1, 1]),
   midi.ControlChangeEvent(tick=13, channel=3, data=[1, 4]),
   midi.ControlChangeEvent(tick=12, channel=3, data=[1, 10]),
   midi.ControlChangeEvent(tick=11, channel=3, data=[1, 13]),
   midi.ControlChangeEvent(tick=13, channel=3, data=[1, 15]),
   midi.ControlChangeEvent(tick=12, channel=3, data=[1, 24]),
   midi.ControlChangeEvent(tick=13, channel=3, data=[1, 38]),
   midi.ControlChangeEvent(tick=12, channel=3, data=[1, 61]),
   midi.ControlChangeEvent(tick=10, channel=3, data=[1, 70]),
   midi.ControlChangeEvent(tick=14, channel=3, data=[1, 60]),
   midi.ControlChangeEvent(tick=13, channel=3, data=[1, 35]),
   midi.ControlChangeEvent(tick=11, channel=3, data=[1, 17]),
   midi.ControlChangeEvent(tick=12, channel=3, data=[1, 3]),
   midi.ControlChangeEvent(tick=14, channel=3, data=[1, 0]),
   midi.NoteOnEvent(tick=475, channel=3, data=[82, 0]),
   midi.NoteOnEvent(tick=30, channel=3, data=[80, 57]),
   midi.ControlChangeEvent(tick=794, channel=3, data=[1, 2]),
   midi.ControlChangeEvent(tick=11, channel=3, data=[1, 3]),
   midi.ControlChangeEvent(tick=39, channel=3, data=[1, 5]),
   midi.ControlChangeEvent(tick=11, channel=3, data=[1, 12]),
   midi.ControlChangeEvent(tick=14, channel=3, data=[1, 18]),
   midi.ControlChangeEvent(tick=10, channel=3, data=[1, 29]),
   midi.ControlChangeEvent(tick=12, channel=3, data=[1, 33]),
   midi.ControlChangeEvent(tick=13, channel=3, data=[1, 34]),
   midi.ControlChangeEvent(tick=14, channel=3, data=[1, 36]),
   midi.ControlChangeEvent(tick=12, channel=3, data=[1, 38]),
   midi.ControlChangeEvent(tick=13, channel=3, data=[1, 47]),
   midi.ControlChangeEvent(tick=12, channel=3, data=[1, 63]),
   midi.ControlChangeEvent(tick=11, channel=3, data=[1, 73]),
   midi.ControlChangeEvent(tick=27, channel=3, data=[1, 77]),
   midi.ControlChangeEvent(tick=25, channel=3, data=[1, 85]),
   midi.ControlChangeEvent(tick=11, channel=3, data=[1, 88]),
   midi.ControlChangeEvent(tick=12, channel=3, data=[1, 89]),
   midi.ControlChangeEvent(tick=12, channel=3, data=[1, 90]),
   midi.ControlChangeEvent(tick=62, channel=3, data=[1, 91]),
   midi.ControlChangeEvent(tick=26, channel=3, data=[1, 92]),
   midi.ControlChangeEvent(tick=87, channel=3, data=[1, 94]),
   midi.ControlChangeEvent(tick=11, channel=3, data=[1, 95]),
   midi.ControlChangeEvent(tick=12, channel=3, data=[1, 97]),
   midi.ControlChangeEvent(tick=13, channel=3, data=[1, 98]),
   midi.ControlChangeEvent(tick=50, channel=3, data=[1, 101]),
   midi.ControlChangeEvent(tick=12, channel=3, data=[1, 102]),
   midi.ControlChangeEvent(tick=12, channel=3, data=[1, 103]),
   midi.ControlChangeEvent(tick=26, channel=3, data=[1, 101]),
   midi.ControlChangeEvent(tick=11, channel=3, data=[1, 100]),
   midi.ControlChangeEvent(tick=13, channel=3, data=[1, 101]),
   midi.ControlChangeEvent(tick=12, channel=3, data=[1, 100]),
   midi.ControlChangeEvent(tick=24, channel=3, data=[1, 99]),
   midi.ControlChangeEvent(tick=14, channel=3, data=[1, 100]),
   midi.ControlChangeEvent(tick=10, channel=3, data=[1, 102]),
   midi.ControlChangeEvent(tick=15, channel=3, data=[1, 104]),
   midi.ControlChangeEvent(tick=47, channel=3, data=[1, 105]),
   midi.ControlChangeEvent(tick=26, channel=3, data=[1, 104]),
   midi.ControlChangeEvent(tick=37, channel=3, data=[1, 101]),
   midi.ControlChangeEvent(tick=26, channel=3, data=[1, 102]),
   midi.ControlChangeEvent(tick=50, channel=3, data=[1, 104]),
   midi.ControlChangeEvent(tick=36, channel=3, data=[1, 101]),
   midi.ControlChangeEvent(tick=11, channel=3, data=[1, 96]),
   midi.ControlChangeEvent(tick=14, channel=3, data=[1, 95]),
   midi.ControlChangeEvent(tick=36, channel=3, data=[1, 92]),
   midi.ControlChangeEvent(tick=13, channel=3, data=[1, 91]),
   midi.ControlChangeEvent(tick=12, channel=3, data=[1, 93]),
   midi.ControlChangeEvent(tick=12, channel=3, data=[1, 99]),
   midi.ControlChangeEvent(tick=12, channel=3, data=[1, 101]),
   midi.ControlChangeEvent(tick=14, channel=3, data=[1, 102]),
   midi.ControlChangeEvent(tick=25, channel=3, data=[1, 97]),
   midi.ControlChangeEvent(tick=12, channel=3, data=[1, 92]),
   midi.ControlChangeEvent(tick=12, channel=3, data=[1, 91]),
   midi.ControlChangeEvent(tick=23, channel=3, data=[1, 94]),
   midi.ControlChangeEvent(tick=14, channel=3, data=[1, 96]),
   midi.ControlChangeEvent(tick=13, channel=3, data=[1, 92]),
   midi.ControlChangeEvent(tick=12, channel=3, data=[1, 86]),
   midi.ControlChangeEvent(tick=11, channel=3, data=[1, 91]),
   midi.ControlChangeEvent(tick=13, channel=3, data=[1, 98]),
   midi.ControlChangeEvent(tick=12, channel=3, data=[1, 102]),
   midi.ControlChangeEvent(tick=38, channel=3, data=[1, 103]),
   midi.ControlChangeEvent(tick=61, channel=3, data=[1, 104]),
   midi.ControlChangeEvent(tick=49, channel=3, data=[1, 105]),
   midi.ControlChangeEvent(tick=75, channel=3, data=[1, 103]),
   midi.ControlChangeEvent(tick=74, channel=3, data=[1, 102]),
   midi.ControlChangeEvent(tick=13, channel=3, data=[1, 100]),
   midi.ControlChangeEvent(tick=13, channel=3, data=[1, 98]),
   midi.ControlChangeEvent(tick=36, channel=3, data=[1, 100]),
   midi.ControlChangeEvent(tick=14, channel=3, data=[1, 104]),
   midi.ControlChangeEvent(tick=12, channel=3, data=[1, 103]),
   midi.ControlChangeEvent(tick=12, channel=3, data=[1, 102]),
   midi.ControlChangeEvent(tick=35, channel=3, data=[1, 103]),
   midi.ControlChangeEvent(tick=27, channel=3, data=[1, 104]),
   midi.ControlChangeEvent(tick=75, channel=3, data=[1, 105]),
   midi.ControlChangeEvent(tick=74, channel=3, data=[1, 104]),
   midi.ControlChangeEvent(tick=87, channel=3, data=[1, 105]),
   midi.ControlChangeEvent(tick=87, channel=3, data=[1, 107]),
   midi.ControlChangeEvent(tick=136, channel=3, data=[1, 108]),
   midi.ControlChangeEvent(tick=47, channel=3, data=[1, 107]),
   midi.ControlChangeEvent(tick=14, channel=3, data=[1, 104]),
   midi.ControlChangeEvent(tick=25, channel=3, data=[1, 99]),
   midi.ControlChangeEvent(tick=13, channel=3, data=[1, 93]),
   midi.ControlChangeEvent(tick=11, channel=3, data=[1, 85]),
   midi.ControlChangeEvent(tick=14, channel=3, data=[1, 86]),
   midi.ControlChangeEvent(tick=11, channel=3, data=[1, 87]),
   midi.ControlChangeEvent(tick=12, channel=3, data=[1, 95]),
   midi.ControlChangeEvent(tick=13, channel=3, data=[1, 99]),
   midi.ControlChangeEvent(tick=11, channel=3, data=[1, 101]),
   midi.ControlChangeEvent(tick=13, channel=3, data=[1, 102]),
   midi.ControlChangeEvent(tick=26, channel=3, data=[1, 99]),
   midi.ControlChangeEvent(tick=11, channel=3, data=[1, 95]),
   midi.ControlChangeEvent(tick=13, channel=3, data=[1, 93]),
   midi.ControlChangeEvent(tick=12, channel=3, data=[1, 87]),
   midi.ControlChangeEvent(tick=11, channel=3, data=[1, 84]),
   midi.ControlChangeEvent(tick=52, channel=3, data=[1, 82]),
   midi.ControlChangeEvent(tick=50, channel=3, data=[1, 80]),
   midi.ControlChangeEvent(tick=11, channel=3, data=[1, 78]),
   midi.ControlChangeEvent(tick=37, channel=3, data=[1, 76]),
   midi.ControlChangeEvent(tick=13, channel=3, data=[1, 71]),
   midi.ControlChangeEvent(tick=12, channel=3, data=[1, 70]),
   midi.ControlChangeEvent(tick=12, channel=3, data=[1, 65]),
   midi.ControlChangeEvent(tick=12, channel=3, data=[1, 57]),
   midi.ControlChangeEvent(tick=11, channel=3, data=[1, 49]),
   midi.ControlChangeEvent(tick=13, channel=3, data=[1, 55]),
   midi.ControlChangeEvent(tick=12, channel=3, data=[1, 61]),
   midi.ControlChangeEvent(tick=10, channel=3, data=[1, 63]),
   midi.ControlChangeEvent(tick=40, channel=3, data=[1, 59]),
   midi.ControlChangeEvent(tick=25, channel=3, data=[1, 58]),
   midi.ControlChangeEvent(tick=12, channel=3, data=[1, 53]),
   midi.ControlChangeEvent(tick=13, channel=3, data=[1, 50]),
   midi.ControlChangeEvent(tick=24, channel=3, data=[1, 53]),
   midi.ControlChangeEvent(tick=11, channel=3, data=[1, 57]),
   midi.ControlChangeEvent(tick=13, channel=3, data=[1, 49]),
   midi.ControlChangeEvent(tick=12, channel=3, data=[1, 41]),
   midi.ControlChangeEvent(tick=12, channel=3, data=[1, 44]),
   midi.ControlChangeEvent(tick=12, channel=3, data=[1, 46]),
   midi.ControlChangeEvent(tick=11, channel=3, data=[1, 50]),
   midi.ControlChangeEvent(tick=14, channel=3, data=[1, 51]),
   midi.ControlChangeEvent(tick=13, channel=3, data=[1, 49]),
   midi.ControlChangeEvent(tick=12, channel=3, data=[1, 47]),
   midi.ControlChangeEvent(tick=13, channel=3, data=[1, 44]),
   midi.ControlChangeEvent(tick=11, channel=3, data=[1, 46]),
   midi.ControlChangeEvent(tick=11, channel=3, data=[1, 41]),
   midi.ControlChangeEvent(tick=14, channel=3, data=[1, 39]),
   midi.ControlChangeEvent(tick=12, channel=3, data=[1, 40]),
   midi.ControlChangeEvent(tick=13, channel=3, data=[1, 42]),
   midi.ControlChangeEvent(tick=11, channel=3, data=[1, 47]),
   midi.ControlChangeEvent(tick=13, channel=3, data=[1, 64]),
   midi.ControlChangeEvent(tick=12, channel=3, data=[1, 72]),
   midi.ControlChangeEvent(tick=13, channel=3, data=[1, 74]),
   midi.ControlChangeEvent(tick=12, channel=3, data=[1, 75]),
   midi.ControlChangeEvent(tick=13, channel=3, data=[1, 76]),
   midi.ControlChangeEvent(tick=23, channel=3, data=[1, 75]),
   midi.ControlChangeEvent(tick=13, channel=3, data=[1, 74]),
   midi.ControlChangeEvent(tick=14, channel=3, data=[1, 79]),
   midi.ControlChangeEvent(tick=11, channel=3, data=[1, 83]),
   midi.ControlChangeEvent(tick=12, channel=3, data=[1, 87]),
   midi.ControlChangeEvent(tick=19, channel=3, data=[11, 123]),
   midi.ControlChangeEvent(tick=6, channel=3, data=[1, 88]),
   midi.ControlChangeEvent(tick=12, channel=3, data=[1, 84]),
   midi.ControlChangeEvent(tick=12, channel=3, data=[11, 122]),
   midi.ControlChangeEvent(tick=14, channel=3, data=[1, 85]),
   midi.ControlChangeEvent(tick=12, channel=3, data=[1, 86]),
   midi.ControlChangeEvent(tick=4, channel=3, data=[11, 121]),
   midi.ControlChangeEvent(tick=20, channel=3, data=[1, 82]),
   midi.ControlChangeEvent(tick=10, channel=3, data=[11, 120]),
   midi.ControlChangeEvent(tick=3, channel=3, data=[1, 84]),
   midi.ControlChangeEvent(tick=11, channel=3, data=[1, 87]),
   midi.ControlChangeEvent(tick=14, channel=3, data=[1, 89]),
   midi.ControlChangeEvent(tick=2, channel=3, data=[11, 119]),
   midi.ControlChangeEvent(tick=21, channel=3, data=[1, 90]),
   midi.ControlChangeEvent(tick=9, channel=3, data=[11, 117]),
   midi.ControlChangeEvent(tick=30, channel=3, data=[11, 116]),
   midi.ControlChangeEvent(tick=10, channel=3, data=[1, 91]),
   midi.ControlChangeEvent(tick=20, channel=3, data=[11, 115]),
   midi.ControlChangeEvent(tick=5, channel=3, data=[1, 84]),
   midi.ControlChangeEvent(tick=13, channel=3, data=[1, 74]),
   midi.ControlChangeEvent(tick=11, channel=3, data=[1, 71]),
   midi.ControlChangeEvent(tick=1, channel=3, data=[11, 114]),
   midi.ControlChangeEvent(tick=11, channel=3, data=[1, 69]),
   midi.ControlChangeEvent(tick=13, channel=3, data=[1, 64]),
   midi.ControlChangeEvent(tick=6, channel=3, data=[11, 113]),
   midi.ControlChangeEvent(tick=8, channel=3, data=[1, 49]),
   midi.ControlChangeEvent(tick=10, channel=3, data=[1, 41]),
   midi.ControlChangeEvent(tick=12, channel=3, data=[11, 112]),
   midi.ControlChangeEvent(tick=1, channel=3, data=[1, 33]),
   midi.ControlChangeEvent(tick=12, channel=3, data=[1, 17]),
   midi.ControlChangeEvent(tick=12, channel=3, data=[1, 9]),
   midi.ControlChangeEvent(tick=5, channel=3, data=[11, 111]),
   midi.ControlChangeEvent(tick=20, channel=3, data=[1, 4]),
   midi.ControlChangeEvent(tick=10, channel=3, data=[11, 110]),
   midi.ControlChangeEvent(tick=3, channel=3, data=[1, 0]),
   midi.ControlChangeEvent(tick=27, channel=3, data=[11, 109]),
   midi.ControlChangeEvent(tick=30, channel=3, data=[11, 107]),
   midi.ControlChangeEvent(tick=30, channel=3, data=[11, 106]),
   midi.ControlChangeEvent(tick=30, channel=3, data=[11, 105]),
   midi.ControlChangeEvent(tick=30, channel=3, data=[11, 104]),
   midi.ControlChangeEvent(tick=30, channel=3, data=[11, 103]),
   midi.ControlChangeEvent(tick=30, channel=3, data=[11, 102]),
   midi.ControlChangeEvent(tick=30, channel=3, data=[11, 101]),
   midi.ControlChangeEvent(tick=30, channel=3, data=[11, 100]),
   midi.ControlChangeEvent(tick=30, channel=3, data=[11, 99]),
   midi.ControlChangeEvent(tick=30, channel=3, data=[11, 97]),
   midi.ControlChangeEvent(tick=30, channel=3, data=[11, 96]),
   midi.ControlChangeEvent(tick=30, channel=3, data=[11, 95]),
   midi.ControlChangeEvent(tick=30, channel=3, data=[11, 94]),
   midi.ControlChangeEvent(tick=30, channel=3, data=[11, 93]),
   midi.ControlChangeEvent(tick=30, channel=3, data=[11, 92]),
   midi.ControlChangeEvent(tick=30, channel=3, data=[11, 91]),
   midi.ControlChangeEvent(tick=30, channel=3, data=[11, 90]),
   midi.ControlChangeEvent(tick=30, channel=3, data=[11, 89]),
   midi.ControlChangeEvent(tick=30, channel=3, data=[11, 88]),
   midi.ControlChangeEvent(tick=30, channel=3, data=[11, 86]),
   midi.ControlChangeEvent(tick=30, channel=3, data=[11, 85]),
   midi.ControlChangeEvent(tick=30, channel=3, data=[11, 84]),
   midi.ControlChangeEvent(tick=30, channel=3, data=[11, 83]),
   midi.ControlChangeEvent(tick=30, channel=3, data=[11, 82]),
   midi.ControlChangeEvent(tick=30, channel=3, data=[11, 81]),
   midi.ControlChangeEvent(tick=30, channel=3, data=[11, 80]),
   midi.ControlChangeEvent(tick=30, channel=3, data=[11, 79]),
   midi.ControlChangeEvent(tick=30, channel=3, data=[11, 78]),
   midi.ControlChangeEvent(tick=30, channel=3, data=[11, 76]),
   midi.ControlChangeEvent(tick=30, channel=3, data=[11, 75]),
   midi.ControlChangeEvent(tick=30, channel=3, data=[11, 74]),
   midi.ControlChangeEvent(tick=30, channel=3, data=[11, 73]),
   midi.ControlChangeEvent(tick=30, channel=3, data=[11, 72]),
   midi.ControlChangeEvent(tick=30, channel=3, data=[11, 71]),
   midi.ControlChangeEvent(tick=30, channel=3, data=[11, 70]),
   midi.ControlChangeEvent(tick=30, channel=3, data=[11, 69]),
   midi.ControlChangeEvent(tick=30, channel=3, data=[11, 68]),
   midi.ControlChangeEvent(tick=30, channel=3, data=[11, 67]),
   midi.ControlChangeEvent(tick=30, channel=3, data=[11, 65]),
   midi.ControlChangeEvent(tick=30, channel=3, data=[11, 64]),
   midi.ControlChangeEvent(tick=30, channel=3, data=[11, 63]),
   midi.ControlChangeEvent(tick=30, channel=3, data=[11, 62]),
   midi.ControlChangeEvent(tick=30, channel=3, data=[11, 61]),
   midi.ControlChangeEvent(tick=30, channel=3, data=[11, 60]),
   midi.ControlChangeEvent(tick=30, channel=3, data=[11, 59]),
   midi.ControlChangeEvent(tick=30, channel=3, data=[11, 58]),
   midi.ControlChangeEvent(tick=30, channel=3, data=[11, 57]),
   midi.ControlChangeEvent(tick=30, channel=3, data=[11, 55]),
   midi.NoteOnEvent(tick=30, channel=3, data=[80, 0]),
   midi.EndOfTrackEvent(tick=60, data=[])]),
 midi.Track(\
  [midi.ChannelPrefixEvent(tick=0, data=[4]),
   midi.TrackNameEvent(tick=0, text="My Heart Will Go On (Iz Filma 'Titanik') 02 (Karaoke)", data=[77, 121, 32, 72, 101, 97, 114, 116, 32, 87, 105, 108, 108, 32, 71, 111, 32, 79, 110, 32, 40, 73, 122, 32, 70, 105, 108, 109, 97, 32, 39, 84, 105, 116, 97, 110, 105, 107, 39, 41, 32, 48, 50, 32, 40, 75, 97, 114, 97, 111, 107, 101, 41]),
   midi.InstrumentNameEvent(tick=0, text='\xe6\xb5\xaa\xe6\xbc\xab\xe5\xbc\xa6\xe4\xb9\x90', data=[230, 181, 170, 230, 188, 171, 229, 188, 166, 228, 185, 144]),
   midi.ControlChangeEvent(tick=188, channel=4, data=[121, 0]),
   midi.ProgramChangeEvent(tick=320, channel=4, data=[49]),
   midi.ControlChangeEvent(tick=1, channel=4, data=[7, 85]),
   midi.ControlChangeEvent(tick=0, channel=4, data=[10, 78]),
   midi.ControlChangeEvent(tick=99, channel=4, data=[91, 80]),
   midi.ControlChangeEvent(tick=3, channel=4, data=[93, 30]),
   midi.ControlChangeEvent(tick=17, channel=4, data=[11, 127]),
   midi.ControlChangeEvent(tick=440, channel=4, data=[100, 0]),
   midi.ControlChangeEvent(tick=3, channel=4, data=[101, 0]),
   midi.ControlChangeEvent(tick=4, channel=4, data=[6, 2]),
   midi.NoteOnEvent(tick=87239, channel=4, data=[52, 66]),
   midi.NoteOnEvent(tick=1876, channel=4, data=[52, 0]),
   midi.NoteOnEvent(tick=44, channel=4, data=[47, 68]),
   midi.NoteOnEvent(tick=1876, channel=4, data=[47, 0]),
   midi.NoteOnEvent(tick=44, channel=4, data=[52, 66]),
   midi.NoteOnEvent(tick=1876, channel=4, data=[52, 0]),
   midi.NoteOnEvent(tick=44, channel=4, data=[56, 64]),
   midi.NoteOnEvent(tick=960, channel=4, data=[54, 66]),
   midi.NoteOnEvent(tick=0, channel=4, data=[56, 0]),
   midi.NoteOnEvent(tick=960, channel=4, data=[54, 0]),
   midi.NoteOnEvent(tick=0, channel=4, data=[56, 66]),
   midi.NoteOnEvent(tick=1876, channel=4, data=[56, 0]),
   midi.NoteOnEvent(tick=44, channel=4, data=[47, 66]),
   midi.NoteOnEvent(tick=0, channel=4, data=[54, 66]),
   midi.NoteOnEvent(tick=1876, channel=4, data=[47, 0]),
   midi.NoteOnEvent(tick=0, channel=4, data=[54, 0]),
   midi.NoteOnEvent(tick=44, channel=4, data=[45, 66]),
   midi.NoteOnEvent(tick=0, channel=4, data=[52, 66]),
   midi.NoteOnEvent(tick=0, channel=4, data=[88, 36]),
   midi.NoteOnEvent(tick=960, channel=4, data=[57, 66]),
   midi.NoteOnEvent(tick=0, channel=4, data=[59, 66]),
   midi.NoteOnEvent(tick=957, channel=4, data=[57, 0]),
   midi.NoteOnEvent(tick=0, channel=4, data=[59, 0]),
   midi.NoteOnEvent(tick=3, channel=4, data=[54, 66]),
   midi.NoteOnEvent(tick=0, channel=4, data=[61, 71]),
   midi.NoteOnEvent(tick=957, channel=4, data=[61, 0]),
   midi.NoteOnEvent(tick=3, channel=4, data=[59, 68]),
   midi.NoteOnEvent(tick=900, channel=4, data=[88, 0]),
   midi.NoteOnEvent(tick=16, channel=4, data=[54, 0]),
   midi.NoteOnEvent(tick=41, channel=4, data=[45, 0]),
   midi.NoteOnEvent(tick=0, channel=4, data=[52, 0]),
   midi.NoteOnEvent(tick=0, channel=4, data=[59, 0]),
   midi.NoteOnEvent(tick=3, channel=4, data=[52, 66]),
   midi.NoteOnEvent(tick=1876, channel=4, data=[52, 0]),
   midi.NoteOnEvent(tick=44, channel=4, data=[47, 68]),
   midi.NoteOnEvent(tick=1876, channel=4, data=[47, 0]),
   midi.NoteOnEvent(tick=44, channel=4, data=[45, 68]),
   midi.NoteOnEvent(tick=0, channel=4, data=[61, 66]),
   midi.NoteOnEvent(tick=1876, channel=4, data=[45, 0]),
   midi.NoteOnEvent(tick=0, channel=4, data=[61, 0]),
   midi.NoteOnEvent(tick=44, channel=4, data=[47, 64]),
   midi.NoteOnEvent(tick=0, channel=4, data=[64, 64]),
   midi.NoteOnEvent(tick=960, channel=4, data=[47, 0]),
   midi.NoteOnEvent(tick=0, channel=4, data=[48, 64]),
   midi.NoteOnEvent(tick=0, channel=4, data=[63, 66]),
   midi.NoteOnEvent(tick=0, channel=4, data=[64, 0]),
   midi.NoteOnEvent(tick=960, channel=4, data=[48, 0]),
   midi.NoteOnEvent(tick=0, channel=4, data=[56, 61]),
   midi.NoteOnEvent(tick=0, channel=4, data=[61, 61]),
   midi.NoteOnEvent(tick=0, channel=4, data=[63, 0]),
   midi.NoteOnEvent(tick=0, channel=4, data=[64, 61]),
   midi.NoteOnEvent(tick=1906, channel=4, data=[56, 0]),
   midi.NoteOnEvent(tick=0, channel=4, data=[61, 0]),
   midi.NoteOnEvent(tick=0, channel=4, data=[64, 0]),
   midi.NoteOnEvent(tick=14, channel=4, data=[59, 56]),
   midi.NoteOnEvent(tick=0, channel=4, data=[63, 56]),
   midi.NoteOnEvent(tick=0, channel=4, data=[66, 56]),
   midi.NoteOnEvent(tick=1912, channel=4, data=[59, 0]),
   midi.NoteOnEvent(tick=8, channel=4, data=[52, 60]),
   midi.NoteOnEvent(tick=0, channel=4, data=[61, 56]),
   midi.NoteOnEvent(tick=0, channel=4, data=[64, 60]),
   midi.NoteOnEvent(tick=17, channel=4, data=[63, 0]),
   midi.NoteOnEvent(tick=0, channel=4, data=[66, 0]),
   midi.NoteOnEvent(tick=943, channel=4, data=[52, 0]),
   midi.NoteOnEvent(tick=0, channel=4, data=[54, 60]),
   midi.NoteOnEvent(tick=480, channel=4, data=[54, 0]),
   midi.NoteOnEvent(tick=0, channel=4, data=[56, 60]),
   midi.NoteOnEvent(tick=472, channel=4, data=[61, 0]),
   midi.NoteOnEvent(tick=4, channel=4, data=[64, 0]),
   midi.NoteOnEvent(tick=4, channel=4, data=[52, 60]),
   midi.NoteOnEvent(tick=0, channel=4, data=[56, 0]),
   midi.NoteOnEvent(tick=0, channel=4, data=[59, 56]),
   midi.NoteOnEvent(tick=0, channel=4, data=[61, 56]),
   midi.NoteOnEvent(tick=0, channel=4, data=[64, 56]),
   midi.NoteOnEvent(tick=960, channel=4, data=[52, 0]),
   midi.NoteOnEvent(tick=0, channel=4, data=[54, 60]),
   midi.NoteOnEvent(tick=952, channel=4, data=[54, 0]),
   midi.NoteOnEvent(tick=0, channel=4, data=[59, 0]),
   midi.NoteOnEvent(tick=0, channel=4, data=[61, 0]),
   midi.NoteOnEvent(tick=0, channel=4, data=[64, 0]),
   midi.NoteOnEvent(tick=8, channel=4, data=[61, 61]),
   midi.NoteOnEvent(tick=0, channel=4, data=[64, 61]),
   midi.NoteOnEvent(tick=0, channel=4, data=[68, 61]),
   midi.NoteOnEvent(tick=1906, channel=4, data=[61, 0]),
   midi.NoteOnEvent(tick=0, channel=4, data=[64, 0]),
   midi.NoteOnEvent(tick=0, channel=4, data=[68, 0]),
   midi.NoteOnEvent(tick=14, channel=4, data=[59, 56]),
   midi.NoteOnEvent(tick=0, channel=4, data=[63, 56]),
   midi.NoteOnEvent(tick=0, channel=4, data=[66, 56]),
   midi.NoteOnEvent(tick=1912, channel=4, data=[59, 0]),
   midi.NoteOnEvent(tick=8, channel=4, data=[57, 60]),
   midi.NoteOnEvent(tick=0, channel=4, data=[59, 56]),
   midi.NoteOnEvent(tick=0, channel=4, data=[61, 56]),
   midi.NoteOnEvent(tick=0, channel=4, data=[64, 60]),
   midi.NoteOnEvent(tick=17, channel=4, data=[63, 0]),
   midi.NoteOnEvent(tick=0, channel=4, data=[66, 0]),
   midi.NoteOnEvent(tick=1895, channel=4, data=[59, 0]),
   midi.NoteOnEvent(tick=8, channel=4, data=[54, 60]),
   midi.NoteOnEvent(tick=0, channel=4, data=[59, 56]),
   midi.NoteOnEvent(tick=0, channel=4, data=[63, 56]),
   midi.NoteOnEvent(tick=0, channel=4, data=[64, 0]),
   midi.NoteOnEvent(tick=0, channel=4, data=[66, 60]),
   midi.NoteOnEvent(tick=12, channel=4, data=[57, 0]),
   midi.NoteOnEvent(tick=5, channel=4, data=[61, 0]),
   midi.NoteOnEvent(tick=943, channel=4, data=[63, 0]),
   midi.NoteOnEvent(tick=0, channel=4, data=[64, 56]),
   midi.NoteOnEvent(tick=872, channel=4, data=[54, 0]),
   midi.NoteOnEvent(tick=0, channel=4, data=[66, 0]),
   midi.NoteOnEvent(tick=88, channel=4, data=[56, 61]),
   midi.NoteOnEvent(tick=0, channel=4, data=[61, 61]),
   midi.NoteOnEvent(tick=0, channel=4, data=[64, 0]),
   midi.NoteOnEvent(tick=0, channel=4, data=[64, 61]),
   midi.NoteOnEvent(tick=17, channel=4, data=[59, 0]),
   midi.NoteOnEvent(tick=1889, channel=4, data=[56, 0]),
   midi.NoteOnEvent(tick=0, channel=4, data=[61, 0]),
   midi.NoteOnEvent(tick=0, channel=4, data=[64, 0]),
   midi.NoteOnEvent(tick=14, channel=4, data=[59, 56]),
   midi.NoteOnEvent(tick=0, channel=4, data=[63, 56]),
   midi.NoteOnEvent(tick=0, channel=4, data=[66, 56]),
   midi.NoteOnEvent(tick=1912, channel=4, data=[59, 0]),
   midi.NoteOnEvent(tick=8, channel=4, data=[52, 61]),
   midi.NoteOnEvent(tick=0, channel=4, data=[59, 56]),
   midi.NoteOnEvent(tick=0, channel=4, data=[61, 56]),
   midi.NoteOnEvent(tick=0, channel=4, data=[64, 60]),
   midi.NoteOnEvent(tick=17, channel=4, data=[63, 0]),
   midi.NoteOnEvent(tick=0, channel=4, data=[66, 0]),
   midi.NoteOnEvent(tick=1423, channel=4, data=[52, 0]),
   midi.NoteOnEvent(tick=0, channel=4, data=[54, 76]),
   midi.NoteOnEvent(tick=472, channel=4, data=[59, 0]),
   midi.NoteOnEvent(tick=0, channel=4, data=[61, 0]),
   midi.NoteOnEvent(tick=4, channel=4, data=[64, 0]),
   midi.NoteOnEvent(tick=4, channel=4, data=[54, 0]),
   midi.NoteOnEvent(tick=0, channel=4, data=[56, 60]),
   midi.NoteOnEvent(tick=0, channel=4, data=[59, 56]),
   midi.NoteOnEvent(tick=0, channel=4, data=[64, 56]),
   midi.NoteOnEvent(tick=0, channel=4, data=[68, 60]),
   midi.NoteOnEvent(tick=960, channel=4, data=[54, 60]),
   midi.NoteOnEvent(tick=0, channel=4, data=[56, 0]),
   midi.NoteOnEvent(tick=0, channel=4, data=[63, 60]),
   midi.NoteOnEvent(tick=0, channel=4, data=[64, 0]),
   midi.NoteOnEvent(tick=0, channel=4, data=[66, 60]),
   midi.NoteOnEvent(tick=0, channel=4, data=[68, 0]),
   midi.NoteOnEvent(tick=952, channel=4, data=[54, 0]),
   midi.NoteOnEvent(tick=0, channel=4, data=[59, 0]),
   midi.NoteOnEvent(tick=8, channel=4, data=[61, 61]),
   midi.NoteOnEvent(tick=0, channel=4, data=[63, 0]),
   midi.NoteOnEvent(tick=0, channel=4, data=[64, 61]),
   midi.NoteOnEvent(tick=0, channel=4, data=[66, 0]),
   midi.NoteOnEvent(tick=0, channel=4, data=[68, 61]),
   midi.NoteOnEvent(tick=1906, channel=4, data=[61, 0]),
   midi.NoteOnEvent(tick=0, channel=4, data=[64, 0]),
   midi.NoteOnEvent(tick=0, channel=4, data=[68, 0]),
   midi.NoteOnEvent(tick=14, channel=4, data=[59, 56]),
   midi.NoteOnEvent(tick=0, channel=4, data=[63, 56]),
   midi.NoteOnEvent(tick=0, channel=4, data=[66, 56]),
   midi.NoteOnEvent(tick=1912, channel=4, data=[59, 0]),
   midi.NoteOnEvent(tick=8, channel=4, data=[57, 60]),
   midi.NoteOnEvent(tick=0, channel=4, data=[59, 56]),
   midi.NoteOnEvent(tick=0, channel=4, data=[61, 56]),
   midi.NoteOnEvent(tick=0, channel=4, data=[64, 60]),
   midi.NoteOnEvent(tick=17, channel=4, data=[63, 0]),
   midi.NoteOnEvent(tick=0, channel=4, data=[66, 0]),
   midi.NoteOnEvent(tick=1895, channel=4, data=[59, 0]),
   midi.NoteOnEvent(tick=8, channel=4, data=[54, 60]),
   midi.NoteOnEvent(tick=0, channel=4, data=[59, 56]),
   midi.NoteOnEvent(tick=0, channel=4, data=[63, 56]),
   midi.NoteOnEvent(tick=0, channel=4, data=[64, 0]),
   midi.NoteOnEvent(tick=0, channel=4, data=[66, 60]),
   midi.NoteOnEvent(tick=12, channel=4, data=[57, 0]),
   midi.NoteOnEvent(tick=5, channel=4, data=[61, 0]),
   midi.NoteOnEvent(tick=943, channel=4, data=[63, 0]),
   midi.NoteOnEvent(tick=0, channel=4, data=[64, 56]),
   midi.NoteOnEvent(tick=872, channel=4, data=[54, 0]),
   midi.NoteOnEvent(tick=0, channel=4, data=[66, 0]),
   midi.NoteOnEvent(tick=88, channel=4, data=[56, 61]),
   midi.NoteOnEvent(tick=0, channel=4, data=[61, 61]),
   midi.NoteOnEvent(tick=0, channel=4, data=[64, 0]),
   midi.NoteOnEvent(tick=0, channel=4, data=[64, 61]),
   midi.NoteOnEvent(tick=17, channel=4, data=[59, 0]),
   midi.NoteOnEvent(tick=1889, channel=4, data=[56, 0]),
   midi.NoteOnEvent(tick=0, channel=4, data=[61, 0]),
   midi.NoteOnEvent(tick=0, channel=4, data=[64, 0]),
   midi.NoteOnEvent(tick=14, channel=4, data=[59, 56]),
   midi.NoteOnEvent(tick=0, channel=4, data=[63, 56]),
   midi.NoteOnEvent(tick=0, channel=4, data=[66, 56]),
   midi.NoteOnEvent(tick=1912, channel=4, data=[59, 0]),
   midi.NoteOnEvent(tick=8, channel=4, data=[52, 61]),
   midi.NoteOnEvent(tick=0, channel=4, data=[59, 56]),
   midi.NoteOnEvent(tick=0, channel=4, data=[61, 56]),
   midi.NoteOnEvent(tick=0, channel=4, data=[64, 60]),
   midi.NoteOnEvent(tick=17, channel=4, data=[63, 0]),
   midi.NoteOnEvent(tick=0, channel=4, data=[66, 0]),
   midi.NoteOnEvent(tick=1423, channel=4, data=[52, 0]),
   midi.NoteOnEvent(tick=0, channel=4, data=[54, 76]),
   midi.NoteOnEvent(tick=472, channel=4, data=[59, 0]),
   midi.NoteOnEvent(tick=0, channel=4, data=[61, 0]),
   midi.NoteOnEvent(tick=4, channel=4, data=[64, 0]),
   midi.NoteOnEvent(tick=4, channel=4, data=[54, 0]),
   midi.NoteOnEvent(tick=0, channel=4, data=[56, 60]),
   midi.NoteOnEvent(tick=0, channel=4, data=[59, 56]),
   midi.NoteOnEvent(tick=0, channel=4, data=[64, 56]),
   midi.NoteOnEvent(tick=0, channel=4, data=[68, 60]),
   midi.NoteOnEvent(tick=960, channel=4, data=[54, 60]),
   midi.NoteOnEvent(tick=0, channel=4, data=[56, 0]),
   midi.NoteOnEvent(tick=0, channel=4, data=[63, 60]),
   midi.NoteOnEvent(tick=0, channel=4, data=[64, 0]),
   midi.NoteOnEvent(tick=0, channel=4, data=[66, 60]),
   midi.NoteOnEvent(tick=0, channel=4, data=[68, 0]),
   midi.NoteOnEvent(tick=952, channel=4, data=[54, 0]),
   midi.NoteOnEvent(tick=0, channel=4, data=[59, 0]),
   midi.NoteOnEvent(tick=8, channel=4, data=[63, 0]),
   midi.NoteOnEvent(tick=0, channel=4, data=[66, 0]),
   midi.NoteOnEvent(tick=15360, channel=4, data=[53, 91]),
   midi.NoteOnEvent(tick=0, channel=4, data=[65, 91]),
   midi.NoteOnEvent(tick=0, channel=4, data=[68, 91]),
   midi.NoteOnEvent(tick=0, channel=4, data=[72, 91]),
   midi.NoteOnEvent(tick=1906, channel=4, data=[53, 0]),
   midi.NoteOnEvent(tick=0, channel=4, data=[65, 0]),
   midi.NoteOnEvent(tick=0, channel=4, data=[68, 0]),
   midi.NoteOnEvent(tick=0, channel=4, data=[72, 0]),
   midi.NoteOnEvent(tick=14, channel=4, data=[51, 86]),
   midi.NoteOnEvent(tick=0, channel=4, data=[63, 86]),
   midi.NoteOnEvent(tick=0, channel=4, data=[67, 86]),
   midi.NoteOnEvent(tick=0, channel=4, data=[70, 86]),
   midi.NoteOnEvent(tick=1912, channel=4, data=[51, 0]),
   midi.NoteOnEvent(tick=0, channel=4, data=[63, 0]),
   midi.NoteOnEvent(tick=8, channel=4, data=[49, 90]),
   midi.NoteOnEvent(tick=0, channel=4, data=[61, 90]),
   midi.NoteOnEvent(tick=0, channel=4, data=[63, 86]),
   midi.NoteOnEvent(tick=0, channel=4, data=[65, 86]),
   midi.NoteOnEvent(tick=0, channel=4, data=[68, 90]),
   midi.NoteOnEvent(tick=17, channel=4, data=[67, 0]),
   midi.NoteOnEvent(tick=0, channel=4, data=[70, 0]),
   midi.NoteOnEvent(tick=1895, channel=4, data=[63, 0]),
   midi.NoteOnEvent(tick=8, channel=4, data=[51, 86]),
   midi.NoteOnEvent(tick=0, channel=4, data=[58, 90]),
   midi.NoteOnEvent(tick=0, channel=4, data=[63, 86]),
   midi.NoteOnEvent(tick=0, channel=4, data=[67, 86]),
   midi.NoteOnEvent(tick=0, channel=4, data=[68, 0]),
   midi.NoteOnEvent(tick=0, channel=4, data=[70, 90]),
   midi.NoteOnEvent(tick=12, channel=4, data=[49, 0]),
   midi.NoteOnEvent(tick=0, channel=4, data=[61, 0]),
   midi.NoteOnEvent(tick=5, channel=4, data=[65, 0]),
   midi.NoteOnEvent(tick=943, channel=4, data=[67, 0]),
   midi.NoteOnEvent(tick=0, channel=4, data=[68, 86]),
   midi.NoteOnEvent(tick=872, channel=4, data=[58, 0]),
   midi.NoteOnEvent(tick=0, channel=4, data=[70, 0]),
   midi.NoteOnEvent(tick=75, channel=4, data=[68, 0]),
   midi.NoteOnEvent(tick=13, channel=4, data=[53, 91]),
   midi.NoteOnEvent(tick=0, channel=4, data=[60, 91]),
   midi.NoteOnEvent(tick=0, channel=4, data=[65, 91]),
   midi.NoteOnEvent(tick=0, channel=4, data=[68, 91]),
   midi.NoteOnEvent(tick=17, channel=4, data=[51, 0]),
   midi.NoteOnEvent(tick=0, channel=4, data=[63, 0]),
   midi.NoteOnEvent(tick=1889, channel=4, data=[53, 0]),
   midi.NoteOnEvent(tick=0, channel=4, data=[60, 0]),
   midi.NoteOnEvent(tick=0, channel=4, data=[65, 0]),
   midi.NoteOnEvent(tick=0, channel=4, data=[68, 0]),
   midi.NoteOnEvent(tick=14, channel=4, data=[51, 86]),
   midi.NoteOnEvent(tick=0, channel=4, data=[63, 86]),
   midi.NoteOnEvent(tick=0, channel=4, data=[67, 86]),
   midi.NoteOnEvent(tick=0, channel=4, data=[70, 86]),
   midi.NoteOnEvent(tick=1912, channel=4, data=[51, 0]),
   midi.NoteOnEvent(tick=0, channel=4, data=[63, 0]),
   midi.NoteOnEvent(tick=8, channel=4, data=[53, 91]),
   midi.NoteOnEvent(tick=0, channel=4, data=[63, 86]),
   midi.NoteOnEvent(tick=0, channel=4, data=[65, 86]),
   midi.NoteOnEvent(tick=0, channel=4, data=[68, 90]),
   midi.NoteOnEvent(tick=17, channel=4, data=[67, 0]),
   midi.NoteOnEvent(tick=0, channel=4, data=[70, 0]),
   midi.NoteOnEvent(tick=943, channel=4, data=[61, 86]),
   midi.NoteOnEvent(tick=0, channel=4, data=[63, 0]),
   midi.NoteOnEvent(tick=480, channel=4, data=[60, 86]),
   midi.NoteOnEvent(tick=0, channel=4, data=[61, 0]),
   midi.NoteOnEvent(tick=472, channel=4, data=[65, 0]),
   midi.NoteOnEvent(tick=4, channel=4, data=[68, 0]),
   midi.NoteOnEvent(tick=4, channel=4, data=[53, 0]),
   midi.NoteOnEvent(tick=0, channel=4, data=[56, 90]),
   midi.NoteOnEvent(tick=0, channel=4, data=[60, 0]),
   midi.NoteOnEvent(tick=0, channel=4, data=[61, 90]),
   midi.NoteOnEvent(tick=0, channel=4, data=[65, 90]),
   midi.NoteOnEvent(tick=0, channel=4, data=[68, 86]),
   midi.NoteOnEvent(tick=0, channel=4, data=[72, 90]),
   midi.NoteOnEvent(tick=957, channel=4, data=[56, 0]),
   midi.NoteOnEvent(tick=0, channel=4, data=[61, 0]),
   midi.NoteOnEvent(tick=0, channel=4, data=[65, 0]),
   midi.NoteOnEvent(tick=3, channel=4, data=[58, 90]),
   midi.NoteOnEvent(tick=0, channel=4, data=[63, 90]),
   midi.NoteOnEvent(tick=0, channel=4, data=[67, 90]),
   midi.NoteOnEvent(tick=0, channel=4, data=[68, 0]),
   midi.NoteOnEvent(tick=0, channel=4, data=[70, 90]),
   midi.NoteOnEvent(tick=0, channel=4, data=[72, 0]),
   midi.NoteOnEvent(tick=952, channel=4, data=[58, 0]),
   midi.NoteOnEvent(tick=0, channel=4, data=[63, 0]),
   midi.NoteOnEvent(tick=8, channel=4, data=[53, 91]),
   midi.NoteOnEvent(tick=0, channel=4, data=[65, 91]),
   midi.NoteOnEvent(tick=0, channel=4, data=[67, 0]),
   midi.NoteOnEvent(tick=0, channel=4, data=[68, 91]),
   midi.NoteOnEvent(tick=0, channel=4, data=[70, 0]),
   midi.NoteOnEvent(tick=0, channel=4, data=[72, 91]),
   midi.NoteOnEvent(tick=1906, channel=4, data=[53, 0]),
   midi.NoteOnEvent(tick=0, channel=4, data=[65, 0]),
   midi.NoteOnEvent(tick=0, channel=4, data=[68, 0]),
   midi.NoteOnEvent(tick=0, channel=4, data=[72, 0]),
   midi.NoteOnEvent(tick=14, channel=4, data=[51, 86]),
   midi.NoteOnEvent(tick=0, channel=4, data=[63, 86]),
   midi.NoteOnEvent(tick=0, channel=4, data=[67, 86]),
   midi.NoteOnEvent(tick=0, channel=4, data=[70, 86]),
   midi.NoteOnEvent(tick=1912, channel=4, data=[51, 0]),
   midi.NoteOnEvent(tick=0, channel=4, data=[63, 0]),
   midi.NoteOnEvent(tick=8, channel=4, data=[49, 90]),
   midi.NoteOnEvent(tick=0, channel=4, data=[61, 90]),
   midi.NoteOnEvent(tick=0, channel=4, data=[63, 86]),
   midi.NoteOnEvent(tick=0, channel=4, data=[65, 86]),
   midi.NoteOnEvent(tick=0, channel=4, data=[68, 90]),
   midi.NoteOnEvent(tick=17, channel=4, data=[67, 0]),
   midi.NoteOnEvent(tick=0, channel=4, data=[70, 0]),
   midi.NoteOnEvent(tick=1895, channel=4, data=[63, 0]),
   midi.NoteOnEvent(tick=8, channel=4, data=[51, 86]),
   midi.NoteOnEvent(tick=0, channel=4, data=[58, 90]),
   midi.NoteOnEvent(tick=0, channel=4, data=[63, 86]),
   midi.NoteOnEvent(tick=0, channel=4, data=[67, 86]),
   midi.NoteOnEvent(tick=0, channel=4, data=[68, 0]),
   midi.NoteOnEvent(tick=0, channel=4, data=[70, 90]),
   midi.NoteOnEvent(tick=12, channel=4, data=[49, 0]),
   midi.NoteOnEvent(tick=0, channel=4, data=[61, 0]),
   midi.NoteOnEvent(tick=5, channel=4, data=[65, 0]),
   midi.NoteOnEvent(tick=943, channel=4, data=[67, 0]),
   midi.NoteOnEvent(tick=0, channel=4, data=[68, 86]),
   midi.NoteOnEvent(tick=872, channel=4, data=[58, 0]),
   midi.NoteOnEvent(tick=0, channel=4, data=[70, 0]),
   midi.NoteOnEvent(tick=75, channel=4, data=[68, 0]),
   midi.NoteOnEvent(tick=13, channel=4, data=[53, 91]),
   midi.NoteOnEvent(tick=0, channel=4, data=[60, 91]),
   midi.NoteOnEvent(tick=0, channel=4, data=[65, 91]),
   midi.NoteOnEvent(tick=0, channel=4, data=[68, 91]),
   midi.NoteOnEvent(tick=17, channel=4, data=[51, 0]),
   midi.NoteOnEvent(tick=0, channel=4, data=[63, 0]),
   midi.NoteOnEvent(tick=1889, channel=4, data=[53, 0]),
   midi.NoteOnEvent(tick=0, channel=4, data=[60, 0]),
   midi.NoteOnEvent(tick=0, channel=4, data=[65, 0]),
   midi.NoteOnEvent(tick=0, channel=4, data=[68, 0]),
   midi.NoteOnEvent(tick=14, channel=4, data=[51, 86]),
   midi.NoteOnEvent(tick=0, channel=4, data=[63, 86]),
   midi.NoteOnEvent(tick=0, channel=4, data=[67, 86]),
   midi.NoteOnEvent(tick=0, channel=4, data=[70, 86]),
   midi.NoteOnEvent(tick=1912, channel=4, data=[51, 0]),
   midi.NoteOnEvent(tick=0, channel=4, data=[63, 0]),
   midi.NoteOnEvent(tick=8, channel=4, data=[53, 91]),
   midi.NoteOnEvent(tick=0, channel=4, data=[63, 86]),
   midi.NoteOnEvent(tick=0, channel=4, data=[65, 86]),
   midi.NoteOnEvent(tick=0, channel=4, data=[68, 90]),
   midi.NoteOnEvent(tick=17, channel=4, data=[67, 0]),
   midi.NoteOnEvent(tick=0, channel=4, data=[70, 0]),
   midi.NoteOnEvent(tick=943, channel=4, data=[61, 86]),
   midi.NoteOnEvent(tick=0, channel=4, data=[63, 0]),
   midi.NoteOnEvent(tick=480, channel=4, data=[60, 86]),
   midi.NoteOnEvent(tick=0, channel=4, data=[61, 0]),
   midi.NoteOnEvent(tick=472, channel=4, data=[65, 0]),
   midi.NoteOnEvent(tick=4, channel=4, data=[68, 0]),
   midi.NoteOnEvent(tick=4, channel=4, data=[53, 0]),
   midi.NoteOnEvent(tick=0, channel=4, data=[56, 90]),
   midi.NoteOnEvent(tick=0, channel=4, data=[60, 0]),
   midi.NoteOnEvent(tick=0, channel=4, data=[61, 90]),
   midi.NoteOnEvent(tick=0, channel=4, data=[65, 90]),
   midi.NoteOnEvent(tick=0, channel=4, data=[68, 86]),
   midi.NoteOnEvent(tick=0, channel=4, data=[72, 90]),
   midi.NoteOnEvent(tick=957, channel=4, data=[56, 0]),
   midi.NoteOnEvent(tick=0, channel=4, data=[61, 0]),
   midi.NoteOnEvent(tick=0, channel=4, data=[65, 0]),
   midi.NoteOnEvent(tick=3, channel=4, data=[58, 90]),
   midi.NoteOnEvent(tick=0, channel=4, data=[63, 90]),
   midi.NoteOnEvent(tick=0, channel=4, data=[67, 90]),
   midi.NoteOnEvent(tick=0, channel=4, data=[68, 0]),
   midi.NoteOnEvent(tick=0, channel=4, data=[70, 90]),
   midi.NoteOnEvent(tick=0, channel=4, data=[72, 0]),
   midi.NoteOnEvent(tick=952, channel=4, data=[58, 0]),
   midi.NoteOnEvent(tick=0, channel=4, data=[63, 0]),
   midi.NoteOnEvent(tick=8, channel=4, data=[44, 66]),
   midi.NoteOnEvent(tick=0, channel=4, data=[56, 66]),
   midi.NoteOnEvent(tick=0, channel=4, data=[60, 66]),
   midi.NoteOnEvent(tick=0, channel=4, data=[63, 66]),
   midi.NoteOnEvent(tick=0, channel=4, data=[67, 0]),
   midi.NoteOnEvent(tick=0, channel=4, data=[68, 66]),
   midi.NoteOnEvent(tick=0, channel=4, data=[70, 0]),
   midi.NoteOnEvent(tick=1912, channel=4, data=[56, 0]),
   midi.NoteOnEvent(tick=0, channel=4, data=[60, 0]),
   midi.NoteOnEvent(tick=0, channel=4, data=[63, 0]),
   midi.NoteOnEvent(tick=0, channel=4, data=[68, 0]),
   midi.NoteOnEvent(tick=8, channel=4, data=[55, 68]),
   midi.NoteOnEvent(tick=0, channel=4, data=[58, 66]),
   midi.NoteOnEvent(tick=0, channel=4, data=[63, 66]),
   midi.NoteOnEvent(tick=0, channel=4, data=[67, 68]),
   midi.NoteOnEvent(tick=1904, channel=4, data=[55, 0]),
   midi.NoteOnEvent(tick=0, channel=4, data=[67, 0]),
   midi.NoteOnEvent(tick=11, channel=4, data=[44, 0]),
   midi.NoteOnEvent(tick=5, channel=4, data=[44, 66]),
   midi.NoteOnEvent(tick=0, channel=4, data=[53, 67]),
   midi.NoteOnEvent(tick=0, channel=4, data=[56, 66]),
   midi.NoteOnEvent(tick=0, channel=4, data=[61, 66]),
   midi.NoteOnEvent(tick=0, channel=4, data=[65, 67]),
   midi.NoteOnEvent(tick=6, channel=4, data=[58, 0]),
   midi.NoteOnEvent(tick=0, channel=4, data=[63, 0]),
   midi.NoteOnEvent(tick=1909, channel=4, data=[53, 0]),
   midi.NoteOnEvent(tick=0, channel=4, data=[65, 0]),
   midi.NoteOnEvent(tick=5, channel=4, data=[55, 61]),
   midi.NoteOnEvent(tick=0, channel=4, data=[58, 66]),
   midi.NoteOnEvent(tick=0, channel=4, data=[63, 66]),
   midi.NoteOnEvent(tick=0, channel=4, data=[67, 61]),
   midi.NoteOnEvent(tick=6, channel=4, data=[56, 0]),
   midi.NoteOnEvent(tick=0, channel=4, data=[61, 0]),
   midi.NoteOnEvent(tick=1885, channel=4, data=[55, 0]),
   midi.NoteOnEvent(tick=0, channel=4, data=[67, 0]),
   midi.NoteOnEvent(tick=24, channel=4, data=[44, 0]),
   midi.NoteOnEvent(tick=5, channel=4, data=[44, 66]),
   midi.NoteOnEvent(tick=0, channel=4, data=[56, 66]),
   midi.NoteOnEvent(tick=0, channel=4, data=[60, 66]),
   midi.NoteOnEvent(tick=0, channel=4, data=[63, 0]),
   midi.NoteOnEvent(tick=0, channel=4, data=[63, 66]),
   midi.NoteOnEvent(tick=0, channel=4, data=[68, 66]),
   midi.NoteOnEvent(tick=6, channel=4, data=[58, 0]),
   midi.NoteOnEvent(tick=0, channel=4, data=[63, 0]),
   midi.NoteOnEvent(tick=1906, channel=4, data=[44, 0]),
   midi.NoteOnEvent(tick=0, channel=4, data=[56, 0]),
   midi.NoteOnEvent(tick=0, channel=4, data=[60, 0]),
   midi.NoteOnEvent(tick=0, channel=4, data=[68, 0]),
   midi.NoteOnEvent(tick=8, channel=4, data=[44, 66]),
   midi.NoteOnEvent(tick=0, channel=4, data=[55, 68]),
   midi.NoteOnEvent(tick=0, channel=4, data=[58, 66]),
   midi.NoteOnEvent(tick=0, channel=4, data=[63, 66]),
   midi.NoteOnEvent(tick=0, channel=4, data=[67, 68]),
   midi.NoteOnEvent(tick=1912, channel=4, data=[44, 0]),
   midi.NoteOnEvent(tick=0, channel=4, data=[55, 0]),
   midi.NoteOnEvent(tick=0, channel=4, data=[58, 0]),
   midi.NoteOnEvent(tick=0, channel=4, data=[63, 0]),
   midi.NoteOnEvent(tick=0, channel=4, data=[67, 0]),
   midi.NoteOnEvent(tick=8, channel=4, data=[44, 66]),
   midi.NoteOnEvent(tick=0, channel=4, data=[53, 67]),
   midi.NoteOnEvent(tick=0, channel=4, data=[56, 66]),
   midi.NoteOnEvent(tick=0, channel=4, data=[61, 66]),
   midi.NoteOnEvent(tick=0, channel=4, data=[65, 67]),
   midi.NoteOnEvent(tick=1912, channel=4, data=[44, 0]),
   midi.ControlChangeEvent(tick=8, channel=4, data=[11, 127]),
   midi.NoteOnEvent(tick=0, channel=4, data=[44, 61]),
   midi.ControlChangeEvent(tick=30, channel=4, data=[11, 126]),
   midi.ControlChangeEvent(tick=30, channel=4, data=[11, 125]),
   midi.ControlChangeEvent(tick=30, channel=4, data=[11, 124]),
   midi.ControlChangeEvent(tick=30, channel=4, data=[11, 123]),
   midi.ControlChangeEvent(tick=30, channel=4, data=[11, 122]),
   midi.ControlChangeEvent(tick=30, channel=4, data=[11, 121]),
   midi.ControlChangeEvent(tick=30, channel=4, data=[11, 120]),
   midi.ControlChangeEvent(tick=30, channel=4, data=[11, 119]),
   midi.ControlChangeEvent(tick=30, channel=4, data=[11, 118]),
   midi.ControlChangeEvent(tick=30, channel=4, data=[11, 117]),
   midi.ControlChangeEvent(tick=30, channel=4, data=[11, 116]),
   midi.ControlChangeEvent(tick=30, channel=4, data=[11, 115]),
   midi.ControlChangeEvent(tick=30, channel=4, data=[11, 114]),
   midi.ControlChangeEvent(tick=30, channel=4, data=[11, 113]),
   midi.ControlChangeEvent(tick=30, channel=4, data=[11, 111]),
   midi.ControlChangeEvent(tick=30, channel=4, data=[11, 110]),
   midi.ControlChangeEvent(tick=30, channel=4, data=[11, 109]),
   midi.ControlChangeEvent(tick=30, channel=4, data=[11, 108]),
   midi.ControlChangeEvent(tick=30, channel=4, data=[11, 107]),
   midi.ControlChangeEvent(tick=30, channel=4, data=[11, 106]),
   midi.ControlChangeEvent(tick=30, channel=4, data=[11, 105]),
   midi.ControlChangeEvent(tick=30, channel=4, data=[11, 104]),
   midi.ControlChangeEvent(tick=30, channel=4, data=[11, 103]),
   midi.ControlChangeEvent(tick=30, channel=4, data=[11, 102]),
   midi.ControlChangeEvent(tick=30, channel=4, data=[11, 101]),
   midi.ControlChangeEvent(tick=30, channel=4, data=[11, 100]),
   midi.ControlChangeEvent(tick=30, channel=4, data=[11, 99]),
   midi.ControlChangeEvent(tick=30, channel=4, data=[11, 98]),
   midi.ControlChangeEvent(tick=30, channel=4, data=[11, 96]),
   midi.ControlChangeEvent(tick=30, channel=4, data=[11, 95]),
   midi.ControlChangeEvent(tick=30, channel=4, data=[11, 94]),
   midi.ControlChangeEvent(tick=30, channel=4, data=[11, 93]),
   midi.NoteOnEvent(tick=0, channel=4, data=[53, 0]),
   midi.NoteOnEvent(tick=0, channel=4, data=[56, 0]),
   midi.NoteOnEvent(tick=0, channel=4, data=[61, 0]),
   midi.NoteOnEvent(tick=0, channel=4, data=[65, 0]),
   midi.ControlChangeEvent(tick=30, channel=4, data=[11, 92]),
   midi.ControlChangeEvent(tick=30, channel=4, data=[11, 91]),
   midi.ControlChangeEvent(tick=30, channel=4, data=[11, 90]),
   midi.ControlChangeEvent(tick=30, channel=4, data=[11, 89]),
   midi.ControlChangeEvent(tick=30, channel=4, data=[11, 88]),
   midi.ControlChangeEvent(tick=30, channel=4, data=[11, 87]),
   midi.ControlChangeEvent(tick=30, channel=4, data=[11, 86]),
   midi.ControlChangeEvent(tick=30, channel=4, data=[11, 85]),
   midi.ControlChangeEvent(tick=30, channel=4, data=[11, 84]),
   midi.ControlChangeEvent(tick=30, channel=4, data=[11, 83]),
   midi.ControlChangeEvent(tick=30, channel=4, data=[11, 82]),
   midi.ControlChangeEvent(tick=30, channel=4, data=[11, 80]),
   midi.ControlChangeEvent(tick=30, channel=4, data=[11, 79]),
   midi.ControlChangeEvent(tick=30, channel=4, data=[11, 78]),
   midi.ControlChangeEvent(tick=30, channel=4, data=[11, 77]),
   midi.ControlChangeEvent(tick=30, channel=4, data=[11, 76]),
   midi.ControlChangeEvent(tick=30, channel=4, data=[11, 75]),
   midi.ControlChangeEvent(tick=30, channel=4, data=[11, 74]),
   midi.ControlChangeEvent(tick=30, channel=4, data=[11, 75]),
   midi.NoteOnEvent(tick=540, channel=4, data=[44, 0]),
   midi.EndOfTrackEvent(tick=1776, data=[])]),
 midi.Track(\
  [midi.ChannelPrefixEvent(tick=0, data=[5]),
   midi.TrackNameEvent(tick=0, text="My Heart Will Go On (Iz Filma 'Titanik') 02 (Karaoke)", data=[77, 121, 32, 72, 101, 97, 114, 116, 32, 87, 105, 108, 108, 32, 71, 111, 32, 79, 110, 32, 40, 73, 122, 32, 70, 105, 108, 109, 97, 32, 39, 84, 105, 116, 97, 110, 105, 107, 39, 41, 32, 48, 50, 32, 40, 75, 97, 114, 97, 111, 107, 101, 41]),
   midi.InstrumentNameEvent(tick=0, text='\xe5\xbc\xa6\xe4\xb9\x90\xe5\x90\x88\xe5\xa5\x8f', data=[229, 188, 166, 228, 185, 144, 229, 144, 136, 229, 165, 143]),
   midi.ControlChangeEvent(tick=183, channel=5, data=[121, 0]),
   midi.ProgramChangeEvent(tick=331, channel=5, data=[48]),
   midi.ControlChangeEvent(tick=1, channel=5, data=[7, 92]),
   midi.ControlChangeEvent(tick=0, channel=5, data=[10, 64]),
   midi.ControlChangeEvent(tick=73, channel=5, data=[91, 100]),
   midi.ControlChangeEvent(tick=3, channel=5, data=[93, 50]),
   midi.ControlChangeEvent(tick=17, channel=5, data=[11, 127]),
   midi.ControlChangeEvent(tick=443, channel=5, data=[100, 0]),
   midi.ControlChangeEvent(tick=4, channel=5, data=[101, 0]),
   midi.ControlChangeEvent(tick=9, channel=5, data=[6, 2]),
   midi.ControlChangeEvent(tick=1336, channel=5, data=[72, 70]),
   midi.ControlChangeEvent(tick=8, channel=5, data=[98, 102]),
   midi.ControlChangeEvent(tick=3, channel=5, data=[99, 1]),
   midi.ControlChangeEvent(tick=4, channel=5, data=[6, 70]),
   midi.ControlChangeEvent(tick=1424, channel=5, data=[11, 0]),
   midi.NoteOnEvent(tick=59, channel=5, data=[88, 46]),
   midi.ControlChangeEvent(tick=2, channel=5, data=[11, 1]),
   midi.ControlChangeEvent(tick=30, channel=5, data=[11, 2]),
   midi.ControlChangeEvent(tick=30, channel=5, data=[11, 3]),
   midi.ControlChangeEvent(tick=60, channel=5, data=[11, 4]),
   midi.ControlChangeEvent(tick=30, channel=5, data=[11, 5]),
   midi.ControlChangeEvent(tick=30, channel=5, data=[11, 6]),
   midi.ControlChangeEvent(tick=30, channel=5, data=[11, 7]),
   midi.ControlChangeEvent(tick=60, channel=5, data=[11, 8]),
   midi.ControlChangeEvent(tick=30, channel=5, data=[11, 9]),
   midi.ControlChangeEvent(tick=30, channel=5, data=[11, 10]),
   midi.ControlChangeEvent(tick=60, channel=5, data=[11, 11]),
   midi.ControlChangeEvent(tick=30, channel=5, data=[11, 12]),
   midi.ControlChangeEvent(tick=30, channel=5, data=[11, 13]),
   midi.ControlChangeEvent(tick=30, channel=5, data=[11, 14]),
   midi.ControlChangeEvent(tick=60, channel=5, data=[11, 15]),
   midi.ControlChangeEvent(tick=30, channel=5, data=[11, 16]),
   midi.ControlChangeEvent(tick=30, channel=5, data=[11, 17]),
   midi.ControlChangeEvent(tick=30, channel=5, data=[11, 18]),
   midi.ControlChangeEvent(tick=60, channel=5, data=[11, 19]),
   midi.ControlChangeEvent(tick=30, channel=5, data=[11, 20]),
   midi.ControlChangeEvent(tick=30, channel=5, data=[11, 21]),
   midi.ControlChangeEvent(tick=60, channel=5, data=[11, 22]),
   midi.ControlChangeEvent(tick=30, channel=5, data=[11, 23]),
   midi.ControlChangeEvent(tick=30, channel=5, data=[11, 24]),
   midi.ControlChangeEvent(tick=30, channel=5, data=[11, 25]),
   midi.ControlChangeEvent(tick=60, channel=5, data=[11, 26]),
   midi.ControlChangeEvent(tick=30, channel=5, data=[11, 27]),
   midi.ControlChangeEvent(tick=30, channel=5, data=[11, 28]),
   midi.ControlChangeEvent(tick=30, channel=5, data=[11, 29]),
   midi.ControlChangeEvent(tick=60, channel=5, data=[11, 30]),
   midi.ControlChangeEvent(tick=30, channel=5, data=[11, 31]),
   midi.ControlChangeEvent(tick=30, channel=5, data=[11, 32]),
   midi.ControlChangeEvent(tick=60, channel=5, data=[11, 33]),
   midi.ControlChangeEvent(tick=30, channel=5, data=[11, 34]),
   midi.ControlChangeEvent(tick=30, channel=5, data=[11, 35]),
   midi.ControlChangeEvent(tick=30, channel=5, data=[11, 36]),
   midi.ControlChangeEvent(tick=60, channel=5, data=[11, 37]),
   midi.ControlChangeEvent(tick=30, channel=5, data=[11, 38]),
   midi.ControlChangeEvent(tick=30, channel=5, data=[11, 39]),
   midi.ControlChangeEvent(tick=30, channel=5, data=[11, 40]),
   midi.ControlChangeEvent(tick=60, channel=5, data=[11, 41]),
   midi.ControlChangeEvent(tick=30, channel=5, data=[11, 42]),
   midi.ControlChangeEvent(tick=30, channel=5, data=[11, 43]),
   midi.ControlChangeEvent(tick=60, channel=5, data=[11, 44]),
   midi.ControlChangeEvent(tick=30, channel=5, data=[11, 45]),
   midi.ControlChangeEvent(tick=30, channel=5, data=[11, 46]),
   midi.ControlChangeEvent(tick=30, channel=5, data=[11, 47]),
   midi.ControlChangeEvent(tick=60, channel=5, data=[11, 48]),
   midi.ControlChangeEvent(tick=30, channel=5, data=[11, 49]),
   midi.ControlChangeEvent(tick=30, channel=5, data=[11, 50]),
   midi.ControlChangeEvent(tick=30, channel=5, data=[11, 51]),
   midi.ControlChangeEvent(tick=60, channel=5, data=[11, 52]),
   midi.ControlChangeEvent(tick=30, channel=5, data=[11, 53]),
   midi.ControlChangeEvent(tick=30, channel=5, data=[11, 54]),
   midi.ControlChangeEvent(tick=60, channel=5, data=[11, 55]),
   midi.ControlChangeEvent(tick=30, channel=5, data=[11, 56]),
   midi.ControlChangeEvent(tick=30, channel=5, data=[11, 57]),
   midi.ControlChangeEvent(tick=30, channel=5, data=[11, 58]),
   midi.ControlChangeEvent(tick=60, channel=5, data=[11, 59]),
   midi.ControlChangeEvent(tick=30, channel=5, data=[11, 60]),
   midi.ControlChangeEvent(tick=30, channel=5, data=[11, 61]),
   midi.ControlChangeEvent(tick=30, channel=5, data=[11, 62]),
   midi.ControlChangeEvent(tick=60, channel=5, data=[11, 63]),
   midi.ControlChangeEvent(tick=30, channel=5, data=[11, 64]),
   midi.ControlChangeEvent(tick=30, channel=5, data=[11, 65]),
   midi.ControlChangeEvent(tick=60, channel=5, data=[11, 66]),
   midi.ControlChangeEvent(tick=30, channel=5, data=[11, 67]),
   midi.ControlChangeEvent(tick=30, channel=5, data=[11, 68]),
   midi.ControlChangeEvent(tick=30, channel=5, data=[11, 69]),
   midi.ControlChangeEvent(tick=60, channel=5, data=[11, 70]),
   midi.ControlChangeEvent(tick=30, channel=5, data=[11, 71]),
   midi.ControlChangeEvent(tick=30, channel=5, data=[11, 72]),
   midi.ControlChangeEvent(tick=30, channel=5, data=[11, 73]),
   midi.ControlChangeEvent(tick=60, channel=5, data=[11, 74]),
   midi.ControlChangeEvent(tick=30, channel=5, data=[11, 75]),
   midi.ControlChangeEvent(tick=30, channel=5, data=[11, 76]),
   midi.ControlChangeEvent(tick=60, channel=5, data=[11, 77]),
   midi.ControlChangeEvent(tick=30, channel=5, data=[11, 78]),
   midi.ControlChangeEvent(tick=30, channel=5, data=[11, 79]),
   midi.ControlChangeEvent(tick=30, channel=5, data=[11, 80]),
   midi.ControlChangeEvent(tick=60, channel=5, data=[11, 81]),
   midi.ControlChangeEvent(tick=30, channel=5, data=[11, 82]),
   midi.ControlChangeEvent(tick=30, channel=5, data=[11, 83]),
   midi.ControlChangeEvent(tick=30, channel=5, data=[11, 84]),
   midi.ControlChangeEvent(tick=60, channel=5, data=[11, 85]),
   midi.ControlChangeEvent(tick=30, channel=5, data=[11, 86]),
   midi.ControlChangeEvent(tick=30, channel=5, data=[11, 87]),
   midi.ControlChangeEvent(tick=60, channel=5, data=[11, 88]),
   midi.ControlChangeEvent(tick=30, channel=5, data=[11, 89]),
   midi.ControlChangeEvent(tick=30, channel=5, data=[11, 90]),
   midi.ControlChangeEvent(tick=30, channel=5, data=[11, 91]),
   midi.ControlChangeEvent(tick=60, channel=5, data=[11, 92]),
   midi.ControlChangeEvent(tick=30, channel=5, data=[11, 93]),
   midi.ControlChangeEvent(tick=30, channel=5, data=[11, 94]),
   midi.ControlChangeEvent(tick=30, channel=5, data=[11, 95]),
   midi.ControlChangeEvent(tick=60, channel=5, data=[11, 96]),
   midi.ControlChangeEvent(tick=30, channel=5, data=[11, 97]),
   midi.ControlChangeEvent(tick=30, channel=5, data=[11, 98]),
   midi.ControlChangeEvent(tick=60, channel=5, data=[11, 99]),
   midi.ControlChangeEvent(tick=30, channel=5, data=[11, 100]),
   midi.ControlChangeEvent(tick=30, channel=5, data=[11, 101]),
   midi.ControlChangeEvent(tick=30, channel=5, data=[11, 102]),
   midi.ControlChangeEvent(tick=60, channel=5, data=[11, 103]),
   midi.ControlChangeEvent(tick=30, channel=5, data=[11, 104]),
   midi.ControlChangeEvent(tick=30, channel=5, data=[11, 105]),
   midi.ControlChangeEvent(tick=30, channel=5, data=[11, 106]),
   midi.ControlChangeEvent(tick=60, channel=5, data=[11, 107]),
   midi.ControlChangeEvent(tick=30, channel=5, data=[11, 108]),
   midi.ControlChangeEvent(tick=30, channel=5, data=[11, 109]),
   midi.ControlChangeEvent(tick=60, channel=5, data=[11, 110]),
   midi.ControlChangeEvent(tick=30, channel=5, data=[11, 111]),
   midi.ControlChangeEvent(tick=30, channel=5, data=[11, 112]),
   midi.ControlChangeEvent(tick=30, channel=5, data=[11, 113]),
   midi.ControlChangeEvent(tick=60, channel=5, data=[11, 114]),
   midi.ControlChangeEvent(tick=30, channel=5, data=[11, 115]),
   midi.ControlChangeEvent(tick=30, channel=5, data=[11, 116]),
   midi.ControlChangeEvent(tick=30, channel=5, data=[11, 117]),
   midi.ControlChangeEvent(tick=60, channel=5, data=[11, 118]),
   midi.ControlChangeEvent(tick=30, channel=5, data=[11, 119]),
   midi.ControlChangeEvent(tick=30, channel=5, data=[11, 120]),
   midi.ControlChangeEvent(tick=60, channel=5, data=[11, 121]),
   midi.ControlChangeEvent(tick=30, channel=5, data=[11, 122]),
   midi.ControlChangeEvent(tick=30, channel=5, data=[11, 123]),
   midi.ControlChangeEvent(tick=30, channel=5, data=[11, 124]),
   midi.ControlChangeEvent(tick=60, channel=5, data=[11, 125]),
   midi.ControlChangeEvent(tick=30, channel=5, data=[11, 126]),
   midi.ControlChangeEvent(tick=30, channel=5, data=[11, 127]),
   midi.NoteOnEvent(tick=2708, channel=5, data=[88, 0]),
   midi.ControlChangeEvent(tick=112, channel=5, data=[11, 69]),
   midi.NoteOnEvent(tick=58, channel=5, data=[88, 46]),
   midi.ControlChangeEvent(tick=62, channel=5, data=[11, 70]),
   midi.ControlChangeEvent(tick=120, channel=5, data=[11, 72]),
   midi.ControlChangeEvent(tick=120, channel=5, data=[11, 73]),
   midi.ControlChangeEvent(tick=120, channel=5, data=[11, 75]),
   midi.ControlChangeEvent(tick=120, channel=5, data=[11, 76]),
   midi.ControlChangeEvent(tick=120, channel=5, data=[11, 78]),
   midi.ControlChangeEvent(tick=120, channel=5, data=[11, 79]),
   midi.ControlChangeEvent(tick=120, channel=5, data=[11, 81]),
   midi.ControlChangeEvent(tick=120, channel=5, data=[11, 82]),
   midi.ControlChangeEvent(tick=120, channel=5, data=[11, 84]),
   midi.ControlChangeEvent(tick=120, channel=5, data=[11, 85]),
   midi.ControlChangeEvent(tick=120, channel=5, data=[11, 87]),
   midi.ControlChangeEvent(tick=120, channel=5, data=[11, 88]),
   midi.ControlChangeEvent(tick=120, channel=5, data=[11, 90]),
   midi.ControlChangeEvent(tick=120, channel=5, data=[11, 91]),
   midi.ControlChangeEvent(tick=120, channel=5, data=[11, 93]),
   midi.ControlChangeEvent(tick=120, channel=5, data=[11, 94]),
   midi.ControlChangeEvent(tick=120, channel=5, data=[11, 96]),
   midi.ControlChangeEvent(tick=120, channel=5, data=[11, 97]),
   midi.ControlChangeEvent(tick=120, channel=5, data=[11, 99]),
   midi.ControlChangeEvent(tick=120, channel=5, data=[11, 100]),
   midi.ControlChangeEvent(tick=120, channel=5, data=[11, 102]),
   midi.ControlChangeEvent(tick=120, channel=5, data=[11, 103]),
   midi.ControlChangeEvent(tick=120, channel=5, data=[11, 105]),
   midi.ControlChangeEvent(tick=120, channel=5, data=[11, 106]),
   midi.ControlChangeEvent(tick=120, channel=5, data=[11, 108]),
   midi.ControlChangeEvent(tick=120, channel=5, data=[11, 109]),
   midi.ControlChangeEvent(tick=120, channel=5, data=[11, 111]),
   midi.ControlChangeEvent(tick=120, channel=5, data=[11, 112]),
   midi.ControlChangeEvent(tick=120, channel=5, data=[11, 114]),
   midi.ControlChangeEvent(tick=120, channel=5, data=[11, 115]),
   midi.ControlChangeEvent(tick=120, channel=5, data=[11, 117]),
   midi.ControlChangeEvent(tick=120, channel=5, data=[11, 118]),
   midi.ControlChangeEvent(tick=120, channel=5, data=[11, 120]),
   midi.ControlChangeEvent(tick=120, channel=5, data=[11, 121]),
   midi.ControlChangeEvent(tick=120, channel=5, data=[11, 123]),
   midi.ControlChangeEvent(tick=120, channel=5, data=[11, 124]),
   midi.ControlChangeEvent(tick=120, channel=5, data=[11, 126]),
   midi.ControlChangeEvent(tick=120, channel=5, data=[11, 127]),
   midi.ControlChangeEvent(tick=30, channel=5, data=[11, 123]),
   midi.ControlChangeEvent(tick=30, channel=5, data=[11, 124]),
   midi.ControlChangeEvent(tick=60, channel=5, data=[11, 125]),
   midi.ControlChangeEvent(tick=30, channel=5, data=[11, 126]),
   midi.ControlChangeEvent(tick=30, channel=5, data=[11, 127]),
   midi.NoteOnEvent(tick=2708, channel=5, data=[88, 0]),
   midi.NoteOnEvent(tick=107, channel=5, data=[64, 56]),
   midi.ControlChangeEvent(tick=510, channel=5, data=[11, 125]),
   midi.ControlChangeEvent(tick=30, channel=5, data=[11, 123]),
   midi.ControlChangeEvent(tick=30, channel=5, data=[11, 122]),
   midi.ControlChangeEvent(tick=30, channel=5, data=[11, 121]),
   midi.ControlChangeEvent(tick=30, channel=5, data=[11, 119]),
   midi.ControlChangeEvent(tick=30, channel=5, data=[11, 118]),
   midi.ControlChangeEvent(tick=30, channel=5, data=[11, 116]),
   midi.ControlChangeEvent(tick=30, channel=5, data=[11, 115]),
   midi.ControlChangeEvent(tick=30, channel=5, data=[11, 113]),
   midi.ControlChangeEvent(tick=30, channel=5, data=[11, 112]),
   midi.ControlChangeEvent(tick=30, channel=5, data=[11, 110]),
   midi.ControlChangeEvent(tick=30, channel=5, data=[11, 109]),
   midi.ControlChangeEvent(tick=30, channel=5, data=[11, 108]),
   midi.ControlChangeEvent(tick=30, channel=5, data=[11, 106]),
   midi.ControlChangeEvent(tick=30, channel=5, data=[11, 105]),
   midi.ControlChangeEvent(tick=30, channel=5, data=[11, 103]),
   midi.ControlChangeEvent(tick=30, channel=5, data=[11, 102]),
   midi.ControlChangeEvent(tick=30, channel=5, data=[11, 100]),
   midi.ControlChangeEvent(tick=30, channel=5, data=[11, 99]),
   midi.ControlChangeEvent(tick=30, channel=5, data=[11, 97]),
   midi.ControlChangeEvent(tick=30, channel=5, data=[11, 96]),
   midi.ControlChangeEvent(tick=30, channel=5, data=[11, 94]),
   midi.ControlChangeEvent(tick=30, channel=5, data=[11, 93]),
   midi.ControlChangeEvent(tick=30, channel=5, data=[11, 92]),
   midi.ControlChangeEvent(tick=30, channel=5, data=[11, 90]),
   midi.ControlChangeEvent(tick=30, channel=5, data=[11, 89]),
   midi.ControlChangeEvent(tick=30, channel=5, data=[11, 87]),
   midi.ControlChangeEvent(tick=30, channel=5, data=[11, 86]),
   midi.ControlChangeEvent(tick=30, channel=5, data=[11, 84]),
   midi.ControlChangeEvent(tick=30, channel=5, data=[11, 83]),
   midi.ControlChangeEvent(tick=30, channel=5, data=[11, 81]),
   midi.ControlChangeEvent(tick=30, channel=5, data=[11, 80]),
   midi.ControlChangeEvent(tick=30, channel=5, data=[11, 78]),
   midi.ControlChangeEvent(tick=30, channel=5, data=[11, 77]),
   midi.ControlChangeEvent(tick=30, channel=5, data=[11, 76]),
   midi.ControlChangeEvent(tick=30, channel=5, data=[11, 74]),
   midi.NoteOnEvent(tick=0, channel=5, data=[64, 0]),
   midi.ControlChangeEvent(tick=30, channel=5, data=[11, 73]),
   midi.ControlChangeEvent(tick=240, channel=5, data=[11, 127]),
   midi.ControlChangeEvent(tick=10650, channel=5, data=[11, 0]),
   midi.ControlChangeEvent(tick=30, channel=5, data=[11, 1]),
   midi.ControlChangeEvent(tick=30, channel=5, data=[11, 3]),
   midi.ControlChangeEvent(tick=30, channel=5, data=[11, 4]),
   midi.ControlChangeEvent(tick=30, channel=5, data=[11, 6]),
   midi.ControlChangeEvent(tick=30, channel=5, data=[11, 8]),
   midi.ControlChangeEvent(tick=30, channel=5, data=[11, 9]),
   midi.ControlChangeEvent(tick=30, channel=5, data=[11, 11]),
   midi.ControlChangeEvent(tick=30, channel=5, data=[11, 13]),
   midi.ControlChangeEvent(tick=30, channel=5, data=[11, 14]),
   midi.ControlChangeEvent(tick=30, channel=5, data=[11, 16]),
   midi.ControlChangeEvent(tick=30, channel=5, data=[11, 18]),
   midi.ControlChangeEvent(tick=30, channel=5, data=[11, 19]),
   midi.ControlChangeEvent(tick=30, channel=5, data=[11, 21]),
   midi.ControlChangeEvent(tick=30, channel=5, data=[11, 22]),
   midi.ControlChangeEvent(tick=30, channel=5, data=[11, 24]),
   midi.ControlChangeEvent(tick=30, channel=5, data=[11, 26]),
   midi.ControlChangeEvent(tick=30, channel=5, data=[11, 27]),
   midi.ControlChangeEvent(tick=30, channel=5, data=[11, 29]),
   midi.ControlChangeEvent(tick=30, channel=5, data=[11, 31]),
   midi.ControlChangeEvent(tick=30, channel=5, data=[11, 32]),
   midi.ControlChangeEvent(tick=30, channel=5, data=[11, 34]),
   midi.ControlChangeEvent(tick=30, channel=5, data=[11, 36]),
   midi.ControlChangeEvent(tick=30, channel=5, data=[11, 37]),
   midi.ControlChangeEvent(tick=30, channel=5, data=[11, 39]),
   midi.ControlChangeEvent(tick=30, channel=5, data=[11, 41]),
   midi.ControlChangeEvent(tick=30, channel=5, data=[11, 42]),
   midi.ControlChangeEvent(tick=30, channel=5, data=[11, 44]),
   midi.ControlChangeEvent(tick=30, channel=5, data=[11, 45]),
   midi.ControlChangeEvent(tick=30, channel=5, data=[11, 47]),
   midi.ControlChangeEvent(tick=30, channel=5, data=[11, 49]),
   midi.ControlChangeEvent(tick=30, channel=5, data=[11, 50]),
   midi.ControlChangeEvent(tick=30, channel=5, data=[11, 52]),
   midi.NoteOnEvent(tick=0, channel=5, data=[57, 44]),
   midi.NoteOnEvent(tick=0, channel=5, data=[59, 41]),
   midi.NoteOnEvent(tick=0, channel=5, data=[61, 24]),
   midi.NoteOnEvent(tick=0, channel=5, data=[64, 41]),
   midi.ControlChangeEvent(tick=30, channel=5, data=[11, 54]),
   midi.ControlChangeEvent(tick=30, channel=5, data=[11, 55]),
   midi.ControlChangeEvent(tick=30, channel=5, data=[11, 57]),
   midi.ControlChangeEvent(tick=30, channel=5, data=[11, 59]),
   midi.ControlChangeEvent(tick=30, channel=5, data=[11, 60]),
   midi.ControlChangeEvent(tick=30, channel=5, data=[11, 62]),
   midi.ControlChangeEvent(tick=30, channel=5, data=[11, 63]),
   midi.ControlChangeEvent(tick=30, channel=5, data=[11, 65]),
   midi.ControlChangeEvent(tick=30, channel=5, data=[11, 67]),
   midi.ControlChangeEvent(tick=30, channel=5, data=[11, 68]),
   midi.ControlChangeEvent(tick=30, channel=5, data=[11, 70]),
   midi.ControlChangeEvent(tick=30, channel=5, data=[11, 72]),
   midi.ControlChangeEvent(tick=30, channel=5, data=[11, 73]),
   midi.ControlChangeEvent(tick=30, channel=5, data=[11, 75]),
   midi.ControlChangeEvent(tick=30, channel=5, data=[11, 77]),
   midi.ControlChangeEvent(tick=30, channel=5, data=[11, 78]),
   midi.ControlChangeEvent(tick=30, channel=5, data=[11, 80]),
   midi.ControlChangeEvent(tick=30, channel=5, data=[11, 82]),
   midi.ControlChangeEvent(tick=30, channel=5, data=[11, 83]),
   midi.ControlChangeEvent(tick=30, channel=5, data=[11, 85]),
   midi.ControlChangeEvent(tick=30, channel=5, data=[11, 86]),
   midi.ControlChangeEvent(tick=30, channel=5, data=[11, 88]),
   midi.ControlChangeEvent(tick=30, channel=5, data=[11, 90]),
   midi.ControlChangeEvent(tick=30, channel=5, data=[11, 91]),
   midi.ControlChangeEvent(tick=30, channel=5, data=[11, 93]),
   midi.ControlChangeEvent(tick=30, channel=5, data=[11, 95]),
   midi.ControlChangeEvent(tick=30, channel=5, data=[11, 96]),
   midi.ControlChangeEvent(tick=30, channel=5, data=[11, 98]),
   midi.ControlChangeEvent(tick=30, channel=5, data=[11, 100]),
   midi.ControlChangeEvent(tick=30, channel=5, data=[11, 101]),
   midi.ControlChangeEvent(tick=30, channel=5, data=[11, 103]),
   midi.ControlChangeEvent(tick=30, channel=5, data=[11, 105]),
   midi.ControlChangeEvent(tick=30, channel=5, data=[11, 106]),
   midi.ControlChangeEvent(tick=30, channel=5, data=[11, 108]),
   midi.ControlChangeEvent(tick=30, channel=5, data=[11, 109]),
   midi.ControlChangeEvent(tick=30, channel=5, data=[11, 111]),
   midi.ControlChangeEvent(tick=30, channel=5, data=[11, 113]),
   midi.ControlChangeEvent(tick=30, channel=5, data=[11, 114]),
   midi.ControlChangeEvent(tick=30, channel=5, data=[11, 116]),
   midi.ControlChangeEvent(tick=30, channel=5, data=[11, 118]),
   midi.ControlChangeEvent(tick=30, channel=5, data=[11, 119]),
   midi.ControlChangeEvent(tick=30, channel=5, data=[11, 121]),
   midi.ControlChangeEvent(tick=30, channel=5, data=[11, 123]),
   midi.ControlChangeEvent(tick=30, channel=5, data=[11, 124]),
   midi.ControlChangeEvent(tick=30, channel=5, data=[11, 126]),
   midi.NoteOnEvent(tick=520, channel=5, data=[59, 0]),
   midi.NoteOnEvent(tick=6, channel=5, data=[61, 0]),
   midi.NoteOnEvent(tick=12, channel=5, data=[57, 0]),
   midi.NoteOnEvent(tick=8, channel=5, data=[64, 0]),
   midi.NoteOnEvent(tick=24, channel=5, data=[56, 36]),
   midi.NoteOnEvent(tick=0, channel=5, data=[64, 36]),
   midi.NoteOnEvent(tick=0, channel=5, data=[68, 36]),
   midi.NoteOnEvent(tick=0, channel=5, data=[76, 36]),
   midi.NoteOnEvent(tick=1678, channel=5, data=[64, 0]),
   midi.NoteOnEvent(tick=2, channel=5, data=[64, 36]),
   midi.NoteOnEvent(tick=196, channel=5, data=[56, 0]),
   midi.NoteOnEvent(tick=0, channel=5, data=[68, 0]),
   midi.NoteOnEvent(tick=0, channel=5, data=[76, 0]),
   midi.NoteOnEvent(tick=44, channel=5, data=[54, 36]),
   midi.NoteOnEvent(tick=0, channel=5, data=[63, 36]),
   midi.NoteOnEvent(tick=0, channel=5, data=[64, 0]),
   midi.NoteOnEvent(tick=0, channel=5, data=[66, 36]),
   midi.NoteOnEvent(tick=0, channel=5, data=[75, 36]),
   midi.NoteOnEvent(tick=1876, channel=5, data=[54, 0]),
   midi.NoteOnEvent(tick=0, channel=5, data=[63, 0]),
   midi.NoteOnEvent(tick=0, channel=5, data=[66, 0]),
   midi.NoteOnEvent(tick=0, channel=5, data=[75, 0]),
   midi.NoteOnEvent(tick=44, channel=5, data=[52, 36]),
   midi.NoteOnEvent(tick=0, channel=5, data=[59, 36]),
   midi.NoteOnEvent(tick=0, channel=5, data=[64, 36]),
   midi.NoteOnEvent(tick=0, channel=5, data=[71, 36]),
   midi.NoteOnEvent(tick=1876, channel=5, data=[52, 0]),
   midi.NoteOnEvent(tick=0, channel=5, data=[59, 0]),
   midi.NoteOnEvent(tick=0, channel=5, data=[64, 0]),
   midi.NoteOnEvent(tick=0, channel=5, data=[71, 0]),
   midi.NoteOnEvent(tick=44, channel=5, data=[52, 46]),
   midi.NoteOnEvent(tick=0, channel=5, data=[59, 46]),
   midi.NoteOnEvent(tick=0, channel=5, data=[64, 46]),
   midi.NoteOnEvent(tick=0, channel=5, data=[68, 46]),
   midi.NoteOnEvent(tick=960, channel=5, data=[52, 0]),
   midi.NoteOnEvent(tick=0, channel=5, data=[54, 49]),
   midi.NoteOnEvent(tick=0, channel=5, data=[63, 49]),
   midi.NoteOnEvent(tick=0, channel=5, data=[64, 0]),
   midi.NoteOnEvent(tick=0, channel=5, data=[66, 49]),
   midi.NoteOnEvent(tick=0, channel=5, data=[68, 0]),
   midi.NoteOnEvent(tick=480, channel=5, data=[52, 59]),
   midi.NoteOnEvent(tick=0, channel=5, data=[54, 0]),
   midi.NoteOnEvent(tick=240, channel=5, data=[52, 0]),
   midi.NoteOnEvent(tick=0, channel=5, data=[54, 66]),
   midi.NoteOnEvent(tick=238, channel=5, data=[59, 0]),
   midi.NoteOnEvent(tick=2, channel=5, data=[54, 0]),
   midi.NoteOnEvent(tick=0, channel=5, data=[56, 36]),
   midi.NoteOnEvent(tick=0, channel=5, data=[59, 36]),
   midi.NoteOnEvent(tick=0, channel=5, data=[63, 0]),
   midi.NoteOnEvent(tick=0, channel=5, data=[64, 36]),
   midi.NoteOnEvent(tick=0, channel=5, data=[66, 0]),
   midi.NoteOnEvent(tick=1678, channel=5, data=[64, 0]),
   midi.NoteOnEvent(tick=2, channel=5, data=[64, 36]),
   midi.NoteOnEvent(tick=196, channel=5, data=[56, 0]),
   midi.NoteOnEvent(tick=0, channel=5, data=[59, 0]),
   midi.NoteOnEvent(tick=44, channel=5, data=[54, 36]),
   midi.NoteOnEvent(tick=0, channel=5, data=[59, 36]),
   midi.NoteOnEvent(tick=0, channel=5, data=[63, 36]),
   midi.NoteOnEvent(tick=0, channel=5, data=[64, 0]),
   midi.NoteOnEvent(tick=1876, channel=5, data=[54, 0]),
   midi.NoteOnEvent(tick=0, channel=5, data=[59, 0]),
   midi.NoteOnEvent(tick=0, channel=5, data=[63, 0]),
   midi.NoteOnEvent(tick=44, channel=5, data=[52, 36]),
   midi.NoteOnEvent(tick=0, channel=5, data=[57, 36]),
   midi.NoteOnEvent(tick=0, channel=5, data=[59, 36]),
   midi.NoteOnEvent(tick=0, channel=5, data=[64, 36]),
   midi.NoteOnEvent(tick=0, channel=5, data=[88, 26]),
   midi.NoteOnEvent(tick=3780, channel=5, data=[88, 0]),
   midi.NoteOnEvent(tick=30, channel=5, data=[52, 0]),
   midi.NoteOnEvent(tick=0, channel=5, data=[57, 0]),
   midi.NoteOnEvent(tick=0, channel=5, data=[59, 0]),
   midi.NoteOnEvent(tick=0, channel=5, data=[64, 0]),
   midi.NoteOnEvent(tick=30, channel=5, data=[56, 51]),
   midi.NoteOnEvent(tick=0, channel=5, data=[61, 51]),
   midi.NoteOnEvent(tick=0, channel=5, data=[64, 51]),
   midi.NoteOnEvent(tick=0, channel=5, data=[88, 46]),
   midi.NoteOnEvent(tick=1906, channel=5, data=[56, 0]),
   midi.NoteOnEvent(tick=0, channel=5, data=[61, 0]),
   midi.NoteOnEvent(tick=0, channel=5, data=[64, 0]),
   midi.NoteOnEvent(tick=0, channel=5, data=[88, 0]),
   midi.NoteOnEvent(tick=14, channel=5, data=[59, 46]),
   midi.NoteOnEvent(tick=0, channel=5, data=[63, 46]),
   midi.NoteOnEvent(tick=0, channel=5, data=[66, 46]),
   midi.NoteOnEvent(tick=0, channel=5, data=[87, 46]),
   midi.NoteOnEvent(tick=1913, channel=5, data=[59, 0]),
   midi.NoteOnEvent(tick=7, channel=5, data=[57, 50]),
   midi.NoteOnEvent(tick=0, channel=5, data=[59, 46]),
   midi.NoteOnEvent(tick=0, channel=5, data=[64, 50]),
   midi.NoteOnEvent(tick=0, channel=5, data=[85, 45]),
   midi.NoteOnEvent(tick=18, channel=5, data=[63, 0]),
   midi.NoteOnEvent(tick=0, channel=5, data=[66, 0]),
   midi.NoteOnEvent(tick=0, channel=5, data=[87, 0]),
   midi.NoteOnEvent(tick=1815, channel=5, data=[85, 0]),
   midi.NoteOnEvent(tick=80, channel=5, data=[59, 0]),
   midi.NoteOnEvent(tick=7, channel=5, data=[54, 50]),
   midi.NoteOnEvent(tick=0, channel=5, data=[59, 46]),
   midi.NoteOnEvent(tick=0, channel=5, data=[64, 0]),
   midi.NoteOnEvent(tick=0, channel=5, data=[66, 50]),
   midi.NoteOnEvent(tick=0, channel=5, data=[87, 45]),
   midi.NoteOnEvent(tick=13, channel=5, data=[57, 0]),
   midi.NoteOnEvent(tick=947, channel=5, data=[83, 54]),
   midi.NoteOnEvent(tick=6, channel=5, data=[87, 0]),
   midi.NoteOnEvent(tick=867, channel=5, data=[54, 0]),
   midi.NoteOnEvent(tick=0, channel=5, data=[66, 0]),
   midi.NoteOnEvent(tick=72, channel=5, data=[83, 0]),
   midi.NoteOnEvent(tick=15, channel=5, data=[56, 51]),
   midi.NoteOnEvent(tick=0, channel=5, data=[61, 51]),
   midi.NoteOnEvent(tick=0, channel=5, data=[64, 51]),
   midi.NoteOnEvent(tick=0, channel=5, data=[80, 51]),
   midi.NoteOnEvent(tick=18, channel=5, data=[59, 0]),
   midi.NoteOnEvent(tick=1888, channel=5, data=[56, 0]),
   midi.NoteOnEvent(tick=0, channel=5, data=[61, 0]),
   midi.NoteOnEvent(tick=0, channel=5, data=[64, 0]),
   midi.NoteOnEvent(tick=0, channel=5, data=[80, 0]),
   midi.NoteOnEvent(tick=14, channel=5, data=[59, 46]),
   midi.NoteOnEvent(tick=0, channel=5, data=[63, 46]),
   midi.NoteOnEvent(tick=0, channel=5, data=[66, 46]),
   midi.NoteOnEvent(tick=0, channel=5, data=[83, 46]),
   midi.NoteOnEvent(tick=1913, channel=5, data=[59, 0]),
   midi.NoteOnEvent(tick=7, channel=5, data=[52, 50]),
   midi.NoteOnEvent(tick=0, channel=5, data=[61, 46]),
   midi.NoteOnEvent(tick=0, channel=5, data=[64, 50]),
   midi.NoteOnEvent(tick=0, channel=5, data=[85, 50]),
   midi.NoteOnEvent(tick=18, channel=5, data=[63, 0]),
   midi.NoteOnEvent(tick=0, channel=5, data=[66, 0]),
   midi.NoteOnEvent(tick=0, channel=5, data=[83, 0]),
   midi.NoteOnEvent(tick=942, channel=5, data=[52, 0]),
   midi.NoteOnEvent(tick=0, channel=5, data=[54, 50]),
   midi.NoteOnEvent(tick=480, channel=5, data=[54, 0]),
   midi.NoteOnEvent(tick=0, channel=5, data=[56, 50]),
   midi.NoteOnEvent(tick=393, channel=5, data=[85, 0]),
   midi.NoteOnEvent(tick=80, channel=5, data=[61, 0]),
   midi.NoteOnEvent(tick=3, channel=5, data=[64, 0]),
   midi.NoteOnEvent(tick=4, channel=5, data=[52, 50]),
   midi.NoteOnEvent(tick=0, channel=5, data=[56, 0]),
   midi.NoteOnEvent(tick=0, channel=5, data=[59, 46]),
   midi.NoteOnEvent(tick=0, channel=5, data=[61, 46]),
   midi.NoteOnEvent(tick=0, channel=5, data=[64, 50]),
   midi.NoteOnEvent(tick=480, channel=5, data=[78, 51]),
   midi.NoteOnEvent(tick=240, channel=5, data=[78, 0]),
   midi.NoteOnEvent(tick=0, channel=5, data=[80, 51]),
   midi.NoteOnEvent(tick=240, channel=5, data=[52, 0]),
   midi.NoteOnEvent(tick=0, channel=5, data=[54, 50]),
   midi.NoteOnEvent(tick=0, channel=5, data=[63, 50]),
   midi.NoteOnEvent(tick=0, channel=5, data=[64, 0]),
   midi.NoteOnEvent(tick=0, channel=5, data=[80, 0]),
   midi.NoteOnEvent(tick=0, channel=5, data=[81, 54]),
   midi.NoteOnEvent(tick=240, channel=5, data=[81, 0]),
   midi.NoteOnEvent(tick=0, channel=5, data=[83, 54]),
   midi.NoteOnEvent(tick=240, channel=5, data=[83, 0]),
   midi.NoteOnEvent(tick=0, channel=5, data=[85, 54]),
   midi.NoteOnEvent(tick=240, channel=5, data=[85, 0]),
   midi.NoteOnEvent(tick=0, channel=5, data=[87, 54]),
   midi.NoteOnEvent(tick=233, channel=5, data=[54, 0]),
   midi.NoteOnEvent(tick=0, channel=5, data=[59, 0]),
   midi.NoteOnEvent(tick=0, channel=5, data=[61, 0]),
   midi.NoteOnEvent(tick=7, channel=5, data=[61, 51]),
   midi.NoteOnEvent(tick=0, channel=5, data=[63, 0]),
   midi.NoteOnEvent(tick=0, channel=5, data=[64, 51]),
   midi.NoteOnEvent(tick=0, channel=5, data=[68, 51]),
   midi.NoteOnEvent(tick=0, channel=5, data=[87, 0]),
   midi.NoteOnEvent(tick=0, channel=5, data=[88, 51]),
   midi.NoteOnEvent(tick=1906, channel=5, data=[61, 0]),
   midi.NoteOnEvent(tick=0, channel=5, data=[64, 0]),
   midi.NoteOnEvent(tick=0, channel=5, data=[68, 0]),
   midi.NoteOnEvent(tick=0, channel=5, data=[88, 0]),
   midi.NoteOnEvent(tick=14, channel=5, data=[59, 46]),
   midi.NoteOnEvent(tick=0, channel=5, data=[63, 46]),
   midi.NoteOnEvent(tick=0, channel=5, data=[66, 46]),
   midi.NoteOnEvent(tick=0, channel=5, data=[87, 46]),
   midi.NoteOnEvent(tick=1913, channel=5, data=[59, 0]),
   midi.NoteOnEvent(tick=7, channel=5, data=[57, 50]),
   midi.NoteOnEvent(tick=0, channel=5, data=[59, 46]),
   midi.NoteOnEvent(tick=0, channel=5, data=[61, 46]),
   midi.NoteOnEvent(tick=0, channel=5, data=[64, 50]),
   midi.NoteOnEvent(tick=0, channel=5, data=[83, 46]),
   midi.NoteOnEvent(tick=0, channel=5, data=[85, 50]),
   midi.NoteOnEvent(tick=18, channel=5, data=[63, 0]),
   midi.NoteOnEvent(tick=0, channel=5, data=[66, 0]),
   midi.NoteOnEvent(tick=0, channel=5, data=[87, 0]),
   midi.NoteOnEvent(tick=942, channel=5, data=[81, 46]),
   midi.NoteOnEvent(tick=0, channel=5, data=[83, 0]),
   midi.NoteOnEvent(tick=480, channel=5, data=[80, 46]),
   midi.NoteOnEvent(tick=0, channel=5, data=[81, 0]),
   midi.NoteOnEvent(tick=393, channel=5, data=[85, 0]),
   midi.NoteOnEvent(tick=80, channel=5, data=[59, 0]),
   midi.NoteOnEvent(tick=7, channel=5, data=[54, 50]),
   midi.NoteOnEvent(tick=0, channel=5, data=[59, 46]),
   midi.NoteOnEvent(tick=0, channel=5, data=[63, 46]),
   midi.NoteOnEvent(tick=0, channel=5, data=[64, 0]),
   midi.NoteOnEvent(tick=0, channel=5, data=[66, 50]),
   midi.NoteOnEvent(tick=0, channel=5, data=[78, 46]),
   midi.NoteOnEvent(tick=0, channel=5, data=[80, 0]),
   midi.NoteOnEvent(tick=0, channel=5, data=[87, 51]),
   midi.NoteOnEvent(tick=13, channel=5, data=[57, 0]),
   midi.NoteOnEvent(tick=5, channel=5, data=[61, 0]),
   midi.NoteOnEvent(tick=942, channel=5, data=[63, 0]),
   midi.NoteOnEvent(tick=0, channel=5, data=[64, 46]),
   midi.NoteOnEvent(tick=0, channel=5, data=[83, 54]),
   midi.NoteOnEvent(tick=6, channel=5, data=[87, 0]),
   midi.NoteOnEvent(tick=867, channel=5, data=[54, 0]),
   midi.NoteOnEvent(tick=0, channel=5, data=[66, 0]),
   midi.NoteOnEvent(tick=72, channel=5, data=[83, 0]),
   midi.NoteOnEvent(tick=15, channel=5, data=[56, 51]),
   midi.NoteOnEvent(tick=0, channel=5, data=[61, 51]),
   midi.NoteOnEvent(tick=0, channel=5, data=[64, 0]),
   midi.NoteOnEvent(tick=0, channel=5, data=[64, 51]),
   midi.NoteOnEvent(tick=0, channel=5, data=[80, 51]),
   midi.NoteOnEvent(tick=18, channel=5, data=[59, 0]),
   midi.NoteOnEvent(tick=0, channel=5, data=[78, 0]),
   midi.NoteOnEvent(tick=1888, channel=5, data=[56, 0]),
   midi.NoteOnEvent(tick=0, channel=5, data=[61, 0]),
   midi.NoteOnEvent(tick=0, channel=5, data=[64, 0]),
   midi.NoteOnEvent(tick=14, channel=5, data=[59, 46]),
   midi.NoteOnEvent(tick=0, channel=5, data=[63, 46]),
   midi.NoteOnEvent(tick=0, channel=5, data=[66, 46]),
   midi.NoteOnEvent(tick=960, channel=5, data=[80, 0]),
   midi.NoteOnEvent(tick=0, channel=5, data=[83, 46]),
   midi.NoteOnEvent(tick=953, channel=5, data=[59, 0]),
   midi.NoteOnEvent(tick=7, channel=5, data=[52, 51]),
   midi.NoteOnEvent(tick=0, channel=5, data=[59, 46]),
   midi.NoteOnEvent(tick=0, channel=5, data=[61, 46]),
   midi.NoteOnEvent(tick=0, channel=5, data=[64, 50]),
   midi.NoteOnEvent(tick=0, channel=5, data=[83, 0]),
   midi.NoteOnEvent(tick=0, channel=5, data=[85, 50]),
   midi.NoteOnEvent(tick=18, channel=5, data=[63, 0]),
   midi.NoteOnEvent(tick=0, channel=5, data=[66, 0]),
   midi.NoteOnEvent(tick=1888, channel=5, data=[52, 0]),
   midi.NoteOnEvent(tick=2, channel=5, data=[85, 0]),
   midi.NoteOnEvent(tick=5, channel=5, data=[59, 0]),
   midi.NoteOnEvent(tick=0, channel=5, data=[61, 0]),
   midi.NoteOnEvent(tick=3, channel=5, data=[64, 0]),
   midi.NoteOnEvent(tick=4, channel=5, data=[56, 50]),
   midi.NoteOnEvent(tick=0, channel=5, data=[59, 46]),
   midi.NoteOnEvent(tick=0, channel=5, data=[64, 46]),
   midi.NoteOnEvent(tick=0, channel=5, data=[68, 50]),
   midi.NoteOnEvent(tick=0, channel=5, data=[80, 46]),
   midi.NoteOnEvent(tick=960, channel=5, data=[54, 50]),
   midi.NoteOnEvent(tick=0, channel=5, data=[56, 0]),
   midi.NoteOnEvent(tick=0, channel=5, data=[63, 50]),
   midi.NoteOnEvent(tick=0, channel=5, data=[64, 0]),
   midi.NoteOnEvent(tick=0, channel=5, data=[66, 50]),
   midi.NoteOnEvent(tick=0, channel=5, data=[68, 0]),
   midi.NoteOnEvent(tick=0, channel=5, data=[78, 46]),
   midi.NoteOnEvent(tick=0, channel=5, data=[80, 0]),
   midi.NoteOnEvent(tick=953, channel=5, data=[54, 0]),
   midi.NoteOnEvent(tick=0, channel=5, data=[59, 0]),
   midi.ControlChangeEvent(tick=7, channel=5, data=[11, 68]),
   midi.NoteOnEvent(tick=0, channel=5, data=[63, 0]),
   midi.NoteOnEvent(tick=0, channel=5, data=[64, 46]),
   midi.NoteOnEvent(tick=0, channel=5, data=[66, 0]),
   midi.NoteOnEvent(tick=0, channel=5, data=[78, 0]),
   midi.NoteOnEvent(tick=58, channel=5, data=[88, 46]),
   midi.ControlChangeEvent(tick=62, channel=5, data=[11, 70]),
   midi.ControlChangeEvent(tick=120, channel=5, data=[11, 71]),
   midi.ControlChangeEvent(tick=120, channel=5, data=[11, 73]),
   midi.ControlChangeEvent(tick=120, channel=5, data=[11, 74]),
   midi.ControlChangeEvent(tick=120, channel=5, data=[11, 75]),
   midi.ControlChangeEvent(tick=120, channel=5, data=[11, 77]),
   midi.ControlChangeEvent(tick=120, channel=5, data=[11, 78]),
   midi.ControlChangeEvent(tick=120, channel=5, data=[11, 80]),
   midi.ControlChangeEvent(tick=120, channel=5, data=[11, 81]),
   midi.ControlChangeEvent(tick=120, channel=5, data=[11, 82]),
   midi.ControlChangeEvent(tick=120, channel=5, data=[11, 84]),
   midi.ControlChangeEvent(tick=120, channel=5, data=[11, 85]),
   midi.ControlChangeEvent(tick=120, channel=5, data=[11, 87]),
   midi.ControlChangeEvent(tick=120, channel=5, data=[11, 88]),
   midi.ControlChangeEvent(tick=120, channel=5, data=[11, 90]),
   midi.ControlChangeEvent(tick=120, channel=5, data=[11, 91]),
   midi.ControlChangeEvent(tick=120, channel=5, data=[11, 92]),
   midi.ControlChangeEvent(tick=120, channel=5, data=[11, 94]),
   midi.ControlChangeEvent(tick=120, channel=5, data=[11, 95]),
   midi.ControlChangeEvent(tick=120, channel=5, data=[11, 97]),
   midi.ControlChangeEvent(tick=120, channel=5, data=[11, 98]),
   midi.ControlChangeEvent(tick=120, channel=5, data=[11, 99]),
   midi.ControlChangeEvent(tick=120, channel=5, data=[11, 101]),
   midi.ControlChangeEvent(tick=120, channel=5, data=[11, 102]),
   midi.ControlChangeEvent(tick=120, channel=5, data=[11, 104]),
   midi.ControlChangeEvent(tick=120, channel=5, data=[11, 105]),
   midi.ControlChangeEvent(tick=120, channel=5, data=[11, 106]),
   midi.ControlChangeEvent(tick=120, channel=5, data=[11, 108]),
   midi.ControlChangeEvent(tick=120, channel=5, data=[11, 109]),
   midi.ControlChangeEvent(tick=120, channel=5, data=[11, 111]),
   midi.ControlChangeEvent(tick=120, channel=5, data=[11, 112]),
   midi.ControlChangeEvent(tick=120, channel=5, data=[11, 113]),
   midi.NoteOnEvent(tick=0, channel=5, data=[59, 46]),
   midi.NoteOnEvent(tick=0, channel=5, data=[64, 0]),
   midi.ControlChangeEvent(tick=120, channel=5, data=[11, 115]),
   midi.ControlChangeEvent(tick=120, channel=5, data=[11, 116]),
   midi.ControlChangeEvent(tick=120, channel=5, data=[11, 118]),
   midi.ControlChangeEvent(tick=120, channel=5, data=[11, 119]),
   midi.ControlChangeEvent(tick=120, channel=5, data=[11, 120]),
   midi.ControlChangeEvent(tick=120, channel=5, data=[11, 122]),
   midi.ControlChangeEvent(tick=120, channel=5, data=[11, 123]),
   midi.ControlChangeEvent(tick=120, channel=5, data=[11, 125]),
   midi.ControlChangeEvent(tick=120, channel=5, data=[11, 127]),
   midi.NoteOnEvent(tick=840, channel=5, data=[64, 46]),
   midi.NoteOnEvent(tick=1808, channel=5, data=[88, 0]),
   midi.NoteOnEvent(tick=110, channel=5, data=[59, 0]),
   midi.NoteOnEvent(tick=0, channel=5, data=[64, 0]),
   midi.NoteOnEvent(tick=242, channel=5, data=[64, 95]),
   midi.NoteOnEvent(tick=80, channel=5, data=[64, 0]),
   midi.NoteOnEvent(tick=160, channel=5, data=[63, 100]),
   midi.NoteOnEvent(tick=80, channel=5, data=[63, 0]),
   midi.NoteOnEvent(tick=160, channel=5, data=[64, 101]),
   midi.NoteOnEvent(tick=83, channel=5, data=[64, 0]),
   midi.NoteOnEvent(tick=157, channel=5, data=[71, 101]),
   midi.NoteOnEvent(tick=86, channel=5, data=[71, 0]),
   midi.NoteOnEvent(tick=154, channel=5, data=[64, 97]),
   midi.NoteOnEvent(tick=78, channel=5, data=[64, 0]),
   midi.NoteOnEvent(tick=162, channel=5, data=[63, 95]),
   midi.NoteOnEvent(tick=63, channel=5, data=[63, 0]),
   midi.NoteOnEvent(tick=177, channel=5, data=[64, 97]),
   midi.NoteOnEvent(tick=70, channel=5, data=[64, 0]),
   midi.NoteOnEvent(tick=410, channel=5, data=[64, 95]),
   midi.NoteOnEvent(tick=80, channel=5, data=[64, 0]),
   midi.NoteOnEvent(tick=160, channel=5, data=[63, 100]),
   midi.NoteOnEvent(tick=80, channel=5, data=[63, 0]),
   midi.NoteOnEvent(tick=160, channel=5, data=[64, 101]),
   midi.NoteOnEvent(tick=83, channel=5, data=[64, 0]),
   midi.NoteOnEvent(tick=157, channel=5, data=[71, 101]),
   midi.NoteOnEvent(tick=86, channel=5, data=[71, 0]),
   midi.NoteOnEvent(tick=154, channel=5, data=[64, 97]),
   midi.NoteOnEvent(tick=78, channel=5, data=[64, 0]),
   midi.NoteOnEvent(tick=162, channel=5, data=[63, 95]),
   midi.NoteOnEvent(tick=63, channel=5, data=[63, 0]),
   midi.NoteOnEvent(tick=177, channel=5, data=[64, 97]),
   midi.NoteOnEvent(tick=70, channel=5, data=[64, 0]),
   midi.NoteOnEvent(tick=410, channel=5, data=[64, 95]),
   midi.NoteOnEvent(tick=80, channel=5, data=[64, 0]),
   midi.NoteOnEvent(tick=160, channel=5, data=[63, 100]),
   midi.NoteOnEvent(tick=80, channel=5, data=[63, 0]),
   midi.NoteOnEvent(tick=160, channel=5, data=[64, 101]),
   midi.NoteOnEvent(tick=83, channel=5, data=[64, 0]),
   midi.NoteOnEvent(tick=157, channel=5, data=[71, 101]),
   midi.NoteOnEvent(tick=86, channel=5, data=[71, 0]),
   midi.NoteOnEvent(tick=154, channel=5, data=[64, 97]),
   midi.NoteOnEvent(tick=78, channel=5, data=[64, 0]),
   midi.NoteOnEvent(tick=162, channel=5, data=[63, 95]),
   midi.NoteOnEvent(tick=63, channel=5, data=[63, 0]),
   midi.NoteOnEvent(tick=177, channel=5, data=[64, 97]),
   midi.NoteOnEvent(tick=70, channel=5, data=[64, 0]),
   midi.NoteOnEvent(tick=410, channel=5, data=[64, 95]),
   midi.NoteOnEvent(tick=80, channel=5, data=[64, 0]),
   midi.NoteOnEvent(tick=160, channel=5, data=[63, 100]),
   midi.NoteOnEvent(tick=80, channel=5, data=[63, 0]),
   midi.NoteOnEvent(tick=160, channel=5, data=[64, 101]),
   midi.NoteOnEvent(tick=83, channel=5, data=[64, 0]),
   midi.NoteOnEvent(tick=157, channel=5, data=[71, 101]),
   midi.NoteOnEvent(tick=86, channel=5, data=[71, 0]),
   midi.NoteOnEvent(tick=154, channel=5, data=[64, 97]),
   midi.NoteOnEvent(tick=78, channel=5, data=[64, 0]),
   midi.NoteOnEvent(tick=162, channel=5, data=[63, 95]),
   midi.NoteOnEvent(tick=63, channel=5, data=[63, 0]),
   midi.NoteOnEvent(tick=177, channel=5, data=[64, 97]),
   midi.NoteOnEvent(tick=70, channel=5, data=[64, 0]),
   midi.NoteOnEvent(tick=410, channel=5, data=[64, 95]),
   midi.NoteOnEvent(tick=80, channel=5, data=[64, 0]),
   midi.NoteOnEvent(tick=160, channel=5, data=[63, 100]),
   midi.NoteOnEvent(tick=80, channel=5, data=[63, 0]),
   midi.NoteOnEvent(tick=160, channel=5, data=[64, 101]),
   midi.NoteOnEvent(tick=83, channel=5, data=[64, 0]),
   midi.NoteOnEvent(tick=157, channel=5, data=[71, 101]),
   midi.NoteOnEvent(tick=86, channel=5, data=[71, 0]),
   midi.NoteOnEvent(tick=154, channel=5, data=[64, 97]),
   midi.NoteOnEvent(tick=78, channel=5, data=[64, 0]),
   midi.NoteOnEvent(tick=162, channel=5, data=[63, 95]),
   midi.NoteOnEvent(tick=63, channel=5, data=[63, 0]),
   midi.NoteOnEvent(tick=177, channel=5, data=[64, 97]),
   midi.NoteOnEvent(tick=70, channel=5, data=[64, 0]),
   midi.NoteOnEvent(tick=410, channel=5, data=[64, 95]),
   midi.NoteOnEvent(tick=80, channel=5, data=[64, 0]),
   midi.NoteOnEvent(tick=160, channel=5, data=[63, 100]),
   midi.NoteOnEvent(tick=80, channel=5, data=[63, 0]),
   midi.NoteOnEvent(tick=160, channel=5, data=[64, 101]),
   midi.NoteOnEvent(tick=83, channel=5, data=[64, 0]),
   midi.NoteOnEvent(tick=157, channel=5, data=[71, 101]),
   midi.NoteOnEvent(tick=86, channel=5, data=[71, 0]),
   midi.NoteOnEvent(tick=154, channel=5, data=[64, 97]),
   midi.NoteOnEvent(tick=78, channel=5, data=[64, 0]),
   midi.NoteOnEvent(tick=162, channel=5, data=[63, 95]),
   midi.NoteOnEvent(tick=63, channel=5, data=[63, 0]),
   midi.NoteOnEvent(tick=177, channel=5, data=[64, 97]),
   midi.NoteOnEvent(tick=70, channel=5, data=[64, 0]),
   midi.NoteOnEvent(tick=410, channel=5, data=[64, 95]),
   midi.NoteOnEvent(tick=80, channel=5, data=[64, 0]),
   midi.NoteOnEvent(tick=160, channel=5, data=[63, 100]),
   midi.NoteOnEvent(tick=80, channel=5, data=[63, 0]),
   midi.NoteOnEvent(tick=160, channel=5, data=[64, 101]),
   midi.NoteOnEvent(tick=83, channel=5, data=[64, 0]),
   midi.NoteOnEvent(tick=157, channel=5, data=[71, 101]),
   midi.NoteOnEvent(tick=86, channel=5, data=[71, 0]),
   midi.NoteOnEvent(tick=154, channel=5, data=[64, 97]),
   midi.NoteOnEvent(tick=78, channel=5, data=[64, 0]),
   midi.NoteOnEvent(tick=162, channel=5, data=[63, 95]),
   midi.NoteOnEvent(tick=63, channel=5, data=[63, 0]),
   midi.NoteOnEvent(tick=177, channel=5, data=[64, 97]),
   midi.NoteOnEvent(tick=70, channel=5, data=[64, 0]),
   midi.NoteOnEvent(tick=410, channel=5, data=[64, 95]),
   midi.NoteOnEvent(tick=80, channel=5, data=[64, 0]),
   midi.NoteOnEvent(tick=160, channel=5, data=[63, 100]),
   midi.NoteOnEvent(tick=80, channel=5, data=[63, 0]),
   midi.NoteOnEvent(tick=160, channel=5, data=[64, 101]),
   midi.NoteOnEvent(tick=83, channel=5, data=[64, 0]),
   midi.NoteOnEvent(tick=157, channel=5, data=[71, 101]),
   midi.NoteOnEvent(tick=0, channel=5, data=[73, 91]),
   midi.NoteOnEvent(tick=83, channel=5, data=[71, 0]),
   midi.NoteOnEvent(tick=157, channel=5, data=[64, 97]),
   midi.NoteOnEvent(tick=74, channel=5, data=[64, 0]),
   midi.NoteOnEvent(tick=166, channel=5, data=[63, 95]),
   midi.NoteOnEvent(tick=60, channel=5, data=[63, 0]),
   midi.NoteOnEvent(tick=180, channel=5, data=[64, 97]),
   midi.NoteOnEvent(tick=0, channel=5, data=[73, 0]),
   midi.NoteOnEvent(tick=0, channel=5, data=[75, 91]),
   midi.NoteOnEvent(tick=66, channel=5, data=[64, 0]),
   midi.NoteOnEvent(tick=174, channel=5, data=[75, 0]),
   midi.NoteOnEvent(tick=0, channel=5, data=[76, 67]),
   midi.NoteOnEvent(tick=1920, channel=5, data=[76, 0]),
   midi.NoteOnEvent(tick=0, channel=5, data=[78, 71]),
   midi.NoteOnEvent(tick=1438, channel=5, data=[78, 0]),
   midi.NoteOnEvent(tick=2, channel=5, data=[83, 66]),
   midi.NoteOnEvent(tick=2400, channel=5, data=[80, 61]),
   midi.NoteOnEvent(tick=24, channel=5, data=[83, 0]),
   midi.NoteOnEvent(tick=936, channel=5, data=[78, 56]),
   midi.NoteOnEvent(tick=0, channel=5, data=[80, 0]),
   midi.NoteOnEvent(tick=935, channel=5, data=[78, 0]),
   midi.NoteOnEvent(tick=25, channel=5, data=[76, 66]),
   midi.NoteOnEvent(tick=933, channel=5, data=[76, 0]),
   midi.NoteOnEvent(tick=27, channel=5, data=[88, 58]),
   midi.NoteOnEvent(tick=471, channel=5, data=[88, 0]),
   midi.NoteOnEvent(tick=9, channel=5, data=[87, 56]),
   midi.NoteOnEvent(tick=240, channel=5, data=[88, 64]),
   midi.NoteOnEvent(tick=11, channel=5, data=[87, 0]),
   midi.NoteOnEvent(tick=229, channel=5, data=[87, 61]),
   midi.NoteOnEvent(tick=1, channel=5, data=[88, 0]),
   midi.NoteOnEvent(tick=479, channel=5, data=[85, 65]),
   midi.NoteOnEvent(tick=5, channel=5, data=[87, 0]),
   midi.NoteOnEvent(tick=475, channel=5, data=[83, 71]),
   midi.NoteOnEvent(tick=0, channel=5, data=[85, 0]),
   midi.NoteOnEvent(tick=473, channel=5, data=[83, 0]),
   midi.NoteOnEvent(tick=7, channel=5, data=[78, 65]),
   midi.NoteOnEvent(tick=480, channel=5, data=[76, 64]),
   midi.NoteOnEvent(tick=10, channel=5, data=[78, 0]),
   midi.NoteOnEvent(tick=1910, channel=5, data=[76, 0]),
   midi.NoteOnEvent(tick=0, channel=5, data=[83, 64]),
   midi.NoteOnEvent(tick=1920, channel=5, data=[83, 0]),
   midi.NoteOnEvent(tick=0, channel=5, data=[88, 67]),
   midi.NoteOnEvent(tick=1369, channel=5, data=[88, 0]),
   midi.NoteOnEvent(tick=71, channel=5, data=[87, 64]),
   midi.NoteOnEvent(tick=240, channel=5, data=[85, 59]),
   midi.NoteOnEvent(tick=0, channel=5, data=[87, 0]),
   midi.NoteOnEvent(tick=240, channel=5, data=[87, 61]),
   midi.NoteOnEvent(tick=9, channel=5, data=[85, 0]),
   midi.NoteOnEvent(tick=1374, channel=5, data=[87, 0]),
   midi.NoteOnEvent(tick=57, channel=5, data=[85, 68]),
   midi.NoteOnEvent(tick=209, channel=5, data=[85, 0]),
   midi.NoteOnEvent(tick=31, channel=5, data=[83, 66]),
   midi.NoteOnEvent(tick=240, channel=5, data=[83, 0]),
   midi.NoteOnEvent(tick=0, channel=5, data=[85, 63]),
   midi.NoteOnEvent(tick=1433, channel=5, data=[85, 0]),
   midi.NoteOnEvent(tick=7, channel=5, data=[87, 65]),
   midi.NoteOnEvent(tick=476, channel=5, data=[87, 0]),
   midi.NoteOnEvent(tick=4, channel=5, data=[85, 59]),
   midi.NoteOnEvent(tick=480, channel=5, data=[87, 66]),
   midi.NoteOnEvent(tick=11, channel=5, data=[85, 0]),
   midi.NoteOnEvent(tick=408, channel=5, data=[87, 0]),
   midi.NoteOnEvent(tick=61, channel=5, data=[85, 65]),
   midi.NoteOnEvent(tick=480, channel=5, data=[83, 74]),
   midi.NoteOnEvent(tick=54, channel=5, data=[85, 0]),
   midi.NoteOnEvent(tick=357, channel=5, data=[83, 0]),
   midi.NoteOnEvent(tick=69, channel=5, data=[80, 68]),
   midi.NoteOnEvent(tick=1920, channel=5, data=[80, 0]),
   midi.NoteOnEvent(tick=0, channel=5, data=[83, 66]),
   midi.NoteOnEvent(tick=1920, channel=5, data=[83, 0]),
   midi.NoteOnEvent(tick=0, channel=5, data=[85, 69]),
   midi.NoteOnEvent(tick=1920, channel=5, data=[76, 64]),
   midi.NoteOnEvent(tick=9, channel=5, data=[85, 0]),
   midi.NoteOnEvent(tick=471, channel=5, data=[76, 0]),
   midi.NoteOnEvent(tick=0, channel=5, data=[78, 64]),
   midi.NoteOnEvent(tick=234, channel=5, data=[78, 0]),
   midi.NoteOnEvent(tick=6, channel=5, data=[80, 61]),
   midi.NoteOnEvent(tick=234, channel=5, data=[80, 0]),
   midi.NoteOnEvent(tick=6, channel=5, data=[81, 61]),
   midi.NoteOnEvent(tick=240, channel=5, data=[83, 64]),
   midi.NoteOnEvent(tick=6, channel=5, data=[81, 0]),
   midi.NoteOnEvent(tick=219, channel=5, data=[83, 0]),
   midi.NoteOnEvent(tick=15, channel=5, data=[85, 68]),
   midi.NoteOnEvent(tick=240, channel=5, data=[87, 63]),
   midi.NoteOnEvent(tick=1, channel=5, data=[85, 0]),
   midi.NoteOnEvent(tick=238, channel=5, data=[87, 0]),
   midi.NoteOnEvent(tick=1, channel=5, data=[88, 67]),
   midi.NoteOnEvent(tick=1369, channel=5, data=[88, 0]),
   midi.NoteOnEvent(tick=71, channel=5, data=[80, 64]),
   midi.NoteOnEvent(tick=240, channel=5, data=[80, 0]),
   midi.NoteOnEvent(tick=0, channel=5, data=[85, 59]),
   midi.NoteOnEvent(tick=240, channel=5, data=[87, 61]),
   midi.NoteOnEvent(tick=9, channel=5, data=[85, 0]),
   midi.NoteOnEvent(tick=1374, channel=5, data=[87, 0]),
   midi.NoteOnEvent(tick=57, channel=5, data=[85, 68]),
   midi.NoteOnEvent(tick=209, channel=5, data=[85, 0]),
   midi.NoteOnEvent(tick=31, channel=5, data=[83, 66]),
   midi.NoteOnEvent(tick=240, channel=5, data=[83, 0]),
   midi.NoteOnEvent(tick=0, channel=5, data=[85, 63]),
   midi.NoteOnEvent(tick=1433, channel=5, data=[85, 0]),
   midi.NoteOnEvent(tick=7, channel=5, data=[87, 65]),
   midi.NoteOnEvent(tick=476, channel=5, data=[87, 0]),
   midi.NoteOnEvent(tick=4, channel=5, data=[85, 59]),
   midi.NoteOnEvent(tick=480, channel=5, data=[87, 66]),
   midi.NoteOnEvent(tick=11, channel=5, data=[85, 0]),
   midi.NoteOnEvent(tick=408, channel=5, data=[87, 0]),
   midi.NoteOnEvent(tick=61, channel=5, data=[85, 65]),
   midi.NoteOnEvent(tick=480, channel=5, data=[83, 74]),
   midi.NoteOnEvent(tick=54, channel=5, data=[85, 0]),
   midi.NoteOnEvent(tick=357, channel=5, data=[83, 0]),
   midi.NoteOnEvent(tick=69, channel=5, data=[80, 68]),
   midi.NoteOnEvent(tick=2880, channel=5, data=[80, 0]),
   midi.NoteOnEvent(tick=0, channel=5, data=[83, 66]),
   midi.NoteOnEvent(tick=960, channel=5, data=[83, 0]),
   midi.NoteOnEvent(tick=0, channel=5, data=[85, 69]),
   midi.NoteOnEvent(tick=1920, channel=5, data=[92, 64]),
   midi.NoteOnEvent(tick=9, channel=5, data=[85, 0]),
   midi.NoteOnEvent(tick=951, channel=5, data=[90, 61]),
   midi.NoteOnEvent(tick=0, channel=5, data=[92, 0]),
   midi.NoteOnEvent(tick=958, channel=5, data=[90, 0]),
   midi.ControlChangeEvent(tick=2, channel=5, data=[11, 0]),
   midi.NoteOnEvent(tick=0, channel=5, data=[73, 46]),
   midi.NoteOnEvent(tick=58, channel=5, data=[88, 46]),
   midi.ControlChangeEvent(tick=2, channel=5, data=[11, 1]),
   midi.ControlChangeEvent(tick=30, channel=5, data=[11, 2]),
   midi.ControlChangeEvent(tick=30, channel=5, data=[11, 3]),
   midi.ControlChangeEvent(tick=60, channel=5, data=[11, 4]),
   midi.ControlChangeEvent(tick=30, channel=5, data=[11, 5]),
   midi.ControlChangeEvent(tick=30, channel=5, data=[11, 6]),
   midi.ControlChangeEvent(tick=30, channel=5, data=[11, 7]),
   midi.ControlChangeEvent(tick=60, channel=5, data=[11, 8]),
   midi.ControlChangeEvent(tick=30, channel=5, data=[11, 9]),
   midi.ControlChangeEvent(tick=30, channel=5, data=[11, 10]),
   midi.ControlChangeEvent(tick=60, channel=5, data=[11, 11]),
   midi.ControlChangeEvent(tick=30, channel=5, data=[11, 12]),
   midi.ControlChangeEvent(tick=30, channel=5, data=[11, 13]),
   midi.ControlChangeEvent(tick=30, channel=5, data=[11, 14]),
   midi.ControlChangeEvent(tick=60, channel=5, data=[11, 15]),
   midi.ControlChangeEvent(tick=30, channel=5, data=[11, 16]),
   midi.ControlChangeEvent(tick=30, channel=5, data=[11, 17]),
   midi.ControlChangeEvent(tick=30, channel=5, data=[11, 18]),
   midi.ControlChangeEvent(tick=60, channel=5, data=[11, 19]),
   midi.ControlChangeEvent(tick=30, channel=5, data=[11, 20]),
   midi.ControlChangeEvent(tick=30, channel=5, data=[11, 21]),
   midi.ControlChangeEvent(tick=60, channel=5, data=[11, 22]),
   midi.ControlChangeEvent(tick=30, channel=5, data=[11, 23]),
   midi.ControlChangeEvent(tick=30, channel=5, data=[11, 24]),
   midi.ControlChangeEvent(tick=30, channel=5, data=[11, 25]),
   midi.ControlChangeEvent(tick=60, channel=5, data=[11, 26]),
   midi.ControlChangeEvent(tick=30, channel=5, data=[11, 27]),
   midi.ControlChangeEvent(tick=30, channel=5, data=[11, 28]),
   midi.ControlChangeEvent(tick=30, channel=5, data=[11, 29]),
   midi.ControlChangeEvent(tick=60, channel=5, data=[11, 30]),
   midi.ControlChangeEvent(tick=30, channel=5, data=[11, 31]),
   midi.ControlChangeEvent(tick=30, channel=5, data=[11, 32]),
   midi.ControlChangeEvent(tick=60, channel=5, data=[11, 33]),
   midi.ControlChangeEvent(tick=30, channel=5, data=[11, 34]),
   midi.ControlChangeEvent(tick=30, channel=5, data=[11, 35]),
   midi.ControlChangeEvent(tick=30, channel=5, data=[11, 36]),
   midi.ControlChangeEvent(tick=60, channel=5, data=[11, 37]),
   midi.ControlChangeEvent(tick=30, channel=5, data=[11, 38]),
   midi.ControlChangeEvent(tick=30, channel=5, data=[11, 39]),
   midi.ControlChangeEvent(tick=30, channel=5, data=[11, 40]),
   midi.ControlChangeEvent(tick=60, channel=5, data=[11, 41]),
   midi.ControlChangeEvent(tick=30, channel=5, data=[11, 42]),
   midi.ControlChangeEvent(tick=30, channel=5, data=[11, 43]),
   midi.ControlChangeEvent(tick=60, channel=5, data=[11, 44]),
   midi.ControlChangeEvent(tick=30, channel=5, data=[11, 45]),
   midi.ControlChangeEvent(tick=30, channel=5, data=[11, 46]),
   midi.ControlChangeEvent(tick=30, channel=5, data=[11, 47]),
   midi.ControlChangeEvent(tick=60, channel=5, data=[11, 48]),
   midi.ControlChangeEvent(tick=30, channel=5, data=[11, 49]),
   midi.ControlChangeEvent(tick=30, channel=5, data=[11, 50]),
   midi.ControlChangeEvent(tick=30, channel=5, data=[11, 51]),
   midi.ControlChangeEvent(tick=60, channel=5, data=[11, 52]),
   midi.ControlChangeEvent(tick=30, channel=5, data=[11, 53]),
   midi.ControlChangeEvent(tick=30, channel=5, data=[11, 54]),
   midi.ControlChangeEvent(tick=60, channel=5, data=[11, 55]),
   midi.ControlChangeEvent(tick=30, channel=5, data=[11, 56]),
   midi.ControlChangeEvent(tick=30, channel=5, data=[11, 57]),
   midi.ControlChangeEvent(tick=30, channel=5, data=[11, 58]),
   midi.ControlChangeEvent(tick=60, channel=5, data=[11, 59]),
   midi.ControlChangeEvent(tick=30, channel=5, data=[11, 60]),
   midi.ControlChangeEvent(tick=30, channel=5, data=[11, 61]),
   midi.ControlChangeEvent(tick=30, channel=5, data=[11, 62]),
   midi.ControlChangeEvent(tick=60, channel=5, data=[11, 63]),
   midi.ControlChangeEvent(tick=30, channel=5, data=[11, 64]),
   midi.ControlChangeEvent(tick=30, channel=5, data=[11, 65]),
   midi.ControlChangeEvent(tick=60, channel=5, data=[11, 66]),
   midi.ControlChangeEvent(tick=30, channel=5, data=[11, 67]),
   midi.ControlChangeEvent(tick=30, channel=5, data=[11, 68]),
   midi.ControlChangeEvent(tick=30, channel=5, data=[11, 69]),
   midi.ControlChangeEvent(tick=60, channel=5, data=[11, 70]),
   midi.ControlChangeEvent(tick=30, channel=5, data=[11, 71]),
   midi.ControlChangeEvent(tick=30, channel=5, data=[11, 72]),
   midi.ControlChangeEvent(tick=30, channel=5, data=[11, 73]),
   midi.ControlChangeEvent(tick=60, channel=5, data=[11, 74]),
   midi.ControlChangeEvent(tick=30, channel=5, data=[11, 75]),
   midi.ControlChangeEvent(tick=30, channel=5, data=[11, 76]),
   midi.ControlChangeEvent(tick=60, channel=5, data=[11, 77]),
   midi.ControlChangeEvent(tick=30, channel=5, data=[11, 78]),
   midi.ControlChangeEvent(tick=30, channel=5, data=[11, 79]),
   midi.ControlChangeEvent(tick=30, channel=5, data=[11, 80]),
   midi.ControlChangeEvent(tick=60, channel=5, data=[11, 81]),
   midi.ControlChangeEvent(tick=30, channel=5, data=[11, 82]),
   midi.ControlChangeEvent(tick=30, channel=5, data=[11, 83]),
   midi.ControlChangeEvent(tick=30, channel=5, data=[11, 84]),
   midi.ControlChangeEvent(tick=60, channel=5, data=[11, 85]),
   midi.ControlChangeEvent(tick=30, channel=5, data=[11, 86]),
   midi.ControlChangeEvent(tick=30, channel=5, data=[11, 87]),
   midi.ControlChangeEvent(tick=60, channel=5, data=[11, 88]),
   midi.ControlChangeEvent(tick=30, channel=5, data=[11, 89]),
   midi.ControlChangeEvent(tick=30, channel=5, data=[11, 90]),
   midi.ControlChangeEvent(tick=30, channel=5, data=[11, 91]),
   midi.ControlChangeEvent(tick=60, channel=5, data=[11, 92]),
   midi.ControlChangeEvent(tick=30, channel=5, data=[11, 93]),
   midi.ControlChangeEvent(tick=30, channel=5, data=[11, 94]),
   midi.ControlChangeEvent(tick=30, channel=5, data=[11, 95]),
   midi.ControlChangeEvent(tick=60, channel=5, data=[11, 96]),
   midi.ControlChangeEvent(tick=30, channel=5, data=[11, 97]),
   midi.ControlChangeEvent(tick=30, channel=5, data=[11, 98]),
   midi.ControlChangeEvent(tick=60, channel=5, data=[11, 99]),
   midi.ControlChangeEvent(tick=30, channel=5, data=[11, 100]),
   midi.NoteOnEvent(tick=0, channel=5, data=[71, 46]),
   midi.NoteOnEvent(tick=0, channel=5, data=[73, 0]),
   midi.ControlChangeEvent(tick=30, channel=5, data=[11, 101]),
   midi.ControlChangeEvent(tick=30, channel=5, data=[11, 102]),
   midi.ControlChangeEvent(tick=60, channel=5, data=[11, 103]),
   midi.ControlChangeEvent(tick=30, channel=5, data=[11, 104]),
   midi.ControlChangeEvent(tick=30, channel=5, data=[11, 105]),
   midi.ControlChangeEvent(tick=30, channel=5, data=[11, 106]),
   midi.ControlChangeEvent(tick=60, channel=5, data=[11, 107]),
   midi.ControlChangeEvent(tick=30, channel=5, data=[11, 108]),
   midi.ControlChangeEvent(tick=30, channel=5, data=[11, 109]),
   midi.ControlChangeEvent(tick=60, channel=5, data=[11, 110]),
   midi.ControlChangeEvent(tick=30, channel=5, data=[11, 111]),
   midi.ControlChangeEvent(tick=30, channel=5, data=[11, 112]),
   midi.ControlChangeEvent(tick=30, channel=5, data=[11, 113]),
   midi.ControlChangeEvent(tick=60, channel=5, data=[11, 114]),
   midi.ControlChangeEvent(tick=30, channel=5, data=[11, 115]),
   midi.ControlChangeEvent(tick=30, channel=5, data=[11, 116]),
   midi.ControlChangeEvent(tick=30, channel=5, data=[11, 117]),
   midi.ControlChangeEvent(tick=60, channel=5, data=[11, 118]),
   midi.ControlChangeEvent(tick=30, channel=5, data=[11, 119]),
   midi.ControlChangeEvent(tick=30, channel=5, data=[11, 120]),
   midi.ControlChangeEvent(tick=60, channel=5, data=[11, 121]),
   midi.ControlChangeEvent(tick=30, channel=5, data=[11, 122]),
   midi.ControlChangeEvent(tick=30, channel=5, data=[11, 123]),
   midi.ControlChangeEvent(tick=30, channel=5, data=[11, 124]),
   midi.ControlChangeEvent(tick=60, channel=5, data=[11, 125]),
   midi.ControlChangeEvent(tick=30, channel=5, data=[11, 126]),
   midi.ControlChangeEvent(tick=30, channel=5, data=[11, 127]),
   midi.NoteOnEvent(tick=2708, channel=5, data=[88, 0]),
   midi.ControlChangeEvent(tick=112, channel=5, data=[11, 81]),
   midi.NoteOnEvent(tick=0, channel=5, data=[25, 53]),
   midi.NoteOnEvent(tick=0, channel=5, data=[59, 53]),
   midi.NoteOnEvent(tick=0, channel=5, data=[64, 53]),
   midi.NoteOnEvent(tick=0, channel=5, data=[71, 0]),
   midi.NoteOnEvent(tick=0, channel=5, data=[71, 53]),
   midi.NoteOnEvent(tick=0, channel=5, data=[83, 53]),
   midi.NoteOnEvent(tick=58, channel=5, data=[88, 56]),
   midi.ControlChangeEvent(tick=62, channel=5, data=[11, 82]),
   midi.ControlChangeEvent(tick=120, channel=5, data=[11, 83]),
   midi.ControlChangeEvent(tick=120, channel=5, data=[11, 84]),
   midi.ControlChangeEvent(tick=120, channel=5, data=[11, 85]),
   midi.ControlChangeEvent(tick=240, channel=5, data=[11, 86]),
   midi.ControlChangeEvent(tick=120, channel=5, data=[11, 87]),
   midi.ControlChangeEvent(tick=120, channel=5, data=[11, 88]),
   midi.ControlChangeEvent(tick=120, channel=5, data=[11, 89]),
   midi.ControlChangeEvent(tick=240, channel=5, data=[11, 90]),
   midi.ControlChangeEvent(tick=120, channel=5, data=[11, 91]),
   midi.ControlChangeEvent(tick=120, channel=5, data=[11, 92]),
   midi.ControlChangeEvent(tick=120, channel=5, data=[11, 93]),
   midi.ControlChangeEvent(tick=120, channel=5, data=[11, 94]),
   midi.NoteOnEvent(tick=120, channel=5, data=[23, 56]),
   midi.NoteOnEvent(tick=0, channel=5, data=[25, 0]),
   midi.ControlChangeEvent(tick=120, channel=5, data=[11, 95]),
   midi.ControlChangeEvent(tick=120, channel=5, data=[11, 96]),
   midi.ControlChangeEvent(tick=120, channel=5, data=[11, 97]),
   midi.ControlChangeEvent(tick=120, channel=5, data=[11, 98]),
   midi.ControlChangeEvent(tick=240, channel=5, data=[11, 99]),
   midi.ControlChangeEvent(tick=120, channel=5, data=[11, 100]),
   midi.ControlChangeEvent(tick=120, channel=5, data=[11, 101]),
   midi.ControlChangeEvent(tick=120, channel=5, data=[11, 102]),
   midi.ControlChangeEvent(tick=240, channel=5, data=[11, 103]),
   midi.ControlChangeEvent(tick=120, channel=5, data=[11, 104]),
   midi.ControlChangeEvent(tick=120, channel=5, data=[11, 105]),
   midi.ControlChangeEvent(tick=120, channel=5, data=[11, 106]),
   midi.NoteOnEvent(tick=238, channel=5, data=[64, 0]),
   midi.ControlChangeEvent(tick=2, channel=5, data=[11, 107]),
   midi.NoteOnEvent(tick=0, channel=5, data=[23, 0]),
   midi.NoteOnEvent(tick=0, channel=5, data=[33, 66]),
   midi.NoteOnEvent(tick=0, channel=5, data=[64, 58]),
   midi.ControlChangeEvent(tick=120, channel=5, data=[11, 108]),
   midi.ControlChangeEvent(tick=120, channel=5, data=[11, 109]),
   midi.ControlChangeEvent(tick=120, channel=5, data=[11, 110]),
   midi.ControlChangeEvent(tick=120, channel=5, data=[11, 111]),
   midi.ControlChangeEvent(tick=240, channel=5, data=[11, 112]),
   midi.ControlChangeEvent(tick=120, channel=5, data=[11, 113]),
   midi.ControlChangeEvent(tick=120, channel=5, data=[11, 114]),
   midi.ControlChangeEvent(tick=120, channel=5, data=[11, 115]),
   midi.ControlChangeEvent(tick=240, channel=5, data=[11, 116]),
   midi.NoteOnEvent(tick=118, channel=5, data=[71, 0]),
   midi.NoteOnEvent(tick=0, channel=5, data=[83, 0]),
   midi.NoteOnEvent(tick=0, channel=5, data=[88, 0]),
   midi.ControlChangeEvent(tick=2, channel=5, data=[11, 117]),
   midi.NoteOnEvent(tick=0, channel=5, data=[64, 0]),
   midi.NoteOnEvent(tick=0, channel=5, data=[66, 58]),
   midi.NoteOnEvent(tick=0, channel=5, data=[71, 58]),
   midi.NoteOnEvent(tick=0, channel=5, data=[83, 58]),
   midi.ControlChangeEvent(tick=120, channel=5, data=[11, 118]),
   midi.ControlChangeEvent(tick=120, channel=5, data=[11, 119]),
   midi.NoteOnEvent(tick=238, channel=5, data=[71, 0]),
   midi.NoteOnEvent(tick=0, channel=5, data=[83, 0]),
   midi.ControlChangeEvent(tick=2, channel=5, data=[11, 120]),
   midi.NoteOnEvent(tick=0, channel=5, data=[59, 0]),
   midi.NoteOnEvent(tick=0, channel=5, data=[63, 58]),
   midi.NoteOnEvent(tick=0, channel=5, data=[66, 0]),
   midi.NoteOnEvent(tick=0, channel=5, data=[68, 58]),
   midi.NoteOnEvent(tick=0, channel=5, data=[71, 58]),
   midi.NoteOnEvent(tick=0, channel=5, data=[83, 58]),
   midi.ControlChangeEvent(tick=120, channel=5, data=[11, 121]),
   midi.ControlChangeEvent(tick=120, channel=5, data=[11, 122]),
   midi.ControlChangeEvent(tick=120, channel=5, data=[11, 123]),
   midi.ControlChangeEvent(tick=240, channel=5, data=[11, 124]),
   midi.ControlChangeEvent(tick=120, channel=5, data=[11, 125]),
   midi.ControlChangeEvent(tick=120, channel=5, data=[11, 126]),
   midi.ControlChangeEvent(tick=120, channel=5, data=[11, 127]),
   midi.NoteOnEvent(tick=320, channel=5, data=[72, 50]),
   midi.NoteOnEvent(tick=0, channel=5, data=[83, 0]),
   midi.NoteOnEvent(tick=0, channel=5, data=[84, 50]),
   midi.NoteOnEvent(tick=80, channel=5, data=[72, 0]),
   midi.NoteOnEvent(tick=0, channel=5, data=[73, 55]),
   midi.NoteOnEvent(tick=0, channel=5, data=[84, 0]),
   midi.NoteOnEvent(tick=0, channel=5, data=[85, 55]),
   midi.NoteOnEvent(tick=80, channel=5, data=[32, 59]),
   midi.NoteOnEvent(tick=0, channel=5, data=[33, 0]),
   midi.NoteOnEvent(tick=0, channel=5, data=[71, 0]),
   midi.NoteOnEvent(tick=0, channel=5, data=[72, 59]),
   midi.NoteOnEvent(tick=0, channel=5, data=[73, 0]),
   midi.NoteOnEvent(tick=0, channel=5, data=[74, 59]),
   midi.NoteOnEvent(tick=0, channel=5, data=[85, 0]),
   midi.NoteOnEvent(tick=0, channel=5, data=[86, 59]),
   midi.NoteOnEvent(tick=80, channel=5, data=[74, 0]),
   midi.NoteOnEvent(tick=0, channel=5, data=[75, 64]),
   midi.NoteOnEvent(tick=0, channel=5, data=[86, 0]),
   midi.NoteOnEvent(tick=0, channel=5, data=[87, 64]),
   midi.NoteOnEvent(tick=80, channel=5, data=[75, 0]),
   midi.NoteOnEvent(tick=0, channel=5, data=[76, 68]),
   midi.NoteOnEvent(tick=0, channel=5, data=[87, 0]),
   midi.NoteOnEvent(tick=0, channel=5, data=[88, 68]),
   midi.NoteOnEvent(tick=80, channel=5, data=[76, 0]),
   midi.NoteOnEvent(tick=0, channel=5, data=[77, 73]),
   midi.NoteOnEvent(tick=0, channel=5, data=[88, 0]),
   midi.NoteOnEvent(tick=0, channel=5, data=[89, 73]),
   midi.NoteOnEvent(tick=80, channel=5, data=[77, 0]),
   midi.NoteOnEvent(tick=0, channel=5, data=[78, 77]),
   midi.NoteOnEvent(tick=0, channel=5, data=[89, 0]),
   midi.NoteOnEvent(tick=0, channel=5, data=[90, 77]),
   midi.NoteOnEvent(tick=80, channel=5, data=[78, 0]),
   midi.NoteOnEvent(tick=0, channel=5, data=[79, 82]),
   midi.NoteOnEvent(tick=0, channel=5, data=[90, 0]),
   midi.NoteOnEvent(tick=0, channel=5, data=[91, 82]),
   midi.NoteOnEvent(tick=63, channel=5, data=[63, 0]),
   midi.NoteOnEvent(tick=17, channel=5, data=[32, 0]),
   midi.NoteOnEvent(tick=0, channel=5, data=[68, 0]),
   midi.NoteOnEvent(tick=0, channel=5, data=[68, 77]),
   midi.NoteOnEvent(tick=0, channel=5, data=[72, 0]),
   midi.NoteOnEvent(tick=0, channel=5, data=[79, 0]),
   midi.NoteOnEvent(tick=0, channel=5, data=[91, 0]),
   midi.NoteOnEvent(tick=0, channel=5, data=[92, 77]),
   midi.NoteOnEvent(tick=1369, channel=5, data=[68, 0]),
   midi.NoteOnEvent(tick=0, channel=5, data=[92, 0]),
   midi.NoteOnEvent(tick=71, channel=5, data=[67, 74]),
   midi.NoteOnEvent(tick=0, channel=5, data=[91, 74]),
   midi.NoteOnEvent(tick=240, channel=5, data=[65, 69]),
   midi.NoteOnEvent(tick=0, channel=5, data=[67, 0]),
   midi.NoteOnEvent(tick=0, channel=5, data=[89, 69]),
   midi.NoteOnEvent(tick=0, channel=5, data=[91, 0]),
   midi.NoteOnEvent(tick=240, channel=5, data=[67, 71]),
   midi.NoteOnEvent(tick=0, channel=5, data=[91, 71]),
   midi.NoteOnEvent(tick=9, channel=5, data=[65, 0]),
   midi.NoteOnEvent(tick=0, channel=5, data=[89, 0]),
   midi.NoteOnEvent(tick=1374, channel=5, data=[67, 0]),
   midi.NoteOnEvent(tick=0, channel=5, data=[91, 0]),
   midi.NoteOnEvent(tick=57, channel=5, data=[65, 78]),
   midi.NoteOnEvent(tick=0, channel=5, data=[89, 78]),
   midi.NoteOnEvent(tick=209, channel=5, data=[65, 0]),
   midi.NoteOnEvent(tick=0, channel=5, data=[89, 0]),
   midi.NoteOnEvent(tick=31, channel=5, data=[63, 76]),
   midi.NoteOnEvent(tick=0, channel=5, data=[87, 76]),
   midi.NoteOnEvent(tick=240, channel=5, data=[63, 0]),
   midi.NoteOnEvent(tick=0, channel=5, data=[65, 73]),
   midi.NoteOnEvent(tick=0, channel=5, data=[87, 0]),
   midi.NoteOnEvent(tick=0, channel=5, data=[89, 73]),
   midi.NoteOnEvent(tick=1433, channel=5, data=[65, 0]),
   midi.NoteOnEvent(tick=0, channel=5, data=[89, 0]),
   midi.NoteOnEvent(tick=7, channel=5, data=[63, 78]),
   midi.NoteOnEvent(tick=0, channel=5, data=[87, 78]),
   midi.NoteOnEvent(tick=209, channel=5, data=[63, 0]),
   midi.NoteOnEvent(tick=0, channel=5, data=[87, 0]),
   midi.NoteOnEvent(tick=31, channel=5, data=[61, 76]),
   midi.NoteOnEvent(tick=0, channel=5, data=[85, 76]),
   midi.NoteOnEvent(tick=240, channel=5, data=[61, 0]),
   midi.NoteOnEvent(tick=0, channel=5, data=[63, 69]),
   midi.NoteOnEvent(tick=0, channel=5, data=[85, 0]),
   midi.NoteOnEvent(tick=0, channel=5, data=[87, 69]),
   midi.NoteOnEvent(tick=480, channel=5, data=[85, 76]),
   midi.NoteOnEvent(tick=11, channel=5, data=[87, 0]),
   midi.NoteOnEvent(tick=408, channel=5, data=[85, 0]),
   midi.NoteOnEvent(tick=61, channel=5, data=[84, 75]),
   midi.NoteOnEvent(tick=480, channel=5, data=[82, 84]),
   midi.NoteOnEvent(tick=54, channel=5, data=[84, 0]),
   midi.NoteOnEvent(tick=357, channel=5, data=[82, 0]),
   midi.NoteOnEvent(tick=67, channel=5, data=[63, 0]),
   midi.NoteOnEvent(tick=2, channel=5, data=[84, 78]),
   midi.NoteOnEvent(tick=720, channel=5, data=[84, 0]),
   midi.NoteOnEvent(tick=0, channel=5, data=[89, 74]),
   midi.NoteOnEvent(tick=234, channel=5, data=[89, 0]),
   midi.NoteOnEvent(tick=6, channel=5, data=[91, 74]),
   midi.NoteOnEvent(tick=480, channel=5, data=[91, 0]),
   midi.NoteOnEvent(tick=0, channel=5, data=[92, 74]),
   midi.NoteOnEvent(tick=480, channel=5, data=[91, 78]),
   midi.NoteOnEvent(tick=0, channel=5, data=[92, 0]),
   midi.NoteOnEvent(tick=720, channel=5, data=[91, 0]),
   midi.NoteOnEvent(tick=0, channel=5, data=[92, 74]),
   midi.NoteOnEvent(tick=234, channel=5, data=[92, 0]),
   midi.NoteOnEvent(tick=6, channel=5, data=[94, 74]),
   midi.NoteOnEvent(tick=480, channel=5, data=[87, 74]),
   midi.NoteOnEvent(tick=0, channel=5, data=[94, 0]),
   midi.NoteOnEvent(tick=480, channel=5, data=[87, 0]),
   midi.NoteOnEvent(tick=0, channel=5, data=[89, 79]),
   midi.NoteOnEvent(tick=1920, channel=5, data=[82, 74]),
   midi.NoteOnEvent(tick=9, channel=5, data=[89, 0]),
   midi.NoteOnEvent(tick=231, channel=5, data=[82, 0]),
   midi.NoteOnEvent(tick=0, channel=5, data=[84, 74]),
   midi.NoteOnEvent(tick=234, channel=5, data=[84, 0]),
   midi.NoteOnEvent(tick=6, channel=5, data=[85, 71]),
   midi.NoteOnEvent(tick=234, channel=5, data=[85, 0]),
   midi.NoteOnEvent(tick=6, channel=5, data=[87, 71]),
   midi.NoteOnEvent(tick=240, channel=5, data=[89, 74]),
   midi.NoteOnEvent(tick=6, channel=5, data=[87, 0]),
   midi.NoteOnEvent(tick=219, channel=5, data=[89, 0]),
   midi.NoteOnEvent(tick=15, channel=5, data=[91, 78]),
   midi.NoteOnEvent(tick=240, channel=5, data=[92, 73]),
   midi.NoteOnEvent(tick=1, channel=5, data=[91, 0]),
   midi.NoteOnEvent(tick=238, channel=5, data=[92, 0]),
   midi.NoteOnEvent(tick=1, channel=5, data=[94, 73]),
   midi.NoteOnEvent(tick=239, channel=5, data=[94, 0]),
   midi.NoteOnEvent(tick=1, channel=5, data=[72, 77]),
   midi.NoteOnEvent(tick=0, channel=5, data=[96, 77]),
   midi.NoteOnEvent(tick=1369, channel=5, data=[72, 0]),
   midi.NoteOnEvent(tick=0, channel=5, data=[96, 0]),
   midi.NoteOnEvent(tick=71, channel=5, data=[70, 74]),
   midi.NoteOnEvent(tick=0, channel=5, data=[94, 74]),
   midi.NoteOnEvent(tick=240, channel=5, data=[68, 69]),
   midi.NoteOnEvent(tick=0, channel=5, data=[70, 0]),
   midi.NoteOnEvent(tick=0, channel=5, data=[92, 69]),
   midi.NoteOnEvent(tick=0, channel=5, data=[94, 0]),
   midi.NoteOnEvent(tick=240, channel=5, data=[70, 71]),
   midi.NoteOnEvent(tick=0, channel=5, data=[94, 71]),
   midi.NoteOnEvent(tick=9, channel=5, data=[68, 0]),
   midi.NoteOnEvent(tick=0, channel=5, data=[92, 0]),
   midi.NoteOnEvent(tick=1374, channel=5, data=[70, 0]),
   midi.NoteOnEvent(tick=0, channel=5, data=[94, 0]),
   midi.NoteOnEvent(tick=57, channel=5, data=[68, 78]),
   midi.NoteOnEvent(tick=0, channel=5, data=[92, 78]),
   midi.NoteOnEvent(tick=209, channel=5, data=[68, 0]),
   midi.NoteOnEvent(tick=0, channel=5, data=[92, 0]),
   midi.NoteOnEvent(tick=31, channel=5, data=[67, 76]),
   midi.NoteOnEvent(tick=0, channel=5, data=[91, 76]),
   midi.NoteOnEvent(tick=240, channel=5, data=[67, 0]),
   midi.NoteOnEvent(tick=0, channel=5, data=[68, 73]),
   midi.NoteOnEvent(tick=0, channel=5, data=[91, 0]),
   midi.NoteOnEvent(tick=0, channel=5, data=[92, 73]),
   midi.NoteOnEvent(tick=1433, channel=5, data=[68, 0]),
   midi.NoteOnEvent(tick=0, channel=5, data=[92, 0]),
   midi.NoteOnEvent(tick=7, channel=5, data=[67, 78]),
   midi.NoteOnEvent(tick=0, channel=5, data=[91, 78]),
   midi.NoteOnEvent(tick=209, channel=5, data=[67, 0]),
   midi.NoteOnEvent(tick=0, channel=5, data=[91, 0]),
   midi.NoteOnEvent(tick=31, channel=5, data=[65, 76]),
   midi.NoteOnEvent(tick=0, channel=5, data=[89, 76]),
   midi.NoteOnEvent(tick=240, channel=5, data=[65, 0]),
   midi.NoteOnEvent(tick=0, channel=5, data=[67, 69]),
   midi.NoteOnEvent(tick=0, channel=5, data=[89, 0]),
   midi.NoteOnEvent(tick=0, channel=5, data=[91, 69]),
   midi.NoteOnEvent(tick=480, channel=5, data=[89, 76]),
   midi.NoteOnEvent(tick=11, channel=5, data=[91, 0]),
   midi.NoteOnEvent(tick=408, channel=5, data=[89, 0]),
   midi.NoteOnEvent(tick=61, channel=5, data=[87, 75]),
   midi.NoteOnEvent(tick=480, channel=5, data=[82, 84]),
   midi.NoteOnEvent(tick=0, channel=5, data=[87, 0]),
   midi.NoteOnEvent(tick=240, channel=5, data=[82, 0]),
   midi.NoteOnEvent(tick=0, channel=5, data=[85, 84]),
   midi.NoteOnEvent(tick=238, channel=5, data=[67, 0]),
   midi.NoteOnEvent(tick=2, channel=5, data=[84, 78]),
   midi.NoteOnEvent(tick=0, channel=5, data=[85, 0]),
   midi.NoteOnEvent(tick=720, channel=5, data=[84, 0]),
   midi.NoteOnEvent(tick=0, channel=5, data=[89, 74]),
   midi.NoteOnEvent(tick=234, channel=5, data=[89, 0]),
   midi.NoteOnEvent(tick=6, channel=5, data=[91, 74]),
   midi.NoteOnEvent(tick=480, channel=5, data=[91, 0]),
   midi.NoteOnEvent(tick=0, channel=5, data=[92, 74]),
   midi.NoteOnEvent(tick=480, channel=5, data=[91, 78]),
   midi.NoteOnEvent(tick=0, channel=5, data=[92, 0]),
   midi.NoteOnEvent(tick=720, channel=5, data=[91, 0]),
   midi.NoteOnEvent(tick=0, channel=5, data=[92, 74]),
   midi.NoteOnEvent(tick=234, channel=5, data=[92, 0]),
   midi.NoteOnEvent(tick=6, channel=5, data=[94, 74]),
   midi.NoteOnEvent(tick=480, channel=5, data=[87, 74]),
   midi.NoteOnEvent(tick=0, channel=5, data=[94, 0]),
   midi.NoteOnEvent(tick=480, channel=5, data=[87, 0]),
   midi.NoteOnEvent(tick=0, channel=5, data=[89, 79]),
   midi.NoteOnEvent(tick=1920, channel=5, data=[82, 74]),
   midi.NoteOnEvent(tick=9, channel=5, data=[89, 0]),
   midi.NoteOnEvent(tick=231, channel=5, data=[82, 0]),
   midi.NoteOnEvent(tick=0, channel=5, data=[84, 74]),
   midi.NoteOnEvent(tick=234, channel=5, data=[84, 0]),
   midi.NoteOnEvent(tick=6, channel=5, data=[85, 71]),
   midi.NoteOnEvent(tick=234, channel=5, data=[85, 0]),
   midi.NoteOnEvent(tick=6, channel=5, data=[87, 71]),
   midi.NoteOnEvent(tick=240, channel=5, data=[89, 74]),
   midi.NoteOnEvent(tick=6, channel=5, data=[87, 0]),
   midi.NoteOnEvent(tick=219, channel=5, data=[89, 0]),
   midi.NoteOnEvent(tick=15, channel=5, data=[91, 78]),
   midi.NoteOnEvent(tick=240, channel=5, data=[92, 73]),
   midi.NoteOnEvent(tick=1, channel=5, data=[91, 0]),
   midi.NoteOnEvent(tick=238, channel=5, data=[92, 0]),
   midi.NoteOnEvent(tick=1, channel=5, data=[94, 73]),
   midi.NoteOnEvent(tick=239, channel=5, data=[94, 0]),
   midi.NoteOnEvent(tick=1, channel=5, data=[92, 61]),
   midi.ControlChangeEvent(tick=11520, channel=5, data=[11, 127]),
   midi.ControlChangeEvent(tick=60, channel=5, data=[11, 126]),
   midi.ControlChangeEvent(tick=30, channel=5, data=[11, 125]),
   midi.ControlChangeEvent(tick=60, channel=5, data=[11, 124]),
   midi.ControlChangeEvent(tick=30, channel=5, data=[11, 123]),
   midi.ControlChangeEvent(tick=30, channel=5, data=[11, 122]),
   midi.ControlChangeEvent(tick=60, channel=5, data=[11, 121]),
   midi.ControlChangeEvent(tick=30, channel=5, data=[11, 120]),
   midi.ControlChangeEvent(tick=60, channel=5, data=[11, 119]),
   midi.ControlChangeEvent(tick=30, channel=5, data=[11, 118]),
   midi.ControlChangeEvent(tick=30, channel=5, data=[11, 117]),
   midi.ControlChangeEvent(tick=60, channel=5, data=[11, 116]),
   midi.ControlChangeEvent(tick=30, channel=5, data=[11, 115]),
   midi.ControlChangeEvent(tick=30, channel=5, data=[11, 114]),
   midi.ControlChangeEvent(tick=60, channel=5, data=[11, 113]),
   midi.ControlChangeEvent(tick=30, channel=5, data=[11, 112]),
   midi.ControlChangeEvent(tick=60, channel=5, data=[11, 111]),
   midi.ControlChangeEvent(tick=30, channel=5, data=[11, 110]),
   midi.ControlChangeEvent(tick=30, channel=5, data=[11, 109]),
   midi.ControlChangeEvent(tick=60, channel=5, data=[11, 108]),
   midi.ControlChangeEvent(tick=30, channel=5, data=[11, 107]),
   midi.ControlChangeEvent(tick=30, channel=5, data=[11, 106]),
   midi.ControlChangeEvent(tick=60, channel=5, data=[11, 105]),
   midi.ControlChangeEvent(tick=30, channel=5, data=[11, 104]),
   midi.ControlChangeEvent(tick=60, channel=5, data=[11, 103]),
   midi.ControlChangeEvent(tick=30, channel=5, data=[11, 102]),
   midi.ControlChangeEvent(tick=30, channel=5, data=[11, 101]),
   midi.ControlChangeEvent(tick=60, channel=5, data=[11, 100]),
   midi.ControlChangeEvent(tick=30, channel=5, data=[11, 99]),
   midi.ControlChangeEvent(tick=60, channel=5, data=[11, 98]),
   midi.ControlChangeEvent(tick=30, channel=5, data=[11, 97]),
   midi.ControlChangeEvent(tick=30, channel=5, data=[11, 96]),
   midi.ControlChangeEvent(tick=60, channel=5, data=[11, 95]),
   midi.ControlChangeEvent(tick=30, channel=5, data=[11, 94]),
   midi.ControlChangeEvent(tick=30, channel=5, data=[11, 93]),
   midi.ControlChangeEvent(tick=60, channel=5, data=[11, 92]),
   midi.ControlChangeEvent(tick=30, channel=5, data=[11, 91]),
   midi.ControlChangeEvent(tick=60, channel=5, data=[11, 90]),
   midi.ControlChangeEvent(tick=30, channel=5, data=[11, 89]),
   midi.ControlChangeEvent(tick=30, channel=5, data=[11, 88]),
   midi.ControlChangeEvent(tick=60, channel=5, data=[11, 87]),
   midi.ControlChangeEvent(tick=30, channel=5, data=[11, 86]),
   midi.ControlChangeEvent(tick=30, channel=5, data=[11, 85]),
   midi.ControlChangeEvent(tick=60, channel=5, data=[11, 84]),
   midi.ControlChangeEvent(tick=30, channel=5, data=[11, 83]),
   midi.ControlChangeEvent(tick=60, channel=5, data=[11, 82]),
   midi.ControlChangeEvent(tick=30, channel=5, data=[11, 81]),
   midi.NoteOnEvent(tick=0, channel=5, data=[92, 0]),
   midi.ControlChangeEvent(tick=30, channel=5, data=[11, 80]),
   midi.ControlChangeEvent(tick=60, channel=5, data=[11, 79]),
   midi.ControlChangeEvent(tick=30, channel=5, data=[11, 78]),
   midi.ControlChangeEvent(tick=30, channel=5, data=[11, 77]),
   midi.ControlChangeEvent(tick=60, channel=5, data=[11, 76]),
   midi.ControlChangeEvent(tick=30, channel=5, data=[11, 75]),
   midi.ControlChangeEvent(tick=60, channel=5, data=[11, 74]),
   midi.ControlChangeEvent(tick=30, channel=5, data=[11, 73]),
   midi.ControlChangeEvent(tick=30, channel=5, data=[11, 72]),
   midi.ControlChangeEvent(tick=60, channel=5, data=[11, 71]),
   midi.ControlChangeEvent(tick=30, channel=5, data=[11, 70]),
   midi.ControlChangeEvent(tick=60, channel=5, data=[11, 69]),
   midi.ControlChangeEvent(tick=30, channel=5, data=[11, 68]),
   midi.ControlChangeEvent(tick=30, channel=5, data=[11, 67]),
   midi.ControlChangeEvent(tick=60, channel=5, data=[11, 66]),
   midi.ControlChangeEvent(tick=30, channel=5, data=[11, 65]),
   midi.ControlChangeEvent(tick=30, channel=5, data=[11, 64]),
   midi.ControlChangeEvent(tick=60, channel=5, data=[11, 63]),
   midi.ControlChangeEvent(tick=30, channel=5, data=[11, 62]),
   midi.ControlChangeEvent(tick=60, channel=5, data=[11, 61]),
   midi.ControlChangeEvent(tick=30, channel=5, data=[11, 60]),
   midi.ControlChangeEvent(tick=30, channel=5, data=[11, 59]),
   midi.ControlChangeEvent(tick=60, channel=5, data=[11, 58]),
   midi.ControlChangeEvent(tick=30, channel=5, data=[11, 57]),
   midi.ControlChangeEvent(tick=30, channel=5, data=[11, 56]),
   midi.ControlChangeEvent(tick=60, channel=5, data=[11, 55]),
   midi.ControlChangeEvent(tick=30, channel=5, data=[11, 54]),
   midi.ControlChangeEvent(tick=60, channel=5, data=[11, 53]),
   midi.ControlChangeEvent(tick=30, channel=5, data=[11, 52]),
   midi.ControlChangeEvent(tick=30, channel=5, data=[11, 51]),
   midi.ControlChangeEvent(tick=60, channel=5, data=[11, 50]),
   midi.ControlChangeEvent(tick=30, channel=5, data=[11, 49]),
   midi.ControlChangeEvent(tick=30, channel=5, data=[11, 48]),
   midi.ControlChangeEvent(tick=60, channel=5, data=[11, 47]),
   midi.ControlChangeEvent(tick=30, channel=5, data=[11, 46]),
   midi.ControlChangeEvent(tick=60, channel=5, data=[11, 45]),
   midi.ControlChangeEvent(tick=30, channel=5, data=[11, 44]),
   midi.ControlChangeEvent(tick=30, channel=5, data=[11, 43]),
   midi.ControlChangeEvent(tick=60, channel=5, data=[11, 42]),
   midi.ControlChangeEvent(tick=30, channel=5, data=[11, 41]),
   midi.ControlChangeEvent(tick=750, channel=5, data=[11, 93]),
   midi.NoteOnEvent(tick=3360, channel=5, data=[44, 47]),
   midi.NoteOnEvent(tick=0, channel=5, data=[51, 47]),
   midi.NoteOnEvent(tick=0, channel=5, data=[56, 47]),
   midi.NoteOnEvent(tick=0, channel=5, data=[60, 47]),
   midi.NoteOnEvent(tick=0, channel=5, data=[63, 47]),
   midi.NoteOnEvent(tick=0, channel=5, data=[68, 47]),
   midi.ControlChangeEvent(tick=3840, channel=5, data=[11, 91]),
   midi.ControlChangeEvent(tick=120, channel=5, data=[11, 88]),
   midi.ControlChangeEvent(tick=120, channel=5, data=[11, 84]),
   midi.ControlChangeEvent(tick=120, channel=5, data=[11, 81]),
   midi.ControlChangeEvent(tick=120, channel=5, data=[11, 77]),
   midi.ControlChangeEvent(tick=120, channel=5, data=[11, 74]),
   midi.ControlChangeEvent(tick=120, channel=5, data=[11, 70]),
   midi.ControlChangeEvent(tick=120, channel=5, data=[11, 67]),
   midi.ControlChangeEvent(tick=120, channel=5, data=[11, 64]),
   midi.ControlChangeEvent(tick=120, channel=5, data=[11, 60]),
   midi.ControlChangeEvent(tick=120, channel=5, data=[11, 57]),
   midi.ControlChangeEvent(tick=120, channel=5, data=[11, 53]),
   midi.ControlChangeEvent(tick=120, channel=5, data=[11, 50]),
   midi.ControlChangeEvent(tick=120, channel=5, data=[11, 46]),
   midi.ControlChangeEvent(tick=120, channel=5, data=[11, 43]),
   midi.ControlChangeEvent(tick=120, channel=5, data=[11, 40]),
   midi.NoteOnEvent(tick=120, channel=5, data=[44, 0]),
   midi.NoteOnEvent(tick=0, channel=5, data=[51, 0]),
   midi.NoteOnEvent(tick=0, channel=5, data=[56, 0]),
   midi.NoteOnEvent(tick=0, channel=5, data=[60, 0]),
   midi.NoteOnEvent(tick=0, channel=5, data=[63, 0]),
   midi.NoteOnEvent(tick=0, channel=5, data=[68, 0]),
   midi.EndOfTrackEvent(tick=5, data=[])]),
 midi.Track(\
  [midi.ChannelPrefixEvent(tick=0, data=[8]),
   midi.TrackNameEvent(tick=0, text="My Heart Will Go On (Iz Filma 'Titanik') 02 (Karaoke)", data=[77, 121, 32, 72, 101, 97, 114, 116, 32, 87, 105, 108, 108, 32, 71, 111, 32, 79, 110, 32, 40, 73, 122, 32, 70, 105, 108, 109, 97, 32, 39, 84, 105, 116, 97, 110, 105, 107, 39, 41, 32, 48, 50, 32, 40, 75, 97, 114, 97, 111, 107, 101, 41]),
   midi.InstrumentNameEvent(tick=0, text='\xe8\x8b\xb1\xe5\x9b\xbd\xe5\x88\x86\xe4\xbd\x93\xe5\xbc\x8f\xe5\x90\x88\xe6\x88\x90\xe4\xb8\xbb\xe9\x9f\xb3', data=[232, 139, 177, 229, 155, 189, 229, 136, 134, 228, 189, 147, 229, 188, 143, 229, 144, 136, 230, 136, 144, 228, 184, 187, 233, 159, 179]),
   midi.ControlChangeEvent(tick=224, channel=8, data=[121, 0]),
   midi.ProgramChangeEvent(tick=309, channel=8, data=[29]),
   midi.ControlChangeEvent(tick=1, channel=8, data=[7, 88]),
   midi.ControlChangeEvent(tick=0, channel=8, data=[10, 24]),
   midi.ControlChangeEvent(tick=121, channel=8, data=[91, 100]),
   midi.ControlChangeEvent(tick=5, channel=8, data=[93, 80]),
   midi.ControlChangeEvent(tick=15, channel=8, data=[11, 127]),
   midi.ControlChangeEvent(tick=449, channel=8, data=[100, 0]),
   midi.ControlChangeEvent(tick=4, channel=8, data=[101, 0]),
   midi.ControlChangeEvent(tick=3, channel=8, data=[6, 2]),
   midi.ControlChangeEvent(tick=87180, channel=8, data=[94, 20]),
   midi.NoteOnEvent(tick=7, channel=8, data=[64, 86]),
   midi.ControlChangeEvent(tick=1781, channel=8, data=[1, 1]),
   midi.ControlChangeEvent(tick=11, channel=8, data=[1, 4]),
   midi.ControlChangeEvent(tick=38, channel=8, data=[1, 0]),
   midi.NoteOnEvent(tick=43, channel=8, data=[64, 0]),
   midi.NoteOnEvent(tick=10367, channel=8, data=[78, 88]),
   midi.NoteOnEvent(tick=225, channel=8, data=[78, 0]),
   midi.NoteOnEvent(tick=15, channel=8, data=[78, 86]),
   midi.ControlChangeEvent(tick=412, channel=8, data=[1, 1]),
   midi.ControlChangeEvent(tick=25, channel=8, data=[1, 25]),
   midi.ControlChangeEvent(tick=13, channel=8, data=[1, 38]),
   midi.ControlChangeEvent(tick=10, channel=8, data=[1, 63]),
   midi.ControlChangeEvent(tick=15, channel=8, data=[1, 75]),
   midi.ControlChangeEvent(tick=8, channel=8, data=[1, 84]),
   midi.ControlChangeEvent(tick=15, channel=8, data=[1, 88]),
   midi.ControlChangeEvent(tick=14, channel=8, data=[1, 99]),
   midi.ControlChangeEvent(tick=11, channel=8, data=[1, 104]),
   midi.ControlChangeEvent(tick=13, channel=8, data=[1, 112]),
   midi.ControlChangeEvent(tick=11, channel=8, data=[1, 115]),
   midi.ControlChangeEvent(tick=13, channel=8, data=[1, 116]),
   midi.ControlChangeEvent(tick=12, channel=8, data=[1, 117]),
   midi.ControlChangeEvent(tick=11, channel=8, data=[1, 118]),
   midi.ControlChangeEvent(tick=27, channel=8, data=[1, 119]),
   midi.ControlChangeEvent(tick=12, channel=8, data=[1, 118]),
   midi.ControlChangeEvent(tick=11, channel=8, data=[1, 115]),
   midi.ControlChangeEvent(tick=13, channel=8, data=[1, 101]),
   midi.ControlChangeEvent(tick=12, channel=8, data=[1, 71]),
   midi.ControlChangeEvent(tick=13, channel=8, data=[1, 17]),
   midi.ControlChangeEvent(tick=11, channel=8, data=[1, 2]),
   midi.ControlChangeEvent(tick=13, channel=8, data=[1, 0]),
   midi.NoteOnEvent(tick=25, channel=8, data=[71, 83]),
   midi.NoteOnEvent(tick=22, channel=8, data=[78, 0]),
   midi.NoteOnEvent(tick=215, channel=8, data=[71, 0]),
   midi.NoteOnEvent(tick=3, channel=8, data=[71, 86]),
   midi.ControlChangeEvent(tick=415, channel=8, data=[1, 1]),
   midi.ControlChangeEvent(tick=11, channel=8, data=[1, 30]),
   midi.ControlChangeEvent(tick=14, channel=8, data=[1, 69]),
   midi.ControlChangeEvent(tick=12, channel=8, data=[1, 85]),
   midi.ControlChangeEvent(tick=10, channel=8, data=[1, 102]),
   midi.ControlChangeEvent(tick=13, channel=8, data=[1, 114]),
   midi.ControlChangeEvent(tick=12, channel=8, data=[1, 119]),
   midi.ControlChangeEvent(tick=38, channel=8, data=[1, 122]),
   midi.ControlChangeEvent(tick=0, channel=8, data=[1, 121]),
   midi.ControlChangeEvent(tick=62, channel=8, data=[1, 120]),
   midi.ControlChangeEvent(tick=13, channel=8, data=[1, 114]),
   midi.ControlChangeEvent(tick=11, channel=8, data=[1, 88]),
   midi.ControlChangeEvent(tick=12, channel=8, data=[1, 26]),
   midi.ControlChangeEvent(tick=14, channel=8, data=[1, 3]),
   midi.ControlChangeEvent(tick=10, channel=8, data=[1, 0]),
   midi.NoteOnEvent(tick=73, channel=8, data=[71, 0]),
   midi.NoteOnEvent(tick=0, channel=8, data=[73, 80]),
   midi.NoteOnEvent(tick=237, channel=8, data=[73, 0]),
   midi.NoteOnEvent(tick=3, channel=8, data=[73, 87]),
   midi.ControlChangeEvent(tick=806, channel=8, data=[1, 1]),
   midi.ControlChangeEvent(tick=12, channel=8, data=[1, 16]),
   midi.ControlChangeEvent(tick=14, channel=8, data=[1, 43]),
   midi.ControlChangeEvent(tick=11, channel=8, data=[1, 64]),
   midi.ControlChangeEvent(tick=13, channel=8, data=[1, 73]),
   midi.ControlChangeEvent(tick=12, channel=8, data=[1, 78]),
   midi.ControlChangeEvent(tick=13, channel=8, data=[1, 76]),
   midi.ControlChangeEvent(tick=11, channel=8, data=[1, 64]),
   midi.ControlChangeEvent(tick=11, channel=8, data=[1, 23]),
   midi.ControlChangeEvent(tick=14, channel=8, data=[1, 4]),
   midi.ControlChangeEvent(tick=13, channel=8, data=[1, 0]),
   midi.NoteOnEvent(tick=20, channel=8, data=[73, 0]),
   midi.NoteOnEvent(tick=75130, channel=8, data=[84, 101]),
   midi.NoteOnEvent(tick=240, channel=8, data=[80, 98]),
   midi.NoteOnEvent(tick=0, channel=8, data=[84, 0]),
   midi.NoteOnEvent(tick=210, channel=8, data=[80, 0]),
   midi.NoteOnEvent(tick=30, channel=8, data=[80, 95]),
   midi.PitchWheelEvent(tick=172, channel=8, data=[94, 55]),
   midi.PitchWheelEvent(tick=11, channel=8, data=[20, 37]),
   midi.PitchWheelEvent(tick=14, channel=8, data=[74, 18]),
   midi.PitchWheelEvent(tick=11, channel=8, data=[16, 4]),
   midi.PitchWheelEvent(tick=13, channel=8, data=[0, 0]),
   midi.PitchWheelEvent(tick=20, channel=8, data=[8, 2]),
   midi.PitchWheelEvent(tick=17, channel=8, data=[57, 14]),
   midi.PitchWheelEvent(tick=12, channel=8, data=[20, 37]),
   midi.PitchWheelEvent(tick=13, channel=8, data=[85, 53]),
   midi.PitchWheelEvent(tick=13, channel=8, data=[118, 61]),
   midi.PitchWheelEvent(tick=11, channel=8, data=[0, 64]),
   midi.NoteOnEvent(tick=199, channel=8, data=[79, 86]),
   midi.NoteOnEvent(tick=0, channel=8, data=[80, 0]),
   midi.NoteOnEvent(tick=156, channel=8, data=[80, 80]),
   midi.NoteOnEvent(tick=8, channel=8, data=[79, 0]),
   midi.NoteOnEvent(tick=45, channel=8, data=[79, 91]),
   midi.NoteOnEvent(tick=28, channel=8, data=[80, 0]),
   midi.NoteOnEvent(tick=50, channel=8, data=[77, 94]),
   midi.NoteOnEvent(tick=33, channel=8, data=[79, 0]),
   midi.NoteOnEvent(tick=134, channel=8, data=[75, 88]),
   midi.NoteOnEvent(tick=0, channel=8, data=[77, 0]),
   midi.NoteOnEvent(tick=237, channel=8, data=[75, 0]),
   midi.NoteOnEvent(tick=3, channel=8, data=[77, 98]),
   midi.ControlChangeEvent(tick=1417, channel=8, data=[1, 3]),
   midi.ControlChangeEvent(tick=13, channel=8, data=[1, 17]),
   midi.ControlChangeEvent(tick=11, channel=8, data=[1, 26]),
   midi.ControlChangeEvent(tick=12, channel=8, data=[1, 31]),
   midi.ControlChangeEvent(tick=13, channel=8, data=[1, 28]),
   midi.ControlChangeEvent(tick=12, channel=8, data=[1, 31]),
   midi.ControlChangeEvent(tick=12, channel=8, data=[1, 38]),
   midi.ControlChangeEvent(tick=13, channel=8, data=[1, 42]),
   midi.ControlChangeEvent(tick=25, channel=8, data=[1, 47]),
   midi.ControlChangeEvent(tick=12, channel=8, data=[1, 50]),
   midi.ControlChangeEvent(tick=12, channel=8, data=[1, 59]),
   midi.ControlChangeEvent(tick=14, channel=8, data=[1, 65]),
   midi.ControlChangeEvent(tick=11, channel=8, data=[1, 70]),
   midi.ControlChangeEvent(tick=25, channel=8, data=[1, 71]),
   midi.ControlChangeEvent(tick=11, channel=8, data=[1, 69]),
   midi.ControlChangeEvent(tick=13, channel=8, data=[1, 68]),
   midi.ControlChangeEvent(tick=11, channel=8, data=[1, 74]),
   midi.ControlChangeEvent(tick=14, channel=8, data=[1, 80]),
   midi.ControlChangeEvent(tick=12, channel=8, data=[1, 81]),
   midi.ControlChangeEvent(tick=12, channel=8, data=[1, 86]),
   midi.ControlChangeEvent(tick=12, channel=8, data=[1, 88]),
   midi.ControlChangeEvent(tick=10, channel=8, data=[1, 89]),
   midi.ControlChangeEvent(tick=15, channel=8, data=[1, 90]),
   midi.ControlChangeEvent(tick=25, channel=8, data=[1, 89]),
   midi.ControlChangeEvent(tick=49, channel=8, data=[1, 90]),
   midi.ControlChangeEvent(tick=12, channel=8, data=[1, 87]),
   midi.ControlChangeEvent(tick=12, channel=8, data=[1, 73]),
   midi.ControlChangeEvent(tick=13, channel=8, data=[1, 47]),
   midi.ControlChangeEvent(tick=12, channel=8, data=[1, 10]),
   midi.ControlChangeEvent(tick=12, channel=8, data=[1, 0]),
   midi.NoteOnEvent(tick=73, channel=8, data=[77, 0]),
   midi.NoteOnEvent(tick=0, channel=8, data=[79, 79]),
   midi.NoteOnEvent(tick=1708, channel=8, data=[79, 0]),
   midi.NoteOnEvent(tick=212, channel=8, data=[77, 79]),
   midi.NoteOnEvent(tick=1708, channel=8, data=[77, 0]),
   midi.NoteOnEvent(tick=452, channel=8, data=[58, 84]),
   midi.NoteOnEvent(tick=216, channel=8, data=[58, 0]),
   midi.NoteOnEvent(tick=24, channel=8, data=[60, 84]),
   midi.NoteOnEvent(tick=211, channel=8, data=[60, 0]),
   midi.NoteOnEvent(tick=29, channel=8, data=[61, 84]),
   midi.NoteOnEvent(tick=238, channel=8, data=[61, 0]),
   midi.NoteOnEvent(tick=2, channel=8, data=[63, 84]),
   midi.NoteOnEvent(tick=240, channel=8, data=[58, 84]),
   midi.NoteOnEvent(tick=11, channel=8, data=[63, 0]),
   midi.ControlChangeEvent(tick=572, channel=8, data=[1, 5]),
   midi.ControlChangeEvent(tick=14, channel=8, data=[1, 18]),
   midi.ControlChangeEvent(tick=13, channel=8, data=[1, 39]),
   midi.ControlChangeEvent(tick=11, channel=8, data=[1, 70]),
   midi.ControlChangeEvent(tick=12, channel=8, data=[1, 80]),
   midi.ControlChangeEvent(tick=12, channel=8, data=[1, 78]),
   midi.ControlChangeEvent(tick=12, channel=8, data=[1, 75]),
   midi.ControlChangeEvent(tick=13, channel=8, data=[1, 42]),
   midi.ControlChangeEvent(tick=11, channel=8, data=[1, 8]),
   midi.ControlChangeEvent(tick=14, channel=8, data=[1, 0]),
   midi.NoteOnEvent(tick=8, channel=8, data=[58, 0]),
   midi.NoteOnEvent(tick=17, channel=8, data=[56, 93]),
   midi.NoteOnEvent(tick=1920, channel=8, data=[55, 94]),
   midi.NoteOnEvent(tick=35, channel=8, data=[56, 0]),
   midi.NoteOnEvent(tick=905, channel=8, data=[55, 0]),
   midi.NoteOnEvent(tick=20, channel=8, data=[75, 98]),
   midi.ControlChangeEvent(tick=708, channel=8, data=[1, 7]),
   midi.ControlChangeEvent(tick=18, channel=8, data=[1, 91]),
   midi.ControlChangeEvent(tick=6, channel=8, data=[1, 114]),
   midi.ControlChangeEvent(tick=13, channel=8, data=[1, 119]),
   midi.ControlChangeEvent(tick=11, channel=8, data=[1, 120]),
   midi.ControlChangeEvent(tick=39, channel=8, data=[1, 121]),
   midi.ControlChangeEvent(tick=87, channel=8, data=[1, 120]),
   midi.ControlChangeEvent(tick=11, channel=8, data=[1, 116]),
   midi.ControlChangeEvent(tick=13, channel=8, data=[1, 100]),
   midi.ControlChangeEvent(tick=12, channel=8, data=[1, 55]),
   midi.ControlChangeEvent(tick=12, channel=8, data=[1, 11]),
   midi.ControlChangeEvent(tick=13, channel=8, data=[1, 0]),
   midi.NoteOnEvent(tick=17, channel=8, data=[68, 98]),
   midi.NoteOnEvent(tick=16, channel=8, data=[75, 0]),
   midi.ControlChangeEvent(tick=1285, channel=8, data=[1, 4]),
   midi.ControlChangeEvent(tick=14, channel=8, data=[1, 11]),
   midi.ControlChangeEvent(tick=11, channel=8, data=[1, 20]),
   midi.ControlChangeEvent(tick=11, channel=8, data=[1, 34]),
   midi.ControlChangeEvent(tick=14, channel=8, data=[1, 45]),
   midi.ControlChangeEvent(tick=12, channel=8, data=[1, 67]),
   midi.ControlChangeEvent(tick=12, channel=8, data=[1, 72]),
   midi.ControlChangeEvent(tick=13, channel=8, data=[1, 80]),
   midi.ControlChangeEvent(tick=12, channel=8, data=[1, 85]),
   midi.ControlChangeEvent(tick=12, channel=8, data=[1, 89]),
   midi.ControlChangeEvent(tick=24, channel=8, data=[1, 90]),
   midi.ControlChangeEvent(tick=25, channel=8, data=[1, 94]),
   midi.ControlChangeEvent(tick=14, channel=8, data=[1, 95]),
   midi.ControlChangeEvent(tick=11, channel=8, data=[1, 98]),
   midi.ControlChangeEvent(tick=12, channel=8, data=[1, 102]),
   midi.ControlChangeEvent(tick=12, channel=8, data=[1, 103]),
   midi.ControlChangeEvent(tick=12, channel=8, data=[1, 105]),
   midi.ControlChangeEvent(tick=13, channel=8, data=[1, 108]),
   midi.ControlChangeEvent(tick=25, channel=8, data=[1, 109]),
   midi.ControlChangeEvent(tick=98, channel=8, data=[1, 108]),
   midi.ControlChangeEvent(tick=39, channel=8, data=[1, 105]),
   midi.ControlChangeEvent(tick=11, channel=8, data=[1, 104]),
   midi.ControlChangeEvent(tick=49, channel=8, data=[1, 105]),
   midi.ControlChangeEvent(tick=26, channel=8, data=[1, 99]),
   midi.ControlChangeEvent(tick=12, channel=8, data=[1, 94]),
   midi.ControlChangeEvent(tick=12, channel=8, data=[1, 63]),
   midi.ControlChangeEvent(tick=13, channel=8, data=[1, 25]),
   midi.ControlChangeEvent(tick=12, channel=8, data=[1, 3]),
   midi.NoteOnEvent(tick=6, channel=8, data=[68, 0]),
   midi.ControlChangeEvent(tick=5, channel=8, data=[1, 0]),
   midi.NoteOnEvent(tick=77, channel=8, data=[68, 95]),
   midi.NoteOnEvent(tick=960, channel=8, data=[67, 95]),
   midi.NoteOnEvent(tick=16, channel=8, data=[68, 0]),
   midi.NoteOnEvent(tick=960, channel=8, data=[67, 0]),
   midi.EndOfTrackEvent(tick=1906, data=[])]),
 midi.Track(\
  [midi.ChannelPrefixEvent(tick=0, data=[9]),
   midi.TrackNameEvent(tick=0, text="My Heart Will Go On (Iz Filma 'Titanik') 02 (Karaoke)", data=[77, 121, 32, 72, 101, 97, 114, 116, 32, 87, 105, 108, 108, 32, 71, 111, 32, 79, 110, 32, 40, 73, 122, 32, 70, 105, 108, 109, 97, 32, 39, 84, 105, 116, 97, 110, 105, 107, 39, 41, 32, 48, 50, 32, 40, 75, 97, 114, 97, 111, 107, 101, 41]),
   midi.InstrumentNameEvent(tick=0, text='\xe5\x8d\x97\xe5\x8a\xa0\xe9\xa3\x8e\xe6\x83\x85', data=[229, 141, 151, 229, 138, 160, 233, 163, 142, 230, 131, 133]),
   midi.ControlChangeEvent(tick=229, channel=9, data=[121, 0]),
   midi.ProgramChangeEvent(tick=310, channel=9, data=[0]),
   midi.ControlChangeEvent(tick=1, channel=9, data=[7, 127]),
   midi.ControlChangeEvent(tick=0, channel=9, data=[10, 64]),
   midi.ControlChangeEvent(tick=125, channel=9, data=[91, 60]),
   midi.ControlChangeEvent(tick=4, channel=9, data=[93, 0]),
   midi.ControlChangeEvent(tick=16, channel=9, data=[11, 127]),
   midi.ControlChangeEvent(tick=756, channel=9, data=[98, 35]),
   midi.ControlChangeEvent(tick=2, channel=9, data=[99, 29]),
   midi.ControlChangeEvent(tick=1, channel=9, data=[6, 0]),
   midi.NoteOnEvent(tick=2396, channel=9, data=[70, 41]),
   midi.NoteOnEvent(tick=5, channel=9, data=[70, 0]),
   midi.NoteOnEvent(tick=235, channel=9, data=[70, 29]),
   midi.NoteOnEvent(tick=5, channel=9, data=[70, 0]),
   midi.NoteOnEvent(tick=235, channel=9, data=[70, 41]),
   midi.NoteOnEvent(tick=5, channel=9, data=[70, 0]),
   midi.NoteOnEvent(tick=235, channel=9, data=[70, 32]),
   midi.NoteOnEvent(tick=5, channel=9, data=[70, 0]),
   midi.NoteOnEvent(tick=235, channel=9, data=[70, 41]),
   midi.NoteOnEvent(tick=5, channel=9, data=[70, 0]),
   midi.NoteOnEvent(tick=235, channel=9, data=[70, 30]),
   midi.NoteOnEvent(tick=5, channel=9, data=[70, 0]),
   midi.NoteOnEvent(tick=235, channel=9, data=[70, 44]),
   midi.NoteOnEvent(tick=5, channel=9, data=[70, 0]),
   midi.NoteOnEvent(tick=235, channel=9, data=[70, 32]),
   midi.NoteOnEvent(tick=5, channel=9, data=[70, 0]),
   midi.NoteOnEvent(tick=235, channel=9, data=[70, 41]),
   midi.NoteOnEvent(tick=5, channel=9, data=[70, 0]),
   midi.NoteOnEvent(tick=235, channel=9, data=[70, 29]),
   midi.NoteOnEvent(tick=5, channel=9, data=[70, 0]),
   midi.NoteOnEvent(tick=235, channel=9, data=[70, 41]),
   midi.NoteOnEvent(tick=5, channel=9, data=[70, 0]),
   midi.NoteOnEvent(tick=235, channel=9, data=[70, 32]),
   midi.NoteOnEvent(tick=5, channel=9, data=[70, 0]),
   midi.NoteOnEvent(tick=235, channel=9, data=[70, 41]),
   midi.NoteOnEvent(tick=5, channel=9, data=[70, 0]),
   midi.NoteOnEvent(tick=235, channel=9, data=[70, 30]),
   midi.NoteOnEvent(tick=5, channel=9, data=[70, 0]),
   midi.NoteOnEvent(tick=235, channel=9, data=[70, 44]),
   midi.NoteOnEvent(tick=5, channel=9, data=[70, 0]),
   midi.NoteOnEvent(tick=235, channel=9, data=[70, 32]),
   midi.NoteOnEvent(tick=5, channel=9, data=[70, 0]),
   midi.NoteOnEvent(tick=235, channel=9, data=[70, 41]),
   midi.NoteOnEvent(tick=5, channel=9, data=[70, 0]),
   midi.NoteOnEvent(tick=235, channel=9, data=[70, 29]),
   midi.NoteOnEvent(tick=5, channel=9, data=[70, 0]),
   midi.NoteOnEvent(tick=235, channel=9, data=[70, 41]),
   midi.NoteOnEvent(tick=5, channel=9, data=[70, 0]),
   midi.NoteOnEvent(tick=235, channel=9, data=[70, 32]),
   midi.NoteOnEvent(tick=5, channel=9, data=[70, 0]),
   midi.NoteOnEvent(tick=235, channel=9, data=[70, 41]),
   midi.NoteOnEvent(tick=5, channel=9, data=[70, 0]),
   midi.NoteOnEvent(tick=235, channel=9, data=[70, 30]),
   midi.NoteOnEvent(tick=5, channel=9, data=[70, 0]),
   midi.NoteOnEvent(tick=235, channel=9, data=[70, 44]),
   midi.NoteOnEvent(tick=5, channel=9, data=[70, 0]),
   midi.NoteOnEvent(tick=235, channel=9, data=[70, 32]),
   midi.NoteOnEvent(tick=5, channel=9, data=[70, 0]),
   midi.NoteOnEvent(tick=235, channel=9, data=[70, 41]),
   midi.NoteOnEvent(tick=5, channel=9, data=[70, 0]),
   midi.NoteOnEvent(tick=235, channel=9, data=[70, 29]),
   midi.NoteOnEvent(tick=5, channel=9, data=[70, 0]),
   midi.NoteOnEvent(tick=235, channel=9, data=[70, 41]),
   midi.NoteOnEvent(tick=5, channel=9, data=[70, 0]),
   midi.NoteOnEvent(tick=235, channel=9, data=[70, 32]),
   midi.NoteOnEvent(tick=5, channel=9, data=[70, 0]),
   midi.NoteOnEvent(tick=235, channel=9, data=[70, 41]),
   midi.NoteOnEvent(tick=5, channel=9, data=[70, 0]),
   midi.NoteOnEvent(tick=235, channel=9, data=[70, 30]),
   midi.NoteOnEvent(tick=5, channel=9, data=[70, 0]),
   midi.NoteOnEvent(tick=235, channel=9, data=[70, 44]),
   midi.NoteOnEvent(tick=5, channel=9, data=[70, 0]),
   midi.NoteOnEvent(tick=235, channel=9, data=[70, 32]),
   midi.NoteOnEvent(tick=5, channel=9, data=[70, 0]),
   midi.NoteOnEvent(tick=235, channel=9, data=[70, 41]),
   midi.NoteOnEvent(tick=5, channel=9, data=[70, 0]),
   midi.NoteOnEvent(tick=235, channel=9, data=[70, 29]),
   midi.NoteOnEvent(tick=5, channel=9, data=[70, 0]),
   midi.NoteOnEvent(tick=235, channel=9, data=[70, 41]),
   midi.NoteOnEvent(tick=5, channel=9, data=[70, 0]),
   midi.NoteOnEvent(tick=235, channel=9, data=[70, 32]),
   midi.NoteOnEvent(tick=5, channel=9, data=[70, 0]),
   midi.NoteOnEvent(tick=235, channel=9, data=[70, 41]),
   midi.NoteOnEvent(tick=5, channel=9, data=[70, 0]),
   midi.NoteOnEvent(tick=235, channel=9, data=[70, 30]),
   midi.NoteOnEvent(tick=5, channel=9, data=[70, 0]),
   midi.NoteOnEvent(tick=235, channel=9, data=[70, 44]),
   midi.NoteOnEvent(tick=5, channel=9, data=[70, 0]),
   midi.NoteOnEvent(tick=235, channel=9, data=[70, 32]),
   midi.NoteOnEvent(tick=5, channel=9, data=[70, 0]),
   midi.NoteOnEvent(tick=235, channel=9, data=[70, 41]),
   midi.NoteOnEvent(tick=5, channel=9, data=[70, 0]),
   midi.NoteOnEvent(tick=235, channel=9, data=[70, 29]),
   midi.NoteOnEvent(tick=5, channel=9, data=[70, 0]),
   midi.NoteOnEvent(tick=235, channel=9, data=[70, 41]),
   midi.NoteOnEvent(tick=5, channel=9, data=[70, 0]),
   midi.NoteOnEvent(tick=235, channel=9, data=[70, 32]),
   midi.NoteOnEvent(tick=5, channel=9, data=[70, 0]),
   midi.NoteOnEvent(tick=235, channel=9, data=[70, 41]),
   midi.NoteOnEvent(tick=5, channel=9, data=[70, 0]),
   midi.NoteOnEvent(tick=235, channel=9, data=[70, 30]),
   midi.NoteOnEvent(tick=5, channel=9, data=[70, 0]),
   midi.NoteOnEvent(tick=235, channel=9, data=[70, 44]),
   midi.NoteOnEvent(tick=5, channel=9, data=[70, 0]),
   midi.NoteOnEvent(tick=235, channel=9, data=[70, 32]),
   midi.NoteOnEvent(tick=5, channel=9, data=[70, 0]),
   midi.NoteOnEvent(tick=235, channel=9, data=[70, 41]),
   midi.NoteOnEvent(tick=5, channel=9, data=[70, 0]),
   midi.NoteOnEvent(tick=235, channel=9, data=[70, 29]),
   midi.NoteOnEvent(tick=5, channel=9, data=[70, 0]),
   midi.NoteOnEvent(tick=235, channel=9, data=[70, 41]),
   midi.NoteOnEvent(tick=5, channel=9, data=[70, 0]),
   midi.NoteOnEvent(tick=235, channel=9, data=[70, 32]),
   midi.NoteOnEvent(tick=5, channel=9, data=[70, 0]),
   midi.NoteOnEvent(tick=235, channel=9, data=[70, 41]),
   midi.NoteOnEvent(tick=5, channel=9, data=[70, 0]),
   midi.NoteOnEvent(tick=235, channel=9, data=[70, 30]),
   midi.NoteOnEvent(tick=5, channel=9, data=[70, 0]),
   midi.NoteOnEvent(tick=235, channel=9, data=[70, 44]),
   midi.NoteOnEvent(tick=5, channel=9, data=[70, 0]),
   midi.NoteOnEvent(tick=235, channel=9, data=[70, 32]),
   midi.NoteOnEvent(tick=5, channel=9, data=[70, 0]),
   midi.NoteOnEvent(tick=235, channel=9, data=[70, 41]),
   midi.NoteOnEvent(tick=5, channel=9, data=[70, 0]),
   midi.NoteOnEvent(tick=235, channel=9, data=[70, 29]),
   midi.NoteOnEvent(tick=5, channel=9, data=[70, 0]),
   midi.NoteOnEvent(tick=235, channel=9, data=[70, 41]),
   midi.NoteOnEvent(tick=5, channel=9, data=[70, 0]),
   midi.NoteOnEvent(tick=235, channel=9, data=[70, 32]),
   midi.NoteOnEvent(tick=5, channel=9, data=[70, 0]),
   midi.NoteOnEvent(tick=235, channel=9, data=[70, 41]),
   midi.NoteOnEvent(tick=5, channel=9, data=[70, 0]),
   midi.NoteOnEvent(tick=235, channel=9, data=[70, 30]),
   midi.NoteOnEvent(tick=5, channel=9, data=[70, 0]),
   midi.NoteOnEvent(tick=235, channel=9, data=[70, 44]),
   midi.NoteOnEvent(tick=5, channel=9, data=[70, 0]),
   midi.NoteOnEvent(tick=235, channel=9, data=[70, 32]),
   midi.NoteOnEvent(tick=5, channel=9, data=[70, 0]),
   midi.NoteOnEvent(tick=235, channel=9, data=[70, 41]),
   midi.NoteOnEvent(tick=5, channel=9, data=[70, 0]),
   midi.NoteOnEvent(tick=235, channel=9, data=[70, 29]),
   midi.NoteOnEvent(tick=5, channel=9, data=[70, 0]),
   midi.NoteOnEvent(tick=235, channel=9, data=[70, 41]),
   midi.NoteOnEvent(tick=5, channel=9, data=[70, 0]),
   midi.NoteOnEvent(tick=235, channel=9, data=[70, 32]),
   midi.NoteOnEvent(tick=5, channel=9, data=[70, 0]),
   midi.NoteOnEvent(tick=235, channel=9, data=[70, 41]),
   midi.NoteOnEvent(tick=5, channel=9, data=[70, 0]),
   midi.NoteOnEvent(tick=235, channel=9, data=[70, 30]),
   midi.NoteOnEvent(tick=5, channel=9, data=[70, 0]),
   midi.NoteOnEvent(tick=235, channel=9, data=[70, 44]),
   midi.NoteOnEvent(tick=5, channel=9, data=[70, 0]),
   midi.NoteOnEvent(tick=235, channel=9, data=[70, 32]),
   midi.NoteOnEvent(tick=5, channel=9, data=[70, 0]),
   midi.ControlChangeEvent(tick=235, channel=9, data=[98, 54]),
   midi.NoteOnEvent(tick=0, channel=9, data=[70, 41]),
   midi.NoteOnEvent(tick=5, channel=9, data=[70, 0]),
   midi.ControlChangeEvent(tick=3, channel=9, data=[99, 29]),
   midi.ControlChangeEvent(tick=7, channel=9, data=[98, 54]),
   midi.ControlChangeEvent(tick=0, channel=9, data=[6, 127]),
   midi.ControlChangeEvent(tick=8, channel=9, data=[99, 24]),
   midi.ControlChangeEvent(tick=7, channel=9, data=[98, 54]),
   midi.ControlChangeEvent(tick=0, channel=9, data=[6, 66]),
   midi.ControlChangeEvent(tick=8, channel=9, data=[99, 28]),
   midi.ControlChangeEvent(tick=7, channel=9, data=[6, 100]),
   midi.NoteOnEvent(tick=195, channel=9, data=[70, 29]),
   midi.NoteOnEvent(tick=5, channel=9, data=[70, 0]),
   midi.NoteOnEvent(tick=235, channel=9, data=[70, 41]),
   midi.NoteOnEvent(tick=5, channel=9, data=[70, 0]),
   midi.NoteOnEvent(tick=235, channel=9, data=[70, 32]),
   midi.NoteOnEvent(tick=5, channel=9, data=[70, 0]),
   midi.NoteOnEvent(tick=235, channel=9, data=[54, 64]),
   midi.NoteOnEvent(tick=0, channel=9, data=[70, 41]),
   midi.NoteOnEvent(tick=5, channel=9, data=[54, 0]),
   midi.NoteOnEvent(tick=0, channel=9, data=[70, 0]),
   midi.NoteOnEvent(tick=235, channel=9, data=[70, 30]),
   midi.NoteOnEvent(tick=5, channel=9, data=[70, 0]),
   midi.NoteOnEvent(tick=235, channel=9, data=[70, 44]),
   midi.NoteOnEvent(tick=5, channel=9, data=[70, 0]),
   midi.NoteOnEvent(tick=235, channel=9, data=[70, 32]),
   midi.NoteOnEvent(tick=5, channel=9, data=[70, 0]),
   midi.NoteOnEvent(tick=235, channel=9, data=[70, 41]),
   midi.NoteOnEvent(tick=5, channel=9, data=[70, 0]),
   midi.NoteOnEvent(tick=235, channel=9, data=[70, 29]),
   midi.NoteOnEvent(tick=5, channel=9, data=[70, 0]),
   midi.NoteOnEvent(tick=235, channel=9, data=[70, 41]),
   midi.NoteOnEvent(tick=5, channel=9, data=[70, 0]),
   midi.NoteOnEvent(tick=235, channel=9, data=[70, 32]),
   midi.NoteOnEvent(tick=5, channel=9, data=[70, 0]),
   midi.NoteOnEvent(tick=235, channel=9, data=[70, 41]),
   midi.NoteOnEvent(tick=5, channel=9, data=[70, 0]),
   midi.NoteOnEvent(tick=235, channel=9, data=[70, 30]),
   midi.NoteOnEvent(tick=5, channel=9, data=[70, 0]),
   midi.NoteOnEvent(tick=235, channel=9, data=[70, 44]),
   midi.NoteOnEvent(tick=5, channel=9, data=[70, 0]),
   midi.NoteOnEvent(tick=235, channel=9, data=[70, 32]),
   midi.NoteOnEvent(tick=5, channel=9, data=[70, 0]),
   midi.NoteOnEvent(tick=235, channel=9, data=[70, 41]),
   midi.NoteOnEvent(tick=5, channel=9, data=[70, 0]),
   midi.NoteOnEvent(tick=235, channel=9, data=[70, 29]),
   midi.NoteOnEvent(tick=5, channel=9, data=[70, 0]),
   midi.NoteOnEvent(tick=235, channel=9, data=[70, 41]),
   midi.NoteOnEvent(tick=5, channel=9, data=[70, 0]),
   midi.NoteOnEvent(tick=235, channel=9, data=[70, 32]),
   midi.NoteOnEvent(tick=5, channel=9, data=[70, 0]),
   midi.NoteOnEvent(tick=235, channel=9, data=[70, 41]),
   midi.NoteOnEvent(tick=5, channel=9, data=[70, 0]),
   midi.NoteOnEvent(tick=235, channel=9, data=[70, 30]),
   midi.NoteOnEvent(tick=5, channel=9, data=[70, 0]),
   midi.NoteOnEvent(tick=235, channel=9, data=[70, 44]),
   midi.NoteOnEvent(tick=5, channel=9, data=[70, 0]),
   midi.NoteOnEvent(tick=235, channel=9, data=[70, 32]),
   midi.NoteOnEvent(tick=5, channel=9, data=[70, 0]),
   midi.NoteOnEvent(tick=235, channel=9, data=[70, 41]),
   midi.NoteOnEvent(tick=5, channel=9, data=[70, 0]),
   midi.NoteOnEvent(tick=235, channel=9, data=[70, 29]),
   midi.NoteOnEvent(tick=5, channel=9, data=[70, 0]),
   midi.NoteOnEvent(tick=235, channel=9, data=[70, 41]),
   midi.NoteOnEvent(tick=5, channel=9, data=[70, 0]),
   midi.NoteOnEvent(tick=235, channel=9, data=[70, 32]),
   midi.NoteOnEvent(tick=5, channel=9, data=[70, 0]),
   midi.NoteOnEvent(tick=235, channel=9, data=[70, 41]),
   midi.NoteOnEvent(tick=5, channel=9, data=[70, 0]),
   midi.NoteOnEvent(tick=235, channel=9, data=[70, 30]),
   midi.NoteOnEvent(tick=5, channel=9, data=[70, 0]),
   midi.NoteOnEvent(tick=235, channel=9, data=[70, 44]),
   midi.NoteOnEvent(tick=5, channel=9, data=[70, 0]),
   midi.NoteOnEvent(tick=235, channel=9, data=[70, 32]),
   midi.NoteOnEvent(tick=5, channel=9, data=[70, 0]),
   midi.NoteOnEvent(tick=235, channel=9, data=[70, 41]),
   midi.NoteOnEvent(tick=5, channel=9, data=[70, 0]),
   midi.NoteOnEvent(tick=235, channel=9, data=[70, 29]),
   midi.NoteOnEvent(tick=5, channel=9, data=[70, 0]),
   midi.NoteOnEvent(tick=235, channel=9, data=[70, 41]),
   midi.NoteOnEvent(tick=5, channel=9, data=[70, 0]),
   midi.NoteOnEvent(tick=235, channel=9, data=[70, 32]),
   midi.NoteOnEvent(tick=5, channel=9, data=[70, 0]),
   midi.NoteOnEvent(tick=235, channel=9, data=[54, 64]),
   midi.NoteOnEvent(tick=0, channel=9, data=[70, 41]),
   midi.NoteOnEvent(tick=5, channel=9, data=[54, 0]),
   midi.NoteOnEvent(tick=0, channel=9, data=[70, 0]),
   midi.NoteOnEvent(tick=235, channel=9, data=[70, 30]),
   midi.NoteOnEvent(tick=5, channel=9, data=[70, 0]),
   midi.NoteOnEvent(tick=235, channel=9, data=[70, 44]),
   midi.NoteOnEvent(tick=5, channel=9, data=[70, 0]),
   midi.NoteOnEvent(tick=235, channel=9, data=[70, 32]),
   midi.NoteOnEvent(tick=5, channel=9, data=[70, 0]),
   midi.NoteOnEvent(tick=235, channel=9, data=[70, 41]),
   midi.NoteOnEvent(tick=5, channel=9, data=[70, 0]),
   midi.NoteOnEvent(tick=235, channel=9, data=[70, 29]),
   midi.NoteOnEvent(tick=5, channel=9, data=[70, 0]),
   midi.NoteOnEvent(tick=235, channel=9, data=[70, 41]),
   midi.NoteOnEvent(tick=5, channel=9, data=[70, 0]),
   midi.NoteOnEvent(tick=235, channel=9, data=[70, 32]),
   midi.NoteOnEvent(tick=5, channel=9, data=[70, 0]),
   midi.NoteOnEvent(tick=235, channel=9, data=[70, 41]),
   midi.NoteOnEvent(tick=5, channel=9, data=[70, 0]),
   midi.NoteOnEvent(tick=235, channel=9, data=[70, 30]),
   midi.NoteOnEvent(tick=5, channel=9, data=[70, 0]),
   midi.NoteOnEvent(tick=235, channel=9, data=[70, 44]),
   midi.NoteOnEvent(tick=5, channel=9, data=[70, 0]),
   midi.NoteOnEvent(tick=235, channel=9, data=[70, 32]),
   midi.NoteOnEvent(tick=5, channel=9, data=[70, 0]),
   midi.NoteOnEvent(tick=235, channel=9, data=[70, 41]),
   midi.NoteOnEvent(tick=5, channel=9, data=[70, 0]),
   midi.NoteOnEvent(tick=235, channel=9, data=[70, 29]),
   midi.NoteOnEvent(tick=5, channel=9, data=[70, 0]),
   midi.NoteOnEvent(tick=235, channel=9, data=[70, 41]),
   midi.NoteOnEvent(tick=5, channel=9, data=[70, 0]),
   midi.NoteOnEvent(tick=235, channel=9, data=[70, 32]),
   midi.NoteOnEvent(tick=5, channel=9, data=[70, 0]),
   midi.NoteOnEvent(tick=235, channel=9, data=[70, 41]),
   midi.NoteOnEvent(tick=5, channel=9, data=[70, 0]),
   midi.NoteOnEvent(tick=235, channel=9, data=[70, 30]),
   midi.NoteOnEvent(tick=5, channel=9, data=[70, 0]),
   midi.NoteOnEvent(tick=235, channel=9, data=[70, 44]),
   midi.NoteOnEvent(tick=5, channel=9, data=[70, 0]),
   midi.NoteOnEvent(tick=235, channel=9, data=[70, 32]),
   midi.NoteOnEvent(tick=5, channel=9, data=[70, 0]),
   midi.NoteOnEvent(tick=235, channel=9, data=[35, 51]),
   midi.NoteOnEvent(tick=0, channel=9, data=[70, 41]),
   midi.NoteOnEvent(tick=5, channel=9, data=[35, 0]),
   midi.NoteOnEvent(tick=0, channel=9, data=[70, 0]),
   midi.NoteOnEvent(tick=235, channel=9, data=[70, 29]),
   midi.NoteOnEvent(tick=5, channel=9, data=[70, 0]),
   midi.NoteOnEvent(tick=235, channel=9, data=[70, 41]),
   midi.NoteOnEvent(tick=5, channel=9, data=[70, 0]),
   midi.NoteOnEvent(tick=235, channel=9, data=[70, 32]),
   midi.NoteOnEvent(tick=5, channel=9, data=[70, 0]),
   midi.NoteOnEvent(tick=235, channel=9, data=[70, 41]),
   midi.NoteOnEvent(tick=5, channel=9, data=[70, 0]),
   midi.NoteOnEvent(tick=235, channel=9, data=[70, 30]),
   midi.NoteOnEvent(tick=5, channel=9, data=[70, 0]),
   midi.NoteOnEvent(tick=235, channel=9, data=[70, 44]),
   midi.NoteOnEvent(tick=5, channel=9, data=[70, 0]),
   midi.NoteOnEvent(tick=235, channel=9, data=[35, 34]),
   midi.NoteOnEvent(tick=0, channel=9, data=[70, 32]),
   midi.NoteOnEvent(tick=5, channel=9, data=[35, 0]),
   midi.NoteOnEvent(tick=0, channel=9, data=[70, 0]),
   midi.ControlChangeEvent(tick=235, channel=9, data=[98, 81]),
   midi.NoteOnEvent(tick=0, channel=9, data=[35, 49]),
   midi.NoteOnEvent(tick=0, channel=9, data=[70, 41]),
   midi.NoteOnEvent(tick=5, channel=9, data=[35, 0]),
   midi.NoteOnEvent(tick=0, channel=9, data=[70, 0]),
   midi.ControlChangeEvent(tick=3, channel=9, data=[99, 29]),
   midi.ControlChangeEvent(tick=7, channel=9, data=[98, 81]),
   midi.ControlChangeEvent(tick=0, channel=9, data=[6, 100]),
   midi.ControlChangeEvent(tick=8, channel=9, data=[99, 24]),
   midi.ControlChangeEvent(tick=7, channel=9, data=[98, 81]),
   midi.ControlChangeEvent(tick=0, channel=9, data=[6, 69]),
   midi.ControlChangeEvent(tick=8, channel=9, data=[99, 28]),
   midi.ControlChangeEvent(tick=7, channel=9, data=[6, 20]),
   midi.NoteOnEvent(tick=195, channel=9, data=[70, 29]),
   midi.NoteOnEvent(tick=5, channel=9, data=[70, 0]),
   midi.NoteOnEvent(tick=235, channel=9, data=[70, 41]),
   midi.NoteOnEvent(tick=0, channel=9, data=[81, 43]),
   midi.NoteOnEvent(tick=5, channel=9, data=[70, 0]),
   midi.NoteOnEvent(tick=0, channel=9, data=[81, 0]),
   midi.NoteOnEvent(tick=235, channel=9, data=[70, 32]),
   midi.NoteOnEvent(tick=0, channel=9, data=[81, 26]),
   midi.NoteOnEvent(tick=5, channel=9, data=[70, 0]),
   midi.NoteOnEvent(tick=0, channel=9, data=[81, 0]),
   midi.NoteOnEvent(tick=235, channel=9, data=[54, 64]),
   midi.NoteOnEvent(tick=0, channel=9, data=[70, 41]),
   midi.NoteOnEvent(tick=0, channel=9, data=[81, 49]),
   midi.NoteOnEvent(tick=5, channel=9, data=[54, 0]),
   midi.NoteOnEvent(tick=0, channel=9, data=[70, 0]),
   midi.NoteOnEvent(tick=0, channel=9, data=[81, 0]),
   midi.NoteOnEvent(tick=235, channel=9, data=[70, 30]),
   midi.NoteOnEvent(tick=5, channel=9, data=[70, 0]),
   midi.NoteOnEvent(tick=235, channel=9, data=[70, 44]),
   midi.NoteOnEvent(tick=5, channel=9, data=[70, 0]),
   midi.NoteOnEvent(tick=235, channel=9, data=[70, 32]),
   midi.NoteOnEvent(tick=5, channel=9, data=[70, 0]),
   midi.NoteOnEvent(tick=235, channel=9, data=[35, 49]),
   midi.NoteOnEvent(tick=0, channel=9, data=[70, 41]),
   midi.NoteOnEvent(tick=5, channel=9, data=[35, 0]),
   midi.NoteOnEvent(tick=0, channel=9, data=[70, 0]),
   midi.NoteOnEvent(tick=235, channel=9, data=[70, 29]),
   midi.NoteOnEvent(tick=5, channel=9, data=[70, 0]),
   midi.NoteOnEvent(tick=235, channel=9, data=[70, 41]),
   midi.NoteOnEvent(tick=5, channel=9, data=[70, 0]),
   midi.NoteOnEvent(tick=235, channel=9, data=[70, 32]),
   midi.NoteOnEvent(tick=5, channel=9, data=[70, 0]),
   midi.NoteOnEvent(tick=235, channel=9, data=[70, 41]),
   midi.NoteOnEvent(tick=5, channel=9, data=[70, 0]),
   midi.NoteOnEvent(tick=235, channel=9, data=[70, 30]),
   midi.NoteOnEvent(tick=5, channel=9, data=[70, 0]),
   midi.NoteOnEvent(tick=235, channel=9, data=[70, 44]),
   midi.NoteOnEvent(tick=5, channel=9, data=[70, 0]),
   midi.NoteOnEvent(tick=235, channel=9, data=[35, 32]),
   midi.NoteOnEvent(tick=0, channel=9, data=[70, 32]),
   midi.NoteOnEvent(tick=5, channel=9, data=[35, 0]),
   midi.NoteOnEvent(tick=0, channel=9, data=[70, 0]),
   midi.NoteOnEvent(tick=235, channel=9, data=[35, 46]),
   midi.NoteOnEvent(tick=0, channel=9, data=[70, 41]),
   midi.NoteOnEvent(tick=5, channel=9, data=[35, 0]),
   midi.NoteOnEvent(tick=0, channel=9, data=[70, 0]),
   midi.NoteOnEvent(tick=235, channel=9, data=[70, 29]),
   midi.NoteOnEvent(tick=5, channel=9, data=[70, 0]),
   midi.NoteOnEvent(tick=235, channel=9, data=[70, 41]),
   midi.NoteOnEvent(tick=5, channel=9, data=[70, 0]),
   midi.NoteOnEvent(tick=235, channel=9, data=[70, 32]),
   midi.NoteOnEvent(tick=5, channel=9, data=[70, 0]),
   midi.NoteOnEvent(tick=235, channel=9, data=[70, 41]),
   midi.NoteOnEvent(tick=5, channel=9, data=[70, 0]),
   midi.NoteOnEvent(tick=235, channel=9, data=[70, 30]),
   midi.NoteOnEvent(tick=5, channel=9, data=[70, 0]),
   midi.NoteOnEvent(tick=235, channel=9, data=[70, 44]),
   midi.NoteOnEvent(tick=5, channel=9, data=[70, 0]),
   midi.NoteOnEvent(tick=235, channel=9, data=[70, 32]),
   midi.NoteOnEvent(tick=5, channel=9, data=[70, 0]),
   midi.NoteOnEvent(tick=235, channel=9, data=[35, 51]),
   midi.NoteOnEvent(tick=0, channel=9, data=[70, 41]),
   midi.NoteOnEvent(tick=5, channel=9, data=[35, 0]),
   midi.NoteOnEvent(tick=0, channel=9, data=[70, 0]),
   midi.NoteOnEvent(tick=235, channel=9, data=[70, 29]),
   midi.NoteOnEvent(tick=5, channel=9, data=[70, 0]),
   midi.NoteOnEvent(tick=235, channel=9, data=[70, 41]),
   midi.NoteOnEvent(tick=5, channel=9, data=[70, 0]),
   midi.NoteOnEvent(tick=235, channel=9, data=[70, 32]),
   midi.NoteOnEvent(tick=5, channel=9, data=[70, 0]),
   midi.NoteOnEvent(tick=235, channel=9, data=[70, 41]),
   midi.NoteOnEvent(tick=5, channel=9, data=[70, 0]),
   midi.NoteOnEvent(tick=235, channel=9, data=[70, 30]),
   midi.NoteOnEvent(tick=5, channel=9, data=[70, 0]),
   midi.NoteOnEvent(tick=235, channel=9, data=[70, 44]),
   midi.NoteOnEvent(tick=5, channel=9, data=[70, 0]),
   midi.NoteOnEvent(tick=235, channel=9, data=[35, 34]),
   midi.NoteOnEvent(tick=0, channel=9, data=[70, 32]),
   midi.NoteOnEvent(tick=5, channel=9, data=[35, 0]),
   midi.NoteOnEvent(tick=0, channel=9, data=[70, 0]),
   midi.NoteOnEvent(tick=235, channel=9, data=[35, 49]),
   midi.NoteOnEvent(tick=0, channel=9, data=[70, 41]),
   midi.NoteOnEvent(tick=5, channel=9, data=[35, 0]),
   midi.NoteOnEvent(tick=0, channel=9, data=[70, 0]),
   midi.NoteOnEvent(tick=235, channel=9, data=[70, 29]),
   midi.NoteOnEvent(tick=5, channel=9, data=[70, 0]),
   midi.NoteOnEvent(tick=235, channel=9, data=[70, 41]),
   midi.NoteOnEvent(tick=0, channel=9, data=[81, 43]),
   midi.NoteOnEvent(tick=5, channel=9, data=[70, 0]),
   midi.NoteOnEvent(tick=0, channel=9, data=[81, 0]),
   midi.NoteOnEvent(tick=235, channel=9, data=[70, 32]),
   midi.NoteOnEvent(tick=0, channel=9, data=[81, 26]),
   midi.NoteOnEvent(tick=5, channel=9, data=[70, 0]),
   midi.NoteOnEvent(tick=0, channel=9, data=[81, 0]),
   midi.NoteOnEvent(tick=235, channel=9, data=[54, 64]),
   midi.NoteOnEvent(tick=0, channel=9, data=[70, 41]),
   midi.NoteOnEvent(tick=5, channel=9, data=[54, 0]),
   midi.NoteOnEvent(tick=0, channel=9, data=[70, 0]),
   midi.NoteOnEvent(tick=235, channel=9, data=[70, 30]),
   midi.NoteOnEvent(tick=5, channel=9, data=[70, 0]),
   midi.NoteOnEvent(tick=235, channel=9, data=[70, 44]),
   midi.NoteOnEvent(tick=5, channel=9, data=[70, 0]),
   midi.NoteOnEvent(tick=235, channel=9, data=[70, 32]),
   midi.NoteOnEvent(tick=5, channel=9, data=[70, 0]),
   midi.NoteOnEvent(tick=235, channel=9, data=[35, 49]),
   midi.NoteOnEvent(tick=0, channel=9, data=[70, 41]),
   midi.NoteOnEvent(tick=5, channel=9, data=[35, 0]),
   midi.NoteOnEvent(tick=0, channel=9, data=[70, 0]),
   midi.NoteOnEvent(tick=235, channel=9, data=[70, 29]),
   midi.NoteOnEvent(tick=5, channel=9, data=[70, 0]),
   midi.NoteOnEvent(tick=235, channel=9, data=[70, 41]),
   midi.NoteOnEvent(tick=5, channel=9, data=[70, 0]),
   midi.NoteOnEvent(tick=235, channel=9, data=[70, 32]),
   midi.NoteOnEvent(tick=5, channel=9, data=[70, 0]),
   midi.NoteOnEvent(tick=235, channel=9, data=[70, 41]),
   midi.NoteOnEvent(tick=5, channel=9, data=[70, 0]),
   midi.NoteOnEvent(tick=235, channel=9, data=[70, 30]),
   midi.NoteOnEvent(tick=5, channel=9, data=[70, 0]),
   midi.NoteOnEvent(tick=235, channel=9, data=[70, 44]),
   midi.NoteOnEvent(tick=5, channel=9, data=[70, 0]),
   midi.NoteOnEvent(tick=235, channel=9, data=[35, 32]),
   midi.NoteOnEvent(tick=0, channel=9, data=[70, 32]),
   midi.NoteOnEvent(tick=5, channel=9, data=[35, 0]),
   midi.NoteOnEvent(tick=0, channel=9, data=[70, 0]),
   midi.NoteOnEvent(tick=235, channel=9, data=[35, 46]),
   midi.NoteOnEvent(tick=0, channel=9, data=[70, 41]),
   midi.NoteOnEvent(tick=5, channel=9, data=[35, 0]),
   midi.NoteOnEvent(tick=0, channel=9, data=[70, 0]),
   midi.NoteOnEvent(tick=235, channel=9, data=[70, 29]),
   midi.NoteOnEvent(tick=5, channel=9, data=[70, 0]),
   midi.NoteOnEvent(tick=235, channel=9, data=[70, 41]),
   midi.NoteOnEvent(tick=5, channel=9, data=[70, 0]),
   midi.NoteOnEvent(tick=235, channel=9, data=[70, 32]),
   midi.NoteOnEvent(tick=5, channel=9, data=[70, 0]),
   midi.NoteOnEvent(tick=235, channel=9, data=[70, 41]),
   midi.NoteOnEvent(tick=5, channel=9, data=[70, 0]),
   midi.NoteOnEvent(tick=235, channel=9, data=[70, 30]),
   midi.NoteOnEvent(tick=5, channel=9, data=[70, 0]),
   midi.NoteOnEvent(tick=235, channel=9, data=[70, 44]),
   midi.NoteOnEvent(tick=5, channel=9, data=[70, 0]),
   midi.NoteOnEvent(tick=235, channel=9, data=[70, 32]),
   midi.NoteOnEvent(tick=5, channel=9, data=[70, 0]),
   midi.NoteOnEvent(tick=235, channel=9, data=[35, 51]),
   midi.NoteOnEvent(tick=0, channel=9, data=[70, 41]),
   midi.NoteOnEvent(tick=5, channel=9, data=[35, 0]),
   midi.NoteOnEvent(tick=0, channel=9, data=[70, 0]),
   midi.NoteOnEvent(tick=235, channel=9, data=[70, 29]),
   midi.NoteOnEvent(tick=5, channel=9, data=[70, 0]),
   midi.NoteOnEvent(tick=235, channel=9, data=[70, 41]),
   midi.NoteOnEvent(tick=5, channel=9, data=[70, 0]),
   midi.NoteOnEvent(tick=235, channel=9, data=[70, 32]),
   midi.NoteOnEvent(tick=0, channel=9, data=[81, 43]),
   midi.NoteOnEvent(tick=5, channel=9, data=[70, 0]),
   midi.NoteOnEvent(tick=0, channel=9, data=[81, 0]),
   midi.NoteOnEvent(tick=235, channel=9, data=[70, 41]),
   midi.NoteOnEvent(tick=5, channel=9, data=[70, 0]),
   midi.NoteOnEvent(tick=235, channel=9, data=[70, 30]),
   midi.NoteOnEvent(tick=5, channel=9, data=[70, 0]),
   midi.NoteOnEvent(tick=235, channel=9, data=[70, 44]),
   midi.NoteOnEvent(tick=5, channel=9, data=[70, 0]),
   midi.NoteOnEvent(tick=235, channel=9, data=[35, 34]),
   midi.NoteOnEvent(tick=0, channel=9, data=[70, 32]),
   midi.NoteOnEvent(tick=5, channel=9, data=[35, 0]),
   midi.NoteOnEvent(tick=0, channel=9, data=[70, 0]),
   midi.NoteOnEvent(tick=235, channel=9, data=[35, 49]),
   midi.NoteOnEvent(tick=0, channel=9, data=[70, 41]),
   midi.NoteOnEvent(tick=5, channel=9, data=[35, 0]),
   midi.NoteOnEvent(tick=0, channel=9, data=[70, 0]),
   midi.NoteOnEvent(tick=235, channel=9, data=[70, 29]),
   midi.NoteOnEvent(tick=5, channel=9, data=[70, 0]),
   midi.NoteOnEvent(tick=235, channel=9, data=[70, 41]),
   midi.NoteOnEvent(tick=5, channel=9, data=[70, 0]),
   midi.NoteOnEvent(tick=235, channel=9, data=[70, 32]),
   midi.NoteOnEvent(tick=0, channel=9, data=[81, 26]),
   midi.NoteOnEvent(tick=5, channel=9, data=[70, 0]),
   midi.NoteOnEvent(tick=0, channel=9, data=[81, 0]),
   midi.NoteOnEvent(tick=235, channel=9, data=[54, 64]),
   midi.NoteOnEvent(tick=0, channel=9, data=[70, 41]),
   midi.NoteOnEvent(tick=5, channel=9, data=[54, 0]),
   midi.NoteOnEvent(tick=0, channel=9, data=[70, 0]),
   midi.NoteOnEvent(tick=235, channel=9, data=[70, 30]),
   midi.NoteOnEvent(tick=5, channel=9, data=[70, 0]),
   midi.NoteOnEvent(tick=235, channel=9, data=[70, 44]),
   midi.NoteOnEvent(tick=5, channel=9, data=[70, 0]),
   midi.NoteOnEvent(tick=235, channel=9, data=[70, 32]),
   midi.NoteOnEvent(tick=5, channel=9, data=[70, 0]),
   midi.NoteOnEvent(tick=235, channel=9, data=[35, 49]),
   midi.NoteOnEvent(tick=0, channel=9, data=[70, 41]),
   midi.NoteOnEvent(tick=5, channel=9, data=[35, 0]),
   midi.NoteOnEvent(tick=0, channel=9, data=[70, 0]),
   midi.NoteOnEvent(tick=235, channel=9, data=[70, 29]),
   midi.NoteOnEvent(tick=5, channel=9, data=[70, 0]),
   midi.NoteOnEvent(tick=235, channel=9, data=[70, 41]),
   midi.NoteOnEvent(tick=5, channel=9, data=[70, 0]),
   midi.NoteOnEvent(tick=235, channel=9, data=[70, 32]),
   midi.NoteOnEvent(tick=0, channel=9, data=[81, 43]),
   midi.NoteOnEvent(tick=5, channel=9, data=[70, 0]),
   midi.NoteOnEvent(tick=0, channel=9, data=[81, 0]),
   midi.NoteOnEvent(tick=235, channel=9, data=[70, 41]),
   midi.NoteOnEvent(tick=5, channel=9, data=[70, 0]),
   midi.NoteOnEvent(tick=235, channel=9, data=[70, 30]),
   midi.NoteOnEvent(tick=5, channel=9, data=[70, 0]),
   midi.NoteOnEvent(tick=235, channel=9, data=[70, 44]),
   midi.NoteOnEvent(tick=5, channel=9, data=[70, 0]),
   midi.NoteOnEvent(tick=235, channel=9, data=[35, 32]),
   midi.NoteOnEvent(tick=0, channel=9, data=[70, 32]),
   midi.NoteOnEvent(tick=5, channel=9, data=[35, 0]),
   midi.NoteOnEvent(tick=0, channel=9, data=[70, 0]),
   midi.NoteOnEvent(tick=235, channel=9, data=[35, 46]),
   midi.NoteOnEvent(tick=0, channel=9, data=[70, 41]),
   midi.NoteOnEvent(tick=5, channel=9, data=[35, 0]),
   midi.NoteOnEvent(tick=0, channel=9, data=[70, 0]),
   midi.NoteOnEvent(tick=235, channel=9, data=[70, 29]),
   midi.NoteOnEvent(tick=5, channel=9, data=[70, 0]),
   midi.NoteOnEvent(tick=235, channel=9, data=[70, 41]),
   midi.NoteOnEvent(tick=5, channel=9, data=[70, 0]),
   midi.NoteOnEvent(tick=235, channel=9, data=[70, 32]),
   midi.NoteOnEvent(tick=0, channel=9, data=[81, 26]),
   midi.NoteOnEvent(tick=5, channel=9, data=[70, 0]),
   midi.NoteOnEvent(tick=0, channel=9, data=[81, 0]),
   midi.NoteOnEvent(tick=235, channel=9, data=[54, 64]),
   midi.NoteOnEvent(tick=0, channel=9, data=[70, 41]),
   midi.NoteOnEvent(tick=5, channel=9, data=[54, 0]),
   midi.NoteOnEvent(tick=0, channel=9, data=[70, 0]),
   midi.NoteOnEvent(tick=235, channel=9, data=[70, 30]),
   midi.NoteOnEvent(tick=5, channel=9, data=[70, 0]),
   midi.NoteOnEvent(tick=235, channel=9, data=[70, 44]),
   midi.NoteOnEvent(tick=5, channel=9, data=[70, 0]),
   midi.NoteOnEvent(tick=235, channel=9, data=[70, 32]),
   midi.NoteOnEvent(tick=5, channel=9, data=[70, 0]),
   midi.NoteOnEvent(tick=235, channel=9, data=[35, 51]),
   midi.NoteOnEvent(tick=0, channel=9, data=[70, 41]),
   midi.NoteOnEvent(tick=5, channel=9, data=[35, 0]),
   midi.NoteOnEvent(tick=0, channel=9, data=[70, 0]),
   midi.NoteOnEvent(tick=235, channel=9, data=[70, 29]),
   midi.NoteOnEvent(tick=5, channel=9, data=[70, 0]),
   midi.NoteOnEvent(tick=235, channel=9, data=[70, 41]),
   midi.NoteOnEvent(tick=5, channel=9, data=[70, 0]),
   midi.NoteOnEvent(tick=235, channel=9, data=[70, 32]),
   midi.NoteOnEvent(tick=0, channel=9, data=[81, 43]),
   midi.NoteOnEvent(tick=5, channel=9, data=[70, 0]),
   midi.NoteOnEvent(tick=0, channel=9, data=[81, 0]),
   midi.NoteOnEvent(tick=235, channel=9, data=[70, 41]),
   midi.NoteOnEvent(tick=5, channel=9, data=[70, 0]),
   midi.NoteOnEvent(tick=235, channel=9, data=[70, 30]),
   midi.NoteOnEvent(tick=5, channel=9, data=[70, 0]),
   midi.NoteOnEvent(tick=235, channel=9, data=[70, 44]),
   midi.NoteOnEvent(tick=5, channel=9, data=[70, 0]),
   midi.NoteOnEvent(tick=235, channel=9, data=[35, 34]),
   midi.NoteOnEvent(tick=0, channel=9, data=[70, 32]),
   midi.NoteOnEvent(tick=5, channel=9, data=[35, 0]),
   midi.NoteOnEvent(tick=0, channel=9, data=[70, 0]),
   midi.NoteOnEvent(tick=235, channel=9, data=[35, 49]),
   midi.NoteOnEvent(tick=0, channel=9, data=[70, 41]),
   midi.NoteOnEvent(tick=5, channel=9, data=[35, 0]),
   midi.NoteOnEvent(tick=0, channel=9, data=[70, 0]),
   midi.NoteOnEvent(tick=235, channel=9, data=[70, 29]),
   midi.NoteOnEvent(tick=5, channel=9, data=[70, 0]),
   midi.NoteOnEvent(tick=235, channel=9, data=[70, 41]),
   midi.NoteOnEvent(tick=5, channel=9, data=[70, 0]),
   midi.NoteOnEvent(tick=235, channel=9, data=[70, 32]),
   midi.NoteOnEvent(tick=0, channel=9, data=[81, 26]),
   midi.NoteOnEvent(tick=5, channel=9, data=[70, 0]),
   midi.NoteOnEvent(tick=0, channel=9, data=[81, 0]),
   midi.NoteOnEvent(tick=235, channel=9, data=[54, 64]),
   midi.NoteOnEvent(tick=0, channel=9, data=[70, 41]),
   midi.NoteOnEvent(tick=5, channel=9, data=[54, 0]),
   midi.NoteOnEvent(tick=0, channel=9, data=[70, 0]),
   midi.NoteOnEvent(tick=235, channel=9, data=[70, 30]),
   midi.NoteOnEvent(tick=5, channel=9, data=[70, 0]),
   midi.NoteOnEvent(tick=235, channel=9, data=[70, 44]),
   midi.NoteOnEvent(tick=5, channel=9, data=[70, 0]),
   midi.NoteOnEvent(tick=235, channel=9, data=[70, 32]),
   midi.NoteOnEvent(tick=5, channel=9, data=[70, 0]),
   midi.NoteOnEvent(tick=235, channel=9, data=[35, 49]),
   midi.NoteOnEvent(tick=0, channel=9, data=[70, 41]),
   midi.NoteOnEvent(tick=5, channel=9, data=[35, 0]),
   midi.NoteOnEvent(tick=0, channel=9, data=[70, 0]),
   midi.NoteOnEvent(tick=235, channel=9, data=[70, 29]),
   midi.NoteOnEvent(tick=5, channel=9, data=[70, 0]),
   midi.NoteOnEvent(tick=235, channel=9, data=[70, 41]),
   midi.NoteOnEvent(tick=5, channel=9, data=[70, 0]),
   midi.NoteOnEvent(tick=235, channel=9, data=[70, 32]),
   midi.NoteOnEvent(tick=0, channel=9, data=[81, 43]),
   midi.NoteOnEvent(tick=5, channel=9, data=[70, 0]),
   midi.NoteOnEvent(tick=0, channel=9, data=[81, 0]),
   midi.NoteOnEvent(tick=235, channel=9, data=[44, 71]),
   midi.NoteOnEvent(tick=0, channel=9, data=[70, 41]),
   midi.NoteOnEvent(tick=5, channel=9, data=[44, 0]),
   midi.NoteOnEvent(tick=0, channel=9, data=[70, 0]),
   midi.NoteOnEvent(tick=235, channel=9, data=[70, 30]),
   midi.NoteOnEvent(tick=5, channel=9, data=[70, 0]),
   midi.NoteOnEvent(tick=235, channel=9, data=[70, 44]),
   midi.NoteOnEvent(tick=5, channel=9, data=[70, 0]),
   midi.NoteOnEvent(tick=235, channel=9, data=[35, 32]),
   midi.NoteOnEvent(tick=0, channel=9, data=[70, 32]),
   midi.NoteOnEvent(tick=5, channel=9, data=[35, 0]),
   midi.NoteOnEvent(tick=0, channel=9, data=[70, 0]),
   midi.NoteOnEvent(tick=235, channel=9, data=[35, 46]),
   midi.NoteOnEvent(tick=0, channel=9, data=[70, 41]),
   midi.NoteOnEvent(tick=5, channel=9, data=[35, 0]),
   midi.NoteOnEvent(tick=0, channel=9, data=[70, 0]),
   midi.NoteOnEvent(tick=235, channel=9, data=[70, 29]),
   midi.NoteOnEvent(tick=5, channel=9, data=[70, 0]),
   midi.NoteOnEvent(tick=235, channel=9, data=[70, 41]),
   midi.NoteOnEvent(tick=5, channel=9, data=[70, 0]),
   midi.NoteOnEvent(tick=235, channel=9, data=[70, 32]),
   midi.NoteOnEvent(tick=0, channel=9, data=[81, 26]),
   midi.NoteOnEvent(tick=5, channel=9, data=[70, 0]),
   midi.NoteOnEvent(tick=0, channel=9, data=[81, 0]),
   midi.NoteOnEvent(tick=235, channel=9, data=[54, 64]),
   midi.NoteOnEvent(tick=0, channel=9, data=[70, 41]),
   midi.NoteOnEvent(tick=5, channel=9, data=[54, 0]),
   midi.NoteOnEvent(tick=0, channel=9, data=[70, 0]),
   midi.NoteOnEvent(tick=235, channel=9, data=[70, 30]),
   midi.NoteOnEvent(tick=5, channel=9, data=[70, 0]),
   midi.NoteOnEvent(tick=235, channel=9, data=[70, 44]),
   midi.NoteOnEvent(tick=5, channel=9, data=[70, 0]),
   midi.NoteOnEvent(tick=235, channel=9, data=[70, 32]),
   midi.NoteOnEvent(tick=5, channel=9, data=[70, 0]),
   midi.NoteOnEvent(tick=235, channel=9, data=[35, 51]),
   midi.NoteOnEvent(tick=0, channel=9, data=[70, 41]),
   midi.NoteOnEvent(tick=5, channel=9, data=[35, 0]),
   midi.NoteOnEvent(tick=0, channel=9, data=[70, 0]),
   midi.NoteOnEvent(tick=235, channel=9, data=[70, 29]),
   midi.NoteOnEvent(tick=5, channel=9, data=[70, 0]),
   midi.NoteOnEvent(tick=235, channel=9, data=[70, 41]),
   midi.NoteOnEvent(tick=5, channel=9, data=[70, 0]),
   midi.NoteOnEvent(tick=235, channel=9, data=[70, 32]),
   midi.NoteOnEvent(tick=0, channel=9, data=[81, 43]),
   midi.NoteOnEvent(tick=5, channel=9, data=[70, 0]),
   midi.NoteOnEvent(tick=0, channel=9, data=[81, 0]),
   midi.NoteOnEvent(tick=235, channel=9, data=[70, 41]),
   midi.NoteOnEvent(tick=5, channel=9, data=[70, 0]),
   midi.NoteOnEvent(tick=235, channel=9, data=[70, 30]),
   midi.NoteOnEvent(tick=5, channel=9, data=[70, 0]),
   midi.NoteOnEvent(tick=235, channel=9, data=[70, 44]),
   midi.NoteOnEvent(tick=5, channel=9, data=[70, 0]),
   midi.NoteOnEvent(tick=235, channel=9, data=[35, 34]),
   midi.NoteOnEvent(tick=0, channel=9, data=[70, 32]),
   midi.NoteOnEvent(tick=5, channel=9, data=[35, 0]),
   midi.NoteOnEvent(tick=0, channel=9, data=[70, 0]),
   midi.NoteOnEvent(tick=235, channel=9, data=[35, 49]),
   midi.NoteOnEvent(tick=0, channel=9, data=[70, 41]),
   midi.NoteOnEvent(tick=5, channel=9, data=[35, 0]),
   midi.NoteOnEvent(tick=0, channel=9, data=[70, 0]),
   midi.NoteOnEvent(tick=235, channel=9, data=[70, 29]),
   midi.NoteOnEvent(tick=5, channel=9, data=[70, 0]),
   midi.NoteOnEvent(tick=235, channel=9, data=[70, 41]),
   midi.NoteOnEvent(tick=5, channel=9, data=[70, 0]),
   midi.NoteOnEvent(tick=235, channel=9, data=[70, 32]),
   midi.NoteOnEvent(tick=0, channel=9, data=[81, 26]),
   midi.NoteOnEvent(tick=5, channel=9, data=[70, 0]),
   midi.NoteOnEvent(tick=0, channel=9, data=[81, 0]),
   midi.NoteOnEvent(tick=235, channel=9, data=[54, 64]),
   midi.NoteOnEvent(tick=0, channel=9, data=[70, 41]),
   midi.NoteOnEvent(tick=5, channel=9, data=[54, 0]),
   midi.NoteOnEvent(tick=0, channel=9, data=[70, 0]),
   midi.NoteOnEvent(tick=235, channel=9, data=[70, 30]),
   midi.NoteOnEvent(tick=5, channel=9, data=[70, 0]),
   midi.NoteOnEvent(tick=235, channel=9, data=[70, 44]),
   midi.NoteOnEvent(tick=5, channel=9, data=[70, 0]),
   midi.NoteOnEvent(tick=235, channel=9, data=[70, 32]),
   midi.NoteOnEvent(tick=5, channel=9, data=[70, 0]),
   midi.NoteOnEvent(tick=235, channel=9, data=[35, 49]),
   midi.NoteOnEvent(tick=0, channel=9, data=[70, 41]),
   midi.NoteOnEvent(tick=5, channel=9, data=[35, 0]),
   midi.NoteOnEvent(tick=0, channel=9, data=[70, 0]),
   midi.NoteOnEvent(tick=235, channel=9, data=[70, 29]),
   midi.NoteOnEvent(tick=5, channel=9, data=[70, 0]),
   midi.NoteOnEvent(tick=235, channel=9, data=[70, 41]),
   midi.NoteOnEvent(tick=5, channel=9, data=[70, 0]),
   midi.NoteOnEvent(tick=235, channel=9, data=[70, 32]),
   midi.NoteOnEvent(tick=0, channel=9, data=[81, 43]),
   midi.NoteOnEvent(tick=5, channel=9, data=[70, 0]),
   midi.NoteOnEvent(tick=0, channel=9, data=[81, 0]),
   midi.NoteOnEvent(tick=235, channel=9, data=[70, 41]),
   midi.NoteOnEvent(tick=5, channel=9, data=[70, 0]),
   midi.NoteOnEvent(tick=235, channel=9, data=[70, 30]),
   midi.NoteOnEvent(tick=5, channel=9, data=[70, 0]),
   midi.NoteOnEvent(tick=235, channel=9, data=[70, 44]),
   midi.NoteOnEvent(tick=5, channel=9, data=[70, 0]),
   midi.NoteOnEvent(tick=235, channel=9, data=[35, 32]),
   midi.NoteOnEvent(tick=0, channel=9, data=[70, 32]),
   midi.NoteOnEvent(tick=5, channel=9, data=[35, 0]),
   midi.NoteOnEvent(tick=0, channel=9, data=[70, 0]),
   midi.NoteOnEvent(tick=235, channel=9, data=[35, 46]),
   midi.NoteOnEvent(tick=0, channel=9, data=[70, 41]),
   midi.NoteOnEvent(tick=5, channel=9, data=[35, 0]),
   midi.NoteOnEvent(tick=0, channel=9, data=[70, 0]),
   midi.NoteOnEvent(tick=235, channel=9, data=[70, 29]),
   midi.NoteOnEvent(tick=5, channel=9, data=[70, 0]),
   midi.NoteOnEvent(tick=235, channel=9, data=[70, 41]),
   midi.NoteOnEvent(tick=5, channel=9, data=[70, 0]),
   midi.NoteOnEvent(tick=235, channel=9, data=[70, 32]),
   midi.NoteOnEvent(tick=0, channel=9, data=[81, 26]),
   midi.NoteOnEvent(tick=5, channel=9, data=[70, 0]),
   midi.NoteOnEvent(tick=0, channel=9, data=[81, 0]),
   midi.NoteOnEvent(tick=235, channel=9, data=[54, 64]),
   midi.NoteOnEvent(tick=0, channel=9, data=[70, 41]),
   midi.NoteOnEvent(tick=5, channel=9, data=[54, 0]),
   midi.NoteOnEvent(tick=0, channel=9, data=[70, 0]),
   midi.NoteOnEvent(tick=235, channel=9, data=[70, 30]),
   midi.NoteOnEvent(tick=5, channel=9, data=[70, 0]),
   midi.NoteOnEvent(tick=235, channel=9, data=[70, 44]),
   midi.NoteOnEvent(tick=5, channel=9, data=[70, 0]),
   midi.NoteOnEvent(tick=235, channel=9, data=[70, 32]),
   midi.NoteOnEvent(tick=5, channel=9, data=[70, 0]),
   midi.NoteOnEvent(tick=235, channel=9, data=[35, 51]),
   midi.NoteOnEvent(tick=0, channel=9, data=[70, 41]),
   midi.NoteOnEvent(tick=5, channel=9, data=[35, 0]),
   midi.NoteOnEvent(tick=0, channel=9, data=[70, 0]),
   midi.NoteOnEvent(tick=235, channel=9, data=[70, 29]),
   midi.NoteOnEvent(tick=5, channel=9, data=[70, 0]),
   midi.NoteOnEvent(tick=235, channel=9, data=[70, 41]),
   midi.NoteOnEvent(tick=5, channel=9, data=[70, 0]),
   midi.NoteOnEvent(tick=235, channel=9, data=[70, 32]),
   midi.NoteOnEvent(tick=0, channel=9, data=[81, 43]),
   midi.NoteOnEvent(tick=5, channel=9, data=[70, 0]),
   midi.NoteOnEvent(tick=0, channel=9, data=[81, 0]),
   midi.NoteOnEvent(tick=235, channel=9, data=[70, 41]),
   midi.NoteOnEvent(tick=5, channel=9, data=[70, 0]),
   midi.NoteOnEvent(tick=235, channel=9, data=[70, 30]),
   midi.NoteOnEvent(tick=5, channel=9, data=[70, 0]),
   midi.NoteOnEvent(tick=235, channel=9, data=[70, 44]),
   midi.NoteOnEvent(tick=5, channel=9, data=[70, 0]),
   midi.NoteOnEvent(tick=235, channel=9, data=[35, 34]),
   midi.NoteOnEvent(tick=0, channel=9, data=[70, 32]),
   midi.NoteOnEvent(tick=5, channel=9, data=[35, 0]),
   midi.NoteOnEvent(tick=0, channel=9, data=[70, 0]),
   midi.ControlChangeEvent(tick=235, channel=9, data=[98, 46]),
   midi.NoteOnEvent(tick=0, channel=9, data=[35, 49]),
   midi.NoteOnEvent(tick=0, channel=9, data=[70, 41]),
   midi.NoteOnEvent(tick=5, channel=9, data=[35, 0]),
   midi.NoteOnEvent(tick=0, channel=9, data=[70, 0]),
   midi.ControlChangeEvent(tick=3, channel=9, data=[99, 29]),
   midi.ControlChangeEvent(tick=7, channel=9, data=[98, 46]),
   midi.ControlChangeEvent(tick=0, channel=9, data=[6, 50]),
   midi.ControlChangeEvent(tick=8, channel=9, data=[99, 24]),
   midi.ControlChangeEvent(tick=7, channel=9, data=[98, 46]),
   midi.ControlChangeEvent(tick=0, channel=9, data=[6, 62]),
   midi.ControlChangeEvent(tick=8, channel=9, data=[99, 28]),
   midi.ControlChangeEvent(tick=7, channel=9, data=[6, 64]),
   midi.NoteOnEvent(tick=195, channel=9, data=[70, 29]),
   midi.NoteOnEvent(tick=5, channel=9, data=[70, 0]),
   midi.NoteOnEvent(tick=235, channel=9, data=[70, 41]),
   midi.NoteOnEvent(tick=5, channel=9, data=[70, 0]),
   midi.NoteOnEvent(tick=235, channel=9, data=[70, 32]),
   midi.NoteOnEvent(tick=0, channel=9, data=[81, 26]),
   midi.NoteOnEvent(tick=5, channel=9, data=[70, 0]),
   midi.NoteOnEvent(tick=0, channel=9, data=[81, 0]),
   midi.NoteOnEvent(tick=235, channel=9, data=[54, 64]),
   midi.NoteOnEvent(tick=0, channel=9, data=[70, 41]),
   midi.NoteOnEvent(tick=5, channel=9, data=[54, 0]),
   midi.NoteOnEvent(tick=0, channel=9, data=[70, 0]),
   midi.NoteOnEvent(tick=235, channel=9, data=[70, 30]),
   midi.NoteOnEvent(tick=5, channel=9, data=[70, 0]),
   midi.NoteOnEvent(tick=235, channel=9, data=[70, 44]),
   midi.NoteOnEvent(tick=5, channel=9, data=[70, 0]),
   midi.NoteOnEvent(tick=235, channel=9, data=[70, 32]),
   midi.NoteOnEvent(tick=5, channel=9, data=[70, 0]),
   midi.NoteOnEvent(tick=235, channel=9, data=[35, 49]),
   midi.NoteOnEvent(tick=0, channel=9, data=[70, 41]),
   midi.NoteOnEvent(tick=5, channel=9, data=[35, 0]),
   midi.NoteOnEvent(tick=0, channel=9, data=[70, 0]),
   midi.NoteOnEvent(tick=235, channel=9, data=[70, 29]),
   midi.NoteOnEvent(tick=5, channel=9, data=[70, 0]),
   midi.NoteOnEvent(tick=235, channel=9, data=[70, 41]),
   midi.NoteOnEvent(tick=5, channel=9, data=[70, 0]),
   midi.NoteOnEvent(tick=235, channel=9, data=[70, 32]),
   midi.NoteOnEvent(tick=0, channel=9, data=[81, 43]),
   midi.NoteOnEvent(tick=5, channel=9, data=[70, 0]),
   midi.NoteOnEvent(tick=0, channel=9, data=[81, 0]),
   midi.NoteOnEvent(tick=235, channel=9, data=[44, 71]),
   midi.NoteOnEvent(tick=0, channel=9, data=[70, 41]),
   midi.NoteOnEvent(tick=5, channel=9, data=[44, 0]),
   midi.NoteOnEvent(tick=0, channel=9, data=[70, 0]),
   midi.NoteOnEvent(tick=235, channel=9, data=[70, 30]),
   midi.NoteOnEvent(tick=5, channel=9, data=[70, 0]),
   midi.NoteOnEvent(tick=235, channel=9, data=[70, 44]),
   midi.NoteOnEvent(tick=5, channel=9, data=[70, 0]),
   midi.NoteOnEvent(tick=235, channel=9, data=[35, 32]),
   midi.NoteOnEvent(tick=0, channel=9, data=[70, 32]),
   midi.NoteOnEvent(tick=5, channel=9, data=[35, 0]),
   midi.NoteOnEvent(tick=0, channel=9, data=[70, 0]),
   midi.NoteOnEvent(tick=235, channel=9, data=[35, 46]),
   midi.NoteOnEvent(tick=0, channel=9, data=[70, 41]),
   midi.NoteOnEvent(tick=5, channel=9, data=[35, 0]),
   midi.NoteOnEvent(tick=0, channel=9, data=[70, 0]),
   midi.NoteOnEvent(tick=235, channel=9, data=[70, 29]),
   midi.NoteOnEvent(tick=5, channel=9, data=[70, 0]),
   midi.NoteOnEvent(tick=235, channel=9, data=[70, 41]),
   midi.NoteOnEvent(tick=5, channel=9, data=[70, 0]),
   midi.NoteOnEvent(tick=235, channel=9, data=[70, 32]),
   midi.NoteOnEvent(tick=0, channel=9, data=[81, 26]),
   midi.NoteOnEvent(tick=5, channel=9, data=[70, 0]),
   midi.NoteOnEvent(tick=0, channel=9, data=[81, 0]),
   midi.NoteOnEvent(tick=235, channel=9, data=[54, 64]),
   midi.NoteOnEvent(tick=0, channel=9, data=[70, 41]),
   midi.NoteOnEvent(tick=5, channel=9, data=[54, 0]),
   midi.NoteOnEvent(tick=0, channel=9, data=[70, 0]),
   midi.NoteOnEvent(tick=235, channel=9, data=[70, 30]),
   midi.NoteOnEvent(tick=5, channel=9, data=[70, 0]),
   midi.NoteOnEvent(tick=235, channel=9, data=[70, 44]),
   midi.NoteOnEvent(tick=5, channel=9, data=[70, 0]),
   midi.NoteOnEvent(tick=235, channel=9, data=[70, 32]),
   midi.NoteOnEvent(tick=5, channel=9, data=[70, 0]),
   midi.NoteOnEvent(tick=235, channel=9, data=[35, 51]),
   midi.NoteOnEvent(tick=0, channel=9, data=[70, 41]),
   midi.NoteOnEvent(tick=5, channel=9, data=[35, 0]),
   midi.NoteOnEvent(tick=0, channel=9, data=[70, 0]),
   midi.NoteOnEvent(tick=235, channel=9, data=[70, 29]),
   midi.NoteOnEvent(tick=5, channel=9, data=[70, 0]),
   midi.NoteOnEvent(tick=235, channel=9, data=[70, 41]),
   midi.NoteOnEvent(tick=5, channel=9, data=[70, 0]),
   midi.NoteOnEvent(tick=235, channel=9, data=[70, 32]),
   midi.NoteOnEvent(tick=5, channel=9, data=[70, 0]),
   midi.NoteOnEvent(tick=235, channel=9, data=[70, 41]),
   midi.NoteOnEvent(tick=5, channel=9, data=[70, 0]),
   midi.NoteOnEvent(tick=235, channel=9, data=[70, 30]),
   midi.NoteOnEvent(tick=5, channel=9, data=[70, 0]),
   midi.NoteOnEvent(tick=235, channel=9, data=[70, 44]),
   midi.NoteOnEvent(tick=5, channel=9, data=[70, 0]),
   midi.NoteOnEvent(tick=235, channel=9, data=[35, 34]),
   midi.NoteOnEvent(tick=0, channel=9, data=[70, 32]),
   midi.NoteOnEvent(tick=5, channel=9, data=[35, 0]),
   midi.NoteOnEvent(tick=0, channel=9, data=[70, 0]),
   midi.NoteOnEvent(tick=235, channel=9, data=[35, 49]),
   midi.NoteOnEvent(tick=0, channel=9, data=[70, 41]),
   midi.NoteOnEvent(tick=5, channel=9, data=[35, 0]),
   midi.NoteOnEvent(tick=0, channel=9, data=[70, 0]),
   midi.NoteOnEvent(tick=235, channel=9, data=[70, 29]),
   midi.NoteOnEvent(tick=5, channel=9, data=[70, 0]),
   midi.NoteOnEvent(tick=235, channel=9, data=[70, 41]),
   midi.NoteOnEvent(tick=5, channel=9, data=[70, 0]),
   midi.NoteOnEvent(tick=235, channel=9, data=[70, 32]),
   midi.NoteOnEvent(tick=5, channel=9, data=[70, 0]),
   midi.NoteOnEvent(tick=235, channel=9, data=[70, 41]),
   midi.NoteOnEvent(tick=5, channel=9, data=[70, 0]),
   midi.NoteOnEvent(tick=235, channel=9, data=[70, 30]),
   midi.NoteOnEvent(tick=5, channel=9, data=[70, 0]),
   midi.NoteOnEvent(tick=235, channel=9, data=[70, 44]),
   midi.NoteOnEvent(tick=5, channel=9, data=[70, 0]),
   midi.NoteOnEvent(tick=235, channel=9, data=[70, 32]),
   midi.NoteOnEvent(tick=5, channel=9, data=[70, 0]),
   midi.NoteOnEvent(tick=235, channel=9, data=[35, 49]),
   midi.NoteOnEvent(tick=0, channel=9, data=[70, 41]),
   midi.NoteOnEvent(tick=5, channel=9, data=[35, 0]),
   midi.NoteOnEvent(tick=0, channel=9, data=[70, 0]),
   midi.NoteOnEvent(tick=235, channel=9, data=[70, 29]),
   midi.NoteOnEvent(tick=5, channel=9, data=[70, 0]),
   midi.NoteOnEvent(tick=235, channel=9, data=[70, 41]),
   midi.NoteOnEvent(tick=5, channel=9, data=[70, 0]),
   midi.NoteOnEvent(tick=235, channel=9, data=[70, 32]),
   midi.NoteOnEvent(tick=5, channel=9, data=[70, 0]),
   midi.NoteOnEvent(tick=235, channel=9, data=[70, 41]),
   midi.NoteOnEvent(tick=5, channel=9, data=[70, 0]),
   midi.NoteOnEvent(tick=235, channel=9, data=[70, 30]),
   midi.NoteOnEvent(tick=5, channel=9, data=[70, 0]),
   midi.NoteOnEvent(tick=235, channel=9, data=[70, 44]),
   midi.NoteOnEvent(tick=5, channel=9, data=[70, 0]),
   midi.NoteOnEvent(tick=235, channel=9, data=[35, 32]),
   midi.NoteOnEvent(tick=0, channel=9, data=[70, 32]),
   midi.NoteOnEvent(tick=5, channel=9, data=[35, 0]),
   midi.NoteOnEvent(tick=0, channel=9, data=[70, 0]),
   midi.ControlChangeEvent(tick=235, channel=9, data=[98, 38]),
   midi.NoteOnEvent(tick=0, channel=9, data=[35, 46]),
   midi.NoteOnEvent(tick=0, channel=9, data=[70, 41]),
   midi.NoteOnEvent(tick=5, channel=9, data=[35, 0]),
   midi.NoteOnEvent(tick=0, channel=9, data=[70, 0]),
   midi.ControlChangeEvent(tick=3, channel=9, data=[99, 29]),
   midi.ControlChangeEvent(tick=7, channel=9, data=[98, 38]),
   midi.ControlChangeEvent(tick=0, channel=9, data=[6, 127]),
   midi.ControlChangeEvent(tick=8, channel=9, data=[99, 24]),
   midi.ControlChangeEvent(tick=7, channel=9, data=[6, 66]),
   midi.NoteOnEvent(tick=210, channel=9, data=[70, 29]),
   midi.NoteOnEvent(tick=5, channel=9, data=[70, 0]),
   midi.NoteOnEvent(tick=235, channel=9, data=[70, 41]),
   midi.NoteOnEvent(tick=5, channel=9, data=[70, 0]),
   midi.NoteOnEvent(tick=235, channel=9, data=[70, 32]),
   midi.NoteOnEvent(tick=5, channel=9, data=[70, 0]),
   midi.NoteOnEvent(tick=235, channel=9, data=[38, 96]),
   midi.NoteOnEvent(tick=0, channel=9, data=[70, 41]),
   midi.NoteOnEvent(tick=5, channel=9, data=[38, 0]),
   midi.NoteOnEvent(tick=0, channel=9, data=[70, 0]),
   midi.NoteOnEvent(tick=235, channel=9, data=[45, 83]),
   midi.NoteOnEvent(tick=0, channel=9, data=[70, 30]),
   midi.NoteOnEvent(tick=5, channel=9, data=[45, 0]),
   midi.NoteOnEvent(tick=0, channel=9, data=[70, 0]),
   midi.NoteOnEvent(tick=235, channel=9, data=[43, 88]),
   midi.NoteOnEvent(tick=0, channel=9, data=[70, 44]),
   midi.NoteOnEvent(tick=5, channel=9, data=[43, 0]),
   midi.NoteOnEvent(tick=0, channel=9, data=[70, 0]),
   midi.NoteOnEvent(tick=235, channel=9, data=[70, 32]),
   midi.NoteOnEvent(tick=5, channel=9, data=[70, 0]),
   midi.NoteOnEvent(tick=235, channel=9, data=[35, 95]),
   midi.NoteOnEvent(tick=0, channel=9, data=[46, 49]),
   midi.NoteOnEvent(tick=0, channel=9, data=[57, 67]),
   midi.NoteOnEvent(tick=0, channel=9, data=[70, 41]),
   midi.NoteOnEvent(tick=5, channel=9, data=[35, 0]),
   midi.NoteOnEvent(tick=0, channel=9, data=[46, 0]),
   midi.NoteOnEvent(tick=0, channel=9, data=[57, 0]),
   midi.NoteOnEvent(tick=0, channel=9, data=[70, 0]),
   midi.NoteOnEvent(tick=235, channel=9, data=[70, 29]),
   midi.NoteOnEvent(tick=5, channel=9, data=[70, 0]),
   midi.ControlChangeEvent(tick=235, channel=9, data=[98, 37]),
   midi.NoteOnEvent(tick=0, channel=9, data=[44, 44]),
   midi.NoteOnEvent(tick=0, channel=9, data=[59, 57]),
   midi.NoteOnEvent(tick=0, channel=9, data=[70, 41]),
   midi.NoteOnEvent(tick=5, channel=9, data=[44, 0]),
   midi.NoteOnEvent(tick=0, channel=9, data=[59, 0]),
   midi.NoteOnEvent(tick=0, channel=9, data=[70, 0]),
   midi.ControlChangeEvent(tick=3, channel=9, data=[99, 29]),
   midi.ControlChangeEvent(tick=7, channel=9, data=[6, 120]),
   midi.ControlChangeEvent(tick=20, channel=9, data=[98, 37]),
   midi.ControlChangeEvent(tick=8, channel=9, data=[99, 24]),
   midi.ControlChangeEvent(tick=7, channel=9, data=[6, 62]),
   midi.NoteOnEvent(tick=190, channel=9, data=[70, 32]),
   midi.NoteOnEvent(tick=0, channel=9, data=[81, 43]),
   midi.NoteOnEvent(tick=5, channel=9, data=[70, 0]),
   midi.NoteOnEvent(tick=0, channel=9, data=[81, 0]),
   midi.NoteOnEvent(tick=235, channel=9, data=[37, 102]),
   midi.NoteOnEvent(tick=0, channel=9, data=[46, 41]),
   midi.NoteOnEvent(tick=0, channel=9, data=[59, 71]),
   midi.NoteOnEvent(tick=0, channel=9, data=[70, 41]),
   midi.NoteOnEvent(tick=5, channel=9, data=[37, 0]),
   midi.NoteOnEvent(tick=0, channel=9, data=[46, 0]),
   midi.NoteOnEvent(tick=0, channel=9, data=[59, 0]),
   midi.NoteOnEvent(tick=0, channel=9, data=[70, 0]),
   midi.NoteOnEvent(tick=235, channel=9, data=[70, 30]),
   midi.NoteOnEvent(tick=5, channel=9, data=[70, 0]),
   midi.NoteOnEvent(tick=235, channel=9, data=[44, 44]),
   midi.NoteOnEvent(tick=0, channel=9, data=[59, 65]),
   midi.NoteOnEvent(tick=0, channel=9, data=[70, 44]),
   midi.NoteOnEvent(tick=5, channel=9, data=[44, 0]),
   midi.NoteOnEvent(tick=0, channel=9, data=[59, 0]),
   midi.NoteOnEvent(tick=0, channel=9, data=[70, 0]),
   midi.NoteOnEvent(tick=235, channel=9, data=[35, 51]),
   midi.NoteOnEvent(tick=0, channel=9, data=[70, 32]),
   midi.NoteOnEvent(tick=5, channel=9, data=[35, 0]),
   midi.NoteOnEvent(tick=0, channel=9, data=[70, 0]),
   midi.NoteOnEvent(tick=235, channel=9, data=[35, 93]),
   midi.NoteOnEvent(tick=0, channel=9, data=[46, 49]),
   midi.NoteOnEvent(tick=0, channel=9, data=[59, 73]),
   midi.NoteOnEvent(tick=0, channel=9, data=[70, 41]),
   midi.NoteOnEvent(tick=5, channel=9, data=[35, 0]),
   midi.NoteOnEvent(tick=0, channel=9, data=[46, 0]),
   midi.NoteOnEvent(tick=0, channel=9, data=[59, 0]),
   midi.NoteOnEvent(tick=0, channel=9, data=[70, 0]),
   midi.NoteOnEvent(tick=235, channel=9, data=[70, 29]),
   midi.NoteOnEvent(tick=5, channel=9, data=[70, 0]),
   midi.NoteOnEvent(tick=235, channel=9, data=[44, 44]),
   midi.NoteOnEvent(tick=0, channel=9, data=[59, 41]),
   midi.NoteOnEvent(tick=0, channel=9, data=[70, 41]),
   midi.NoteOnEvent(tick=5, channel=9, data=[44, 0]),
   midi.NoteOnEvent(tick=0, channel=9, data=[59, 0]),
   midi.NoteOnEvent(tick=0, channel=9, data=[70, 0]),
   midi.NoteOnEvent(tick=235, channel=9, data=[70, 32]),
   midi.NoteOnEvent(tick=0, channel=9, data=[81, 26]),
   midi.NoteOnEvent(tick=5, channel=9, data=[70, 0]),
   midi.NoteOnEvent(tick=0, channel=9, data=[81, 0]),
   midi.NoteOnEvent(tick=235, channel=9, data=[38, 85]),
   midi.NoteOnEvent(tick=0, channel=9, data=[46, 41]),
   midi.NoteOnEvent(tick=0, channel=9, data=[54, 64]),
   midi.NoteOnEvent(tick=0, channel=9, data=[59, 66]),
   midi.NoteOnEvent(tick=0, channel=9, data=[70, 41]),
   midi.NoteOnEvent(tick=5, channel=9, data=[38, 0]),
   midi.NoteOnEvent(tick=0, channel=9, data=[46, 0]),
   midi.NoteOnEvent(tick=0, channel=9, data=[54, 0]),
   midi.NoteOnEvent(tick=0, channel=9, data=[59, 0]),
   midi.NoteOnEvent(tick=0, channel=9, data=[70, 0]),
   midi.NoteOnEvent(tick=235, channel=9, data=[70, 30]),
   midi.NoteOnEvent(tick=5, channel=9, data=[70, 0]),
   midi.NoteOnEvent(tick=235, channel=9, data=[44, 44]),
   midi.NoteOnEvent(tick=0, channel=9, data=[59, 71]),
   midi.NoteOnEvent(tick=0, channel=9, data=[70, 44]),
   midi.NoteOnEvent(tick=5, channel=9, data=[44, 0]),
   midi.NoteOnEvent(tick=0, channel=9, data=[59, 0]),
   midi.NoteOnEvent(tick=0, channel=9, data=[70, 0]),
   midi.NoteOnEvent(tick=235, channel=9, data=[70, 32]),
   midi.NoteOnEvent(tick=5, channel=9, data=[70, 0]),
   midi.NoteOnEvent(tick=235, channel=9, data=[35, 93]),
   midi.NoteOnEvent(tick=0, channel=9, data=[46, 49]),
   midi.NoteOnEvent(tick=0, channel=9, data=[51, 67]),
   midi.NoteOnEvent(tick=0, channel=9, data=[70, 41]),
   midi.NoteOnEvent(tick=5, channel=9, data=[35, 0]),
   midi.NoteOnEvent(tick=0, channel=9, data=[46, 0]),
   midi.NoteOnEvent(tick=0, channel=9, data=[51, 0]),
   midi.NoteOnEvent(tick=0, channel=9, data=[70, 0]),
   midi.NoteOnEvent(tick=235, channel=9, data=[70, 29]),
   midi.NoteOnEvent(tick=5, channel=9, data=[70, 0]),
   midi.NoteOnEvent(tick=235, channel=9, data=[44, 44]),
   midi.NoteOnEvent(tick=0, channel=9, data=[59, 57]),
   midi.NoteOnEvent(tick=0, channel=9, data=[70, 41]),
   midi.NoteOnEvent(tick=5, channel=9, data=[44, 0]),
   midi.NoteOnEvent(tick=0, channel=9, data=[59, 0]),
   midi.NoteOnEvent(tick=0, channel=9, data=[70, 0]),
   midi.NoteOnEvent(tick=235, channel=9, data=[70, 32]),
   midi.NoteOnEvent(tick=0, channel=9, data=[81, 43]),
   midi.NoteOnEvent(tick=5, channel=9, data=[70, 0]),
   midi.NoteOnEvent(tick=0, channel=9, data=[81, 0]),
   midi.NoteOnEvent(tick=235, channel=9, data=[37, 105]),
   midi.NoteOnEvent(tick=0, channel=9, data=[46, 41]),
   midi.NoteOnEvent(tick=0, channel=9, data=[59, 71]),
   midi.NoteOnEvent(tick=0, channel=9, data=[70, 41]),
   midi.NoteOnEvent(tick=5, channel=9, data=[37, 0]),
   midi.NoteOnEvent(tick=0, channel=9, data=[46, 0]),
   midi.NoteOnEvent(tick=0, channel=9, data=[59, 0]),
   midi.NoteOnEvent(tick=0, channel=9, data=[70, 0]),
   midi.NoteOnEvent(tick=235, channel=9, data=[70, 30]),
   midi.NoteOnEvent(tick=5, channel=9, data=[70, 0]),
   midi.NoteOnEvent(tick=235, channel=9, data=[44, 44]),
   midi.NoteOnEvent(tick=0, channel=9, data=[59, 65]),
   midi.NoteOnEvent(tick=0, channel=9, data=[70, 44]),
   midi.NoteOnEvent(tick=5, channel=9, data=[44, 0]),
   midi.NoteOnEvent(tick=0, channel=9, data=[59, 0]),
   midi.NoteOnEvent(tick=0, channel=9, data=[70, 0]),
   midi.NoteOnEvent(tick=235, channel=9, data=[35, 76]),
   midi.NoteOnEvent(tick=0, channel=9, data=[70, 32]),
   midi.NoteOnEvent(tick=5, channel=9, data=[35, 0]),
   midi.NoteOnEvent(tick=0, channel=9, data=[70, 0]),
   midi.NoteOnEvent(tick=235, channel=9, data=[35, 93]),
   midi.NoteOnEvent(tick=0, channel=9, data=[46, 49]),
   midi.NoteOnEvent(tick=0, channel=9, data=[59, 73]),
   midi.NoteOnEvent(tick=0, channel=9, data=[70, 41]),
   midi.NoteOnEvent(tick=5, channel=9, data=[35, 0]),
   midi.NoteOnEvent(tick=0, channel=9, data=[46, 0]),
   midi.NoteOnEvent(tick=0, channel=9, data=[59, 0]),
   midi.NoteOnEvent(tick=0, channel=9, data=[70, 0]),
   midi.NoteOnEvent(tick=235, channel=9, data=[70, 29]),
   midi.NoteOnEvent(tick=5, channel=9, data=[70, 0]),
   midi.NoteOnEvent(tick=235, channel=9, data=[44, 44]),
   midi.NoteOnEvent(tick=0, channel=9, data=[59, 41]),
   midi.NoteOnEvent(tick=0, channel=9, data=[70, 41]),
   midi.NoteOnEvent(tick=5, channel=9, data=[44, 0]),
   midi.NoteOnEvent(tick=0, channel=9, data=[59, 0]),
   midi.NoteOnEvent(tick=0, channel=9, data=[70, 0]),
   midi.NoteOnEvent(tick=235, channel=9, data=[70, 32]),
   midi.NoteOnEvent(tick=0, channel=9, data=[81, 26]),
   midi.NoteOnEvent(tick=5, channel=9, data=[70, 0]),
   midi.NoteOnEvent(tick=0, channel=9, data=[81, 0]),
   midi.NoteOnEvent(tick=235, channel=9, data=[38, 94]),
   midi.NoteOnEvent(tick=0, channel=9, data=[46, 41]),
   midi.NoteOnEvent(tick=0, channel=9, data=[54, 64]),
   midi.NoteOnEvent(tick=0, channel=9, data=[59, 66]),
   midi.NoteOnEvent(tick=0, channel=9, data=[70, 41]),
   midi.NoteOnEvent(tick=5, channel=9, data=[38, 0]),
   midi.NoteOnEvent(tick=0, channel=9, data=[46, 0]),
   midi.NoteOnEvent(tick=0, channel=9, data=[54, 0]),
   midi.NoteOnEvent(tick=0, channel=9, data=[59, 0]),
   midi.NoteOnEvent(tick=0, channel=9, data=[70, 0]),
   midi.NoteOnEvent(tick=235, channel=9, data=[70, 30]),
   midi.NoteOnEvent(tick=5, channel=9, data=[70, 0]),
   midi.NoteOnEvent(tick=235, channel=9, data=[44, 44]),
   midi.NoteOnEvent(tick=0, channel=9, data=[59, 71]),
   midi.NoteOnEvent(tick=0, channel=9, data=[70, 44]),
   midi.NoteOnEvent(tick=5, channel=9, data=[44, 0]),
   midi.NoteOnEvent(tick=0, channel=9, data=[59, 0]),
   midi.NoteOnEvent(tick=0, channel=9, data=[70, 0]),
   midi.NoteOnEvent(tick=235, channel=9, data=[70, 32]),
   midi.NoteOnEvent(tick=5, channel=9, data=[70, 0]),
   midi.NoteOnEvent(tick=235, channel=9, data=[35, 95]),
   midi.NoteOnEvent(tick=0, channel=9, data=[46, 49]),
   midi.NoteOnEvent(tick=0, channel=9, data=[59, 57]),
   midi.NoteOnEvent(tick=0, channel=9, data=[70, 41]),
   midi.NoteOnEvent(tick=5, channel=9, data=[35, 0]),
   midi.NoteOnEvent(tick=0, channel=9, data=[46, 0]),
   midi.NoteOnEvent(tick=0, channel=9, data=[59, 0]),
   midi.NoteOnEvent(tick=0, channel=9, data=[70, 0]),
   midi.NoteOnEvent(tick=235, channel=9, data=[70, 29]),
   midi.NoteOnEvent(tick=5, channel=9, data=[70, 0]),
   midi.NoteOnEvent(tick=235, channel=9, data=[44, 44]),
   midi.NoteOnEvent(tick=0, channel=9, data=[59, 57]),
   midi.NoteOnEvent(tick=0, channel=9, data=[70, 41]),
   midi.NoteOnEvent(tick=5, channel=9, data=[44, 0]),
   midi.NoteOnEvent(tick=0, channel=9, data=[59, 0]),
   midi.NoteOnEvent(tick=0, channel=9, data=[70, 0]),
   midi.NoteOnEvent(tick=235, channel=9, data=[70, 32]),
   midi.NoteOnEvent(tick=0, channel=9, data=[81, 43]),
   midi.NoteOnEvent(tick=5, channel=9, data=[70, 0]),
   midi.NoteOnEvent(tick=0, channel=9, data=[81, 0]),
   midi.NoteOnEvent(tick=235, channel=9, data=[37, 102]),
   midi.NoteOnEvent(tick=0, channel=9, data=[46, 41]),
   midi.NoteOnEvent(tick=0, channel=9, data=[59, 71]),
   midi.NoteOnEvent(tick=0, channel=9, data=[70, 41]),
   midi.NoteOnEvent(tick=5, channel=9, data=[37, 0]),
   midi.NoteOnEvent(tick=0, channel=9, data=[46, 0]),
   midi.NoteOnEvent(tick=0, channel=9, data=[59, 0]),
   midi.NoteOnEvent(tick=0, channel=9, data=[70, 0]),
   midi.NoteOnEvent(tick=235, channel=9, data=[70, 30]),
   midi.NoteOnEvent(tick=5, channel=9, data=[70, 0]),
   midi.NoteOnEvent(tick=235, channel=9, data=[44, 44]),
   midi.NoteOnEvent(tick=0, channel=9, data=[59, 65]),
   midi.NoteOnEvent(tick=0, channel=9, data=[70, 44]),
   midi.NoteOnEvent(tick=5, channel=9, data=[44, 0]),
   midi.NoteOnEvent(tick=0, channel=9, data=[59, 0]),
   midi.NoteOnEvent(tick=0, channel=9, data=[70, 0]),
   midi.NoteOnEvent(tick=235, channel=9, data=[35, 51]),
   midi.NoteOnEvent(tick=0, channel=9, data=[70, 32]),
   midi.NoteOnEvent(tick=5, channel=9, data=[35, 0]),
   midi.NoteOnEvent(tick=0, channel=9, data=[70, 0]),
   midi.NoteOnEvent(tick=235, channel=9, data=[35, 93]),
   midi.NoteOnEvent(tick=0, channel=9, data=[46, 49]),
   midi.NoteOnEvent(tick=0, channel=9, data=[59, 73]),
   midi.NoteOnEvent(tick=0, channel=9, data=[70, 41]),
   midi.NoteOnEvent(tick=5, channel=9, data=[35, 0]),
   midi.NoteOnEvent(tick=0, channel=9, data=[46, 0]),
   midi.NoteOnEvent(tick=0, channel=9, data=[59, 0]),
   midi.NoteOnEvent(tick=0, channel=9, data=[70, 0]),
   midi.NoteOnEvent(tick=235, channel=9, data=[70, 29]),
   midi.NoteOnEvent(tick=5, channel=9, data=[70, 0]),
   midi.NoteOnEvent(tick=235, channel=9, data=[44, 44]),
   midi.NoteOnEvent(tick=0, channel=9, data=[59, 41]),
   midi.NoteOnEvent(tick=0, channel=9, data=[70, 41]),
   midi.NoteOnEvent(tick=5, channel=9, data=[44, 0]),
   midi.NoteOnEvent(tick=0, channel=9, data=[59, 0]),
   midi.NoteOnEvent(tick=0, channel=9, data=[70, 0]),
   midi.NoteOnEvent(tick=235, channel=9, data=[70, 32]),
   midi.NoteOnEvent(tick=0, channel=9, data=[81, 26]),
   midi.NoteOnEvent(tick=5, channel=9, data=[70, 0]),
   midi.NoteOnEvent(tick=0, channel=9, data=[81, 0]),
   midi.NoteOnEvent(tick=235, channel=9, data=[38, 85]),
   midi.NoteOnEvent(tick=0, channel=9, data=[46, 41]),
   midi.NoteOnEvent(tick=0, channel=9, data=[54, 64]),
   midi.NoteOnEvent(tick=0, channel=9, data=[59, 66]),
   midi.NoteOnEvent(tick=0, channel=9, data=[70, 41]),
   midi.NoteOnEvent(tick=5, channel=9, data=[38, 0]),
   midi.NoteOnEvent(tick=0, channel=9, data=[46, 0]),
   midi.NoteOnEvent(tick=0, channel=9, data=[54, 0]),
   midi.NoteOnEvent(tick=0, channel=9, data=[59, 0]),
   midi.NoteOnEvent(tick=0, channel=9, data=[70, 0]),
   midi.NoteOnEvent(tick=235, channel=9, data=[70, 30]),
   midi.NoteOnEvent(tick=5, channel=9, data=[70, 0]),
   midi.NoteOnEvent(tick=235, channel=9, data=[44, 44]),
   midi.NoteOnEvent(tick=0, channel=9, data=[59, 71]),
   midi.NoteOnEvent(tick=0, channel=9, data=[70, 44]),
   midi.NoteOnEvent(tick=5, channel=9, data=[44, 0]),
   midi.NoteOnEvent(tick=0, channel=9, data=[59, 0]),
   midi.NoteOnEvent(tick=0, channel=9, data=[70, 0]),
   midi.NoteOnEvent(tick=235, channel=9, data=[70, 32]),
   midi.NoteOnEvent(tick=5, channel=9, data=[70, 0]),
   midi.NoteOnEvent(tick=235, channel=9, data=[35, 93]),
   midi.NoteOnEvent(tick=0, channel=9, data=[46, 49]),
   midi.NoteOnEvent(tick=0, channel=9, data=[51, 67]),
   midi.NoteOnEvent(tick=0, channel=9, data=[70, 41]),
   midi.NoteOnEvent(tick=5, channel=9, data=[35, 0]),
   midi.NoteOnEvent(tick=0, channel=9, data=[46, 0]),
   midi.NoteOnEvent(tick=0, channel=9, data=[51, 0]),
   midi.NoteOnEvent(tick=0, channel=9, data=[70, 0]),
   midi.NoteOnEvent(tick=235, channel=9, data=[70, 29]),
   midi.NoteOnEvent(tick=5, channel=9, data=[70, 0]),
   midi.NoteOnEvent(tick=235, channel=9, data=[44, 44]),
   midi.NoteOnEvent(tick=0, channel=9, data=[59, 57]),
   midi.NoteOnEvent(tick=0, channel=9, data=[70, 41]),
   midi.NoteOnEvent(tick=5, channel=9, data=[44, 0]),
   midi.NoteOnEvent(tick=0, channel=9, data=[59, 0]),
   midi.NoteOnEvent(tick=0, channel=9, data=[70, 0]),
   midi.NoteOnEvent(tick=235, channel=9, data=[70, 32]),
   midi.NoteOnEvent(tick=0, channel=9, data=[81, 43]),
   midi.NoteOnEvent(tick=5, channel=9, data=[70, 0]),
   midi.NoteOnEvent(tick=0, channel=9, data=[81, 0]),
   midi.NoteOnEvent(tick=235, channel=9, data=[37, 105]),
   midi.NoteOnEvent(tick=0, channel=9, data=[46, 41]),
   midi.NoteOnEvent(tick=0, channel=9, data=[59, 71]),
   midi.NoteOnEvent(tick=0, channel=9, data=[70, 41]),
   midi.NoteOnEvent(tick=5, channel=9, data=[37, 0]),
   midi.NoteOnEvent(tick=0, channel=9, data=[46, 0]),
   midi.NoteOnEvent(tick=0, channel=9, data=[59, 0]),
   midi.NoteOnEvent(tick=0, channel=9, data=[70, 0]),
   midi.NoteOnEvent(tick=235, channel=9, data=[70, 30]),
   midi.NoteOnEvent(tick=5, channel=9, data=[70, 0]),
   midi.NoteOnEvent(tick=235, channel=9, data=[44, 44]),
   midi.NoteOnEvent(tick=0, channel=9, data=[59, 65]),
   midi.NoteOnEvent(tick=0, channel=9, data=[70, 44]),
   midi.NoteOnEvent(tick=5, channel=9, data=[44, 0]),
   midi.NoteOnEvent(tick=0, channel=9, data=[59, 0]),
   midi.NoteOnEvent(tick=0, channel=9, data=[70, 0]),
   midi.NoteOnEvent(tick=235, channel=9, data=[35, 76]),
   midi.NoteOnEvent(tick=0, channel=9, data=[70, 32]),
   midi.NoteOnEvent(tick=5, channel=9, data=[35, 0]),
   midi.NoteOnEvent(tick=0, channel=9, data=[70, 0]),
   midi.NoteOnEvent(tick=235, channel=9, data=[35, 93]),
   midi.NoteOnEvent(tick=0, channel=9, data=[46, 49]),
   midi.NoteOnEvent(tick=0, channel=9, data=[59, 73]),
   midi.NoteOnEvent(tick=0, channel=9, data=[70, 41]),
   midi.NoteOnEvent(tick=5, channel=9, data=[35, 0]),
   midi.NoteOnEvent(tick=0, channel=9, data=[46, 0]),
   midi.NoteOnEvent(tick=0, channel=9, data=[59, 0]),
   midi.NoteOnEvent(tick=0, channel=9, data=[70, 0]),
   midi.NoteOnEvent(tick=235, channel=9, data=[70, 29]),
   midi.NoteOnEvent(tick=5, channel=9, data=[70, 0]),
   midi.NoteOnEvent(tick=235, channel=9, data=[44, 44]),
   midi.NoteOnEvent(tick=0, channel=9, data=[59, 41]),
   midi.NoteOnEvent(tick=0, channel=9, data=[70, 41]),
   midi.NoteOnEvent(tick=5, channel=9, data=[44, 0]),
   midi.NoteOnEvent(tick=0, channel=9, data=[59, 0]),
   midi.NoteOnEvent(tick=0, channel=9, data=[70, 0]),
   midi.NoteOnEvent(tick=235, channel=9, data=[70, 32]),
   midi.NoteOnEvent(tick=0, channel=9, data=[81, 26]),
   midi.NoteOnEvent(tick=5, channel=9, data=[70, 0]),
   midi.NoteOnEvent(tick=0, channel=9, data=[81, 0]),
   midi.NoteOnEvent(tick=235, channel=9, data=[38, 94]),
   midi.NoteOnEvent(tick=0, channel=9, data=[46, 41]),
   midi.NoteOnEvent(tick=0, channel=9, data=[54, 64]),
   midi.NoteOnEvent(tick=0, channel=9, data=[59, 66]),
   midi.NoteOnEvent(tick=0, channel=9, data=[70, 41]),
   midi.NoteOnEvent(tick=5, channel=9, data=[38, 0]),
   midi.NoteOnEvent(tick=0, channel=9, data=[46, 0]),
   midi.NoteOnEvent(tick=0, channel=9, data=[54, 0]),
   midi.NoteOnEvent(tick=0, channel=9, data=[59, 0]),
   midi.NoteOnEvent(tick=0, channel=9, data=[70, 0]),
   midi.NoteOnEvent(tick=235, channel=9, data=[70, 30]),
   midi.NoteOnEvent(tick=5, channel=9, data=[70, 0]),
   midi.NoteOnEvent(tick=235, channel=9, data=[43, 88]),
   midi.NoteOnEvent(tick=0, channel=9, data=[44, 44]),
   midi.NoteOnEvent(tick=0, channel=9, data=[59, 71]),
   midi.NoteOnEvent(tick=0, channel=9, data=[70, 44]),
   midi.NoteOnEvent(tick=5, channel=9, data=[43, 0]),
   midi.NoteOnEvent(tick=0, channel=9, data=[44, 0]),
   midi.NoteOnEvent(tick=0, channel=9, data=[59, 0]),
   midi.NoteOnEvent(tick=0, channel=9, data=[70, 0]),
   midi.NoteOnEvent(tick=235, channel=9, data=[70, 32]),
   midi.NoteOnEvent(tick=5, channel=9, data=[70, 0]),
   midi.NoteOnEvent(tick=235, channel=9, data=[35, 95]),
   midi.NoteOnEvent(tick=0, channel=9, data=[46, 49]),
   midi.NoteOnEvent(tick=0, channel=9, data=[57, 67]),
   midi.NoteOnEvent(tick=0, channel=9, data=[70, 41]),
   midi.NoteOnEvent(tick=5, channel=9, data=[35, 0]),
   midi.NoteOnEvent(tick=0, channel=9, data=[46, 0]),
   midi.NoteOnEvent(tick=0, channel=9, data=[57, 0]),
   midi.NoteOnEvent(tick=0, channel=9, data=[70, 0]),
   midi.NoteOnEvent(tick=235, channel=9, data=[70, 29]),
   midi.NoteOnEvent(tick=5, channel=9, data=[70, 0]),
   midi.NoteOnEvent(tick=235, channel=9, data=[44, 44]),
   midi.NoteOnEvent(tick=0, channel=9, data=[59, 57]),
   midi.NoteOnEvent(tick=0, channel=9, data=[70, 41]),
   midi.NoteOnEvent(tick=5, channel=9, data=[44, 0]),
   midi.NoteOnEvent(tick=0, channel=9, data=[59, 0]),
   midi.NoteOnEvent(tick=0, channel=9, data=[70, 0]),
   midi.NoteOnEvent(tick=235, channel=9, data=[70, 32]),
   midi.NoteOnEvent(tick=0, channel=9, data=[81, 43]),
   midi.NoteOnEvent(tick=5, channel=9, data=[70, 0]),
   midi.NoteOnEvent(tick=0, channel=9, data=[81, 0]),
   midi.NoteOnEvent(tick=235, channel=9, data=[37, 102]),
   midi.NoteOnEvent(tick=0, channel=9, data=[46, 41]),
   midi.NoteOnEvent(tick=0, channel=9, data=[59, 71]),
   midi.NoteOnEvent(tick=0, channel=9, data=[70, 41]),
   midi.NoteOnEvent(tick=5, channel=9, data=[37, 0]),
   midi.NoteOnEvent(tick=0, channel=9, data=[46, 0]),
   midi.NoteOnEvent(tick=0, channel=9, data=[59, 0]),
   midi.NoteOnEvent(tick=0, channel=9, data=[70, 0]),
   midi.NoteOnEvent(tick=235, channel=9, data=[70, 30]),
   midi.NoteOnEvent(tick=5, channel=9, data=[70, 0]),
   midi.NoteOnEvent(tick=235, channel=9, data=[44, 44]),
   midi.NoteOnEvent(tick=0, channel=9, data=[59, 65]),
   midi.NoteOnEvent(tick=0, channel=9, data=[70, 44]),
   midi.NoteOnEvent(tick=5, channel=9, data=[44, 0]),
   midi.NoteOnEvent(tick=0, channel=9, data=[59, 0]),
   midi.NoteOnEvent(tick=0, channel=9, data=[70, 0]),
   midi.NoteOnEvent(tick=235, channel=9, data=[35, 51]),
   midi.NoteOnEvent(tick=0, channel=9, data=[70, 32]),
   midi.NoteOnEvent(tick=5, channel=9, data=[35, 0]),
   midi.NoteOnEvent(tick=0, channel=9, data=[70, 0]),
   midi.NoteOnEvent(tick=235, channel=9, data=[35, 93]),
   midi.NoteOnEvent(tick=0, channel=9, data=[46, 49]),
   midi.NoteOnEvent(tick=0, channel=9, data=[59, 73]),
   midi.NoteOnEvent(tick=0, channel=9, data=[70, 41]),
   midi.NoteOnEvent(tick=5, channel=9, data=[35, 0]),
   midi.NoteOnEvent(tick=0, channel=9, data=[46, 0]),
   midi.NoteOnEvent(tick=0, channel=9, data=[59, 0]),
   midi.NoteOnEvent(tick=0, channel=9, data=[70, 0]),
   midi.NoteOnEvent(tick=235, channel=9, data=[70, 29]),
   midi.NoteOnEvent(tick=5, channel=9, data=[70, 0]),
   midi.NoteOnEvent(tick=235, channel=9, data=[44, 44]),
   midi.NoteOnEvent(tick=0, channel=9, data=[59, 41]),
   midi.NoteOnEvent(tick=0, channel=9, data=[70, 41]),
   midi.NoteOnEvent(tick=5, channel=9, data=[44, 0]),
   midi.NoteOnEvent(tick=0, channel=9, data=[59, 0]),
   midi.NoteOnEvent(tick=0, channel=9, data=[70, 0]),
   midi.NoteOnEvent(tick=235, channel=9, data=[70, 32]),
   midi.NoteOnEvent(tick=0, channel=9, data=[81, 26]),
   midi.NoteOnEvent(tick=5, channel=9, data=[70, 0]),
   midi.NoteOnEvent(tick=0, channel=9, data=[81, 0]),
   midi.NoteOnEvent(tick=235, channel=9, data=[38, 85]),
   midi.NoteOnEvent(tick=0, channel=9, data=[46, 41]),
   midi.NoteOnEvent(tick=0, channel=9, data=[54, 64]),
   midi.NoteOnEvent(tick=0, channel=9, data=[59, 66]),
   midi.NoteOnEvent(tick=0, channel=9, data=[70, 41]),
   midi.NoteOnEvent(tick=5, channel=9, data=[38, 0]),
   midi.NoteOnEvent(tick=0, channel=9, data=[46, 0]),
   midi.NoteOnEvent(tick=0, channel=9, data=[54, 0]),
   midi.NoteOnEvent(tick=0, channel=9, data=[59, 0]),
   midi.NoteOnEvent(tick=0, channel=9, data=[70, 0]),
   midi.NoteOnEvent(tick=235, channel=9, data=[70, 30]),
   midi.NoteOnEvent(tick=5, channel=9, data=[70, 0]),
   midi.NoteOnEvent(tick=235, channel=9, data=[44, 44]),
   midi.NoteOnEvent(tick=0, channel=9, data=[59, 71]),
   midi.NoteOnEvent(tick=0, channel=9, data=[70, 44]),
   midi.NoteOnEvent(tick=5, channel=9, data=[44, 0]),
   midi.NoteOnEvent(tick=0, channel=9, data=[59, 0]),
   midi.NoteOnEvent(tick=0, channel=9, data=[70, 0]),
   midi.NoteOnEvent(tick=235, channel=9, data=[70, 32]),
   midi.NoteOnEvent(tick=5, channel=9, data=[70, 0]),
   midi.NoteOnEvent(tick=235, channel=9, data=[35, 93]),
   midi.NoteOnEvent(tick=0, channel=9, data=[46, 49]),
   midi.NoteOnEvent(tick=0, channel=9, data=[51, 67]),
   midi.NoteOnEvent(tick=0, channel=9, data=[70, 41]),
   midi.NoteOnEvent(tick=5, channel=9, data=[35, 0]),
   midi.NoteOnEvent(tick=0, channel=9, data=[46, 0]),
   midi.NoteOnEvent(tick=0, channel=9, data=[51, 0]),
   midi.NoteOnEvent(tick=0, channel=9, data=[70, 0]),
   midi.NoteOnEvent(tick=235, channel=9, data=[70, 29]),
   midi.NoteOnEvent(tick=5, channel=9, data=[70, 0]),
   midi.NoteOnEvent(tick=235, channel=9, data=[44, 44]),
   midi.NoteOnEvent(tick=0, channel=9, data=[59, 57]),
   midi.NoteOnEvent(tick=0, channel=9, data=[70, 41]),
   midi.NoteOnEvent(tick=5, channel=9, data=[44, 0]),
   midi.NoteOnEvent(tick=0, channel=9, data=[59, 0]),
   midi.NoteOnEvent(tick=0, channel=9, data=[70, 0]),
   midi.NoteOnEvent(tick=235, channel=9, data=[70, 32]),
   midi.NoteOnEvent(tick=0, channel=9, data=[81, 43]),
   midi.NoteOnEvent(tick=5, channel=9, data=[70, 0]),
   midi.NoteOnEvent(tick=0, channel=9, data=[81, 0]),
   midi.NoteOnEvent(tick=235, channel=9, data=[37, 105]),
   midi.NoteOnEvent(tick=0, channel=9, data=[46, 41]),
   midi.NoteOnEvent(tick=0, channel=9, data=[59, 71]),
   midi.NoteOnEvent(tick=0, channel=9, data=[70, 41]),
   midi.NoteOnEvent(tick=5, channel=9, data=[37, 0]),
   midi.NoteOnEvent(tick=0, channel=9, data=[46, 0]),
   midi.NoteOnEvent(tick=0, channel=9, data=[59, 0]),
   midi.NoteOnEvent(tick=0, channel=9, data=[70, 0]),
   midi.NoteOnEvent(tick=235, channel=9, data=[70, 30]),
   midi.NoteOnEvent(tick=5, channel=9, data=[70, 0]),
   midi.NoteOnEvent(tick=235, channel=9, data=[44, 44]),
   midi.NoteOnEvent(tick=0, channel=9, data=[59, 65]),
   midi.NoteOnEvent(tick=0, channel=9, data=[70, 44]),
   midi.NoteOnEvent(tick=5, channel=9, data=[44, 0]),
   midi.NoteOnEvent(tick=0, channel=9, data=[59, 0]),
   midi.NoteOnEvent(tick=0, channel=9, data=[70, 0]),
   midi.NoteOnEvent(tick=235, channel=9, data=[35, 76]),
   midi.NoteOnEvent(tick=0, channel=9, data=[70, 32]),
   midi.NoteOnEvent(tick=5, channel=9, data=[35, 0]),
   midi.NoteOnEvent(tick=0, channel=9, data=[70, 0]),
   midi.NoteOnEvent(tick=235, channel=9, data=[35, 93]),
   midi.NoteOnEvent(tick=0, channel=9, data=[46, 49]),
   midi.NoteOnEvent(tick=0, channel=9, data=[59, 73]),
   midi.NoteOnEvent(tick=0, channel=9, data=[70, 41]),
   midi.NoteOnEvent(tick=5, channel=9, data=[35, 0]),
   midi.NoteOnEvent(tick=0, channel=9, data=[46, 0]),
   midi.NoteOnEvent(tick=0, channel=9, data=[59, 0]),
   midi.NoteOnEvent(tick=0, channel=9, data=[70, 0]),
   midi.NoteOnEvent(tick=235, channel=9, data=[70, 29]),
   midi.NoteOnEvent(tick=5, channel=9, data=[70, 0]),
   midi.NoteOnEvent(tick=235, channel=9, data=[44, 44]),
   midi.NoteOnEvent(tick=0, channel=9, data=[59, 41]),
   midi.NoteOnEvent(tick=0, channel=9, data=[70, 41]),
   midi.NoteOnEvent(tick=5, channel=9, data=[44, 0]),
   midi.NoteOnEvent(tick=0, channel=9, data=[59, 0]),
   midi.NoteOnEvent(tick=0, channel=9, data=[70, 0]),
   midi.NoteOnEvent(tick=235, channel=9, data=[70, 32]),
   midi.NoteOnEvent(tick=0, channel=9, data=[81, 26]),
   midi.NoteOnEvent(tick=5, channel=9, data=[70, 0]),
   midi.NoteOnEvent(tick=0, channel=9, data=[81, 0]),
   midi.NoteOnEvent(tick=235, channel=9, data=[38, 94]),
   midi.NoteOnEvent(tick=0, channel=9, data=[46, 41]),
   midi.NoteOnEvent(tick=0, channel=9, data=[54, 64]),
   midi.NoteOnEvent(tick=0, channel=9, data=[59, 66]),
   midi.NoteOnEvent(tick=0, channel=9, data=[70, 41]),
   midi.NoteOnEvent(tick=5, channel=9, data=[38, 0]),
   midi.NoteOnEvent(tick=0, channel=9, data=[46, 0]),
   midi.NoteOnEvent(tick=0, channel=9, data=[54, 0]),
   midi.NoteOnEvent(tick=0, channel=9, data=[59, 0]),
   midi.NoteOnEvent(tick=0, channel=9, data=[70, 0]),
   midi.NoteOnEvent(tick=235, channel=9, data=[70, 30]),
   midi.NoteOnEvent(tick=5, channel=9, data=[70, 0]),
   midi.NoteOnEvent(tick=235, channel=9, data=[44, 44]),
   midi.NoteOnEvent(tick=0, channel=9, data=[59, 71]),
   midi.NoteOnEvent(tick=0, channel=9, data=[70, 44]),
   midi.NoteOnEvent(tick=5, channel=9, data=[44, 0]),
   midi.NoteOnEvent(tick=0, channel=9, data=[59, 0]),
   midi.NoteOnEvent(tick=0, channel=9, data=[70, 0]),
   midi.NoteOnEvent(tick=235, channel=9, data=[70, 32]),
   midi.NoteOnEvent(tick=5, channel=9, data=[70, 0]),
   midi.NoteOnEvent(tick=235, channel=9, data=[35, 95]),
   midi.NoteOnEvent(tick=0, channel=9, data=[46, 49]),
   midi.NoteOnEvent(tick=0, channel=9, data=[59, 57]),
   midi.NoteOnEvent(tick=0, channel=9, data=[70, 41]),
   midi.NoteOnEvent(tick=5, channel=9, data=[35, 0]),
   midi.NoteOnEvent(tick=0, channel=9, data=[46, 0]),
   midi.NoteOnEvent(tick=0, channel=9, data=[59, 0]),
   midi.NoteOnEvent(tick=0, channel=9, data=[70, 0]),
   midi.NoteOnEvent(tick=3, channel=9, data=[127, 1]),
   midi.NoteOnEvent(tick=5, channel=9, data=[127, 0]),
   midi.NoteOnEvent(tick=227, channel=9, data=[70, 29]),
   midi.NoteOnEvent(tick=5, channel=9, data=[70, 0]),
   midi.NoteOnEvent(tick=235, channel=9, data=[44, 44]),
   midi.NoteOnEvent(tick=0, channel=9, data=[59, 57]),
   midi.NoteOnEvent(tick=0, channel=9, data=[70, 41]),
   midi.NoteOnEvent(tick=5, channel=9, data=[44, 0]),
   midi.NoteOnEvent(tick=0, channel=9, data=[59, 0]),
   midi.NoteOnEvent(tick=0, channel=9, data=[70, 0]),
   midi.NoteOnEvent(tick=235, channel=9, data=[70, 32]),
   midi.NoteOnEvent(tick=0, channel=9, data=[81, 43]),
   midi.NoteOnEvent(tick=5, channel=9, data=[70, 0]),
   midi.NoteOnEvent(tick=0, channel=9, data=[81, 0]),
   midi.NoteOnEvent(tick=235, channel=9, data=[37, 102]),
   midi.NoteOnEvent(tick=0, channel=9, data=[46, 41]),
   midi.NoteOnEvent(tick=0, channel=9, data=[59, 71]),
   midi.NoteOnEvent(tick=0, channel=9, data=[70, 41]),
   midi.NoteOnEvent(tick=5, channel=9, data=[37, 0]),
   midi.NoteOnEvent(tick=0, channel=9, data=[46, 0]),
   midi.NoteOnEvent(tick=0, channel=9, data=[59, 0]),
   midi.NoteOnEvent(tick=0, channel=9, data=[70, 0]),
   midi.NoteOnEvent(tick=235, channel=9, data=[70, 30]),
   midi.NoteOnEvent(tick=5, channel=9, data=[70, 0]),
   midi.NoteOnEvent(tick=235, channel=9, data=[44, 44]),
   midi.NoteOnEvent(tick=0, channel=9, data=[59, 65]),
   midi.NoteOnEvent(tick=0, channel=9, data=[70, 44]),
   midi.NoteOnEvent(tick=5, channel=9, data=[44, 0]),
   midi.NoteOnEvent(tick=0, channel=9, data=[59, 0]),
   midi.NoteOnEvent(tick=0, channel=9, data=[70, 0]),
   midi.NoteOnEvent(tick=235, channel=9, data=[35, 51]),
   midi.NoteOnEvent(tick=0, channel=9, data=[70, 32]),
   midi.NoteOnEvent(tick=5, channel=9, data=[35, 0]),
   midi.NoteOnEvent(tick=0, channel=9, data=[70, 0]),
   midi.NoteOnEvent(tick=235, channel=9, data=[35, 93]),
   midi.NoteOnEvent(tick=0, channel=9, data=[46, 49]),
   midi.NoteOnEvent(tick=0, channel=9, data=[59, 73]),
   midi.NoteOnEvent(tick=0, channel=9, data=[70, 41]),
   midi.NoteOnEvent(tick=5, channel=9, data=[35, 0]),
   midi.NoteOnEvent(tick=0, channel=9, data=[46, 0]),
   midi.NoteOnEvent(tick=0, channel=9, data=[59, 0]),
   midi.NoteOnEvent(tick=0, channel=9, data=[70, 0]),
   midi.NoteOnEvent(tick=235, channel=9, data=[70, 29]),
   midi.NoteOnEvent(tick=5, channel=9, data=[70, 0]),
   midi.NoteOnEvent(tick=235, channel=9, data=[44, 44]),
   midi.NoteOnEvent(tick=0, channel=9, data=[59, 41]),
   midi.NoteOnEvent(tick=0, channel=9, data=[70, 41]),
   midi.NoteOnEvent(tick=5, channel=9, data=[44, 0]),
   midi.NoteOnEvent(tick=0, channel=9, data=[59, 0]),
   midi.NoteOnEvent(tick=0, channel=9, data=[70, 0]),
   midi.NoteOnEvent(tick=235, channel=9, data=[70, 32]),
   midi.NoteOnEvent(tick=0, channel=9, data=[81, 26]),
   midi.NoteOnEvent(tick=5, channel=9, data=[70, 0]),
   midi.NoteOnEvent(tick=0, channel=9, data=[81, 0]),
   midi.NoteOnEvent(tick=235, channel=9, data=[38, 85]),
   midi.NoteOnEvent(tick=0, channel=9, data=[46, 41]),
   midi.NoteOnEvent(tick=0, channel=9, data=[54, 64]),
   midi.NoteOnEvent(tick=0, channel=9, data=[59, 66]),
   midi.NoteOnEvent(tick=0, channel=9, data=[70, 41]),
   midi.NoteOnEvent(tick=5, channel=9, data=[38, 0]),
   midi.NoteOnEvent(tick=0, channel=9, data=[46, 0]),
   midi.NoteOnEvent(tick=0, channel=9, data=[54, 0]),
   midi.NoteOnEvent(tick=0, channel=9, data=[59, 0]),
   midi.NoteOnEvent(tick=0, channel=9, data=[70, 0]),
   midi.NoteOnEvent(tick=235, channel=9, data=[70, 30]),
   midi.NoteOnEvent(tick=5, channel=9, data=[70, 0]),
   midi.NoteOnEvent(tick=235, channel=9, data=[44, 44]),
   midi.NoteOnEvent(tick=0, channel=9, data=[59, 71]),
   midi.NoteOnEvent(tick=0, channel=9, data=[70, 44]),
   midi.NoteOnEvent(tick=5, channel=9, data=[44, 0]),
   midi.NoteOnEvent(tick=0, channel=9, data=[59, 0]),
   midi.NoteOnEvent(tick=0, channel=9, data=[70, 0]),
   midi.NoteOnEvent(tick=235, channel=9, data=[35, 51]),
   midi.NoteOnEvent(tick=0, channel=9, data=[70, 32]),
   midi.NoteOnEvent(tick=5, channel=9, data=[35, 0]),
   midi.NoteOnEvent(tick=0, channel=9, data=[70, 0]),
   midi.NoteOnEvent(tick=235, channel=9, data=[35, 93]),
   midi.NoteOnEvent(tick=0, channel=9, data=[46, 49]),
   midi.NoteOnEvent(tick=0, channel=9, data=[51, 67]),
   midi.NoteOnEvent(tick=0, channel=9, data=[70, 41]),
   midi.NoteOnEvent(tick=5, channel=9, data=[35, 0]),
   midi.NoteOnEvent(tick=0, channel=9, data=[46, 0]),
   midi.NoteOnEvent(tick=0, channel=9, data=[51, 0]),
   midi.NoteOnEvent(tick=0, channel=9, data=[70, 0]),
   midi.NoteOnEvent(tick=235, channel=9, data=[70, 29]),
   midi.NoteOnEvent(tick=5, channel=9, data=[70, 0]),
   midi.NoteOnEvent(tick=235, channel=9, data=[44, 44]),
   midi.NoteOnEvent(tick=0, channel=9, data=[59, 57]),
   midi.NoteOnEvent(tick=0, channel=9, data=[70, 41]),
   midi.NoteOnEvent(tick=5, channel=9, data=[44, 0]),
   midi.NoteOnEvent(tick=0, channel=9, data=[59, 0]),
   midi.NoteOnEvent(tick=0, channel=9, data=[70, 0]),
   midi.NoteOnEvent(tick=235, channel=9, data=[35, 51]),
   midi.NoteOnEvent(tick=0, channel=9, data=[70, 32]),
   midi.NoteOnEvent(tick=0, channel=9, data=[81, 43]),
   midi.NoteOnEvent(tick=5, channel=9, data=[35, 0]),
   midi.NoteOnEvent(tick=0, channel=9, data=[70, 0]),
   midi.NoteOnEvent(tick=0, channel=9, data=[81, 0]),
   midi.NoteOnEvent(tick=235, channel=9, data=[37, 105]),
   midi.NoteOnEvent(tick=0, channel=9, data=[46, 41]),
   midi.NoteOnEvent(tick=0, channel=9, data=[59, 71]),
   midi.NoteOnEvent(tick=0, channel=9, data=[70, 41]),
   midi.NoteOnEvent(tick=5, channel=9, data=[37, 0]),
   midi.NoteOnEvent(tick=0, channel=9, data=[46, 0]),
   midi.NoteOnEvent(tick=0, channel=9, data=[59, 0]),
   midi.NoteOnEvent(tick=0, channel=9, data=[70, 0]),
   midi.NoteOnEvent(tick=235, channel=9, data=[70, 30]),
   midi.NoteOnEvent(tick=5, channel=9, data=[70, 0]),
   midi.NoteOnEvent(tick=235, channel=9, data=[44, 44]),
   midi.NoteOnEvent(tick=0, channel=9, data=[59, 65]),
   midi.NoteOnEvent(tick=0, channel=9, data=[70, 44]),
   midi.NoteOnEvent(tick=5, channel=9, data=[44, 0]),
   midi.NoteOnEvent(tick=0, channel=9, data=[59, 0]),
   midi.NoteOnEvent(tick=0, channel=9, data=[70, 0]),
   midi.NoteOnEvent(tick=235, channel=9, data=[35, 76]),
   midi.NoteOnEvent(tick=0, channel=9, data=[70, 32]),
   midi.NoteOnEvent(tick=5, channel=9, data=[35, 0]),
   midi.NoteOnEvent(tick=0, channel=9, data=[70, 0]),
   midi.NoteOnEvent(tick=235, channel=9, data=[35, 93]),
   midi.NoteOnEvent(tick=0, channel=9, data=[46, 49]),
   midi.NoteOnEvent(tick=0, channel=9, data=[59, 73]),
   midi.NoteOnEvent(tick=0, channel=9, data=[70, 41]),
   midi.NoteOnEvent(tick=5, channel=9, data=[35, 0]),
   midi.NoteOnEvent(tick=0, channel=9, data=[46, 0]),
   midi.NoteOnEvent(tick=0, channel=9, data=[59, 0]),
   midi.NoteOnEvent(tick=0, channel=9, data=[70, 0]),
   midi.NoteOnEvent(tick=235, channel=9, data=[70, 29]),
   midi.NoteOnEvent(tick=3, channel=9, data=[38, 94]),
   midi.NoteOnEvent(tick=2, channel=9, data=[70, 0]),
   midi.NoteOnEvent(tick=3, channel=9, data=[38, 0]),
   midi.NoteOnEvent(tick=232, channel=9, data=[44, 44]),
   midi.NoteOnEvent(tick=0, channel=9, data=[59, 41]),
   midi.NoteOnEvent(tick=0, channel=9, data=[70, 41]),
   midi.NoteOnEvent(tick=5, channel=9, data=[44, 0]),
   midi.NoteOnEvent(tick=0, channel=9, data=[59, 0]),
   midi.NoteOnEvent(tick=0, channel=9, data=[70, 0]),
   midi.NoteOnEvent(tick=235, channel=9, data=[35, 76]),
   midi.NoteOnEvent(tick=0, channel=9, data=[70, 32]),
   midi.NoteOnEvent(tick=0, channel=9, data=[81, 26]),
   midi.NoteOnEvent(tick=5, channel=9, data=[35, 0]),
   midi.NoteOnEvent(tick=0, channel=9, data=[70, 0]),
   midi.NoteOnEvent(tick=0, channel=9, data=[81, 0]),
   midi.NoteOnEvent(tick=235, channel=9, data=[38, 94]),
   midi.NoteOnEvent(tick=0, channel=9, data=[46, 41]),
   midi.NoteOnEvent(tick=0, channel=9, data=[54, 64]),
   midi.NoteOnEvent(tick=0, channel=9, data=[59, 66]),
   midi.NoteOnEvent(tick=0, channel=9, data=[70, 41]),
   midi.NoteOnEvent(tick=5, channel=9, data=[38, 0]),
   midi.NoteOnEvent(tick=0, channel=9, data=[46, 0]),
   midi.NoteOnEvent(tick=0, channel=9, data=[54, 0]),
   midi.NoteOnEvent(tick=0, channel=9, data=[59, 0]),
   midi.NoteOnEvent(tick=0, channel=9, data=[70, 0]),
   midi.NoteOnEvent(tick=235, channel=9, data=[45, 88]),
   midi.NoteOnEvent(tick=0, channel=9, data=[70, 30]),
   midi.NoteOnEvent(tick=5, channel=9, data=[45, 0]),
   midi.NoteOnEvent(tick=0, channel=9, data=[70, 0]),
   midi.NoteOnEvent(tick=235, channel=9, data=[43, 88]),
   midi.NoteOnEvent(tick=0, channel=9, data=[44, 44]),
   midi.NoteOnEvent(tick=0, channel=9, data=[59, 71]),
   midi.NoteOnEvent(tick=0, channel=9, data=[70, 44]),
   midi.NoteOnEvent(tick=5, channel=9, data=[43, 0]),
   midi.NoteOnEvent(tick=0, channel=9, data=[44, 0]),
   midi.NoteOnEvent(tick=0, channel=9, data=[59, 0]),
   midi.NoteOnEvent(tick=0, channel=9, data=[70, 0]),
   midi.NoteOnEvent(tick=235, channel=9, data=[70, 32]),
   midi.NoteOnEvent(tick=5, channel=9, data=[70, 0]),
   midi.NoteOnEvent(tick=235, channel=9, data=[35, 95]),
   midi.NoteOnEvent(tick=0, channel=9, data=[41, 48]),
   midi.NoteOnEvent(tick=0, channel=9, data=[46, 49]),
   midi.NoteOnEvent(tick=0, channel=9, data=[52, 76]),
   midi.NoteOnEvent(tick=0, channel=9, data=[70, 41]),
   midi.NoteOnEvent(tick=5, channel=9, data=[35, 0]),
   midi.NoteOnEvent(tick=0, channel=9, data=[41, 0]),
   midi.NoteOnEvent(tick=0, channel=9, data=[46, 0]),
   midi.NoteOnEvent(tick=0, channel=9, data=[52, 0]),
   midi.NoteOnEvent(tick=0, channel=9, data=[70, 0]),
   midi.NoteOnEvent(tick=235, channel=9, data=[70, 29]),
   midi.NoteOnEvent(tick=5, channel=9, data=[70, 0]),
   midi.NoteOnEvent(tick=235, channel=9, data=[44, 44]),
   midi.NoteOnEvent(tick=0, channel=9, data=[59, 57]),
   midi.NoteOnEvent(tick=0, channel=9, data=[70, 41]),
   midi.NoteOnEvent(tick=5, channel=9, data=[44, 0]),
   midi.NoteOnEvent(tick=0, channel=9, data=[59, 0]),
   midi.NoteOnEvent(tick=0, channel=9, data=[70, 0]),
   midi.NoteOnEvent(tick=235, channel=9, data=[70, 32]),
   midi.NoteOnEvent(tick=0, channel=9, data=[81, 43]),
   midi.NoteOnEvent(tick=5, channel=9, data=[70, 0]),
   midi.NoteOnEvent(tick=0, channel=9, data=[81, 0]),
   midi.NoteOnEvent(tick=235, channel=9, data=[37, 102]),
   midi.NoteOnEvent(tick=0, channel=9, data=[46, 41]),
   midi.NoteOnEvent(tick=0, channel=9, data=[59, 71]),
   midi.NoteOnEvent(tick=0, channel=9, data=[70, 41]),
   midi.NoteOnEvent(tick=5, channel=9, data=[37, 0]),
   midi.NoteOnEvent(tick=0, channel=9, data=[46, 0]),
   midi.NoteOnEvent(tick=0, channel=9, data=[59, 0]),
   midi.NoteOnEvent(tick=0, channel=9, data=[70, 0]),
   midi.NoteOnEvent(tick=235, channel=9, data=[70, 30]),
   midi.NoteOnEvent(tick=5, channel=9, data=[70, 0]),
   midi.NoteOnEvent(tick=235, channel=9, data=[44, 44]),
   midi.NoteOnEvent(tick=0, channel=9, data=[59, 65]),
   midi.NoteOnEvent(tick=0, channel=9, data=[70, 44]),
   midi.NoteOnEvent(tick=5, channel=9, data=[44, 0]),
   midi.NoteOnEvent(tick=0, channel=9, data=[59, 0]),
   midi.NoteOnEvent(tick=0, channel=9, data=[70, 0]),
   midi.NoteOnEvent(tick=235, channel=9, data=[35, 51]),
   midi.NoteOnEvent(tick=0, channel=9, data=[70, 32]),
   midi.NoteOnEvent(tick=5, channel=9, data=[35, 0]),
   midi.NoteOnEvent(tick=0, channel=9, data=[70, 0]),
   midi.NoteOnEvent(tick=235, channel=9, data=[35, 93]),
   midi.NoteOnEvent(tick=0, channel=9, data=[46, 49]),
   midi.NoteOnEvent(tick=0, channel=9, data=[59, 73]),
   midi.NoteOnEvent(tick=0, channel=9, data=[70, 41]),
   midi.NoteOnEvent(tick=5, channel=9, data=[35, 0]),
   midi.NoteOnEvent(tick=0, channel=9, data=[46, 0]),
   midi.NoteOnEvent(tick=0, channel=9, data=[59, 0]),
   midi.NoteOnEvent(tick=0, channel=9, data=[70, 0]),
   midi.NoteOnEvent(tick=235, channel=9, data=[70, 29]),
   midi.NoteOnEvent(tick=5, channel=9, data=[70, 0]),
   midi.NoteOnEvent(tick=235, channel=9, data=[44, 44]),
   midi.NoteOnEvent(tick=0, channel=9, data=[59, 41]),
   midi.NoteOnEvent(tick=0, channel=9, data=[70, 41]),
   midi.NoteOnEvent(tick=5, channel=9, data=[44, 0]),
   midi.NoteOnEvent(tick=0, channel=9, data=[59, 0]),
   midi.NoteOnEvent(tick=0, channel=9, data=[70, 0]),
   midi.NoteOnEvent(tick=235, channel=9, data=[70, 32]),
   midi.NoteOnEvent(tick=0, channel=9, data=[81, 26]),
   midi.NoteOnEvent(tick=5, channel=9, data=[70, 0]),
   midi.NoteOnEvent(tick=0, channel=9, data=[81, 0]),
   midi.NoteOnEvent(tick=235, channel=9, data=[38, 85]),
   midi.NoteOnEvent(tick=0, channel=9, data=[46, 41]),
   midi.NoteOnEvent(tick=0, channel=9, data=[54, 64]),
   midi.NoteOnEvent(tick=0, channel=9, data=[59, 66]),
   midi.NoteOnEvent(tick=0, channel=9, data=[70, 41]),
   midi.NoteOnEvent(tick=5, channel=9, data=[38, 0]),
   midi.NoteOnEvent(tick=0, channel=9, data=[46, 0]),
   midi.NoteOnEvent(tick=0, channel=9, data=[54, 0]),
   midi.NoteOnEvent(tick=0, channel=9, data=[59, 0]),
   midi.NoteOnEvent(tick=0, channel=9, data=[70, 0]),
   midi.NoteOnEvent(tick=235, channel=9, data=[70, 30]),
   midi.NoteOnEvent(tick=5, channel=9, data=[70, 0]),
   midi.NoteOnEvent(tick=235, channel=9, data=[44, 44]),
   midi.NoteOnEvent(tick=0, channel=9, data=[59, 71]),
   midi.NoteOnEvent(tick=0, channel=9, data=[70, 44]),
   midi.NoteOnEvent(tick=5, channel=9, data=[44, 0]),
   midi.NoteOnEvent(tick=0, channel=9, data=[59, 0]),
   midi.NoteOnEvent(tick=0, channel=9, data=[70, 0]),
   midi.NoteOnEvent(tick=235, channel=9, data=[70, 32]),
   midi.NoteOnEvent(tick=5, channel=9, data=[70, 0]),
   midi.NoteOnEvent(tick=235, channel=9, data=[35, 93]),
   midi.NoteOnEvent(tick=0, channel=9, data=[46, 49]),
   midi.NoteOnEvent(tick=0, channel=9, data=[51, 67]),
   midi.NoteOnEvent(tick=0, channel=9, data=[70, 41]),
   midi.NoteOnEvent(tick=5, channel=9, data=[35, 0]),
   midi.NoteOnEvent(tick=0, channel=9, data=[46, 0]),
   midi.NoteOnEvent(tick=0, channel=9, data=[51, 0]),
   midi.NoteOnEvent(tick=0, channel=9, data=[70, 0]),
   midi.NoteOnEvent(tick=235, channel=9, data=[70, 29]),
   midi.NoteOnEvent(tick=5, channel=9, data=[70, 0]),
   midi.NoteOnEvent(tick=235, channel=9, data=[44, 44]),
   midi.NoteOnEvent(tick=0, channel=9, data=[59, 57]),
   midi.NoteOnEvent(tick=0, channel=9, data=[70, 41]),
   midi.NoteOnEvent(tick=5, channel=9, data=[44, 0]),
   midi.NoteOnEvent(tick=0, channel=9, data=[59, 0]),
   midi.NoteOnEvent(tick=0, channel=9, data=[70, 0]),
   midi.NoteOnEvent(tick=235, channel=9, data=[70, 32]),
   midi.NoteOnEvent(tick=0, channel=9, data=[81, 43]),
   midi.NoteOnEvent(tick=5, channel=9, data=[70, 0]),
   midi.NoteOnEvent(tick=0, channel=9, data=[81, 0]),
   midi.NoteOnEvent(tick=235, channel=9, data=[37, 105]),
   midi.NoteOnEvent(tick=0, channel=9, data=[46, 41]),
   midi.NoteOnEvent(tick=0, channel=9, data=[59, 71]),
   midi.NoteOnEvent(tick=0, channel=9, data=[70, 41]),
   midi.NoteOnEvent(tick=5, channel=9, data=[37, 0]),
   midi.NoteOnEvent(tick=0, channel=9, data=[46, 0]),
   midi.NoteOnEvent(tick=0, channel=9, data=[59, 0]),
   midi.NoteOnEvent(tick=0, channel=9, data=[70, 0]),
   midi.NoteOnEvent(tick=235, channel=9, data=[70, 30]),
   midi.NoteOnEvent(tick=5, channel=9, data=[70, 0]),
   midi.NoteOnEvent(tick=235, channel=9, data=[44, 44]),
   midi.NoteOnEvent(tick=0, channel=9, data=[59, 65]),
   midi.NoteOnEvent(tick=0, channel=9, data=[70, 44]),
   midi.NoteOnEvent(tick=5, channel=9, data=[44, 0]),
   midi.NoteOnEvent(tick=0, channel=9, data=[59, 0]),
   midi.NoteOnEvent(tick=0, channel=9, data=[70, 0]),
   midi.NoteOnEvent(tick=235, channel=9, data=[35, 76]),
   midi.NoteOnEvent(tick=0, channel=9, data=[70, 32]),
   midi.NoteOnEvent(tick=5, channel=9, data=[35, 0]),
   midi.NoteOnEvent(tick=0, channel=9, data=[70, 0]),
   midi.NoteOnEvent(tick=235, channel=9, data=[35, 93]),
   midi.NoteOnEvent(tick=0, channel=9, data=[46, 49]),
   midi.NoteOnEvent(tick=0, channel=9, data=[59, 73]),
   midi.NoteOnEvent(tick=0, channel=9, data=[70, 41]),
   midi.NoteOnEvent(tick=5, channel=9, data=[35, 0]),
   midi.NoteOnEvent(tick=0, channel=9, data=[46, 0]),
   midi.NoteOnEvent(tick=0, channel=9, data=[59, 0]),
   midi.NoteOnEvent(tick=0, channel=9, data=[70, 0]),
   midi.NoteOnEvent(tick=235, channel=9, data=[70, 29]),
   midi.NoteOnEvent(tick=5, channel=9, data=[70, 0]),
   midi.NoteOnEvent(tick=235, channel=9, data=[44, 44]),
   midi.NoteOnEvent(tick=0, channel=9, data=[59, 41]),
   midi.NoteOnEvent(tick=0, channel=9, data=[70, 41]),
   midi.NoteOnEvent(tick=5, channel=9, data=[44, 0]),
   midi.NoteOnEvent(tick=0, channel=9, data=[59, 0]),
   midi.NoteOnEvent(tick=0, channel=9, data=[70, 0]),
   midi.NoteOnEvent(tick=235, channel=9, data=[70, 32]),
   midi.NoteOnEvent(tick=0, channel=9, data=[81, 26]),
   midi.NoteOnEvent(tick=5, channel=9, data=[70, 0]),
   midi.NoteOnEvent(tick=0, channel=9, data=[81, 0]),
   midi.NoteOnEvent(tick=235, channel=9, data=[38, 94]),
   midi.NoteOnEvent(tick=0, channel=9, data=[46, 41]),
   midi.NoteOnEvent(tick=0, channel=9, data=[54, 64]),
   midi.NoteOnEvent(tick=0, channel=9, data=[59, 66]),
   midi.NoteOnEvent(tick=0, channel=9, data=[70, 41]),
   midi.NoteOnEvent(tick=5, channel=9, data=[38, 0]),
   midi.NoteOnEvent(tick=0, channel=9, data=[46, 0]),
   midi.NoteOnEvent(tick=0, channel=9, data=[54, 0]),
   midi.NoteOnEvent(tick=0, channel=9, data=[59, 0]),
   midi.NoteOnEvent(tick=0, channel=9, data=[70, 0]),
   midi.NoteOnEvent(tick=235, channel=9, data=[70, 30]),
   midi.NoteOnEvent(tick=5, channel=9, data=[70, 0]),
   midi.NoteOnEvent(tick=235, channel=9, data=[44, 44]),
   midi.NoteOnEvent(tick=0, channel=9, data=[59, 71]),
   midi.NoteOnEvent(tick=0, channel=9, data=[70, 44]),
   midi.NoteOnEvent(tick=5, channel=9, data=[44, 0]),
   midi.NoteOnEvent(tick=0, channel=9, data=[59, 0]),
   midi.NoteOnEvent(tick=0, channel=9, data=[70, 0]),
   midi.NoteOnEvent(tick=235, channel=9, data=[70, 32]),
   midi.NoteOnEvent(tick=5, channel=9, data=[70, 0]),
   midi.NoteOnEvent(tick=235, channel=9, data=[35, 95]),
   midi.NoteOnEvent(tick=0, channel=9, data=[46, 49]),
   midi.NoteOnEvent(tick=0, channel=9, data=[59, 57]),
   midi.NoteOnEvent(tick=0, channel=9, data=[70, 41]),
   midi.NoteOnEvent(tick=5, channel=9, data=[35, 0]),
   midi.NoteOnEvent(tick=0, channel=9, data=[46, 0]),
   midi.NoteOnEvent(tick=0, channel=9, data=[59, 0]),
   midi.NoteOnEvent(tick=0, channel=9, data=[70, 0]),
   midi.NoteOnEvent(tick=235, channel=9, data=[70, 29]),
   midi.NoteOnEvent(tick=5, channel=9, data=[70, 0]),
   midi.NoteOnEvent(tick=235, channel=9, data=[44, 44]),
   midi.NoteOnEvent(tick=0, channel=9, data=[59, 57]),
   midi.NoteOnEvent(tick=0, channel=9, data=[70, 41]),
   midi.NoteOnEvent(tick=5, channel=9, data=[44, 0]),
   midi.NoteOnEvent(tick=0, channel=9, data=[59, 0]),
   midi.NoteOnEvent(tick=0, channel=9, data=[70, 0]),
   midi.NoteOnEvent(tick=235, channel=9, data=[70, 32]),
   midi.NoteOnEvent(tick=0, channel=9, data=[81, 43]),
   midi.NoteOnEvent(tick=5, channel=9, data=[70, 0]),
   midi.NoteOnEvent(tick=0, channel=9, data=[81, 0]),
   midi.NoteOnEvent(tick=235, channel=9, data=[37, 102]),
   midi.NoteOnEvent(tick=0, channel=9, data=[46, 41]),
   midi.NoteOnEvent(tick=0, channel=9, data=[59, 71]),
   midi.NoteOnEvent(tick=0, channel=9, data=[70, 41]),
   midi.NoteOnEvent(tick=5, channel=9, data=[37, 0]),
   midi.NoteOnEvent(tick=0, channel=9, data=[46, 0]),
   midi.NoteOnEvent(tick=0, channel=9, data=[59, 0]),
   midi.NoteOnEvent(tick=0, channel=9, data=[70, 0]),
   midi.NoteOnEvent(tick=235, channel=9, data=[70, 30]),
   midi.NoteOnEvent(tick=5, channel=9, data=[70, 0]),
   midi.NoteOnEvent(tick=235, channel=9, data=[44, 44]),
   midi.NoteOnEvent(tick=0, channel=9, data=[59, 65]),
   midi.NoteOnEvent(tick=0, channel=9, data=[70, 44]),
   midi.NoteOnEvent(tick=5, channel=9, data=[44, 0]),
   midi.NoteOnEvent(tick=0, channel=9, data=[59, 0]),
   midi.NoteOnEvent(tick=0, channel=9, data=[70, 0]),
   midi.NoteOnEvent(tick=235, channel=9, data=[35, 76]),
   midi.NoteOnEvent(tick=0, channel=9, data=[70, 32]),
   midi.NoteOnEvent(tick=5, channel=9, data=[35, 0]),
   midi.NoteOnEvent(tick=0, channel=9, data=[70, 0]),
   midi.NoteOnEvent(tick=235, channel=9, data=[35, 93]),
   midi.NoteOnEvent(tick=0, channel=9, data=[46, 49]),
   midi.NoteOnEvent(tick=0, channel=9, data=[59, 73]),
   midi.NoteOnEvent(tick=0, channel=9, data=[70, 41]),
   midi.NoteOnEvent(tick=5, channel=9, data=[35, 0]),
   midi.NoteOnEvent(tick=0, channel=9, data=[46, 0]),
   midi.NoteOnEvent(tick=0, channel=9, data=[59, 0]),
   midi.NoteOnEvent(tick=0, channel=9, data=[70, 0]),
   midi.NoteOnEvent(tick=235, channel=9, data=[70, 29]),
   midi.NoteOnEvent(tick=5, channel=9, data=[70, 0]),
   midi.NoteOnEvent(tick=235, channel=9, data=[44, 44]),
   midi.NoteOnEvent(tick=0, channel=9, data=[59, 41]),
   midi.NoteOnEvent(tick=0, channel=9, data=[70, 41]),
   midi.NoteOnEvent(tick=5, channel=9, data=[44, 0]),
   midi.NoteOnEvent(tick=0, channel=9, data=[59, 0]),
   midi.NoteOnEvent(tick=0, channel=9, data=[70, 0]),
   midi.NoteOnEvent(tick=235, channel=9, data=[70, 32]),
   midi.NoteOnEvent(tick=0, channel=9, data=[81, 26]),
   midi.NoteOnEvent(tick=5, channel=9, data=[70, 0]),
   midi.NoteOnEvent(tick=0, channel=9, data=[81, 0]),
   midi.NoteOnEvent(tick=235, channel=9, data=[38, 85]),
   midi.NoteOnEvent(tick=0, channel=9, data=[46, 41]),
   midi.NoteOnEvent(tick=0, channel=9, data=[54, 64]),
   midi.NoteOnEvent(tick=0, channel=9, data=[59, 66]),
   midi.NoteOnEvent(tick=0, channel=9, data=[70, 41]),
   midi.NoteOnEvent(tick=5, channel=9, data=[38, 0]),
   midi.NoteOnEvent(tick=0, channel=9, data=[46, 0]),
   midi.NoteOnEvent(tick=0, channel=9, data=[54, 0]),
   midi.NoteOnEvent(tick=0, channel=9, data=[59, 0]),
   midi.NoteOnEvent(tick=0, channel=9, data=[70, 0]),
   midi.NoteOnEvent(tick=235, channel=9, data=[70, 30]),
   midi.NoteOnEvent(tick=5, channel=9, data=[70, 0]),
   midi.NoteOnEvent(tick=235, channel=9, data=[44, 44]),
   midi.NoteOnEvent(tick=0, channel=9, data=[59, 71]),
   midi.NoteOnEvent(tick=0, channel=9, data=[70, 44]),
   midi.NoteOnEvent(tick=5, channel=9, data=[44, 0]),
   midi.NoteOnEvent(tick=0, channel=9, data=[59, 0]),
   midi.NoteOnEvent(tick=0, channel=9, data=[70, 0]),
   midi.NoteOnEvent(tick=235, channel=9, data=[70, 32]),
   midi.NoteOnEvent(tick=5, channel=9, data=[70, 0]),
   midi.NoteOnEvent(tick=235, channel=9, data=[35, 93]),
   midi.NoteOnEvent(tick=0, channel=9, data=[46, 49]),
   midi.NoteOnEvent(tick=0, channel=9, data=[59, 57]),
   midi.NoteOnEvent(tick=0, channel=9, data=[70, 41]),
   midi.NoteOnEvent(tick=5, channel=9, data=[35, 0]),
   midi.NoteOnEvent(tick=0, channel=9, data=[46, 0]),
   midi.NoteOnEvent(tick=0, channel=9, data=[59, 0]),
   midi.NoteOnEvent(tick=0, channel=9, data=[70, 0]),
   midi.NoteOnEvent(tick=235, channel=9, data=[70, 29]),
   midi.NoteOnEvent(tick=5, channel=9, data=[70, 0]),
   midi.NoteOnEvent(tick=235, channel=9, data=[44, 44]),
   midi.NoteOnEvent(tick=0, channel=9, data=[59, 57]),
   midi.NoteOnEvent(tick=0, channel=9, data=[70, 41]),
   midi.NoteOnEvent(tick=5, channel=9, data=[44, 0]),
   midi.NoteOnEvent(tick=0, channel=9, data=[59, 0]),
   midi.NoteOnEvent(tick=0, channel=9, data=[70, 0]),
   midi.NoteOnEvent(tick=235, channel=9, data=[70, 32]),
   midi.NoteOnEvent(tick=0, channel=9, data=[81, 43]),
   midi.NoteOnEvent(tick=5, channel=9, data=[70, 0]),
   midi.NoteOnEvent(tick=0, channel=9, data=[81, 0]),
   midi.NoteOnEvent(tick=235, channel=9, data=[37, 105]),
   midi.NoteOnEvent(tick=0, channel=9, data=[46, 41]),
   midi.NoteOnEvent(tick=0, channel=9, data=[59, 71]),
   midi.NoteOnEvent(tick=0, channel=9, data=[70, 41]),
   midi.NoteOnEvent(tick=5, channel=9, data=[37, 0]),
   midi.NoteOnEvent(tick=0, channel=9, data=[46, 0]),
   midi.NoteOnEvent(tick=0, channel=9, data=[59, 0]),
   midi.NoteOnEvent(tick=0, channel=9, data=[70, 0]),
   midi.NoteOnEvent(tick=235, channel=9, data=[70, 30]),
   midi.NoteOnEvent(tick=5, channel=9, data=[70, 0]),
   midi.NoteOnEvent(tick=235, channel=9, data=[44, 44]),
   midi.NoteOnEvent(tick=0, channel=9, data=[59, 65]),
   midi.NoteOnEvent(tick=0, channel=9, data=[70, 44]),
   midi.NoteOnEvent(tick=5, channel=9, data=[44, 0]),
   midi.NoteOnEvent(tick=0, channel=9, data=[59, 0]),
   midi.NoteOnEvent(tick=0, channel=9, data=[70, 0]),
   midi.NoteOnEvent(tick=235, channel=9, data=[35, 76]),
   midi.NoteOnEvent(tick=0, channel=9, data=[70, 32]),
   midi.NoteOnEvent(tick=5, channel=9, data=[35, 0]),
   midi.NoteOnEvent(tick=0, channel=9, data=[70, 0]),
   midi.NoteOnEvent(tick=235, channel=9, data=[35, 93]),
   midi.NoteOnEvent(tick=0, channel=9, data=[46, 49]),
   midi.NoteOnEvent(tick=0, channel=9, data=[59, 73]),
   midi.NoteOnEvent(tick=0, channel=9, data=[70, 41]),
   midi.NoteOnEvent(tick=5, channel=9, data=[35, 0]),
   midi.NoteOnEvent(tick=0, channel=9, data=[46, 0]),
   midi.NoteOnEvent(tick=0, channel=9, data=[59, 0]),
   midi.NoteOnEvent(tick=0, channel=9, data=[70, 0]),
   midi.NoteOnEvent(tick=235, channel=9, data=[70, 29]),
   midi.NoteOnEvent(tick=5, channel=9, data=[70, 0]),
   midi.NoteOnEvent(tick=235, channel=9, data=[44, 44]),
   midi.NoteOnEvent(tick=0, channel=9, data=[59, 41]),
   midi.NoteOnEvent(tick=0, channel=9, data=[70, 41]),
   midi.NoteOnEvent(tick=5, channel=9, data=[44, 0]),
   midi.NoteOnEvent(tick=0, channel=9, data=[59, 0]),
   midi.NoteOnEvent(tick=0, channel=9, data=[70, 0]),
   midi.NoteOnEvent(tick=235, channel=9, data=[70, 32]),
   midi.NoteOnEvent(tick=0, channel=9, data=[81, 26]),
   midi.NoteOnEvent(tick=1, channel=9, data=[38, 94]),
   midi.NoteOnEvent(tick=4, channel=9, data=[70, 0]),
   midi.NoteOnEvent(tick=0, channel=9, data=[81, 0]),
   midi.NoteOnEvent(tick=1, channel=9, data=[38, 0]),
   midi.NoteOnEvent(tick=234, channel=9, data=[38, 94]),
   midi.NoteOnEvent(tick=0, channel=9, data=[46, 41]),
   midi.NoteOnEvent(tick=0, channel=9, data=[54, 64]),
   midi.NoteOnEvent(tick=0, channel=9, data=[59, 66]),
   midi.NoteOnEvent(tick=0, channel=9, data=[70, 41]),
   midi.NoteOnEvent(tick=5, channel=9, data=[38, 0]),
   midi.NoteOnEvent(tick=0, channel=9, data=[46, 0]),
   midi.NoteOnEvent(tick=0, channel=9, data=[54, 0]),
   midi.NoteOnEvent(tick=0, channel=9, data=[59, 0]),
   midi.NoteOnEvent(tick=0, channel=9, data=[70, 0]),
   midi.NoteOnEvent(tick=235, channel=9, data=[45, 51]),
   midi.NoteOnEvent(tick=0, channel=9, data=[70, 30]),
   midi.NoteOnEvent(tick=5, channel=9, data=[45, 0]),
   midi.NoteOnEvent(tick=0, channel=9, data=[70, 0]),
   midi.NoteOnEvent(tick=115, channel=9, data=[43, 81]),
   midi.NoteOnEvent(tick=5, channel=9, data=[43, 0]),
   midi.NoteOnEvent(tick=115, channel=9, data=[41, 69]),
   midi.NoteOnEvent(tick=0, channel=9, data=[44, 44]),
   midi.NoteOnEvent(tick=0, channel=9, data=[59, 71]),
   midi.NoteOnEvent(tick=0, channel=9, data=[70, 44]),
   midi.NoteOnEvent(tick=5, channel=9, data=[41, 0]),
   midi.NoteOnEvent(tick=0, channel=9, data=[44, 0]),
   midi.NoteOnEvent(tick=0, channel=9, data=[59, 0]),
   midi.NoteOnEvent(tick=0, channel=9, data=[70, 0]),
   midi.NoteOnEvent(tick=235, channel=9, data=[70, 32]),
   midi.NoteOnEvent(tick=5, channel=9, data=[70, 0]),
   midi.NoteOnEvent(tick=235, channel=9, data=[35, 95]),
   midi.NoteOnEvent(tick=0, channel=9, data=[46, 49]),
   midi.NoteOnEvent(tick=0, channel=9, data=[49, 76]),
   midi.NoteOnEvent(tick=0, channel=9, data=[70, 41]),
   midi.NoteOnEvent(tick=5, channel=9, data=[35, 0]),
   midi.NoteOnEvent(tick=0, channel=9, data=[46, 0]),
   midi.NoteOnEvent(tick=0, channel=9, data=[49, 0]),
   midi.NoteOnEvent(tick=0, channel=9, data=[70, 0]),
   midi.NoteOnEvent(tick=235, channel=9, data=[70, 29]),
   midi.NoteOnEvent(tick=5, channel=9, data=[70, 0]),
   midi.NoteOnEvent(tick=235, channel=9, data=[44, 44]),
   midi.NoteOnEvent(tick=0, channel=9, data=[59, 57]),
   midi.NoteOnEvent(tick=0, channel=9, data=[70, 41]),
   midi.NoteOnEvent(tick=5, channel=9, data=[44, 0]),
   midi.NoteOnEvent(tick=0, channel=9, data=[59, 0]),
   midi.NoteOnEvent(tick=0, channel=9, data=[70, 0]),
   midi.NoteOnEvent(tick=235, channel=9, data=[70, 32]),
   midi.NoteOnEvent(tick=0, channel=9, data=[81, 43]),
   midi.NoteOnEvent(tick=5, channel=9, data=[70, 0]),
   midi.NoteOnEvent(tick=0, channel=9, data=[81, 0]),
   midi.NoteOnEvent(tick=235, channel=9, data=[37, 102]),
   midi.NoteOnEvent(tick=0, channel=9, data=[46, 41]),
   midi.NoteOnEvent(tick=0, channel=9, data=[59, 71]),
   midi.NoteOnEvent(tick=0, channel=9, data=[70, 41]),
   midi.NoteOnEvent(tick=5, channel=9, data=[37, 0]),
   midi.NoteOnEvent(tick=0, channel=9, data=[46, 0]),
   midi.NoteOnEvent(tick=0, channel=9, data=[59, 0]),
   midi.NoteOnEvent(tick=0, channel=9, data=[70, 0]),
   midi.NoteOnEvent(tick=235, channel=9, data=[70, 30]),
   midi.NoteOnEvent(tick=5, channel=9, data=[70, 0]),
   midi.NoteOnEvent(tick=235, channel=9, data=[44, 44]),
   midi.NoteOnEvent(tick=0, channel=9, data=[59, 65]),
   midi.NoteOnEvent(tick=0, channel=9, data=[70, 44]),
   midi.NoteOnEvent(tick=5, channel=9, data=[44, 0]),
   midi.NoteOnEvent(tick=0, channel=9, data=[59, 0]),
   midi.NoteOnEvent(tick=0, channel=9, data=[70, 0]),
   midi.NoteOnEvent(tick=235, channel=9, data=[35, 51]),
   midi.NoteOnEvent(tick=0, channel=9, data=[70, 32]),
   midi.NoteOnEvent(tick=5, channel=9, data=[35, 0]),
   midi.NoteOnEvent(tick=0, channel=9, data=[70, 0]),
   midi.NoteOnEvent(tick=235, channel=9, data=[35, 93]),
   midi.NoteOnEvent(tick=0, channel=9, data=[46, 49]),
   midi.NoteOnEvent(tick=0, channel=9, data=[59, 73]),
   midi.NoteOnEvent(tick=0, channel=9, data=[70, 41]),
   midi.NoteOnEvent(tick=5, channel=9, data=[35, 0]),
   midi.NoteOnEvent(tick=0, channel=9, data=[46, 0]),
   midi.NoteOnEvent(tick=0, channel=9, data=[59, 0]),
   midi.NoteOnEvent(tick=0, channel=9, data=[70, 0]),
   midi.NoteOnEvent(tick=235, channel=9, data=[70, 29]),
   midi.NoteOnEvent(tick=5, channel=9, data=[70, 0]),
   midi.NoteOnEvent(tick=235, channel=9, data=[44, 44]),
   midi.NoteOnEvent(tick=0, channel=9, data=[59, 41]),
   midi.NoteOnEvent(tick=0, channel=9, data=[70, 41]),
   midi.NoteOnEvent(tick=5, channel=9, data=[44, 0]),
   midi.NoteOnEvent(tick=0, channel=9, data=[59, 0]),
   midi.NoteOnEvent(tick=0, channel=9, data=[70, 0]),
   midi.NoteOnEvent(tick=235, channel=9, data=[70, 32]),
   midi.NoteOnEvent(tick=0, channel=9, data=[81, 26]),
   midi.NoteOnEvent(tick=5, channel=9, data=[70, 0]),
   midi.NoteOnEvent(tick=0, channel=9, data=[81, 0]),
   midi.NoteOnEvent(tick=235, channel=9, data=[38, 85]),
   midi.NoteOnEvent(tick=0, channel=9, data=[46, 41]),
   midi.NoteOnEvent(tick=0, channel=9, data=[54, 64]),
   midi.NoteOnEvent(tick=0, channel=9, data=[59, 66]),
   midi.NoteOnEvent(tick=0, channel=9, data=[70, 41]),
   midi.NoteOnEvent(tick=5, channel=9, data=[38, 0]),
   midi.NoteOnEvent(tick=0, channel=9, data=[46, 0]),
   midi.NoteOnEvent(tick=0, channel=9, data=[54, 0]),
   midi.NoteOnEvent(tick=0, channel=9, data=[59, 0]),
   midi.NoteOnEvent(tick=0, channel=9, data=[70, 0]),
   midi.NoteOnEvent(tick=235, channel=9, data=[70, 30]),
   midi.NoteOnEvent(tick=5, channel=9, data=[70, 0]),
   midi.NoteOnEvent(tick=235, channel=9, data=[44, 44]),
   midi.NoteOnEvent(tick=0, channel=9, data=[59, 71]),
   midi.NoteOnEvent(tick=0, channel=9, data=[70, 44]),
   midi.NoteOnEvent(tick=5, channel=9, data=[44, 0]),
   midi.NoteOnEvent(tick=0, channel=9, data=[59, 0]),
   midi.NoteOnEvent(tick=0, channel=9, data=[70, 0]),
   midi.NoteOnEvent(tick=235, channel=9, data=[70, 32]),
   midi.NoteOnEvent(tick=5, channel=9, data=[70, 0]),
   midi.NoteOnEvent(tick=235, channel=9, data=[35, 93]),
   midi.NoteOnEvent(tick=0, channel=9, data=[46, 49]),
   midi.NoteOnEvent(tick=0, channel=9, data=[51, 67]),
   midi.NoteOnEvent(tick=0, channel=9, data=[70, 41]),
   midi.NoteOnEvent(tick=5, channel=9, data=[35, 0]),
   midi.NoteOnEvent(tick=0, channel=9, data=[46, 0]),
   midi.NoteOnEvent(tick=0, channel=9, data=[51, 0]),
   midi.NoteOnEvent(tick=0, channel=9, data=[70, 0]),
   midi.NoteOnEvent(tick=235, channel=9, data=[70, 29]),
   midi.NoteOnEvent(tick=5, channel=9, data=[70, 0]),
   midi.NoteOnEvent(tick=235, channel=9, data=[44, 44]),
   midi.NoteOnEvent(tick=0, channel=9, data=[59, 57]),
   midi.NoteOnEvent(tick=0, channel=9, data=[70, 41]),
   midi.NoteOnEvent(tick=5, channel=9, data=[44, 0]),
   midi.NoteOnEvent(tick=0, channel=9, data=[59, 0]),
   midi.NoteOnEvent(tick=0, channel=9, data=[70, 0]),
   midi.NoteOnEvent(tick=235, channel=9, data=[70, 32]),
   midi.NoteOnEvent(tick=0, channel=9, data=[81, 43]),
   midi.NoteOnEvent(tick=5, channel=9, data=[70, 0]),
   midi.NoteOnEvent(tick=0, channel=9, data=[81, 0]),
   midi.NoteOnEvent(tick=235, channel=9, data=[37, 105]),
   midi.NoteOnEvent(tick=0, channel=9, data=[46, 41]),
   midi.NoteOnEvent(tick=0, channel=9, data=[59, 71]),
   midi.NoteOnEvent(tick=0, channel=9, data=[70, 41]),
   midi.NoteOnEvent(tick=5, channel=9, data=[37, 0]),
   midi.NoteOnEvent(tick=0, channel=9, data=[46, 0]),
   midi.NoteOnEvent(tick=0, channel=9, data=[59, 0]),
   midi.NoteOnEvent(tick=0, channel=9, data=[70, 0]),
   midi.NoteOnEvent(tick=235, channel=9, data=[70, 30]),
   midi.NoteOnEvent(tick=5, channel=9, data=[70, 0]),
   midi.NoteOnEvent(tick=235, channel=9, data=[44, 44]),
   midi.NoteOnEvent(tick=0, channel=9, data=[59, 65]),
   midi.NoteOnEvent(tick=0, channel=9, data=[70, 44]),
   midi.NoteOnEvent(tick=5, channel=9, data=[44, 0]),
   midi.NoteOnEvent(tick=0, channel=9, data=[59, 0]),
   midi.NoteOnEvent(tick=0, channel=9, data=[70, 0]),
   midi.NoteOnEvent(tick=235, channel=9, data=[35, 76]),
   midi.NoteOnEvent(tick=0, channel=9, data=[70, 32]),
   midi.NoteOnEvent(tick=5, channel=9, data=[35, 0]),
   midi.NoteOnEvent(tick=0, channel=9, data=[70, 0]),
   midi.NoteOnEvent(tick=235, channel=9, data=[35, 93]),
   midi.NoteOnEvent(tick=0, channel=9, data=[46, 49]),
   midi.NoteOnEvent(tick=0, channel=9, data=[59, 73]),
   midi.NoteOnEvent(tick=0, channel=9, data=[70, 41]),
   midi.NoteOnEvent(tick=5, channel=9, data=[35, 0]),
   midi.NoteOnEvent(tick=0, channel=9, data=[46, 0]),
   midi.NoteOnEvent(tick=0, channel=9, data=[59, 0]),
   midi.NoteOnEvent(tick=0, channel=9, data=[70, 0]),
   midi.NoteOnEvent(tick=235, channel=9, data=[70, 29]),
   midi.NoteOnEvent(tick=5, channel=9, data=[70, 0]),
   midi.NoteOnEvent(tick=235, channel=9, data=[44, 44]),
   midi.NoteOnEvent(tick=0, channel=9, data=[59, 41]),
   midi.NoteOnEvent(tick=0, channel=9, data=[70, 41]),
   midi.NoteOnEvent(tick=5, channel=9, data=[44, 0]),
   midi.NoteOnEvent(tick=0, channel=9, data=[59, 0]),
   midi.NoteOnEvent(tick=0, channel=9, data=[70, 0]),
   midi.NoteOnEvent(tick=235, channel=9, data=[70, 32]),
   midi.NoteOnEvent(tick=0, channel=9, data=[81, 26]),
   midi.NoteOnEvent(tick=5, channel=9, data=[70, 0]),
   midi.NoteOnEvent(tick=0, channel=9, data=[81, 0]),
   midi.NoteOnEvent(tick=235, channel=9, data=[38, 94]),
   midi.NoteOnEvent(tick=0, channel=9, data=[46, 41]),
   midi.NoteOnEvent(tick=0, channel=9, data=[54, 64]),
   midi.NoteOnEvent(tick=0, channel=9, data=[59, 66]),
   midi.NoteOnEvent(tick=0, channel=9, data=[70, 41]),
   midi.NoteOnEvent(tick=5, channel=9, data=[38, 0]),
   midi.NoteOnEvent(tick=0, channel=9, data=[46, 0]),
   midi.NoteOnEvent(tick=0, channel=9, data=[54, 0]),
   midi.NoteOnEvent(tick=0, channel=9, data=[59, 0]),
   midi.NoteOnEvent(tick=0, channel=9, data=[70, 0]),
   midi.NoteOnEvent(tick=235, channel=9, data=[70, 30]),
   midi.NoteOnEvent(tick=5, channel=9, data=[70, 0]),
   midi.NoteOnEvent(tick=235, channel=9, data=[44, 44]),
   midi.NoteOnEvent(tick=0, channel=9, data=[59, 71]),
   midi.NoteOnEvent(tick=0, channel=9, data=[70, 44]),
   midi.NoteOnEvent(tick=5, channel=9, data=[44, 0]),
   midi.NoteOnEvent(tick=0, channel=9, data=[59, 0]),
   midi.NoteOnEvent(tick=0, channel=9, data=[70, 0]),
   midi.NoteOnEvent(tick=235, channel=9, data=[70, 32]),
   midi.NoteOnEvent(tick=5, channel=9, data=[70, 0]),
   midi.NoteOnEvent(tick=235, channel=9, data=[35, 95]),
   midi.NoteOnEvent(tick=0, channel=9, data=[46, 49]),
   midi.NoteOnEvent(tick=0, channel=9, data=[59, 57]),
   midi.NoteOnEvent(tick=0, channel=9, data=[70, 41]),
   midi.NoteOnEvent(tick=5, channel=9, data=[35, 0]),
   midi.NoteOnEvent(tick=0, channel=9, data=[46, 0]),
   midi.NoteOnEvent(tick=0, channel=9, data=[59, 0]),
   midi.NoteOnEvent(tick=0, channel=9, data=[70, 0]),
   midi.NoteOnEvent(tick=235, channel=9, data=[70, 29]),
   midi.NoteOnEvent(tick=5, channel=9, data=[70, 0]),
   midi.NoteOnEvent(tick=235, channel=9, data=[44, 44]),
   midi.NoteOnEvent(tick=0, channel=9, data=[59, 57]),
   midi.NoteOnEvent(tick=0, channel=9, data=[70, 41]),
   midi.NoteOnEvent(tick=5, channel=9, data=[44, 0]),
   midi.NoteOnEvent(tick=0, channel=9, data=[59, 0]),
   midi.NoteOnEvent(tick=0, channel=9, data=[70, 0]),
   midi.NoteOnEvent(tick=235, channel=9, data=[70, 32]),
   midi.NoteOnEvent(tick=0, channel=9, data=[81, 43]),
   midi.NoteOnEvent(tick=5, channel=9, data=[70, 0]),
   midi.NoteOnEvent(tick=0, channel=9, data=[81, 0]),
   midi.NoteOnEvent(tick=235, channel=9, data=[37, 102]),
   midi.NoteOnEvent(tick=0, channel=9, data=[46, 41]),
   midi.NoteOnEvent(tick=0, channel=9, data=[59, 71]),
   midi.NoteOnEvent(tick=0, channel=9, data=[70, 41]),
   midi.NoteOnEvent(tick=5, channel=9, data=[37, 0]),
   midi.NoteOnEvent(tick=0, channel=9, data=[46, 0]),
   midi.NoteOnEvent(tick=0, channel=9, data=[59, 0]),
   midi.NoteOnEvent(tick=0, channel=9, data=[70, 0]),
   midi.NoteOnEvent(tick=235, channel=9, data=[70, 30]),
   midi.NoteOnEvent(tick=5, channel=9, data=[70, 0]),
   midi.NoteOnEvent(tick=235, channel=9, data=[44, 44]),
   midi.NoteOnEvent(tick=0, channel=9, data=[59, 65]),
   midi.NoteOnEvent(tick=0, channel=9, data=[70, 44]),
   midi.NoteOnEvent(tick=5, channel=9, data=[44, 0]),
   midi.NoteOnEvent(tick=0, channel=9, data=[59, 0]),
   midi.NoteOnEvent(tick=0, channel=9, data=[70, 0]),
   midi.NoteOnEvent(tick=235, channel=9, data=[35, 76]),
   midi.NoteOnEvent(tick=0, channel=9, data=[70, 32]),
   midi.NoteOnEvent(tick=5, channel=9, data=[35, 0]),
   midi.NoteOnEvent(tick=0, channel=9, data=[70, 0]),
   midi.NoteOnEvent(tick=235, channel=9, data=[35, 93]),
   midi.NoteOnEvent(tick=0, channel=9, data=[46, 49]),
   midi.NoteOnEvent(tick=0, channel=9, data=[59, 73]),
   midi.NoteOnEvent(tick=0, channel=9, data=[70, 41]),
   midi.NoteOnEvent(tick=5, channel=9, data=[35, 0]),
   midi.NoteOnEvent(tick=0, channel=9, data=[46, 0]),
   midi.NoteOnEvent(tick=0, channel=9, data=[59, 0]),
   midi.NoteOnEvent(tick=0, channel=9, data=[70, 0]),
   midi.NoteOnEvent(tick=235, channel=9, data=[70, 29]),
   midi.NoteOnEvent(tick=5, channel=9, data=[70, 0]),
   midi.NoteOnEvent(tick=235, channel=9, data=[44, 44]),
   midi.NoteOnEvent(tick=0, channel=9, data=[59, 41]),
   midi.NoteOnEvent(tick=0, channel=9, data=[70, 41]),
   midi.NoteOnEvent(tick=5, channel=9, data=[44, 0]),
   midi.NoteOnEvent(tick=0, channel=9, data=[59, 0]),
   midi.NoteOnEvent(tick=0, channel=9, data=[70, 0]),
   midi.NoteOnEvent(tick=235, channel=9, data=[70, 32]),
   midi.NoteOnEvent(tick=0, channel=9, data=[81, 26]),
   midi.NoteOnEvent(tick=5, channel=9, data=[70, 0]),
   midi.NoteOnEvent(tick=0, channel=9, data=[81, 0]),
   midi.NoteOnEvent(tick=235, channel=9, data=[38, 85]),
   midi.NoteOnEvent(tick=0, channel=9, data=[46, 41]),
   midi.NoteOnEvent(tick=0, channel=9, data=[54, 64]),
   midi.NoteOnEvent(tick=0, channel=9, data=[59, 66]),
   midi.NoteOnEvent(tick=0, channel=9, data=[70, 41]),
   midi.NoteOnEvent(tick=5, channel=9, data=[38, 0]),
   midi.NoteOnEvent(tick=0, channel=9, data=[46, 0]),
   midi.NoteOnEvent(tick=0, channel=9, data=[54, 0]),
   midi.NoteOnEvent(tick=0, channel=9, data=[59, 0]),
   midi.NoteOnEvent(tick=0, channel=9, data=[70, 0]),
   midi.NoteOnEvent(tick=235, channel=9, data=[70, 30]),
   midi.NoteOnEvent(tick=5, channel=9, data=[70, 0]),
   midi.NoteOnEvent(tick=235, channel=9, data=[44, 44]),
   midi.NoteOnEvent(tick=0, channel=9, data=[59, 71]),
   midi.NoteOnEvent(tick=0, channel=9, data=[70, 44]),
   midi.NoteOnEvent(tick=5, channel=9, data=[44, 0]),
   midi.NoteOnEvent(tick=0, channel=9, data=[59, 0]),
   midi.NoteOnEvent(tick=0, channel=9, data=[70, 0]),
   midi.NoteOnEvent(tick=235, channel=9, data=[70, 32]),
   midi.NoteOnEvent(tick=5, channel=9, data=[70, 0]),
   midi.NoteOnEvent(tick=235, channel=9, data=[35, 93]),
   midi.NoteOnEvent(tick=0, channel=9, data=[46, 49]),
   midi.NoteOnEvent(tick=0, channel=9, data=[59, 57]),
   midi.NoteOnEvent(tick=0, channel=9, data=[70, 41]),
   midi.NoteOnEvent(tick=5, channel=9, data=[35, 0]),
   midi.NoteOnEvent(tick=0, channel=9, data=[46, 0]),
   midi.NoteOnEvent(tick=0, channel=9, data=[59, 0]),
   midi.NoteOnEvent(tick=0, channel=9, data=[70, 0]),
   midi.NoteOnEvent(tick=235, channel=9, data=[70, 29]),
   midi.NoteOnEvent(tick=5, channel=9, data=[70, 0]),
   midi.NoteOnEvent(tick=235, channel=9, data=[44, 44]),
   midi.NoteOnEvent(tick=0, channel=9, data=[59, 57]),
   midi.NoteOnEvent(tick=0, channel=9, data=[70, 41]),
   midi.NoteOnEvent(tick=5, channel=9, data=[44, 0]),
   midi.NoteOnEvent(tick=0, channel=9, data=[59, 0]),
   midi.NoteOnEvent(tick=0, channel=9, data=[70, 0]),
   midi.NoteOnEvent(tick=235, channel=9, data=[70, 32]),
   midi.NoteOnEvent(tick=0, channel=9, data=[81, 43]),
   midi.NoteOnEvent(tick=5, channel=9, data=[70, 0]),
   midi.NoteOnEvent(tick=0, channel=9, data=[81, 0]),
   midi.NoteOnEvent(tick=235, channel=9, data=[37, 105]),
   midi.NoteOnEvent(tick=0, channel=9, data=[46, 41]),
   midi.NoteOnEvent(tick=0, channel=9, data=[59, 71]),
   midi.NoteOnEvent(tick=0, channel=9, data=[70, 41]),
   midi.NoteOnEvent(tick=5, channel=9, data=[37, 0]),
   midi.NoteOnEvent(tick=0, channel=9, data=[46, 0]),
   midi.NoteOnEvent(tick=0, channel=9, data=[59, 0]),
   midi.NoteOnEvent(tick=0, channel=9, data=[70, 0]),
   midi.NoteOnEvent(tick=235, channel=9, data=[70, 30]),
   midi.NoteOnEvent(tick=5, channel=9, data=[70, 0]),
   midi.NoteOnEvent(tick=235, channel=9, data=[44, 44]),
   midi.NoteOnEvent(tick=0, channel=9, data=[59, 65]),
   midi.NoteOnEvent(tick=0, channel=9, data=[70, 44]),
   midi.NoteOnEvent(tick=5, channel=9, data=[44, 0]),
   midi.NoteOnEvent(tick=0, channel=9, data=[59, 0]),
   midi.NoteOnEvent(tick=0, channel=9, data=[70, 0]),
   midi.NoteOnEvent(tick=235, channel=9, data=[35, 76]),
   midi.NoteOnEvent(tick=0, channel=9, data=[70, 32]),
   midi.NoteOnEvent(tick=5, channel=9, data=[35, 0]),
   midi.NoteOnEvent(tick=0, channel=9, data=[70, 0]),
   midi.NoteOnEvent(tick=235, channel=9, data=[35, 93]),
   midi.NoteOnEvent(tick=0, channel=9, data=[46, 49]),
   midi.NoteOnEvent(tick=0, channel=9, data=[59, 73]),
   midi.NoteOnEvent(tick=0, channel=9, data=[70, 41]),
   midi.NoteOnEvent(tick=5, channel=9, data=[35, 0]),
   midi.NoteOnEvent(tick=0, channel=9, data=[46, 0]),
   midi.NoteOnEvent(tick=0, channel=9, data=[59, 0]),
   midi.NoteOnEvent(tick=0, channel=9, data=[70, 0]),
   midi.NoteOnEvent(tick=235, channel=9, data=[70, 29]),
   midi.NoteOnEvent(tick=5, channel=9, data=[70, 0]),
   midi.NoteOnEvent(tick=235, channel=9, data=[44, 44]),
   midi.NoteOnEvent(tick=0, channel=9, data=[59, 41]),
   midi.NoteOnEvent(tick=0, channel=9, data=[70, 41]),
   midi.NoteOnEvent(tick=5, channel=9, data=[44, 0]),
   midi.NoteOnEvent(tick=0, channel=9, data=[59, 0]),
   midi.NoteOnEvent(tick=0, channel=9, data=[70, 0]),
   midi.NoteOnEvent(tick=235, channel=9, data=[70, 32]),
   midi.NoteOnEvent(tick=0, channel=9, data=[81, 26]),
   midi.NoteOnEvent(tick=5, channel=9, data=[70, 0]),
   midi.NoteOnEvent(tick=0, channel=9, data=[81, 0]),
   midi.NoteOnEvent(tick=235, channel=9, data=[38, 94]),
   midi.NoteOnEvent(tick=0, channel=9, data=[46, 41]),
   midi.NoteOnEvent(tick=0, channel=9, data=[54, 64]),
   midi.NoteOnEvent(tick=0, channel=9, data=[59, 66]),
   midi.NoteOnEvent(tick=0, channel=9, data=[70, 41]),
   midi.NoteOnEvent(tick=5, channel=9, data=[38, 0]),
   midi.NoteOnEvent(tick=0, channel=9, data=[46, 0]),
   midi.NoteOnEvent(tick=0, channel=9, data=[54, 0]),
   midi.NoteOnEvent(tick=0, channel=9, data=[59, 0]),
   midi.NoteOnEvent(tick=0, channel=9, data=[70, 0]),
   midi.NoteOnEvent(tick=235, channel=9, data=[43, 51]),
   midi.NoteOnEvent(tick=0, channel=9, data=[70, 30]),
   midi.NoteOnEvent(tick=5, channel=9, data=[43, 0]),
   midi.NoteOnEvent(tick=0, channel=9, data=[70, 0]),
   midi.NoteOnEvent(tick=235, channel=9, data=[43, 81]),
   midi.NoteOnEvent(tick=0, channel=9, data=[44, 44]),
   midi.NoteOnEvent(tick=0, channel=9, data=[59, 71]),
   midi.NoteOnEvent(tick=0, channel=9, data=[70, 44]),
   midi.NoteOnEvent(tick=5, channel=9, data=[43, 0]),
   midi.NoteOnEvent(tick=0, channel=9, data=[44, 0]),
   midi.NoteOnEvent(tick=0, channel=9, data=[59, 0]),
   midi.NoteOnEvent(tick=0, channel=9, data=[70, 0]),
   midi.NoteOnEvent(tick=235, channel=9, data=[70, 32]),
   midi.NoteOnEvent(tick=5, channel=9, data=[70, 0]),
   midi.NoteOnEvent(tick=235, channel=9, data=[70, 41]),
   midi.NoteOnEvent(tick=5, channel=9, data=[70, 0]),
   midi.NoteOnEvent(tick=235, channel=9, data=[70, 29]),
   midi.NoteOnEvent(tick=5, channel=9, data=[70, 0]),
   midi.NoteOnEvent(tick=235, channel=9, data=[70, 41]),
   midi.NoteOnEvent(tick=0, channel=9, data=[81, 43]),
   midi.NoteOnEvent(tick=5, channel=9, data=[70, 0]),
   midi.NoteOnEvent(tick=0, channel=9, data=[81, 0]),
   midi.NoteOnEvent(tick=235, channel=9, data=[70, 32]),
   midi.NoteOnEvent(tick=0, channel=9, data=[81, 43]),
   midi.NoteOnEvent(tick=5, channel=9, data=[70, 0]),
   midi.NoteOnEvent(tick=0, channel=9, data=[81, 0]),
   midi.NoteOnEvent(tick=235, channel=9, data=[70, 41]),
   midi.NoteOnEvent(tick=5, channel=9, data=[70, 0]),
   midi.NoteOnEvent(tick=235, channel=9, data=[70, 30]),
   midi.NoteOnEvent(tick=5, channel=9, data=[70, 0]),
   midi.NoteOnEvent(tick=235, channel=9, data=[70, 44]),
   midi.NoteOnEvent(tick=5, channel=9, data=[70, 0]),
   midi.NoteOnEvent(tick=235, channel=9, data=[70, 32]),
   midi.NoteOnEvent(tick=5, channel=9, data=[70, 0]),
   midi.NoteOnEvent(tick=235, channel=9, data=[70, 41]),
   midi.NoteOnEvent(tick=5, channel=9, data=[70, 0]),
   midi.NoteOnEvent(tick=235, channel=9, data=[70, 29]),
   midi.NoteOnEvent(tick=5, channel=9, data=[70, 0]),
   midi.NoteOnEvent(tick=235, channel=9, data=[70, 41]),
   midi.NoteOnEvent(tick=5, channel=9, data=[70, 0]),
   midi.NoteOnEvent(tick=235, channel=9, data=[70, 32]),
   midi.NoteOnEvent(tick=5, channel=9, data=[70, 0]),
   midi.NoteOnEvent(tick=235, channel=9, data=[54, 64]),
   midi.NoteOnEvent(tick=0, channel=9, data=[70, 41]),
   midi.NoteOnEvent(tick=5, channel=9, data=[54, 0]),
   midi.NoteOnEvent(tick=0, channel=9, data=[70, 0]),
   midi.NoteOnEvent(tick=235, channel=9, data=[70, 30]),
   midi.NoteOnEvent(tick=5, channel=9, data=[70, 0]),
   midi.NoteOnEvent(tick=235, channel=9, data=[70, 44]),
   midi.NoteOnEvent(tick=5, channel=9, data=[70, 0]),
   midi.NoteOnEvent(tick=235, channel=9, data=[70, 32]),
   midi.NoteOnEvent(tick=5, channel=9, data=[70, 0]),
   midi.NoteOnEvent(tick=235, channel=9, data=[70, 41]),
   midi.NoteOnEvent(tick=5, channel=9, data=[70, 0]),
   midi.NoteOnEvent(tick=235, channel=9, data=[70, 29]),
   midi.NoteOnEvent(tick=0, channel=9, data=[81, 43]),
   midi.NoteOnEvent(tick=5, channel=9, data=[70, 0]),
   midi.NoteOnEvent(tick=0, channel=9, data=[81, 0]),
   midi.NoteOnEvent(tick=235, channel=9, data=[70, 41]),
   midi.NoteOnEvent(tick=0, channel=9, data=[81, 43]),
   midi.NoteOnEvent(tick=5, channel=9, data=[70, 0]),
   midi.NoteOnEvent(tick=0, channel=9, data=[81, 0]),
   midi.NoteOnEvent(tick=235, channel=9, data=[70, 32]),
   midi.NoteOnEvent(tick=5, channel=9, data=[70, 0]),
   midi.NoteOnEvent(tick=235, channel=9, data=[70, 41]),
   midi.NoteOnEvent(tick=0, channel=9, data=[81, 43]),
   midi.NoteOnEvent(tick=5, channel=9, data=[70, 0]),
   midi.NoteOnEvent(tick=0, channel=9, data=[81, 0]),
   midi.NoteOnEvent(tick=235, channel=9, data=[70, 30]),
   midi.NoteOnEvent(tick=0, channel=9, data=[81, 43]),
   midi.NoteOnEvent(tick=5, channel=9, data=[70, 0]),
   midi.NoteOnEvent(tick=0, channel=9, data=[81, 0]),
   midi.NoteOnEvent(tick=235, channel=9, data=[70, 44]),
   midi.NoteOnEvent(tick=5, channel=9, data=[70, 0]),
   midi.NoteOnEvent(tick=235, channel=9, data=[70, 32]),
   midi.NoteOnEvent(tick=5, channel=9, data=[70, 0]),
   midi.NoteOnEvent(tick=235, channel=9, data=[70, 41]),
   midi.NoteOnEvent(tick=5, channel=9, data=[70, 0]),
   midi.NoteOnEvent(tick=235, channel=9, data=[70, 29]),
   midi.NoteOnEvent(tick=5, channel=9, data=[70, 0]),
   midi.NoteOnEvent(tick=235, channel=9, data=[70, 41]),
   midi.NoteOnEvent(tick=5, channel=9, data=[70, 0]),
   midi.NoteOnEvent(tick=235, channel=9, data=[70, 32]),
   midi.NoteOnEvent(tick=5, channel=9, data=[70, 0]),
   midi.NoteOnEvent(tick=235, channel=9, data=[54, 64]),
   midi.NoteOnEvent(tick=0, channel=9, data=[70, 41]),
   midi.NoteOnEvent(tick=5, channel=9, data=[54, 0]),
   midi.NoteOnEvent(tick=0, channel=9, data=[70, 0]),
   midi.NoteOnEvent(tick=235, channel=9, data=[70, 30]),
   midi.NoteOnEvent(tick=5, channel=9, data=[70, 0]),
   midi.NoteOnEvent(tick=235, channel=9, data=[70, 44]),
   midi.NoteOnEvent(tick=5, channel=9, data=[70, 0]),
   midi.NoteOnEvent(tick=235, channel=9, data=[70, 32]),
   midi.NoteOnEvent(tick=5, channel=9, data=[70, 0]),
   midi.NoteOnEvent(tick=235, channel=9, data=[70, 41]),
   midi.NoteOnEvent(tick=5, channel=9, data=[70, 0]),
   midi.NoteOnEvent(tick=235, channel=9, data=[70, 29]),
   midi.NoteOnEvent(tick=0, channel=9, data=[81, 43]),
   midi.NoteOnEvent(tick=5, channel=9, data=[70, 0]),
   midi.NoteOnEvent(tick=0, channel=9, data=[81, 0]),
   midi.NoteOnEvent(tick=235, channel=9, data=[70, 41]),
   midi.NoteOnEvent(tick=0, channel=9, data=[81, 43]),
   midi.NoteOnEvent(tick=5, channel=9, data=[70, 0]),
   midi.NoteOnEvent(tick=0, channel=9, data=[81, 0]),
   midi.NoteOnEvent(tick=235, channel=9, data=[70, 32]),
   midi.NoteOnEvent(tick=5, channel=9, data=[70, 0]),
   midi.NoteOnEvent(tick=235, channel=9, data=[44, 71]),
   midi.NoteOnEvent(tick=0, channel=9, data=[70, 41]),
   midi.NoteOnEvent(tick=0, channel=9, data=[81, 43]),
   midi.NoteOnEvent(tick=5, channel=9, data=[44, 0]),
   midi.NoteOnEvent(tick=0, channel=9, data=[70, 0]),
   midi.NoteOnEvent(tick=0, channel=9, data=[81, 0]),
   midi.NoteOnEvent(tick=235, channel=9, data=[70, 30]),
   midi.NoteOnEvent(tick=0, channel=9, data=[81, 43]),
   midi.NoteOnEvent(tick=5, channel=9, data=[70, 0]),
   midi.NoteOnEvent(tick=0, channel=9, data=[81, 0]),
   midi.NoteOnEvent(tick=235, channel=9, data=[70, 44]),
   midi.NoteOnEvent(tick=5, channel=9, data=[70, 0]),
   midi.NoteOnEvent(tick=235, channel=9, data=[70, 32]),
   midi.NoteOnEvent(tick=5, channel=9, data=[70, 0]),
   midi.NoteOnEvent(tick=235, channel=9, data=[70, 41]),
   midi.NoteOnEvent(tick=5, channel=9, data=[70, 0]),
   midi.NoteOnEvent(tick=235, channel=9, data=[70, 29]),
   midi.NoteOnEvent(tick=5, channel=9, data=[70, 0]),
   midi.NoteOnEvent(tick=235, channel=9, data=[70, 41]),
   midi.NoteOnEvent(tick=5, channel=9, data=[70, 0]),
   midi.NoteOnEvent(tick=235, channel=9, data=[70, 32]),
   midi.NoteOnEvent(tick=5, channel=9, data=[70, 0]),
   midi.NoteOnEvent(tick=235, channel=9, data=[54, 64]),
   midi.NoteOnEvent(tick=0, channel=9, data=[70, 41]),
   midi.NoteOnEvent(tick=5, channel=9, data=[54, 0]),
   midi.NoteOnEvent(tick=0, channel=9, data=[70, 0]),
   midi.NoteOnEvent(tick=235, channel=9, data=[70, 30]),
   midi.NoteOnEvent(tick=5, channel=9, data=[70, 0]),
   midi.NoteOnEvent(tick=235, channel=9, data=[70, 44]),
   midi.NoteOnEvent(tick=5, channel=9, data=[70, 0]),
   midi.NoteOnEvent(tick=235, channel=9, data=[70, 32]),
   midi.NoteOnEvent(tick=5, channel=9, data=[70, 0]),
   midi.NoteOnEvent(tick=235, channel=9, data=[70, 41]),
   midi.NoteOnEvent(tick=5, channel=9, data=[70, 0]),
   midi.NoteOnEvent(tick=235, channel=9, data=[70, 29]),
   midi.NoteOnEvent(tick=0, channel=9, data=[81, 43]),
   midi.NoteOnEvent(tick=5, channel=9, data=[70, 0]),
   midi.NoteOnEvent(tick=0, channel=9, data=[81, 0]),
   midi.NoteOnEvent(tick=235, channel=9, data=[70, 41]),
   midi.NoteOnEvent(tick=0, channel=9, data=[81, 43]),
   midi.NoteOnEvent(tick=5, channel=9, data=[70, 0]),
   midi.NoteOnEvent(tick=0, channel=9, data=[81, 0]),
   midi.NoteOnEvent(tick=235, channel=9, data=[70, 32]),
   midi.NoteOnEvent(tick=0, channel=9, data=[81, 43]),
   midi.NoteOnEvent(tick=5, channel=9, data=[70, 0]),
   midi.NoteOnEvent(tick=0, channel=9, data=[81, 0]),
   midi.NoteOnEvent(tick=235, channel=9, data=[44, 71]),
   midi.NoteOnEvent(tick=0, channel=9, data=[70, 41]),
   midi.NoteOnEvent(tick=5, channel=9, data=[44, 0]),
   midi.NoteOnEvent(tick=0, channel=9, data=[70, 0]),
   midi.NoteOnEvent(tick=235, channel=9, data=[70, 30]),
   midi.NoteOnEvent(tick=0, channel=9, data=[81, 43]),
   midi.NoteOnEvent(tick=5, channel=9, data=[70, 0]),
   midi.NoteOnEvent(tick=0, channel=9, data=[81, 0]),
   midi.NoteOnEvent(tick=235, channel=9, data=[70, 44]),
   midi.NoteOnEvent(tick=0, channel=9, data=[81, 43]),
   midi.NoteOnEvent(tick=5, channel=9, data=[70, 0]),
   midi.NoteOnEvent(tick=0, channel=9, data=[81, 0]),
   midi.NoteOnEvent(tick=235, channel=9, data=[70, 32]),
   midi.NoteOnEvent(tick=5, channel=9, data=[70, 0]),
   midi.NoteOnEvent(tick=233, channel=9, data=[38, 94]),
   midi.NoteOnEvent(tick=2, channel=9, data=[70, 41]),
   midi.NoteOnEvent(tick=3, channel=9, data=[38, 0]),
   midi.NoteOnEvent(tick=2, channel=9, data=[70, 0]),
   midi.NoteOnEvent(tick=235, channel=9, data=[35, 93]),
   midi.NoteOnEvent(tick=0, channel=9, data=[47, 71]),
   midi.NoteOnEvent(tick=0, channel=9, data=[70, 29]),
   midi.NoteOnEvent(tick=5, channel=9, data=[35, 0]),
   midi.NoteOnEvent(tick=0, channel=9, data=[47, 0]),
   midi.NoteOnEvent(tick=0, channel=9, data=[70, 0]),
   midi.NoteOnEvent(tick=235, channel=9, data=[70, 41]),
   midi.NoteOnEvent(tick=5, channel=9, data=[70, 0]),
   midi.NoteOnEvent(tick=235, channel=9, data=[35, 93]),
   midi.NoteOnEvent(tick=0, channel=9, data=[45, 71]),
   midi.NoteOnEvent(tick=0, channel=9, data=[70, 32]),
   midi.NoteOnEvent(tick=5, channel=9, data=[35, 0]),
   midi.NoteOnEvent(tick=0, channel=9, data=[45, 0]),
   midi.NoteOnEvent(tick=0, channel=9, data=[70, 0]),
   midi.NoteOnEvent(tick=235, channel=9, data=[35, 93]),
   midi.NoteOnEvent(tick=0, channel=9, data=[45, 71]),
   midi.NoteOnEvent(tick=0, channel=9, data=[54, 64]),
   midi.NoteOnEvent(tick=0, channel=9, data=[70, 41]),
   midi.NoteOnEvent(tick=5, channel=9, data=[35, 0]),
   midi.NoteOnEvent(tick=0, channel=9, data=[45, 0]),
   midi.NoteOnEvent(tick=0, channel=9, data=[54, 0]),
   midi.NoteOnEvent(tick=0, channel=9, data=[70, 0]),
   midi.NoteOnEvent(tick=235, channel=9, data=[38, 59]),
   midi.NoteOnEvent(tick=0, channel=9, data=[43, 71]),
   midi.NoteOnEvent(tick=0, channel=9, data=[70, 30]),
   midi.NoteOnEvent(tick=5, channel=9, data=[38, 0]),
   midi.NoteOnEvent(tick=0, channel=9, data=[43, 0]),
   midi.NoteOnEvent(tick=0, channel=9, data=[70, 0]),
   midi.NoteOnEvent(tick=75, channel=9, data=[43, 71]),
   midi.NoteOnEvent(tick=5, channel=9, data=[43, 0]),
   midi.NoteOnEvent(tick=4, channel=9, data=[38, 42]),
   midi.NoteOnEvent(tick=5, channel=9, data=[38, 0]),
   midi.NoteOnEvent(tick=55, channel=9, data=[38, 40]),
   midi.NoteOnEvent(tick=5, channel=9, data=[38, 0]),
   midi.NoteOnEvent(tick=6, channel=9, data=[43, 71]),
   midi.NoteOnEvent(tick=5, channel=9, data=[43, 0]),
   midi.NoteOnEvent(tick=75, channel=9, data=[41, 81]),
   midi.NoteOnEvent(tick=0, channel=9, data=[70, 44]),
   midi.NoteOnEvent(tick=5, channel=9, data=[38, 88]),
   midi.NoteOnEvent(tick=0, channel=9, data=[41, 0]),
   midi.NoteOnEvent(tick=0, channel=9, data=[70, 0]),
   midi.NoteOnEvent(tick=5, channel=9, data=[38, 0]),
   midi.NoteOnEvent(tick=230, channel=9, data=[70, 32]),
   midi.NoteOnEvent(tick=5, channel=9, data=[70, 0]),
   midi.NoteOnEvent(tick=235, channel=9, data=[35, 95]),
   midi.NoteOnEvent(tick=0, channel=9, data=[46, 49]),
   midi.NoteOnEvent(tick=0, channel=9, data=[57, 76]),
   midi.NoteOnEvent(tick=0, channel=9, data=[70, 41]),
   midi.NoteOnEvent(tick=5, channel=9, data=[35, 0]),
   midi.NoteOnEvent(tick=0, channel=9, data=[46, 0]),
   midi.NoteOnEvent(tick=0, channel=9, data=[57, 0]),
   midi.NoteOnEvent(tick=0, channel=9, data=[70, 0]),
   midi.NoteOnEvent(tick=235, channel=9, data=[70, 29]),
   midi.NoteOnEvent(tick=5, channel=9, data=[70, 0]),
   midi.NoteOnEvent(tick=235, channel=9, data=[44, 44]),
   midi.NoteOnEvent(tick=0, channel=9, data=[59, 57]),
   midi.NoteOnEvent(tick=0, channel=9, data=[70, 41]),
   midi.NoteOnEvent(tick=5, channel=9, data=[44, 0]),
   midi.NoteOnEvent(tick=0, channel=9, data=[59, 0]),
   midi.NoteOnEvent(tick=0, channel=9, data=[70, 0]),
   midi.NoteOnEvent(tick=235, channel=9, data=[35, 64]),
   midi.NoteOnEvent(tick=0, channel=9, data=[70, 32]),
   midi.NoteOnEvent(tick=0, channel=9, data=[81, 43]),
   midi.NoteOnEvent(tick=5, channel=9, data=[35, 0]),
   midi.NoteOnEvent(tick=0, channel=9, data=[70, 0]),
   midi.NoteOnEvent(tick=0, channel=9, data=[81, 0]),
   midi.NoteOnEvent(tick=233, channel=9, data=[38, 82]),
   midi.NoteOnEvent(tick=2, channel=9, data=[46, 41]),
   midi.NoteOnEvent(tick=0, channel=9, data=[59, 71]),
   midi.NoteOnEvent(tick=0, channel=9, data=[70, 41]),
   midi.NoteOnEvent(tick=3, channel=9, data=[38, 0]),
   midi.NoteOnEvent(tick=2, channel=9, data=[46, 0]),
   midi.NoteOnEvent(tick=0, channel=9, data=[59, 0]),
   midi.NoteOnEvent(tick=0, channel=9, data=[70, 0]),
   midi.NoteOnEvent(tick=235, channel=9, data=[70, 30]),
   midi.NoteOnEvent(tick=5, channel=9, data=[70, 0]),
   midi.NoteOnEvent(tick=235, channel=9, data=[44, 44]),
   midi.NoteOnEvent(tick=0, channel=9, data=[59, 65]),
   midi.NoteOnEvent(tick=0, channel=9, data=[70, 44]),
   midi.NoteOnEvent(tick=5, channel=9, data=[44, 0]),
   midi.NoteOnEvent(tick=0, channel=9, data=[59, 0]),
   midi.NoteOnEvent(tick=0, channel=9, data=[70, 0]),
   midi.NoteOnEvent(tick=235, channel=9, data=[35, 66]),
   midi.NoteOnEvent(tick=0, channel=9, data=[70, 32]),
   midi.NoteOnEvent(tick=5, channel=9, data=[35, 0]),
   midi.NoteOnEvent(tick=0, channel=9, data=[70, 0]),
   midi.NoteOnEvent(tick=235, channel=9, data=[35, 95]),
   midi.NoteOnEvent(tick=0, channel=9, data=[46, 49]),
   midi.NoteOnEvent(tick=0, channel=9, data=[59, 73]),
   midi.NoteOnEvent(tick=0, channel=9, data=[70, 41]),
   midi.NoteOnEvent(tick=5, channel=9, data=[35, 0]),
   midi.NoteOnEvent(tick=0, channel=9, data=[46, 0]),
   midi.NoteOnEvent(tick=0, channel=9, data=[59, 0]),
   midi.NoteOnEvent(tick=0, channel=9, data=[70, 0]),
   midi.NoteOnEvent(tick=235, channel=9, data=[70, 29]),
   midi.NoteOnEvent(tick=5, channel=9, data=[70, 0]),
   midi.NoteOnEvent(tick=235, channel=9, data=[44, 44]),
   midi.NoteOnEvent(tick=0, channel=9, data=[59, 41]),
   midi.NoteOnEvent(tick=0, channel=9, data=[70, 41]),
   midi.NoteOnEvent(tick=5, channel=9, data=[44, 0]),
   midi.NoteOnEvent(tick=0, channel=9, data=[59, 0]),
   midi.NoteOnEvent(tick=0, channel=9, data=[70, 0]),
   midi.NoteOnEvent(tick=235, channel=9, data=[35, 64]),
   midi.NoteOnEvent(tick=0, channel=9, data=[70, 32]),
   midi.NoteOnEvent(tick=0, channel=9, data=[81, 26]),
   midi.NoteOnEvent(tick=5, channel=9, data=[35, 0]),
   midi.NoteOnEvent(tick=0, channel=9, data=[70, 0]),
   midi.NoteOnEvent(tick=0, channel=9, data=[81, 0]),
   midi.NoteOnEvent(tick=235, channel=9, data=[38, 82]),
   midi.NoteOnEvent(tick=0, channel=9, data=[46, 41]),
   midi.NoteOnEvent(tick=0, channel=9, data=[54, 64]),
   midi.NoteOnEvent(tick=0, channel=9, data=[59, 66]),
   midi.NoteOnEvent(tick=0, channel=9, data=[70, 41]),
   midi.NoteOnEvent(tick=5, channel=9, data=[38, 0]),
   midi.NoteOnEvent(tick=0, channel=9, data=[46, 0]),
   midi.NoteOnEvent(tick=0, channel=9, data=[54, 0]),
   midi.NoteOnEvent(tick=0, channel=9, data=[59, 0]),
   midi.NoteOnEvent(tick=0, channel=9, data=[70, 0]),
   midi.NoteOnEvent(tick=235, channel=9, data=[70, 30]),
   midi.NoteOnEvent(tick=5, channel=9, data=[70, 0]),
   midi.NoteOnEvent(tick=235, channel=9, data=[44, 44]),
   midi.NoteOnEvent(tick=0, channel=9, data=[59, 71]),
   midi.NoteOnEvent(tick=0, channel=9, data=[70, 44]),
   midi.NoteOnEvent(tick=5, channel=9, data=[44, 0]),
   midi.NoteOnEvent(tick=0, channel=9, data=[59, 0]),
   midi.NoteOnEvent(tick=0, channel=9, data=[70, 0]),
   midi.NoteOnEvent(tick=235, channel=9, data=[35, 66]),
   midi.NoteOnEvent(tick=0, channel=9, data=[70, 32]),
   midi.NoteOnEvent(tick=5, channel=9, data=[35, 0]),
   midi.NoteOnEvent(tick=0, channel=9, data=[70, 0]),
   midi.NoteOnEvent(tick=235, channel=9, data=[35, 95]),
   midi.NoteOnEvent(tick=0, channel=9, data=[46, 49]),
   midi.NoteOnEvent(tick=0, channel=9, data=[51, 67]),
   midi.NoteOnEvent(tick=0, channel=9, data=[70, 41]),
   midi.NoteOnEvent(tick=5, channel=9, data=[35, 0]),
   midi.NoteOnEvent(tick=0, channel=9, data=[46, 0]),
   midi.NoteOnEvent(tick=0, channel=9, data=[51, 0]),
   midi.NoteOnEvent(tick=0, channel=9, data=[70, 0]),
   midi.NoteOnEvent(tick=235, channel=9, data=[70, 29]),
   midi.NoteOnEvent(tick=5, channel=9, data=[70, 0]),
   midi.NoteOnEvent(tick=235, channel=9, data=[44, 44]),
   midi.NoteOnEvent(tick=0, channel=9, data=[59, 57]),
   midi.NoteOnEvent(tick=0, channel=9, data=[70, 41]),
   midi.NoteOnEvent(tick=5, channel=9, data=[44, 0]),
   midi.NoteOnEvent(tick=0, channel=9, data=[59, 0]),
   midi.NoteOnEvent(tick=0, channel=9, data=[70, 0]),
   midi.NoteOnEvent(tick=235, channel=9, data=[35, 64]),
   midi.NoteOnEvent(tick=0, channel=9, data=[70, 32]),
   midi.NoteOnEvent(tick=0, channel=9, data=[81, 43]),
   midi.NoteOnEvent(tick=5, channel=9, data=[35, 0]),
   midi.NoteOnEvent(tick=0, channel=9, data=[70, 0]),
   midi.NoteOnEvent(tick=0, channel=9, data=[81, 0]),
   midi.NoteOnEvent(tick=233, channel=9, data=[38, 82]),
   midi.NoteOnEvent(tick=2, channel=9, data=[46, 41]),
   midi.NoteOnEvent(tick=0, channel=9, data=[59, 71]),
   midi.NoteOnEvent(tick=0, channel=9, data=[70, 41]),
   midi.NoteOnEvent(tick=3, channel=9, data=[38, 0]),
   midi.NoteOnEvent(tick=2, channel=9, data=[46, 0]),
   midi.NoteOnEvent(tick=0, channel=9, data=[59, 0]),
   midi.NoteOnEvent(tick=0, channel=9, data=[70, 0]),
   midi.NoteOnEvent(tick=235, channel=9, data=[70, 30]),
   midi.NoteOnEvent(tick=5, channel=9, data=[70, 0]),
   midi.NoteOnEvent(tick=235, channel=9, data=[44, 44]),
   midi.NoteOnEvent(tick=0, channel=9, data=[59, 65]),
   midi.NoteOnEvent(tick=0, channel=9, data=[70, 44]),
   midi.NoteOnEvent(tick=5, channel=9, data=[44, 0]),
   midi.NoteOnEvent(tick=0, channel=9, data=[59, 0]),
   midi.NoteOnEvent(tick=0, channel=9, data=[70, 0]),
   midi.NoteOnEvent(tick=235, channel=9, data=[35, 66]),
   midi.NoteOnEvent(tick=0, channel=9, data=[70, 32]),
   midi.NoteOnEvent(tick=5, channel=9, data=[35, 0]),
   midi.NoteOnEvent(tick=0, channel=9, data=[70, 0]),
   midi.NoteOnEvent(tick=235, channel=9, data=[35, 95]),
   midi.NoteOnEvent(tick=0, channel=9, data=[46, 49]),
   midi.NoteOnEvent(tick=0, channel=9, data=[59, 73]),
   midi.NoteOnEvent(tick=0, channel=9, data=[70, 41]),
   midi.NoteOnEvent(tick=5, channel=9, data=[35, 0]),
   midi.NoteOnEvent(tick=0, channel=9, data=[46, 0]),
   midi.NoteOnEvent(tick=0, channel=9, data=[59, 0]),
   midi.NoteOnEvent(tick=0, channel=9, data=[70, 0]),
   midi.NoteOnEvent(tick=235, channel=9, data=[70, 29]),
   midi.NoteOnEvent(tick=5, channel=9, data=[70, 0]),
   midi.NoteOnEvent(tick=235, channel=9, data=[44, 44]),
   midi.NoteOnEvent(tick=0, channel=9, data=[59, 41]),
   midi.NoteOnEvent(tick=0, channel=9, data=[70, 41]),
   midi.NoteOnEvent(tick=5, channel=9, data=[44, 0]),
   midi.NoteOnEvent(tick=0, channel=9, data=[59, 0]),
   midi.NoteOnEvent(tick=0, channel=9, data=[70, 0]),
   midi.NoteOnEvent(tick=235, channel=9, data=[35, 64]),
   midi.NoteOnEvent(tick=0, channel=9, data=[70, 32]),
   midi.NoteOnEvent(tick=0, channel=9, data=[81, 26]),
   midi.NoteOnEvent(tick=5, channel=9, data=[35, 0]),
   midi.NoteOnEvent(tick=0, channel=9, data=[70, 0]),
   midi.NoteOnEvent(tick=0, channel=9, data=[81, 0]),
   midi.NoteOnEvent(tick=235, channel=9, data=[38, 82]),
   midi.NoteOnEvent(tick=0, channel=9, data=[46, 41]),
   midi.NoteOnEvent(tick=0, channel=9, data=[54, 64]),
   midi.NoteOnEvent(tick=0, channel=9, data=[59, 66]),
   midi.NoteOnEvent(tick=0, channel=9, data=[70, 41]),
   midi.NoteOnEvent(tick=5, channel=9, data=[38, 0]),
   midi.NoteOnEvent(tick=0, channel=9, data=[46, 0]),
   midi.NoteOnEvent(tick=0, channel=9, data=[54, 0]),
   midi.NoteOnEvent(tick=0, channel=9, data=[59, 0]),
   midi.NoteOnEvent(tick=0, channel=9, data=[70, 0]),
   midi.NoteOnEvent(tick=235, channel=9, data=[70, 30]),
   midi.NoteOnEvent(tick=5, channel=9, data=[70, 0]),
   midi.NoteOnEvent(tick=235, channel=9, data=[44, 44]),
   midi.NoteOnEvent(tick=0, channel=9, data=[59, 71]),
   midi.NoteOnEvent(tick=0, channel=9, data=[70, 44]),
   midi.NoteOnEvent(tick=5, channel=9, data=[44, 0]),
   midi.NoteOnEvent(tick=0, channel=9, data=[59, 0]),
   midi.NoteOnEvent(tick=0, channel=9, data=[70, 0]),
   midi.NoteOnEvent(tick=235, channel=9, data=[35, 66]),
   midi.NoteOnEvent(tick=0, channel=9, data=[70, 32]),
   midi.NoteOnEvent(tick=5, channel=9, data=[35, 0]),
   midi.NoteOnEvent(tick=0, channel=9, data=[70, 0]),
   midi.NoteOnEvent(tick=235, channel=9, data=[35, 95]),
   midi.NoteOnEvent(tick=0, channel=9, data=[46, 49]),
   midi.NoteOnEvent(tick=0, channel=9, data=[59, 57]),
   midi.NoteOnEvent(tick=0, channel=9, data=[70, 41]),
   midi.NoteOnEvent(tick=5, channel=9, data=[35, 0]),
   midi.NoteOnEvent(tick=0, channel=9, data=[46, 0]),
   midi.NoteOnEvent(tick=0, channel=9, data=[59, 0]),
   midi.NoteOnEvent(tick=0, channel=9, data=[70, 0]),
   midi.NoteOnEvent(tick=235, channel=9, data=[70, 29]),
   midi.NoteOnEvent(tick=5, channel=9, data=[70, 0]),
   midi.NoteOnEvent(tick=235, channel=9, data=[44, 44]),
   midi.NoteOnEvent(tick=0, channel=9, data=[59, 57]),
   midi.NoteOnEvent(tick=0, channel=9, data=[70, 41]),
   midi.NoteOnEvent(tick=5, channel=9, data=[44, 0]),
   midi.NoteOnEvent(tick=0, channel=9, data=[59, 0]),
   midi.NoteOnEvent(tick=0, channel=9, data=[70, 0]),
   midi.NoteOnEvent(tick=235, channel=9, data=[35, 64]),
   midi.NoteOnEvent(tick=0, channel=9, data=[70, 32]),
   midi.NoteOnEvent(tick=0, channel=9, data=[81, 43]),
   midi.NoteOnEvent(tick=5, channel=9, data=[35, 0]),
   midi.NoteOnEvent(tick=0, channel=9, data=[70, 0]),
   midi.NoteOnEvent(tick=0, channel=9, data=[81, 0]),
   midi.NoteOnEvent(tick=233, channel=9, data=[38, 82]),
   midi.NoteOnEvent(tick=2, channel=9, data=[46, 41]),
   midi.NoteOnEvent(tick=0, channel=9, data=[59, 71]),
   midi.NoteOnEvent(tick=0, channel=9, data=[70, 41]),
   midi.NoteOnEvent(tick=3, channel=9, data=[38, 0]),
   midi.NoteOnEvent(tick=2, channel=9, data=[46, 0]),
   midi.NoteOnEvent(tick=0, channel=9, data=[59, 0]),
   midi.NoteOnEvent(tick=0, channel=9, data=[70, 0]),
   midi.NoteOnEvent(tick=235, channel=9, data=[70, 30]),
   midi.NoteOnEvent(tick=5, channel=9, data=[70, 0]),
   midi.NoteOnEvent(tick=235, channel=9, data=[44, 44]),
   midi.NoteOnEvent(tick=0, channel=9, data=[59, 65]),
   midi.NoteOnEvent(tick=0, channel=9, data=[70, 44]),
   midi.NoteOnEvent(tick=5, channel=9, data=[44, 0]),
   midi.NoteOnEvent(tick=0, channel=9, data=[59, 0]),
   midi.NoteOnEvent(tick=0, channel=9, data=[70, 0]),
   midi.NoteOnEvent(tick=235, channel=9, data=[35, 66]),
   midi.NoteOnEvent(tick=0, channel=9, data=[70, 32]),
   midi.NoteOnEvent(tick=5, channel=9, data=[35, 0]),
   midi.NoteOnEvent(tick=0, channel=9, data=[70, 0]),
   midi.NoteOnEvent(tick=235, channel=9, data=[35, 95]),
   midi.NoteOnEvent(tick=0, channel=9, data=[46, 49]),
   midi.NoteOnEvent(tick=0, channel=9, data=[59, 73]),
   midi.NoteOnEvent(tick=0, channel=9, data=[70, 41]),
   midi.NoteOnEvent(tick=5, channel=9, data=[35, 0]),
   midi.NoteOnEvent(tick=0, channel=9, data=[46, 0]),
   midi.NoteOnEvent(tick=0, channel=9, data=[59, 0]),
   midi.NoteOnEvent(tick=0, channel=9, data=[70, 0]),
   midi.NoteOnEvent(tick=235, channel=9, data=[70, 29]),
   midi.NoteOnEvent(tick=5, channel=9, data=[70, 0]),
   midi.NoteOnEvent(tick=235, channel=9, data=[44, 44]),
   midi.NoteOnEvent(tick=0, channel=9, data=[59, 41]),
   midi.NoteOnEvent(tick=0, channel=9, data=[70, 41]),
   midi.NoteOnEvent(tick=5, channel=9, data=[44, 0]),
   midi.NoteOnEvent(tick=0, channel=9, data=[59, 0]),
   midi.NoteOnEvent(tick=0, channel=9, data=[70, 0]),
   midi.NoteOnEvent(tick=235, channel=9, data=[35, 64]),
   midi.NoteOnEvent(tick=0, channel=9, data=[70, 32]),
   midi.NoteOnEvent(tick=0, channel=9, data=[81, 26]),
   midi.NoteOnEvent(tick=5, channel=9, data=[35, 0]),
   midi.NoteOnEvent(tick=0, channel=9, data=[70, 0]),
   midi.NoteOnEvent(tick=0, channel=9, data=[81, 0]),
   midi.NoteOnEvent(tick=235, channel=9, data=[38, 82]),
   midi.NoteOnEvent(tick=0, channel=9, data=[46, 41]),
   midi.NoteOnEvent(tick=0, channel=9, data=[54, 64]),
   midi.NoteOnEvent(tick=0, channel=9, data=[59, 66]),
   midi.NoteOnEvent(tick=0, channel=9, data=[70, 41]),
   midi.NoteOnEvent(tick=5, channel=9, data=[38, 0]),
   midi.NoteOnEvent(tick=0, channel=9, data=[46, 0]),
   midi.NoteOnEvent(tick=0, channel=9, data=[54, 0]),
   midi.NoteOnEvent(tick=0, channel=9, data=[59, 0]),
   midi.NoteOnEvent(tick=0, channel=9, data=[70, 0]),
   midi.NoteOnEvent(tick=235, channel=9, data=[70, 30]),
   midi.NoteOnEvent(tick=5, channel=9, data=[70, 0]),
   midi.NoteOnEvent(tick=235, channel=9, data=[44, 44]),
   midi.NoteOnEvent(tick=0, channel=9, data=[59, 71]),
   midi.NoteOnEvent(tick=0, channel=9, data=[70, 44]),
   midi.NoteOnEvent(tick=5, channel=9, data=[44, 0]),
   midi.NoteOnEvent(tick=0, channel=9, data=[59, 0]),
   midi.NoteOnEvent(tick=0, channel=9, data=[70, 0]),
   midi.NoteOnEvent(tick=235, channel=9, data=[35, 66]),
   midi.NoteOnEvent(tick=0, channel=9, data=[70, 32]),
   midi.NoteOnEvent(tick=5, channel=9, data=[35, 0]),
   midi.NoteOnEvent(tick=0, channel=9, data=[70, 0]),
   midi.NoteOnEvent(tick=235, channel=9, data=[35, 95]),
   midi.NoteOnEvent(tick=0, channel=9, data=[46, 49]),
   midi.NoteOnEvent(tick=0, channel=9, data=[59, 57]),
   midi.NoteOnEvent(tick=0, channel=9, data=[70, 41]),
   midi.NoteOnEvent(tick=5, channel=9, data=[35, 0]),
   midi.NoteOnEvent(tick=0, channel=9, data=[46, 0]),
   midi.NoteOnEvent(tick=0, channel=9, data=[59, 0]),
   midi.NoteOnEvent(tick=0, channel=9, data=[70, 0]),
   midi.NoteOnEvent(tick=235, channel=9, data=[70, 29]),
   midi.NoteOnEvent(tick=5, channel=9, data=[70, 0]),
   midi.NoteOnEvent(tick=235, channel=9, data=[44, 44]),
   midi.NoteOnEvent(tick=0, channel=9, data=[59, 57]),
   midi.NoteOnEvent(tick=0, channel=9, data=[70, 41]),
   midi.NoteOnEvent(tick=5, channel=9, data=[44, 0]),
   midi.NoteOnEvent(tick=0, channel=9, data=[59, 0]),
   midi.NoteOnEvent(tick=0, channel=9, data=[70, 0]),
   midi.NoteOnEvent(tick=235, channel=9, data=[35, 64]),
   midi.NoteOnEvent(tick=0, channel=9, data=[70, 32]),
   midi.NoteOnEvent(tick=0, channel=9, data=[81, 43]),
   midi.NoteOnEvent(tick=5, channel=9, data=[35, 0]),
   midi.NoteOnEvent(tick=0, channel=9, data=[70, 0]),
   midi.NoteOnEvent(tick=0, channel=9, data=[81, 0]),
   midi.NoteOnEvent(tick=233, channel=9, data=[38, 82]),
   midi.NoteOnEvent(tick=2, channel=9, data=[46, 41]),
   midi.NoteOnEvent(tick=0, channel=9, data=[59, 71]),
   midi.NoteOnEvent(tick=0, channel=9, data=[70, 41]),
   midi.NoteOnEvent(tick=3, channel=9, data=[38, 0]),
   midi.NoteOnEvent(tick=2, channel=9, data=[46, 0]),
   midi.NoteOnEvent(tick=0, channel=9, data=[59, 0]),
   midi.NoteOnEvent(tick=0, channel=9, data=[70, 0]),
   midi.NoteOnEvent(tick=235, channel=9, data=[70, 30]),
   midi.NoteOnEvent(tick=5, channel=9, data=[70, 0]),
   midi.NoteOnEvent(tick=235, channel=9, data=[44, 44]),
   midi.NoteOnEvent(tick=0, channel=9, data=[59, 65]),
   midi.NoteOnEvent(tick=0, channel=9, data=[70, 44]),
   midi.NoteOnEvent(tick=5, channel=9, data=[44, 0]),
   midi.NoteOnEvent(tick=0, channel=9, data=[59, 0]),
   midi.NoteOnEvent(tick=0, channel=9, data=[70, 0]),
   midi.NoteOnEvent(tick=235, channel=9, data=[35, 71]),
   midi.NoteOnEvent(tick=0, channel=9, data=[70, 32]),
   midi.NoteOnEvent(tick=5, channel=9, data=[35, 0]),
   midi.NoteOnEvent(tick=0, channel=9, data=[70, 0]),
   midi.NoteOnEvent(tick=235, channel=9, data=[35, 95]),
   midi.NoteOnEvent(tick=0, channel=9, data=[46, 49]),
   midi.NoteOnEvent(tick=0, channel=9, data=[59, 73]),
   midi.NoteOnEvent(tick=0, channel=9, data=[70, 41]),
   midi.NoteOnEvent(tick=5, channel=9, data=[35, 0]),
   midi.NoteOnEvent(tick=0, channel=9, data=[46, 0]),
   midi.NoteOnEvent(tick=0, channel=9, data=[59, 0]),
   midi.NoteOnEvent(tick=0, channel=9, data=[70, 0]),
   midi.NoteOnEvent(tick=235, channel=9, data=[70, 29]),
   midi.NoteOnEvent(tick=3, channel=9, data=[38, 91]),
   midi.NoteOnEvent(tick=2, channel=9, data=[70, 0]),
   midi.NoteOnEvent(tick=3, channel=9, data=[38, 0]),
   midi.NoteOnEvent(tick=5, channel=9, data=[45, 73]),
   midi.NoteOnEvent(tick=5, channel=9, data=[45, 0]),
   midi.NoteOnEvent(tick=222, channel=9, data=[44, 44]),
   midi.NoteOnEvent(tick=0, channel=9, data=[59, 41]),
   midi.NoteOnEvent(tick=0, channel=9, data=[70, 41]),
   midi.NoteOnEvent(tick=5, channel=9, data=[44, 0]),
   midi.NoteOnEvent(tick=0, channel=9, data=[59, 0]),
   midi.NoteOnEvent(tick=0, channel=9, data=[70, 0]),
   midi.NoteOnEvent(tick=235, channel=9, data=[35, 78]),
   midi.NoteOnEvent(tick=0, channel=9, data=[41, 51]),
   midi.NoteOnEvent(tick=0, channel=9, data=[70, 32]),
   midi.NoteOnEvent(tick=0, channel=9, data=[81, 26]),
   midi.NoteOnEvent(tick=5, channel=9, data=[35, 0]),
   midi.NoteOnEvent(tick=0, channel=9, data=[41, 0]),
   midi.NoteOnEvent(tick=0, channel=9, data=[70, 0]),
   midi.NoteOnEvent(tick=0, channel=9, data=[81, 0]),
   midi.NoteOnEvent(tick=235, channel=9, data=[38, 82]),
   midi.NoteOnEvent(tick=0, channel=9, data=[45, 73]),
   midi.NoteOnEvent(tick=0, channel=9, data=[46, 41]),
   midi.NoteOnEvent(tick=0, channel=9, data=[54, 64]),
   midi.NoteOnEvent(tick=0, channel=9, data=[59, 66]),
   midi.NoteOnEvent(tick=0, channel=9, data=[70, 41]),
   midi.NoteOnEvent(tick=5, channel=9, data=[38, 0]),
   midi.NoteOnEvent(tick=0, channel=9, data=[45, 0]),
   midi.NoteOnEvent(tick=0, channel=9, data=[46, 0]),
   midi.NoteOnEvent(tick=0, channel=9, data=[54, 0]),
   midi.NoteOnEvent(tick=0, channel=9, data=[59, 0]),
   midi.NoteOnEvent(tick=0, channel=9, data=[70, 0]),
   midi.NoteOnEvent(tick=235, channel=9, data=[45, 81]),
   midi.NoteOnEvent(tick=0, channel=9, data=[70, 30]),
   midi.NoteOnEvent(tick=5, channel=9, data=[45, 0]),
   midi.NoteOnEvent(tick=0, channel=9, data=[70, 0]),
   midi.NoteOnEvent(tick=115, channel=9, data=[43, 68]),
   midi.NoteOnEvent(tick=5, channel=9, data=[43, 0]),
   midi.NoteOnEvent(tick=115, channel=9, data=[43, 81]),
   midi.NoteOnEvent(tick=0, channel=9, data=[44, 44]),
   midi.NoteOnEvent(tick=0, channel=9, data=[59, 71]),
   midi.NoteOnEvent(tick=0, channel=9, data=[70, 44]),
   midi.NoteOnEvent(tick=5, channel=9, data=[43, 0]),
   midi.NoteOnEvent(tick=0, channel=9, data=[44, 0]),
   midi.NoteOnEvent(tick=0, channel=9, data=[59, 0]),
   midi.NoteOnEvent(tick=0, channel=9, data=[70, 0]),
   midi.NoteOnEvent(tick=235, channel=9, data=[35, 66]),
   midi.NoteOnEvent(tick=0, channel=9, data=[41, 78]),
   midi.NoteOnEvent(tick=0, channel=9, data=[70, 32]),
   midi.NoteOnEvent(tick=5, channel=9, data=[35, 0]),
   midi.NoteOnEvent(tick=0, channel=9, data=[41, 0]),
   midi.NoteOnEvent(tick=0, channel=9, data=[70, 0]),
   midi.NoteOnEvent(tick=235, channel=9, data=[35, 95]),
   midi.NoteOnEvent(tick=0, channel=9, data=[46, 49]),
   midi.NoteOnEvent(tick=0, channel=9, data=[57, 76]),
   midi.NoteOnEvent(tick=0, channel=9, data=[70, 41]),
   midi.NoteOnEvent(tick=5, channel=9, data=[35, 0]),
   midi.NoteOnEvent(tick=0, channel=9, data=[46, 0]),
   midi.NoteOnEvent(tick=0, channel=9, data=[57, 0]),
   midi.NoteOnEvent(tick=0, channel=9, data=[70, 0]),
   midi.NoteOnEvent(tick=235, channel=9, data=[70, 29]),
   midi.NoteOnEvent(tick=5, channel=9, data=[70, 0]),
   midi.NoteOnEvent(tick=235, channel=9, data=[44, 44]),
   midi.NoteOnEvent(tick=0, channel=9, data=[59, 57]),
   midi.NoteOnEvent(tick=0, channel=9, data=[70, 41]),
   midi.NoteOnEvent(tick=5, channel=9, data=[44, 0]),
   midi.NoteOnEvent(tick=0, channel=9, data=[59, 0]),
   midi.NoteOnEvent(tick=0, channel=9, data=[70, 0]),
   midi.NoteOnEvent(tick=235, channel=9, data=[35, 64]),
   midi.NoteOnEvent(tick=0, channel=9, data=[70, 32]),
   midi.NoteOnEvent(tick=0, channel=9, data=[81, 43]),
   midi.NoteOnEvent(tick=5, channel=9, data=[35, 0]),
   midi.NoteOnEvent(tick=0, channel=9, data=[70, 0]),
   midi.NoteOnEvent(tick=0, channel=9, data=[81, 0]),
   midi.NoteOnEvent(tick=233, channel=9, data=[38, 82]),
   midi.NoteOnEvent(tick=2, channel=9, data=[46, 41]),
   midi.NoteOnEvent(tick=0, channel=9, data=[59, 71]),
   midi.NoteOnEvent(tick=0, channel=9, data=[70, 41]),
   midi.NoteOnEvent(tick=3, channel=9, data=[38, 0]),
   midi.NoteOnEvent(tick=2, channel=9, data=[46, 0]),
   midi.NoteOnEvent(tick=0, channel=9, data=[59, 0]),
   midi.NoteOnEvent(tick=0, channel=9, data=[70, 0]),
   midi.NoteOnEvent(tick=235, channel=9, data=[70, 30]),
   midi.NoteOnEvent(tick=5, channel=9, data=[70, 0]),
   midi.NoteOnEvent(tick=235, channel=9, data=[44, 44]),
   midi.NoteOnEvent(tick=0, channel=9, data=[59, 65]),
   midi.NoteOnEvent(tick=0, channel=9, data=[70, 44]),
   midi.NoteOnEvent(tick=5, channel=9, data=[44, 0]),
   midi.NoteOnEvent(tick=0, channel=9, data=[59, 0]),
   midi.NoteOnEvent(tick=0, channel=9, data=[70, 0]),
   midi.NoteOnEvent(tick=235, channel=9, data=[35, 66]),
   midi.NoteOnEvent(tick=0, channel=9, data=[70, 32]),
   midi.NoteOnEvent(tick=5, channel=9, data=[35, 0]),
   midi.NoteOnEvent(tick=0, channel=9, data=[70, 0]),
   midi.NoteOnEvent(tick=235, channel=9, data=[35, 95]),
   midi.NoteOnEvent(tick=0, channel=9, data=[46, 49]),
   midi.NoteOnEvent(tick=0, channel=9, data=[59, 73]),
   midi.NoteOnEvent(tick=0, channel=9, data=[70, 41]),
   midi.NoteOnEvent(tick=5, channel=9, data=[35, 0]),
   midi.NoteOnEvent(tick=0, channel=9, data=[46, 0]),
   midi.NoteOnEvent(tick=0, channel=9, data=[59, 0]),
   midi.NoteOnEvent(tick=0, channel=9, data=[70, 0]),
   midi.NoteOnEvent(tick=235, channel=9, data=[70, 29]),
   midi.NoteOnEvent(tick=5, channel=9, data=[70, 0]),
   midi.NoteOnEvent(tick=235, channel=9, data=[44, 44]),
   midi.NoteOnEvent(tick=0, channel=9, data=[59, 41]),
   midi.NoteOnEvent(tick=0, channel=9, data=[70, 41]),
   midi.NoteOnEvent(tick=5, channel=9, data=[44, 0]),
   midi.NoteOnEvent(tick=0, channel=9, data=[59, 0]),
   midi.NoteOnEvent(tick=0, channel=9, data=[70, 0]),
   midi.NoteOnEvent(tick=235, channel=9, data=[35, 64]),
   midi.NoteOnEvent(tick=0, channel=9, data=[70, 32]),
   midi.NoteOnEvent(tick=0, channel=9, data=[81, 26]),
   midi.NoteOnEvent(tick=5, channel=9, data=[35, 0]),
   midi.NoteOnEvent(tick=0, channel=9, data=[70, 0]),
   midi.NoteOnEvent(tick=0, channel=9, data=[81, 0]),
   midi.NoteOnEvent(tick=235, channel=9, data=[38, 82]),
   midi.NoteOnEvent(tick=0, channel=9, data=[46, 41]),
   midi.NoteOnEvent(tick=0, channel=9, data=[54, 64]),
   midi.NoteOnEvent(tick=0, channel=9, data=[59, 66]),
   midi.NoteOnEvent(tick=0, channel=9, data=[70, 41]),
   midi.NoteOnEvent(tick=5, channel=9, data=[38, 0]),
   midi.NoteOnEvent(tick=0, channel=9, data=[46, 0]),
   midi.NoteOnEvent(tick=0, channel=9, data=[54, 0]),
   midi.NoteOnEvent(tick=0, channel=9, data=[59, 0]),
   midi.NoteOnEvent(tick=0, channel=9, data=[70, 0]),
   midi.NoteOnEvent(tick=235, channel=9, data=[70, 30]),
   midi.NoteOnEvent(tick=5, channel=9, data=[70, 0]),
   midi.NoteOnEvent(tick=235, channel=9, data=[44, 44]),
   midi.NoteOnEvent(tick=0, channel=9, data=[59, 71]),
   midi.NoteOnEvent(tick=0, channel=9, data=[70, 44]),
   midi.NoteOnEvent(tick=5, channel=9, data=[44, 0]),
   midi.NoteOnEvent(tick=0, channel=9, data=[59, 0]),
   midi.NoteOnEvent(tick=0, channel=9, data=[70, 0]),
   midi.NoteOnEvent(tick=235, channel=9, data=[35, 66]),
   midi.NoteOnEvent(tick=0, channel=9, data=[70, 32]),
   midi.NoteOnEvent(tick=5, channel=9, data=[35, 0]),
   midi.NoteOnEvent(tick=0, channel=9, data=[70, 0]),
   midi.NoteOnEvent(tick=235, channel=9, data=[35, 95]),
   midi.NoteOnEvent(tick=0, channel=9, data=[46, 49]),
   midi.NoteOnEvent(tick=0, channel=9, data=[51, 67]),
   midi.NoteOnEvent(tick=0, channel=9, data=[70, 41]),
   midi.NoteOnEvent(tick=5, channel=9, data=[35, 0]),
   midi.NoteOnEvent(tick=0, channel=9, data=[46, 0]),
   midi.NoteOnEvent(tick=0, channel=9, data=[51, 0]),
   midi.NoteOnEvent(tick=0, channel=9, data=[70, 0]),
   midi.NoteOnEvent(tick=235, channel=9, data=[70, 29]),
   midi.NoteOnEvent(tick=5, channel=9, data=[70, 0]),
   midi.NoteOnEvent(tick=235, channel=9, data=[44, 44]),
   midi.NoteOnEvent(tick=0, channel=9, data=[59, 57]),
   midi.NoteOnEvent(tick=0, channel=9, data=[70, 41]),
   midi.NoteOnEvent(tick=5, channel=9, data=[44, 0]),
   midi.NoteOnEvent(tick=0, channel=9, data=[59, 0]),
   midi.NoteOnEvent(tick=0, channel=9, data=[70, 0]),
   midi.NoteOnEvent(tick=235, channel=9, data=[35, 64]),
   midi.NoteOnEvent(tick=0, channel=9, data=[70, 32]),
   midi.NoteOnEvent(tick=0, channel=9, data=[81, 43]),
   midi.NoteOnEvent(tick=5, channel=9, data=[35, 0]),
   midi.NoteOnEvent(tick=0, channel=9, data=[70, 0]),
   midi.NoteOnEvent(tick=0, channel=9, data=[81, 0]),
   midi.NoteOnEvent(tick=233, channel=9, data=[38, 82]),
   midi.NoteOnEvent(tick=2, channel=9, data=[46, 41]),
   midi.NoteOnEvent(tick=0, channel=9, data=[59, 71]),
   midi.NoteOnEvent(tick=0, channel=9, data=[70, 41]),
   midi.NoteOnEvent(tick=3, channel=9, data=[38, 0]),
   midi.NoteOnEvent(tick=2, channel=9, data=[46, 0]),
   midi.NoteOnEvent(tick=0, channel=9, data=[59, 0]),
   midi.NoteOnEvent(tick=0, channel=9, data=[70, 0]),
   midi.NoteOnEvent(tick=235, channel=9, data=[70, 30]),
   midi.NoteOnEvent(tick=5, channel=9, data=[70, 0]),
   midi.NoteOnEvent(tick=235, channel=9, data=[44, 44]),
   midi.NoteOnEvent(tick=0, channel=9, data=[59, 65]),
   midi.NoteOnEvent(tick=0, channel=9, data=[70, 44]),
   midi.NoteOnEvent(tick=5, channel=9, data=[44, 0]),
   midi.NoteOnEvent(tick=0, channel=9, data=[59, 0]),
   midi.NoteOnEvent(tick=0, channel=9, data=[70, 0]),
   midi.NoteOnEvent(tick=235, channel=9, data=[35, 66]),
   midi.NoteOnEvent(tick=0, channel=9, data=[70, 32]),
   midi.NoteOnEvent(tick=5, channel=9, data=[35, 0]),
   midi.NoteOnEvent(tick=0, channel=9, data=[70, 0]),
   midi.NoteOnEvent(tick=235, channel=9, data=[35, 95]),
   midi.NoteOnEvent(tick=0, channel=9, data=[46, 49]),
   midi.NoteOnEvent(tick=0, channel=9, data=[59, 73]),
   midi.NoteOnEvent(tick=0, channel=9, data=[70, 41]),
   midi.NoteOnEvent(tick=5, channel=9, data=[35, 0]),
   midi.NoteOnEvent(tick=0, channel=9, data=[46, 0]),
   midi.NoteOnEvent(tick=0, channel=9, data=[59, 0]),
   midi.NoteOnEvent(tick=0, channel=9, data=[70, 0]),
   midi.NoteOnEvent(tick=235, channel=9, data=[70, 29]),
   midi.NoteOnEvent(tick=5, channel=9, data=[70, 0]),
   midi.NoteOnEvent(tick=235, channel=9, data=[44, 44]),
   midi.NoteOnEvent(tick=0, channel=9, data=[59, 41]),
   midi.NoteOnEvent(tick=0, channel=9, data=[70, 41]),
   midi.NoteOnEvent(tick=5, channel=9, data=[44, 0]),
   midi.NoteOnEvent(tick=0, channel=9, data=[59, 0]),
   midi.NoteOnEvent(tick=0, channel=9, data=[70, 0]),
   midi.NoteOnEvent(tick=235, channel=9, data=[35, 64]),
   midi.NoteOnEvent(tick=0, channel=9, data=[70, 32]),
   midi.NoteOnEvent(tick=0, channel=9, data=[81, 26]),
   midi.NoteOnEvent(tick=5, channel=9, data=[35, 0]),
   midi.NoteOnEvent(tick=0, channel=9, data=[70, 0]),
   midi.NoteOnEvent(tick=0, channel=9, data=[81, 0]),
   midi.NoteOnEvent(tick=235, channel=9, data=[38, 82]),
   midi.NoteOnEvent(tick=0, channel=9, data=[46, 41]),
   midi.NoteOnEvent(tick=0, channel=9, data=[54, 64]),
   midi.NoteOnEvent(tick=0, channel=9, data=[59, 66]),
   midi.NoteOnEvent(tick=0, channel=9, data=[70, 41]),
   midi.NoteOnEvent(tick=5, channel=9, data=[38, 0]),
   midi.NoteOnEvent(tick=0, channel=9, data=[46, 0]),
   midi.NoteOnEvent(tick=0, channel=9, data=[54, 0]),
   midi.NoteOnEvent(tick=0, channel=9, data=[59, 0]),
   midi.NoteOnEvent(tick=0, channel=9, data=[70, 0]),
   midi.NoteOnEvent(tick=235, channel=9, data=[70, 30]),
   midi.NoteOnEvent(tick=5, channel=9, data=[70, 0]),
   midi.NoteOnEvent(tick=235, channel=9, data=[44, 44]),
   midi.NoteOnEvent(tick=0, channel=9, data=[59, 71]),
   midi.NoteOnEvent(tick=0, channel=9, data=[70, 44]),
   midi.NoteOnEvent(tick=5, channel=9, data=[44, 0]),
   midi.NoteOnEvent(tick=0, channel=9, data=[59, 0]),
   midi.NoteOnEvent(tick=0, channel=9, data=[70, 0]),
   midi.NoteOnEvent(tick=235, channel=9, data=[35, 66]),
   midi.NoteOnEvent(tick=0, channel=9, data=[70, 32]),
   midi.NoteOnEvent(tick=5, channel=9, data=[35, 0]),
   midi.NoteOnEvent(tick=0, channel=9, data=[70, 0]),
   midi.NoteOnEvent(tick=235, channel=9, data=[35, 95]),
   midi.NoteOnEvent(tick=0, channel=9, data=[46, 49]),
   midi.NoteOnEvent(tick=0, channel=9, data=[59, 57]),
   midi.NoteOnEvent(tick=0, channel=9, data=[70, 41]),
   midi.NoteOnEvent(tick=5, channel=9, data=[35, 0]),
   midi.NoteOnEvent(tick=0, channel=9, data=[46, 0]),
   midi.NoteOnEvent(tick=0, channel=9, data=[59, 0]),
   midi.NoteOnEvent(tick=0, channel=9, data=[70, 0]),
   midi.NoteOnEvent(tick=235, channel=9, data=[70, 29]),
   midi.NoteOnEvent(tick=5, channel=9, data=[70, 0]),
   midi.NoteOnEvent(tick=235, channel=9, data=[44, 44]),
   midi.NoteOnEvent(tick=0, channel=9, data=[59, 57]),
   midi.NoteOnEvent(tick=0, channel=9, data=[70, 41]),
   midi.NoteOnEvent(tick=5, channel=9, data=[44, 0]),
   midi.NoteOnEvent(tick=0, channel=9, data=[59, 0]),
   midi.NoteOnEvent(tick=0, channel=9, data=[70, 0]),
   midi.NoteOnEvent(tick=235, channel=9, data=[35, 64]),
   midi.NoteOnEvent(tick=0, channel=9, data=[70, 32]),
   midi.NoteOnEvent(tick=0, channel=9, data=[81, 43]),
   midi.NoteOnEvent(tick=5, channel=9, data=[35, 0]),
   midi.NoteOnEvent(tick=0, channel=9, data=[70, 0]),
   midi.NoteOnEvent(tick=0, channel=9, data=[81, 0]),
   midi.NoteOnEvent(tick=233, channel=9, data=[38, 82]),
   midi.NoteOnEvent(tick=2, channel=9, data=[46, 41]),
   midi.NoteOnEvent(tick=0, channel=9, data=[59, 71]),
   midi.NoteOnEvent(tick=0, channel=9, data=[70, 41]),
   midi.NoteOnEvent(tick=3, channel=9, data=[38, 0]),
   midi.NoteOnEvent(tick=2, channel=9, data=[46, 0]),
   midi.NoteOnEvent(tick=0, channel=9, data=[59, 0]),
   midi.NoteOnEvent(tick=0, channel=9, data=[70, 0]),
   midi.NoteOnEvent(tick=235, channel=9, data=[70, 30]),
   midi.NoteOnEvent(tick=5, channel=9, data=[70, 0]),
   midi.NoteOnEvent(tick=235, channel=9, data=[44, 44]),
   midi.NoteOnEvent(tick=0, channel=9, data=[59, 65]),
   midi.NoteOnEvent(tick=0, channel=9, data=[70, 44]),
   midi.NoteOnEvent(tick=5, channel=9, data=[44, 0]),
   midi.NoteOnEvent(tick=0, channel=9, data=[59, 0]),
   midi.NoteOnEvent(tick=0, channel=9, data=[70, 0]),
   midi.NoteOnEvent(tick=235, channel=9, data=[35, 66]),
   midi.NoteOnEvent(tick=0, channel=9, data=[70, 32]),
   midi.NoteOnEvent(tick=5, channel=9, data=[35, 0]),
   midi.NoteOnEvent(tick=0, channel=9, data=[70, 0]),
   midi.NoteOnEvent(tick=235, channel=9, data=[35, 95]),
   midi.NoteOnEvent(tick=0, channel=9, data=[46, 49]),
   midi.NoteOnEvent(tick=0, channel=9, data=[59, 73]),
   midi.NoteOnEvent(tick=0, channel=9, data=[70, 41]),
   midi.NoteOnEvent(tick=5, channel=9, data=[35, 0]),
   midi.NoteOnEvent(tick=0, channel=9, data=[46, 0]),
   midi.NoteOnEvent(tick=0, channel=9, data=[59, 0]),
   midi.NoteOnEvent(tick=0, channel=9, data=[70, 0]),
   midi.NoteOnEvent(tick=235, channel=9, data=[70, 29]),
   midi.NoteOnEvent(tick=5, channel=9, data=[70, 0]),
   midi.NoteOnEvent(tick=235, channel=9, data=[44, 44]),
   midi.NoteOnEvent(tick=0, channel=9, data=[59, 41]),
   midi.NoteOnEvent(tick=0, channel=9, data=[70, 41]),
   midi.NoteOnEvent(tick=5, channel=9, data=[44, 0]),
   midi.NoteOnEvent(tick=0, channel=9, data=[59, 0]),
   midi.NoteOnEvent(tick=0, channel=9, data=[70, 0]),
   midi.NoteOnEvent(tick=235, channel=9, data=[35, 64]),
   midi.NoteOnEvent(tick=0, channel=9, data=[70, 32]),
   midi.NoteOnEvent(tick=0, channel=9, data=[81, 26]),
   midi.NoteOnEvent(tick=5, channel=9, data=[35, 0]),
   midi.NoteOnEvent(tick=0, channel=9, data=[70, 0]),
   midi.NoteOnEvent(tick=0, channel=9, data=[81, 0]),
   midi.NoteOnEvent(tick=235, channel=9, data=[38, 82]),
   midi.NoteOnEvent(tick=0, channel=9, data=[46, 41]),
   midi.NoteOnEvent(tick=0, channel=9, data=[54, 64]),
   midi.NoteOnEvent(tick=0, channel=9, data=[59, 66]),
   midi.NoteOnEvent(tick=0, channel=9, data=[70, 41]),
   midi.NoteOnEvent(tick=5, channel=9, data=[38, 0]),
   midi.NoteOnEvent(tick=0, channel=9, data=[46, 0]),
   midi.NoteOnEvent(tick=0, channel=9, data=[54, 0]),
   midi.NoteOnEvent(tick=0, channel=9, data=[59, 0]),
   midi.NoteOnEvent(tick=0, channel=9, data=[70, 0]),
   midi.NoteOnEvent(tick=235, channel=9, data=[70, 30]),
   midi.NoteOnEvent(tick=5, channel=9, data=[70, 0]),
   midi.NoteOnEvent(tick=235, channel=9, data=[44, 44]),
   midi.NoteOnEvent(tick=0, channel=9, data=[59, 71]),
   midi.NoteOnEvent(tick=0, channel=9, data=[70, 44]),
   midi.NoteOnEvent(tick=5, channel=9, data=[44, 0]),
   midi.NoteOnEvent(tick=0, channel=9, data=[59, 0]),
   midi.NoteOnEvent(tick=0, channel=9, data=[70, 0]),
   midi.NoteOnEvent(tick=235, channel=9, data=[35, 66]),
   midi.NoteOnEvent(tick=0, channel=9, data=[70, 32]),
   midi.NoteOnEvent(tick=5, channel=9, data=[35, 0]),
   midi.NoteOnEvent(tick=0, channel=9, data=[70, 0]),
   midi.NoteOnEvent(tick=235, channel=9, data=[35, 95]),
   midi.NoteOnEvent(tick=0, channel=9, data=[46, 49]),
   midi.NoteOnEvent(tick=0, channel=9, data=[59, 57]),
   midi.NoteOnEvent(tick=0, channel=9, data=[70, 41]),
   midi.NoteOnEvent(tick=5, channel=9, data=[35, 0]),
   midi.NoteOnEvent(tick=0, channel=9, data=[46, 0]),
   midi.NoteOnEvent(tick=0, channel=9, data=[59, 0]),
   midi.NoteOnEvent(tick=0, channel=9, data=[70, 0]),
   midi.NoteOnEvent(tick=235, channel=9, data=[70, 29]),
   midi.NoteOnEvent(tick=5, channel=9, data=[70, 0]),
   midi.NoteOnEvent(tick=235, channel=9, data=[44, 44]),
   midi.NoteOnEvent(tick=0, channel=9, data=[59, 57]),
   midi.NoteOnEvent(tick=0, channel=9, data=[70, 41]),
   midi.NoteOnEvent(tick=5, channel=9, data=[44, 0]),
   midi.NoteOnEvent(tick=0, channel=9, data=[59, 0]),
   midi.NoteOnEvent(tick=0, channel=9, data=[70, 0]),
   midi.NoteOnEvent(tick=235, channel=9, data=[35, 64]),
   midi.NoteOnEvent(tick=0, channel=9, data=[70, 32]),
   midi.NoteOnEvent(tick=0, channel=9, data=[81, 43]),
   midi.NoteOnEvent(tick=5, channel=9, data=[35, 0]),
   midi.NoteOnEvent(tick=0, channel=9, data=[70, 0]),
   midi.NoteOnEvent(tick=0, channel=9, data=[81, 0]),
   midi.NoteOnEvent(tick=233, channel=9, data=[38, 82]),
   midi.NoteOnEvent(tick=2, channel=9, data=[46, 41]),
   midi.NoteOnEvent(tick=0, channel=9, data=[59, 71]),
   midi.NoteOnEvent(tick=0, channel=9, data=[70, 41]),
   midi.NoteOnEvent(tick=3, channel=9, data=[38, 0]),
   midi.NoteOnEvent(tick=2, channel=9, data=[46, 0]),
   midi.NoteOnEvent(tick=0, channel=9, data=[59, 0]),
   midi.NoteOnEvent(tick=0, channel=9, data=[70, 0]),
   midi.NoteOnEvent(tick=235, channel=9, data=[70, 30]),
   midi.NoteOnEvent(tick=5, channel=9, data=[70, 0]),
   midi.NoteOnEvent(tick=235, channel=9, data=[44, 44]),
   midi.NoteOnEvent(tick=0, channel=9, data=[59, 65]),
   midi.NoteOnEvent(tick=0, channel=9, data=[70, 44]),
   midi.NoteOnEvent(tick=5, channel=9, data=[44, 0]),
   midi.NoteOnEvent(tick=0, channel=9, data=[59, 0]),
   midi.NoteOnEvent(tick=0, channel=9, data=[70, 0]),
   midi.NoteOnEvent(tick=235, channel=9, data=[35, 71]),
   midi.NoteOnEvent(tick=0, channel=9, data=[70, 32]),
   midi.NoteOnEvent(tick=5, channel=9, data=[35, 0]),
   midi.NoteOnEvent(tick=0, channel=9, data=[70, 0]),
   midi.NoteOnEvent(tick=235, channel=9, data=[35, 95]),
   midi.NoteOnEvent(tick=0, channel=9, data=[46, 49]),
   midi.NoteOnEvent(tick=0, channel=9, data=[59, 73]),
   midi.NoteOnEvent(tick=0, channel=9, data=[70, 41]),
   midi.NoteOnEvent(tick=5, channel=9, data=[35, 0]),
   midi.NoteOnEvent(tick=0, channel=9, data=[46, 0]),
   midi.NoteOnEvent(tick=0, channel=9, data=[59, 0]),
   midi.NoteOnEvent(tick=0, channel=9, data=[70, 0]),
   midi.NoteOnEvent(tick=235, channel=9, data=[70, 29]),
   midi.NoteOnEvent(tick=5, channel=9, data=[70, 0]),
   midi.NoteOnEvent(tick=235, channel=9, data=[44, 44]),
   midi.NoteOnEvent(tick=0, channel=9, data=[59, 41]),
   midi.NoteOnEvent(tick=0, channel=9, data=[70, 41]),
   midi.NoteOnEvent(tick=5, channel=9, data=[44, 0]),
   midi.NoteOnEvent(tick=0, channel=9, data=[59, 0]),
   midi.NoteOnEvent(tick=0, channel=9, data=[70, 0]),
   midi.NoteOnEvent(tick=235, channel=9, data=[35, 78]),
   midi.NoteOnEvent(tick=0, channel=9, data=[70, 32]),
   midi.NoteOnEvent(tick=0, channel=9, data=[81, 26]),
   midi.NoteOnEvent(tick=5, channel=9, data=[35, 0]),
   midi.NoteOnEvent(tick=0, channel=9, data=[70, 0]),
   midi.NoteOnEvent(tick=0, channel=9, data=[81, 0]),
   midi.NoteOnEvent(tick=235, channel=9, data=[38, 82]),
   midi.NoteOnEvent(tick=0, channel=9, data=[46, 41]),
   midi.NoteOnEvent(tick=0, channel=9, data=[54, 64]),
   midi.NoteOnEvent(tick=0, channel=9, data=[59, 66]),
   midi.NoteOnEvent(tick=0, channel=9, data=[70, 41]),
   midi.NoteOnEvent(tick=5, channel=9, data=[38, 0]),
   midi.NoteOnEvent(tick=0, channel=9, data=[46, 0]),
   midi.NoteOnEvent(tick=0, channel=9, data=[54, 0]),
   midi.NoteOnEvent(tick=0, channel=9, data=[59, 0]),
   midi.NoteOnEvent(tick=0, channel=9, data=[70, 0]),
   midi.NoteOnEvent(tick=235, channel=9, data=[70, 30]),
   midi.NoteOnEvent(tick=5, channel=9, data=[70, 0]),
   midi.NoteOnEvent(tick=235, channel=9, data=[43, 81]),
   midi.NoteOnEvent(tick=0, channel=9, data=[44, 44]),
   midi.NoteOnEvent(tick=0, channel=9, data=[59, 71]),
   midi.NoteOnEvent(tick=0, channel=9, data=[70, 44]),
   midi.NoteOnEvent(tick=5, channel=9, data=[43, 0]),
   midi.NoteOnEvent(tick=0, channel=9, data=[44, 0]),
   midi.NoteOnEvent(tick=0, channel=9, data=[59, 0]),
   midi.NoteOnEvent(tick=0, channel=9, data=[70, 0]),
   midi.NoteOnEvent(tick=235, channel=9, data=[70, 32]),
   midi.NoteOnEvent(tick=5, channel=9, data=[70, 0]),
   midi.NoteOnEvent(tick=235, channel=9, data=[70, 41]),
   midi.NoteOnEvent(tick=5, channel=9, data=[70, 0]),
   midi.NoteOnEvent(tick=235, channel=9, data=[70, 29]),
   midi.NoteOnEvent(tick=5, channel=9, data=[70, 0]),
   midi.NoteOnEvent(tick=235, channel=9, data=[70, 41]),
   midi.NoteOnEvent(tick=0, channel=9, data=[81, 43]),
   midi.NoteOnEvent(tick=5, channel=9, data=[70, 0]),
   midi.NoteOnEvent(tick=0, channel=9, data=[81, 0]),
   midi.NoteOnEvent(tick=235, channel=9, data=[70, 32]),
   midi.NoteOnEvent(tick=0, channel=9, data=[81, 43]),
   midi.NoteOnEvent(tick=5, channel=9, data=[70, 0]),
   midi.NoteOnEvent(tick=0, channel=9, data=[81, 0]),
   midi.NoteOnEvent(tick=235, channel=9, data=[70, 41]),
   midi.NoteOnEvent(tick=5, channel=9, data=[70, 0]),
   midi.NoteOnEvent(tick=235, channel=9, data=[70, 30]),
   midi.NoteOnEvent(tick=5, channel=9, data=[70, 0]),
   midi.NoteOnEvent(tick=235, channel=9, data=[70, 44]),
   midi.NoteOnEvent(tick=5, channel=9, data=[70, 0]),
   midi.NoteOnEvent(tick=235, channel=9, data=[70, 32]),
   midi.NoteOnEvent(tick=5, channel=9, data=[70, 0]),
   midi.NoteOnEvent(tick=235, channel=9, data=[70, 41]),
   midi.NoteOnEvent(tick=5, channel=9, data=[70, 0]),
   midi.NoteOnEvent(tick=235, channel=9, data=[70, 29]),
   midi.NoteOnEvent(tick=5, channel=9, data=[70, 0]),
   midi.NoteOnEvent(tick=235, channel=9, data=[70, 41]),
   midi.NoteOnEvent(tick=5, channel=9, data=[70, 0]),
   midi.NoteOnEvent(tick=235, channel=9, data=[70, 32]),
   midi.NoteOnEvent(tick=5, channel=9, data=[70, 0]),
   midi.NoteOnEvent(tick=235, channel=9, data=[54, 64]),
   midi.NoteOnEvent(tick=0, channel=9, data=[70, 41]),
   midi.NoteOnEvent(tick=5, channel=9, data=[54, 0]),
   midi.NoteOnEvent(tick=0, channel=9, data=[70, 0]),
   midi.NoteOnEvent(tick=235, channel=9, data=[70, 30]),
   midi.NoteOnEvent(tick=5, channel=9, data=[70, 0]),
   midi.NoteOnEvent(tick=235, channel=9, data=[70, 44]),
   midi.NoteOnEvent(tick=5, channel=9, data=[70, 0]),
   midi.NoteOnEvent(tick=235, channel=9, data=[70, 32]),
   midi.NoteOnEvent(tick=5, channel=9, data=[70, 0]),
   midi.NoteOnEvent(tick=235, channel=9, data=[70, 41]),
   midi.NoteOnEvent(tick=5, channel=9, data=[70, 0]),
   midi.NoteOnEvent(tick=235, channel=9, data=[70, 29]),
   midi.NoteOnEvent(tick=0, channel=9, data=[81, 43]),
   midi.NoteOnEvent(tick=5, channel=9, data=[70, 0]),
   midi.NoteOnEvent(tick=0, channel=9, data=[81, 0]),
   midi.NoteOnEvent(tick=235, channel=9, data=[70, 41]),
   midi.NoteOnEvent(tick=0, channel=9, data=[81, 43]),
   midi.NoteOnEvent(tick=5, channel=9, data=[70, 0]),
   midi.NoteOnEvent(tick=0, channel=9, data=[81, 0]),
   midi.NoteOnEvent(tick=235, channel=9, data=[70, 32]),
   midi.NoteOnEvent(tick=5, channel=9, data=[70, 0]),
   midi.NoteOnEvent(tick=235, channel=9, data=[70, 41]),
   midi.NoteOnEvent(tick=0, channel=9, data=[81, 43]),
   midi.NoteOnEvent(tick=5, channel=9, data=[70, 0]),
   midi.NoteOnEvent(tick=0, channel=9, data=[81, 0]),
   midi.NoteOnEvent(tick=235, channel=9, data=[70, 30]),
   midi.NoteOnEvent(tick=0, channel=9, data=[81, 43]),
   midi.NoteOnEvent(tick=5, channel=9, data=[70, 0]),
   midi.NoteOnEvent(tick=0, channel=9, data=[81, 0]),
   midi.NoteOnEvent(tick=235, channel=9, data=[70, 44]),
   midi.NoteOnEvent(tick=5, channel=9, data=[70, 0]),
   midi.NoteOnEvent(tick=235, channel=9, data=[70, 32]),
   midi.NoteOnEvent(tick=5, channel=9, data=[70, 0]),
   midi.NoteOnEvent(tick=235, channel=9, data=[70, 41]),
   midi.NoteOnEvent(tick=5, channel=9, data=[70, 0]),
   midi.NoteOnEvent(tick=235, channel=9, data=[70, 29]),
   midi.NoteOnEvent(tick=5, channel=9, data=[70, 0]),
   midi.NoteOnEvent(tick=235, channel=9, data=[70, 41]),
   midi.NoteOnEvent(tick=5, channel=9, data=[70, 0]),
   midi.NoteOnEvent(tick=235, channel=9, data=[70, 32]),
   midi.NoteOnEvent(tick=5, channel=9, data=[70, 0]),
   midi.NoteOnEvent(tick=235, channel=9, data=[54, 64]),
   midi.NoteOnEvent(tick=0, channel=9, data=[70, 41]),
   midi.NoteOnEvent(tick=5, channel=9, data=[54, 0]),
   midi.NoteOnEvent(tick=0, channel=9, data=[70, 0]),
   midi.NoteOnEvent(tick=235, channel=9, data=[70, 30]),
   midi.NoteOnEvent(tick=5, channel=9, data=[70, 0]),
   midi.NoteOnEvent(tick=235, channel=9, data=[70, 44]),
   midi.NoteOnEvent(tick=5, channel=9, data=[70, 0]),
   midi.NoteOnEvent(tick=235, channel=9, data=[70, 32]),
   midi.NoteOnEvent(tick=5, channel=9, data=[70, 0]),
   midi.NoteOnEvent(tick=235, channel=9, data=[70, 41]),
   midi.NoteOnEvent(tick=5, channel=9, data=[70, 0]),
   midi.NoteOnEvent(tick=235, channel=9, data=[70, 29]),
   midi.NoteOnEvent(tick=0, channel=9, data=[81, 43]),
   midi.NoteOnEvent(tick=5, channel=9, data=[70, 0]),
   midi.NoteOnEvent(tick=0, channel=9, data=[81, 0]),
   midi.NoteOnEvent(tick=235, channel=9, data=[70, 41]),
   midi.NoteOnEvent(tick=0, channel=9, data=[81, 43]),
   midi.NoteOnEvent(tick=5, channel=9, data=[70, 0]),
   midi.NoteOnEvent(tick=0, channel=9, data=[81, 0]),
   midi.NoteOnEvent(tick=235, channel=9, data=[70, 32]),
   midi.NoteOnEvent(tick=5, channel=9, data=[70, 0]),
   midi.NoteOnEvent(tick=235, channel=9, data=[70, 41]),
   midi.NoteOnEvent(tick=0, channel=9, data=[81, 43]),
   midi.NoteOnEvent(tick=5, channel=9, data=[70, 0]),
   midi.NoteOnEvent(tick=0, channel=9, data=[81, 0]),
   midi.NoteOnEvent(tick=235, channel=9, data=[70, 30]),
   midi.NoteOnEvent(tick=0, channel=9, data=[81, 43]),
   midi.NoteOnEvent(tick=5, channel=9, data=[70, 0]),
   midi.NoteOnEvent(tick=0, channel=9, data=[81, 0]),
   midi.NoteOnEvent(tick=235, channel=9, data=[70, 44]),
   midi.NoteOnEvent(tick=5, channel=9, data=[70, 0]),
   midi.NoteOnEvent(tick=235, channel=9, data=[70, 32]),
   midi.NoteOnEvent(tick=5, channel=9, data=[70, 0]),
   midi.NoteOnEvent(tick=235, channel=9, data=[70, 41]),
   midi.NoteOnEvent(tick=5, channel=9, data=[70, 0]),
   midi.NoteOnEvent(tick=235, channel=9, data=[70, 29]),
   midi.NoteOnEvent(tick=5, channel=9, data=[70, 0]),
   midi.NoteOnEvent(tick=235, channel=9, data=[70, 41]),
   midi.NoteOnEvent(tick=5, channel=9, data=[70, 0]),
   midi.NoteOnEvent(tick=235, channel=9, data=[70, 32]),
   midi.NoteOnEvent(tick=5, channel=9, data=[70, 0]),
   midi.NoteOnEvent(tick=235, channel=9, data=[54, 64]),
   midi.NoteOnEvent(tick=0, channel=9, data=[70, 41]),
   midi.NoteOnEvent(tick=5, channel=9, data=[54, 0]),
   midi.NoteOnEvent(tick=0, channel=9, data=[70, 0]),
   midi.NoteOnEvent(tick=235, channel=9, data=[70, 30]),
   midi.NoteOnEvent(tick=5, channel=9, data=[70, 0]),
   midi.NoteOnEvent(tick=235, channel=9, data=[70, 44]),
   midi.NoteOnEvent(tick=5, channel=9, data=[70, 0]),
   midi.NoteOnEvent(tick=235, channel=9, data=[70, 32]),
   midi.NoteOnEvent(tick=5, channel=9, data=[70, 0]),
   midi.NoteOnEvent(tick=235, channel=9, data=[70, 41]),
   midi.NoteOnEvent(tick=5, channel=9, data=[70, 0]),
   midi.NoteOnEvent(tick=235, channel=9, data=[70, 29]),
   midi.NoteOnEvent(tick=5, channel=9, data=[70, 0]),
   midi.NoteOnEvent(tick=235, channel=9, data=[70, 35]),
   midi.NoteOnEvent(tick=0, channel=9, data=[81, 25]),
   midi.NoteOnEvent(tick=5, channel=9, data=[70, 0]),
   midi.NoteOnEvent(tick=0, channel=9, data=[81, 0]),
   midi.NoteOnEvent(tick=235, channel=9, data=[70, 35]),
   midi.NoteOnEvent(tick=0, channel=9, data=[81, 25]),
   midi.NoteOnEvent(tick=5, channel=9, data=[70, 0]),
   midi.NoteOnEvent(tick=0, channel=9, data=[81, 0]),
   midi.NoteOnEvent(tick=235, channel=9, data=[70, 27]),
   midi.NoteOnEvent(tick=5, channel=9, data=[70, 0]),
   midi.NoteOnEvent(tick=235, channel=9, data=[70, 23]),
   midi.NoteOnEvent(tick=5, channel=9, data=[70, 0]),
   midi.NoteOnEvent(tick=235, channel=9, data=[70, 18]),
   midi.NoteOnEvent(tick=5, channel=9, data=[70, 0]),
   midi.NoteOnEvent(tick=235, channel=9, data=[70, 18]),
   midi.NoteOnEvent(tick=5, channel=9, data=[70, 0]),
   midi.EndOfTrackEvent(tick=235, data=[])])])
